<?xml version="1.0" encoding="utf-8"?>
<!-- Generator: Adobe Illustrator 26.0.1, SVG Export Plug-In . SVG Version: 6.00 Build 0)  -->
<svg version="1.1" id="Logo-Terres-des-Confluences"
	 xmlns="http://www.w3.org/2000/svg" xmlns:xlink="http://www.w3.org/1999/xlink" x="0px" y="0px" viewBox="0 0 327.9 142.6"
	 style="enable-background:new 0 0 327.9 142.6;" xml:space="preserve">
<g>
	<g>
		<g>
			<g>
				<path d="M41.4,100l3.4,3.1c-4.2,3.8-8.6,5.7-13.3,5.7c-5,0-9.2-1.8-12.8-5.3c-3.5-3.5-5.3-7.8-5.3-12.8c0-5,1.8-9.2,5.3-12.8
					c3.5-3.5,7.8-5.3,12.8-5.3c4.7,0,9.1,1.9,13.3,5.7l-3.4,3.1c-3.1-2.8-6.4-4.2-9.8-4.2c-3.7,0-6.9,1.3-9.5,3.9
					c-2.6,2.6-3.9,5.8-3.9,9.5c0,3.7,1.3,6.9,3.9,9.5c2.6,2.6,5.8,3.9,9.5,3.9C34.9,104.1,38.2,102.8,41.4,100z"/>
				<path d="M68.5,86.8c2.5,2.5,3.8,5.5,3.8,9.1c0,3.5-1.2,6.6-3.8,9.1c-2.5,2.5-5.5,3.8-9.1,3.8c-3.5,0-6.6-1.2-9.1-3.8
					c-2.5-2.5-3.8-5.5-3.8-9.1c0-3.5,1.3-6.6,3.8-9.1c2.5-2.5,5.5-3.8,9.1-3.8C63,83,66,84.3,68.5,86.8z M59.5,86.3
					c-2.6,0-4.9,0.9-6.7,2.8c-1.9,1.9-2.8,4.1-2.8,6.8c0,2.6,0.9,4.9,2.8,6.8c1.9,1.9,4.1,2.8,6.7,2.8c2.6,0,4.9-0.9,6.8-2.8
					c1.9-1.9,2.8-4.1,2.8-6.8c0-2.6-0.9-4.9-2.8-6.8C64.4,87.2,62.1,86.3,59.5,86.3z"/>
				<path d="M76.3,83.3h3l10.3,17.9V83.3h3.3v25H90L79.5,90.3v18.1h-3.2V83.3z"/>
				<path d="M109.5,83.3v3.2h-8.8v7.6h8.8v3.2h-8.8v10.9h-3.2v-25H109.5z"/>
				<path d="M113.9,108.4v-25h3.2v21.8h8.9v3.3H113.9z"/>
				<path d="M143,83.3h3.3V101c-0.3,2-1.1,3.7-2.5,5.1c-1.7,1.7-3.7,2.5-6,2.5c-2.3,0-4.4-0.8-6-2.5c-1.7-1.7-2.5-3.7-2.5-6V83.3
					h3.3v16.7c0,1.4,0.5,2.7,1.5,3.7c1,1,2.3,1.5,3.7,1.5c1.5,0,2.7-0.5,3.7-1.5c1-1,1.5-2.3,1.5-3.7V83.3z"/>
				<path d="M164.4,83.3v3.2h-10.2v7.6h10.2v3.2h-10.2v7.6h10.2v3.3h-13.5v-25H164.4z"/>
				<path d="M168.7,83.3h3l10.3,17.9V83.3h3.3v25h-2.8L172,90.3v18.1h-3.2V83.3z"/>
				<path d="M209.3,102.4l2.4,2.2c-3,2.7-6.1,4.1-9.4,4.1c-3.5,0-6.5-1.2-9-3.7c-2.5-2.5-3.7-5.5-3.7-9c0-3.5,1.2-6.5,3.7-9
					c2.5-2.5,5.5-3.8,9-3.8c3.3,0,6.4,1.4,9.4,4.1l-2.4,2.2c-2.2-2-4.6-3-7-3c-2.6,0-4.9,0.9-6.7,2.8c-1.9,1.9-2.8,4.1-2.8,6.7
					c0,2.6,0.9,4.9,2.8,6.7c1.9,1.9,4.1,2.8,6.7,2.8C204.8,105.4,207.1,104.4,209.3,102.4z"/>
				<path d="M229.1,83.3v3.2h-10.2v7.6h10.2v3.2h-10.2v7.6h10.2v3.3h-13.5v-25H229.1z"/>
				<path d="M239.8,95.5c-1.8-0.6-3.2-1.4-4.3-2.5c-1.1-1.1-1.7-2.5-1.7-4.1c0-1.6,0.6-3,1.7-4.1c1.1-1.1,2.5-1.7,4.2-1.7
					c1.6,0,3,0.6,4.1,1.7c0.6,0.6,1.2,1.6,1.6,3l-2.9,1.2c-0.4-1-0.7-1.6-1-1.9c-0.5-0.5-1.1-0.8-1.8-0.8c-0.7,0-1.3,0.3-1.9,0.8
					c-0.5,0.5-0.8,1.1-0.8,1.9c0,0.7,0.3,1.4,0.8,1.9c0.6,0.6,1.4,1.1,2.4,1.5c2,0.6,3.6,1.6,5,3c1.5,1.5,2.3,3.3,2.3,5.5
					c0,2.2-0.8,4-2.3,5.5c-1.5,1.5-3.4,2.3-5.5,2.3c-2.2,0-4-0.8-5.5-2.3c-1.2-1.2-2-2.9-2.3-5.1l3.1-1.1c0.2,1.8,0.7,3.2,1.5,3.9
					c0.9,0.9,2,1.3,3.2,1.3s2.3-0.4,3.2-1.3c0.9-0.9,1.3-2,1.3-3.3c0-1.3-0.4-2.3-1.3-3.2C242.1,96.7,241,96,239.8,95.5z"/>
				<path d="M82.3,52.5v3.2H72.1v7.6h10.2v3.2H72.1v7.6h10.2v3.3H68.9v-25H82.3z"/>
				<path d="M92.8,69.5h-3v8h-3.2v-25h7.1c2,0.3,3.7,1.1,5.1,2.5c1.7,1.7,2.5,3.7,2.5,6c0,2.4-0.8,4.4-2.5,6c-1.1,1.1-2,1.8-2.6,1.9
					l5.6,8.6h-3.9L92.8,69.5z M89.9,55.8v10.5h3c1.4,0,2.7-0.5,3.7-1.5c1-1,1.5-2.3,1.5-3.7c0-1.4-0.5-2.7-1.5-3.7
					c-1-1-2.3-1.5-3.7-1.5H89.9z"/>
				<path d="M111.2,69.5h-3v8H105v-25h7.1c2,0.3,3.7,1.1,5.1,2.5c1.7,1.7,2.5,3.7,2.5,6c0,2.4-0.8,4.4-2.5,6c-1.1,1.1-2,1.8-2.6,1.9
					l5.6,8.6h-3.9L111.2,69.5z M108.2,55.8v10.5h3c1.4,0,2.7-0.5,3.7-1.5c1-1,1.5-2.3,1.5-3.7c0-1.4-0.5-2.7-1.5-3.7
					c-1-1-2.3-1.5-3.7-1.5H108.2z"/>
				<path d="M136.8,52.5v3.2h-10.2v7.6h10.2v3.2h-10.2v7.6h10.2v3.3h-13.5v-25H136.8z"/>
				<path d="M147.4,64.7c-1.8-0.6-3.2-1.4-4.3-2.5c-1.1-1.1-1.7-2.5-1.7-4.1c0-1.6,0.6-3,1.7-4.1c1.1-1.1,2.5-1.7,4.2-1.7
					c1.6,0,3,0.6,4.1,1.7c0.6,0.6,1.2,1.6,1.6,3l-2.9,1.2c-0.4-1-0.7-1.6-1-1.9c-0.5-0.5-1.1-0.8-1.8-0.8c-0.7,0-1.4,0.3-1.9,0.8
					c-0.5,0.5-0.8,1.1-0.8,1.9c0,0.7,0.3,1.4,0.8,1.9c0.6,0.6,1.4,1.1,2.4,1.5c2,0.6,3.6,1.6,5,3c1.5,1.5,2.3,3.3,2.3,5.5
					c0,2.2-0.8,4-2.3,5.5c-1.5,1.5-3.4,2.3-5.5,2.3c-2.2,0-4-0.8-5.5-2.3c-1.2-1.2-2-2.9-2.3-5.1l3.1-1.1c0.2,1.8,0.7,3.2,1.5,3.9
					c0.9,0.9,2,1.3,3.2,1.3c1.3,0,2.3-0.4,3.2-1.3s1.3-2,1.3-3.3c0-1.3-0.4-2.3-1.3-3.2C149.7,65.9,148.7,65.2,147.4,64.7z"/>
				<g>
					<g>
						<path d="M17.6,127.9c-0.9,0-1.6-0.3-2.2-0.9c-0.6-0.6-0.9-1.3-0.9-2.2s0.3-1.6,0.9-2.2c0.6-0.6,1.3-0.9,2.2-0.9
							c0.8,0,1.4,0.2,1.8,0.5v0.7l-0.4-0.2l-0.4-0.2c-0.4-0.1-0.7-0.2-1-0.2c-0.7,0-1.3,0.2-1.8,0.7c-0.5,0.5-0.7,1.1-0.7,1.8
							c0,0.7,0.2,1.3,0.7,1.8c0.5,0.5,1.1,0.7,1.8,0.7c0.7,0,1.3-0.2,1.8-0.7v0.7C18.8,127.7,18.2,127.9,17.6,127.9z"/>
						<path d="M30,127c-0.6,0.6-1.3,0.9-2.2,0.9c-0.9,0-1.6-0.3-2.2-0.9c-0.6-0.6-0.9-1.3-0.9-2.2c0-0.8,0.3-1.6,0.9-2.2
							c0.6-0.6,1.3-0.9,2.2-0.9c0.8,0,1.6,0.3,2.2,0.9c0.6,0.6,0.9,1.3,0.9,2.2C30.8,125.7,30.5,126.4,30,127z M29.5,123
							c-0.5-0.5-1.1-0.7-1.8-0.7c-0.7,0-1.2,0.2-1.7,0.7c-0.5,0.5-0.7,1.1-0.7,1.7c0,0.7,0.2,1.3,0.7,1.7c0.5,0.5,1.1,0.7,1.7,0.7
							c0.7,0,1.3-0.2,1.7-0.7c0.5-0.5,0.7-1.1,0.7-1.8C30.3,124.1,30,123.5,29.5,123z"/>
						<path d="M43.1,127.7v-4.1c0-0.4-0.1-0.7-0.4-0.9c-0.2-0.3-0.6-0.4-1-0.4c-0.9,0-1.4,0.4-1.4,1.3v4.1h-0.6v-4.1
							c0-0.4-0.1-0.7-0.4-1c-0.3-0.3-0.6-0.4-1-0.4c-0.4,0-0.7,0.1-1,0.4c-0.3,0.2-0.4,0.6-0.4,1v4.1h-0.6v-5.9H37v0.6
							c0.3-0.4,0.7-0.7,1.4-0.7c0.8,0,1.3,0.3,1.7,0.9c0.3-0.6,0.9-0.9,1.7-0.9c0.6,0,1.1,0.2,1.4,0.5c0.4,0.3,0.5,0.8,0.5,1.4v4.1
							H43.1z"/>
						<path d="M56.5,127.7v-4.1c0-0.4-0.1-0.7-0.4-0.9c-0.2-0.3-0.6-0.4-1-0.4c-0.9,0-1.4,0.4-1.4,1.3v4.1h-0.6v-4.1
							c0-0.4-0.1-0.7-0.4-1c-0.3-0.3-0.6-0.4-1-0.4c-0.4,0-0.7,0.1-1,0.4c-0.3,0.2-0.4,0.6-0.4,1v4.1h-0.6v-5.9h0.6v0.6
							c0.3-0.4,0.7-0.7,1.4-0.7c0.8,0,1.3,0.3,1.7,0.9c0.3-0.6,0.9-0.9,1.7-0.9c0.6,0,1.1,0.2,1.4,0.5c0.4,0.3,0.5,0.8,0.5,1.4v4.1
							H56.5z"/>
						<path d="M66.8,127.2c-0.4,0.4-0.9,0.6-1.6,0.6c-0.7,0-1.2-0.2-1.6-0.6c-0.4-0.4-0.6-1-0.6-1.7v-3.7h0.6v3.7
							c0,0.6,0.1,1,0.4,1.3c0.3,0.3,0.7,0.5,1.2,0.5c1.1,0,1.6-0.6,1.6-1.8v-3.7h0.6v3.7C67.4,126.3,67.2,126.8,66.8,127.2z"/>
						<path d="M77.3,127.7v-3.5c0-1.2-0.6-1.9-1.7-1.9c-0.6,0-1,0.2-1.3,0.5c-0.3,0.3-0.4,0.8-0.4,1.3v3.6h-0.6v-5.9h0.6v0.7
							c0.3-0.5,0.8-0.8,1.7-0.8c0.7,0,1.3,0.2,1.7,0.6c0.4,0.4,0.6,1,0.6,1.8v3.6H77.3z"/>
						<path d="M88.9,127.7v-1c-0.6,0.7-1.4,1.1-2.4,1.1c-0.9,0-1.6-0.3-2.2-0.9c-0.6-0.6-0.9-1.3-0.9-2.2c0-0.9,0.3-1.6,0.9-2.2
							c0.6-0.6,1.3-0.9,2.2-0.9c0.9,0,1.7,0.4,2.4,1.1v-1h0.6v5.9H88.9z M88.2,123.1c-0.5-0.5-1.1-0.7-1.7-0.7
							c-0.7,0-1.3,0.2-1.7,0.7c-0.5,0.5-0.7,1.1-0.7,1.8c0,0.7,0.2,1.3,0.7,1.7c0.5,0.5,1.1,0.7,1.7,0.7c0.7,0,1.3-0.2,1.7-0.7
							c0.5-0.5,0.7-1.1,0.7-1.8C89,124.1,88.7,123.5,88.2,123.1z"/>
						<path d="M99.1,127.2c-0.4,0.4-0.9,0.6-1.6,0.6c-0.7,0-1.2-0.2-1.6-0.6c-0.4-0.4-0.6-1-0.6-1.7v-3.7h0.6v3.7
							c0,0.6,0.1,1,0.4,1.3c0.3,0.3,0.7,0.5,1.2,0.5c1.1,0,1.6-0.6,1.6-1.8v-3.7h0.6v3.7C99.7,126.3,99.5,126.8,99.1,127.2z"/>
						<path d="M106.5,122.4v5.3h-0.6v-5.3h-0.8v-0.6h0.8v-2.6h0.6v2.6h1.4v0.6H106.5z"/>
						<path d="M113.4,124.7c0,0.8,0.2,1.4,0.6,1.9c0.4,0.5,1.1,0.7,1.8,0.7c0.4,0,0.8-0.1,1.1-0.2c0.4-0.2,0.8-0.5,1.1-1l0.5,0.2
							c-0.4,0.7-0.9,1.2-1.7,1.4c-0.3,0.1-0.6,0.1-1,0.1c-0.9,0-1.6-0.3-2.2-0.9c-0.6-0.6-0.9-1.3-0.9-2.2c0-0.9,0.3-1.6,0.9-2.2
							c0.6-0.6,1.3-0.9,2.2-0.9c0.9,0,1.6,0.3,2.2,0.8c0.6,0.5,0.9,1.2,0.9,2.1H113.4z M117.4,122.8c-0.4-0.3-1-0.5-1.5-0.5
							c-1.2,0-2,0.6-2.4,1.8h4.8C118.2,123.6,117.9,123.1,117.4,122.8z M115.6,121l-0.3-0.3l1.9-1.9l0.3,0.3L115.6,121z"/>
						<path d="M137.3,127.7v-1.1c-0.6,0.8-1.4,1.2-2.4,1.2c-0.9,0-1.6-0.3-2.2-0.9c-0.6-0.6-0.9-1.3-0.9-2.2c0-0.9,0.3-1.6,0.9-2.2
							c0.6-0.6,1.3-0.9,2.2-0.9c0.9,0,1.7,0.4,2.4,1.2v-5.7h0.6v10.6H137.3z M136.7,123.1c-0.5-0.5-1.1-0.7-1.7-0.7
							c-0.7,0-1.3,0.2-1.7,0.7c-0.5,0.5-0.7,1.1-0.7,1.8c0,0.7,0.2,1.3,0.7,1.7c0.5,0.5,1.1,0.7,1.7,0.7c0.7,0,1.3-0.2,1.7-0.7
							c0.5-0.5,0.7-1.1,0.7-1.8C137.4,124.1,137.1,123.5,136.7,123.1z"/>
						<path d="M143.9,124.7c0,0.8,0.2,1.4,0.6,1.9c0.4,0.5,1.1,0.7,1.8,0.7c0.4,0,0.8-0.1,1.1-0.2c0.4-0.2,0.8-0.5,1.1-1l0.5,0.2
							c-0.4,0.7-0.9,1.2-1.7,1.4c-0.3,0.1-0.6,0.1-1,0.1c-0.9,0-1.6-0.3-2.2-0.9c-0.6-0.6-0.9-1.3-0.9-2.2c0-0.9,0.3-1.6,0.9-2.2
							c0.6-0.6,1.3-0.9,2.2-0.9c0.9,0,1.6,0.3,2.2,0.8c0.6,0.5,0.9,1.2,0.9,2.1H143.9z M147.9,122.8c-0.4-0.3-1-0.5-1.5-0.5
							c-1.2,0-2,0.6-2.4,1.8h4.8C148.7,123.6,148.4,123.1,147.9,122.8z"/>
						<path d="M165.5,127.9c-0.9,0-1.6-0.3-2.2-0.9c-0.6-0.6-0.9-1.3-0.9-2.2s0.3-1.6,0.9-2.2c0.6-0.6,1.3-0.9,2.2-0.9
							c0.8,0,1.4,0.2,1.8,0.5v0.7l-0.4-0.2l-0.4-0.2c-0.4-0.1-0.7-0.2-1-0.2c-0.7,0-1.3,0.2-1.8,0.7c-0.5,0.5-0.7,1.1-0.7,1.8
							c0,0.7,0.2,1.3,0.7,1.8c0.5,0.5,1.1,0.7,1.8,0.7c0.7,0,1.3-0.2,1.8-0.7v0.7C166.7,127.7,166.1,127.9,165.5,127.9z"/>
						<path d="M177.9,127c-0.6,0.6-1.3,0.9-2.2,0.9c-0.9,0-1.6-0.3-2.2-0.9c-0.6-0.6-0.9-1.3-0.9-2.2c0-0.8,0.3-1.6,0.9-2.2
							c0.6-0.6,1.3-0.9,2.2-0.9c0.8,0,1.6,0.3,2.2,0.9c0.6,0.6,0.9,1.3,0.9,2.2C178.7,125.7,178.4,126.4,177.9,127z M177.4,123
							c-0.5-0.5-1.1-0.7-1.8-0.7c-0.7,0-1.2,0.2-1.7,0.7c-0.5,0.5-0.7,1.1-0.7,1.7c0,0.7,0.2,1.3,0.7,1.7c0.5,0.5,1.1,0.7,1.7,0.7
							c0.7,0,1.3-0.2,1.7-0.7c0.5-0.5,0.7-1.1,0.7-1.8C178.2,124.1,177.9,123.5,177.4,123z"/>
						<path d="M191,127.7v-4.1c0-0.4-0.1-0.7-0.4-0.9c-0.2-0.3-0.6-0.4-1-0.4c-0.9,0-1.4,0.4-1.4,1.3v4.1h-0.6v-4.1
							c0-0.4-0.1-0.7-0.4-1c-0.3-0.3-0.6-0.4-1-0.4c-0.4,0-0.7,0.1-1,0.4c-0.3,0.2-0.4,0.6-0.4,1v4.1h-0.6v-5.9h0.6v0.6
							c0.3-0.4,0.7-0.7,1.4-0.7c0.8,0,1.3,0.3,1.7,0.9c0.3-0.6,0.9-0.9,1.7-0.9c0.6,0,1.1,0.2,1.4,0.5c0.4,0.3,0.5,0.8,0.5,1.4v4.1
							H191z"/>
						<path d="M204.4,127.7v-4.1c0-0.4-0.1-0.7-0.4-0.9c-0.2-0.3-0.6-0.4-1-0.4c-0.9,0-1.4,0.4-1.4,1.3v4.1H201v-4.1
							c0-0.4-0.1-0.7-0.4-1c-0.3-0.3-0.6-0.4-1-0.4c-0.4,0-0.7,0.1-1,0.4c-0.3,0.2-0.4,0.6-0.4,1v4.1h-0.6v-5.9h0.6v0.6
							c0.3-0.4,0.7-0.7,1.4-0.7c0.8,0,1.3,0.3,1.7,0.9c0.3-0.6,0.9-0.9,1.7-0.9c0.6,0,1.1,0.2,1.4,0.5c0.4,0.3,0.5,0.8,0.5,1.4v4.1
							H204.4z"/>
						<path d="M214.7,127.2c-0.4,0.4-0.9,0.6-1.6,0.6c-0.7,0-1.2-0.2-1.6-0.6c-0.4-0.4-0.6-1-0.6-1.7v-3.7h0.6v3.7
							c0,0.6,0.1,1,0.4,1.3c0.3,0.3,0.7,0.5,1.2,0.5c1.1,0,1.6-0.6,1.6-1.8v-3.7h0.6v3.7C215.3,126.3,215.1,126.8,214.7,127.2z"/>
						<path d="M225.2,127.7v-3.5c0-1.2-0.6-1.9-1.7-1.9c-0.6,0-1,0.2-1.3,0.5c-0.3,0.3-0.4,0.8-0.4,1.3v3.6h-0.6v-5.9h0.6v0.7
							c0.3-0.5,0.8-0.8,1.7-0.8c0.7,0,1.3,0.2,1.7,0.6c0.4,0.4,0.6,1,0.6,1.8v3.6H225.2z"/>
						<path d="M231.9,124.7c0,0.8,0.2,1.4,0.6,1.9c0.4,0.5,1.1,0.7,1.8,0.7c0.4,0,0.8-0.1,1.1-0.2c0.4-0.2,0.8-0.5,1.1-1l0.5,0.2
							c-0.4,0.7-0.9,1.2-1.7,1.4c-0.3,0.1-0.6,0.1-1,0.1c-0.9,0-1.6-0.3-2.2-0.9c-0.6-0.6-0.9-1.3-0.9-2.2c0-0.9,0.3-1.6,0.9-2.2
							c0.6-0.6,1.3-0.9,2.2-0.9c0.9,0,1.6,0.3,2.2,0.8c0.6,0.5,0.9,1.2,0.9,2.1H231.9z M235.9,122.8c-0.4-0.3-1-0.5-1.5-0.5
							c-1.2,0-2,0.6-2.4,1.8h4.8C236.7,123.6,236.4,123.1,235.9,122.8z"/>
						<path d="M245.8,127.4c-0.4,0.3-0.8,0.5-1.4,0.5c-0.9,0-1.6-0.4-2.1-1.2l0.5-0.3c0.2,0.3,0.4,0.5,0.6,0.7
							c0.2,0.2,0.6,0.3,1,0.3c0.9,0,1.3-0.4,1.3-1.1c0-0.3-0.2-0.6-0.5-0.9c-0.1-0.1-0.2-0.1-0.4-0.2c-0.2-0.1-0.4-0.2-0.6-0.2
							c-0.5-0.2-0.8-0.3-1-0.5c-0.3-0.2-0.5-0.6-0.5-1.1c0-0.4,0.2-0.7,0.5-1c0.3-0.3,0.7-0.4,1.2-0.4c0.7,0,1.2,0.2,1.7,0.7
							l-0.4,0.4c-0.3-0.3-0.7-0.5-1.2-0.5c-0.7,0-1,0.3-1,0.9c0,0.3,0.1,0.5,0.3,0.7c0.2,0.1,0.4,0.3,0.8,0.4
							c0.3,0.1,0.6,0.2,0.8,0.3c0.2,0.1,0.4,0.2,0.5,0.3c0.4,0.3,0.6,0.7,0.6,1.3C246.4,126.6,246.2,127.1,245.8,127.4z"/>
					</g>
				</g>
				<path d="M57.1,46.4v31.1h-4.6V46.4h-8.3v-4.6h21.3v4.6H57.1z"/>
				<polygon points="262.7,14.7 247.8,79.5 267.7,20.6 				"/>
				<polygon points="247.8,79.5 296.8,15.2 300,22.9 				"/>
				<polygon points="247.8,79.5 265,67 275.4,72 				"/>
				<polygon points="247.8,79.5 310,67.9 316.5,72.2 				"/>
				<polygon points="247.8,79.5 281,102.2 277.3,113.8 				"/>
				<polygon points="247.8,79.5 238.3,73.6 236.2,75.8 				"/>
				<g>
					<path d="M170.2,67.8v-6.6h2.1v16.4h-2.1v-1.3c-1,1.1-2.2,1.6-3.6,1.6c-1.6,0-3-0.6-4.1-1.7c-1.1-1.1-1.7-2.5-1.7-4.1
						c0-1.6,0.6-3,1.7-4.1c1.1-1.1,2.5-1.7,4.1-1.7C168,66.2,169.2,66.7,170.2,67.8z M170.2,72.8v-1.6c-0.1-0.7-0.5-1.3-1-1.8
						c-0.7-0.7-1.6-1.1-2.6-1.1c-1,0-1.9,0.4-2.6,1.1c-0.7,0.7-1.1,1.6-1.1,2.6c0,1,0.4,1.9,1.1,2.6c0.7,0.7,1.6,1.1,2.6,1.1
						c1,0,1.9-0.4,2.6-1.1C169.8,74,170.1,73.4,170.2,72.8z"/>
					<path d="M178.7,75.2c0.4,0.3,1,0.5,1.9,0.5c1,0,1.9-0.4,2.6-1.1c0.1-0.1,0.3-0.3,0.5-0.6l2.1,0.8c-0.5,0.7-0.9,1.2-1.1,1.4
						c-1.1,1.1-2.5,1.7-4.1,1.7c-1.6,0-3-0.6-4.1-1.7c-1.1-1.1-1.7-2.5-1.7-4.1c0-1.6,0.6-3,1.7-4.1c1.1-1.1,2.5-1.7,4.1-1.7
						c1.4,0,2.6,0.4,3.6,1.2c0.2,0.1,0.3,0.3,0.5,0.5c0.1,0.1,0.3,0.3,0.6,0.6l-1.1,1.1L178.7,75.2z M182.2,68.6
						c-0.2-0.2-0.8-0.3-1.6-0.3c-1,0-1.9,0.4-2.6,1.1c-0.7,0.7-1.1,1.6-1.1,2.6c0,0.8,0.1,1.4,0.3,1.6L182.2,68.6z"/>
					<path d="M190.4,75.3c0.3,0.2,0.6,0.4,0.9,0.4c0.3,0,0.6-0.1,0.9-0.4c0.2-0.2,0.4-0.5,0.4-0.9c0-0.3-0.1-0.6-0.4-0.9
						c-0.2-0.2-0.5-0.4-1.1-0.8c-0.8-0.4-1.3-0.8-1.6-1.1c-0.6-0.6-0.8-1.2-0.8-2c0-0.8,0.3-1.5,0.8-2c0.6-0.6,1.2-0.8,2-0.8
						c0.8,0,1.4,0.3,2,0.8c0.4,0.4,0.6,0.8,0.7,1.3l-2.1,0.6c0-0.2-0.1-0.3-0.1-0.3c-0.1-0.1-0.3-0.2-0.5-0.2
						c-0.2,0-0.4,0.1-0.5,0.2s-0.2,0.3-0.2,0.5c0,0.2,0.1,0.4,0.2,0.5c0.1,0.1,0.4,0.3,0.9,0.6c0.8,0.5,1.5,0.9,1.8,1.3
						c0.7,0.7,1,1.5,1,2.4c0,0.9-0.3,1.7-1,2.4c-0.7,0.7-1.5,1-2.4,1c-0.9,0-1.7-0.3-2.4-1c-0.5-0.5-0.8-1-0.9-1.7l2.1-0.5
						C190.2,74.9,190.3,75.2,190.4,75.3z"/>
				</g>
			</g>
		</g>
	</g>
</g>
</svg>
