<?xml version="1.0" encoding="utf-8"?>
<!-- Generator: Adobe Illustrator 26.0.1, SVG Export Plug-In . SVG Version: 6.00 Build 0)  -->
<svg version="1.1" id="Logo-Monaco" xmlns="http://www.w3.org/2000/svg" xmlns:xlink="http://www.w3.org/1999/xlink" x="0px"
	 y="0px" viewBox="0 0 205 44.3" style="enable-background:new 0 0 205 44.3;" xml:space="preserve">
<style type="text/css">
	.st0{fill:#EAEAEA;}
	.st1{clip-path:url(#SVGID_00000035532375508381969360000000404213938961477541_);fill:#B51F1F;}
	.st2{clip-path:url(#SVGID_00000035532375508381969360000000404213938961477541_);}
	.st3{clip-path:url(#SVGID_00000035532375508381969360000000404213938961477541_);fill:#706F6F;}
	
		.st4{clip-path:url(#SVGID_00000035532375508381969360000000404213938961477541_);fill:none;stroke:#706F6F;stroke-width:0.1563;stroke-miterlimit:10;}
</style>
<rect y="0" class="st0" width="205" height="44.3"/>
<g>
	<g>
		<defs>
			<rect id="SVGID_1_" x="3.3" y="3.3" width="172.5" height="34.3"/>
		</defs>
		<clipPath id="SVGID_00000183934710926394707260000014445270354148658062_">
			<use xlink:href="#SVGID_1_"  style="overflow:visible;"/>
		</clipPath>
		<polyline style="clip-path:url(#SVGID_00000183934710926394707260000014445270354148658062_);fill:#B51F1F;" points="8.7,24.3 
			6.8,26.9 4.8,24.3 6.8,21.6 8.7,24.3 		"/>
		<polyline style="clip-path:url(#SVGID_00000183934710926394707260000014445270354148658062_);fill:#B51F1F;" points="12.6,24.3 
			10.7,26.9 8.7,24.3 10.7,21.6 12.6,24.3 		"/>
		<polyline style="clip-path:url(#SVGID_00000183934710926394707260000014445270354148658062_);fill:#B51F1F;" points="16.5,24.3 
			14.5,26.9 12.6,24.3 14.5,21.6 16.5,24.3 		"/>
		<polyline style="clip-path:url(#SVGID_00000183934710926394707260000014445270354148658062_);fill:#B51F1F;" points="20.4,24.3 
			18.4,26.9 16.5,24.3 18.4,21.6 20.4,24.3 		"/>
		<polyline style="clip-path:url(#SVGID_00000183934710926394707260000014445270354148658062_);fill:#B51F1F;" points="24.3,24.3 
			22.3,26.9 20.4,24.3 22.3,21.6 24.3,24.3 		"/>
		<polyline style="clip-path:url(#SVGID_00000183934710926394707260000014445270354148658062_);fill:#B51F1F;" points="8.7,29.6 
			6.8,32.3 4.8,29.6 6.8,27 8.7,29.6 		"/>
		<polyline style="clip-path:url(#SVGID_00000183934710926394707260000014445270354148658062_);fill:#B51F1F;" points="12.6,29.6 
			10.7,32.3 8.7,29.6 10.7,27 12.6,29.6 		"/>
		<polyline style="clip-path:url(#SVGID_00000183934710926394707260000014445270354148658062_);fill:#B51F1F;" points="16.5,29.6 
			14.5,32.3 12.6,29.6 14.5,27 16.5,29.6 		"/>
		<polyline style="clip-path:url(#SVGID_00000183934710926394707260000014445270354148658062_);fill:#B51F1F;" points="20.4,29.6 
			18.4,32.3 16.5,29.6 18.4,27 20.4,29.6 		"/>
		<polyline style="clip-path:url(#SVGID_00000183934710926394707260000014445270354148658062_);fill:#B51F1F;" points="24.3,29.6 
			22.3,32.3 20.4,29.6 22.3,27 24.3,29.6 		"/>
		<polyline style="clip-path:url(#SVGID_00000183934710926394707260000014445270354148658062_);fill:#B51F1F;" points="8.7,34.9 
			6.8,37.6 4.8,34.9 6.8,32.3 8.7,34.9 		"/>
		<polyline style="clip-path:url(#SVGID_00000183934710926394707260000014445270354148658062_);fill:#B51F1F;" points="12.6,34.9 
			10.7,37.6 8.7,34.9 10.7,32.3 12.6,34.9 		"/>
		<polyline style="clip-path:url(#SVGID_00000183934710926394707260000014445270354148658062_);fill:#B51F1F;" points="16.5,34.9 
			14.5,37.6 12.6,34.9 14.5,32.3 16.5,34.9 		"/>
		<polyline style="clip-path:url(#SVGID_00000183934710926394707260000014445270354148658062_);fill:#B51F1F;" points="20.4,34.9 
			18.4,37.6 16.5,34.9 18.4,32.3 20.4,34.9 		"/>
		<polyline style="clip-path:url(#SVGID_00000183934710926394707260000014445270354148658062_);fill:#B51F1F;" points="24.3,34.9 
			22.3,37.6 20.4,34.9 22.3,32.3 24.3,34.9 		"/>
		<path style="clip-path:url(#SVGID_00000183934710926394707260000014445270354148658062_);" d="M40.5,19.1c0,0.1,0,0.2-0.1,0.2
			c-0.6,0.1-1,0.2-1.2,0.3c-0.2,0.2-0.3,0.5-0.3,0.9v0.9c0,0.7,0.1,1.3,0.2,1.5c-0.7,0.3-1.4,0.5-2.1,0.6c-0.8,0.2-1.4,0.2-2,0.2
			c-1.1,0-2.1-0.2-2.9-0.7c-0.8-0.4-1.5-1.1-2-1.9c-0.5-0.8-0.7-1.7-0.7-2.7c0-1,0.3-1.9,0.8-2.7c0.5-0.8,1.2-1.5,2.1-1.9
			c0.9-0.5,1.9-0.7,3-0.7c0.4,0,1,0.1,1.8,0.2c0.7,0.1,1.2,0.2,1.5,0.2c0.1,0.7,0.2,1.5,0.3,2.5c0,0.1-0.1,0.1-0.2,0.1
			c-0.1,0-0.2,0-0.2-0.1c-0.4-1.6-1.6-2.5-3.4-2.5c-1.1,0-2.1,0.5-2.9,1.4c-0.8,0.9-1.2,2.1-1.2,3.5c0,1.3,0.4,2.5,1.2,3.4
			c0.8,0.9,1.7,1.4,2.8,1.4c1.6,0,2.5-0.4,2.5-1.2v-1.9c0-0.3-0.1-0.5-0.4-0.6c-0.3-0.1-0.9-0.2-1.9-0.3c-0.1,0-0.1-0.1-0.1-0.2
			c0-0.1,0-0.2,0.1-0.2c0.3,0,0.8,0,1.5,0c0.6,0,1.1,0,1.4,0c0.3,0,0.7,0,1.2,0c0.5,0,0.9,0,1.3,0C40.4,18.9,40.5,18.9,40.5,19.1"/>
		<path style="clip-path:url(#SVGID_00000183934710926394707260000014445270354148658062_);" d="M48,20.5c0,1-0.3,1.8-1,2.4
			c-0.6,0.6-1.5,0.9-2.5,0.9c-1,0-1.8-0.3-2.5-0.9c-0.6-0.6-1-1.4-1-2.4c0-1,0.3-1.8,1-2.4c0.6-0.6,1.5-1,2.5-1c1,0,1.8,0.3,2.5,1
			C47.7,18.7,48,19.5,48,20.5 M46.5,20.4c0-0.9-0.2-1.6-0.5-2.1c-0.3-0.5-0.8-0.8-1.4-0.8c-0.6,0-1.1,0.3-1.4,0.8
			c-0.3,0.5-0.5,1.2-0.5,2.1c0,0.9,0.2,1.6,0.5,2.1c0.3,0.5,0.8,0.8,1.4,0.8c0.6,0,1.1-0.3,1.4-0.8C46.3,22,46.5,21.3,46.5,20.4z"/>
		<path style="clip-path:url(#SVGID_00000183934710926394707260000014445270354148658062_);" d="M56,23.1c0,0.1,0,0.2-0.1,0.2
			c-0.9,0.1-1.5,0.3-1.8,0.5c-0.1,0.1-0.1,0.1-0.2,0.1c-0.1,0-0.1,0-0.1-0.1l0.1-0.9c-0.7,0.7-1.4,1-2,1c-0.7,0-1.2-0.2-1.6-0.6
			c-0.4-0.4-0.6-0.9-0.6-1.5v-2.7c0-0.4-0.1-0.7-0.2-0.9c-0.1-0.1-0.3-0.2-0.7-0.2c-0.1,0-0.1,0-0.2,0c-0.1,0-0.1-0.1-0.1-0.2
			c0-0.2,0-0.2,0.1-0.2c0.6,0,1.3-0.1,2.2-0.3c0.1,0,0.1,0.1,0.1,0.2v4c0,0.5,0.1,0.9,0.3,1.2c0.2,0.3,0.5,0.4,1,0.4
			c0.3,0,0.5-0.1,0.8-0.2c0.2-0.1,0.5-0.3,0.7-0.6v-3.2c0-0.4-0.1-0.7-0.2-0.9c-0.1-0.1-0.3-0.2-0.7-0.2c-0.1,0-0.1,0-0.2,0
			c-0.1,0-0.1-0.1-0.1-0.2c0-0.2,0-0.2,0.1-0.2c0.6,0,1.3-0.1,2.2-0.3c0.1,0,0.1,0.1,0.1,0.2V22c0,0.3,0,0.6,0.1,0.7
			c0.1,0.1,0.3,0.2,0.7,0.2C56,22.9,56,23,56,23.1"/>
		<path style="clip-path:url(#SVGID_00000183934710926394707260000014445270354148658062_);" d="M63.1,17.5c0,0.1,0,0.2-0.1,0.2
			c-0.4,0-0.7,0.1-0.8,0.3c-0.1,0.2-0.3,0.5-0.5,0.9l-2.1,4.8c0,0.1-0.1,0.1-0.2,0.1c-0.1,0-0.1,0-0.2-0.1l-2-4.8
			c-0.2-0.4-0.4-0.8-0.5-0.9c-0.2-0.2-0.4-0.3-0.8-0.3c-0.1,0-0.1-0.1-0.1-0.2c0-0.1,0-0.2,0.1-0.2c0.2,0,0.4,0,0.7,0
			c0.3,0,0.6,0,0.8,0c0.2,0,0.5,0,0.8,0c0.3,0,0.5,0,0.7,0c0.1,0,0.1,0.1,0.1,0.2c0,0.1,0,0.2-0.1,0.2c-0.3,0-0.5,0.1-0.6,0.2
			c-0.1,0.1-0.2,0.2-0.2,0.3c0,0.2,0.1,0.4,0.2,0.8l1.2,2.9l1.2-2.9c0.2-0.4,0.2-0.6,0.2-0.8c0-0.1-0.1-0.2-0.2-0.3
			c-0.1-0.1-0.3-0.1-0.6-0.2c-0.1,0-0.1-0.1-0.1-0.2c0-0.1,0-0.2,0.1-0.2c0.2,0,0.4,0,0.7,0c0.3,0,0.5,0,0.7,0c0.1,0,0.3,0,0.5,0
			c0.3,0,0.6-0.1,0.8-0.1C63.1,17.3,63.1,17.3,63.1,17.5"/>
		<path style="clip-path:url(#SVGID_00000183934710926394707260000014445270354148658062_);" d="M69.2,19.4c0,0.1-0.1,0.2-0.3,0.2
			h-4c0,0.3,0,0.5,0,0.8c0,0.8,0.2,1.4,0.6,1.8c0.4,0.4,0.9,0.6,1.6,0.6c0.3,0,0.7-0.1,1-0.3c0.4-0.2,0.6-0.4,0.9-0.7l0,0
			c0,0,0.1,0,0.1,0.1c0,0.1,0.1,0.1,0.1,0.2c0,0.1-0.2,0.3-0.5,0.6c-0.3,0.3-0.7,0.6-1,0.7c-0.4,0.2-0.8,0.3-1.2,0.3
			c-0.9,0-1.6-0.3-2.2-1c-0.6-0.6-0.9-1.4-0.9-2.4c0-1,0.3-1.8,0.9-2.4c0.6-0.7,1.3-1,2.2-1c0.8,0,1.4,0.2,1.9,0.7
			C68.9,18.3,69.2,18.8,69.2,19.4 M67.8,18.8c0-0.4-0.1-0.7-0.4-0.9c-0.3-0.2-0.6-0.4-1-0.4c-0.4,0-0.7,0.2-1,0.5
			c-0.3,0.3-0.5,0.7-0.6,1.2l2-0.1c0.3,0,0.5,0,0.7-0.1C67.8,19,67.8,18.9,67.8,18.8z"/>
		<path style="clip-path:url(#SVGID_00000183934710926394707260000014445270354148658062_);" d="M75.2,17.8c0,0.2-0.1,0.4-0.2,0.5
			c-0.1,0.1-0.3,0.2-0.4,0.2c-0.2,0-0.4-0.1-0.6-0.2c-0.2-0.1-0.3-0.2-0.4-0.2c-0.3,0-0.6,0.2-1,0.6v3.3c0,0.4,0.1,0.7,0.2,0.9
			c0.1,0.2,0.5,0.3,0.9,0.3c0.1,0,0.1,0.1,0.1,0.2c0,0.1,0,0.2-0.1,0.2c-0.2,0-0.5,0-0.9,0c-0.4,0-0.7,0-1,0c-0.2,0-0.5,0-0.9,0
			c-0.3,0-0.6,0-0.8,0c-0.1,0-0.1-0.1-0.1-0.2c0-0.1,0-0.2,0.1-0.2c0.4-0.1,0.7-0.2,0.8-0.3c0.1-0.1,0.2-0.5,0.2-0.9v-2.7
			c0-0.4,0-0.6-0.2-0.8c-0.1-0.1-0.3-0.2-0.7-0.2c-0.1,0-0.1-0.1-0.1-0.2c0-0.1,0-0.2,0.1-0.2c0.5-0.1,0.9-0.3,1.2-0.4
			c0.3-0.1,0.5-0.3,0.6-0.4c0.1-0.1,0.1-0.1,0.2-0.1c0.1,0,0.2,0,0.2,0.1L72.5,18c0.4-0.4,0.7-0.6,1-0.8c0.3-0.1,0.6-0.2,0.8-0.2
			c0.2,0,0.4,0.1,0.6,0.2C75.1,17.4,75.2,17.6,75.2,17.8"/>
		<path style="clip-path:url(#SVGID_00000183934710926394707260000014445270354148658062_);" d="M83.3,23.4c0,0.1,0,0.2-0.1,0.2
			c-0.2,0-0.4,0-0.7,0c-0.3,0-0.6,0-0.8,0c-0.2,0-0.5,0-0.8,0c-0.3,0-0.5,0-0.7,0c-0.1,0-0.1-0.1-0.1-0.2c0-0.1,0-0.2,0.1-0.2
			c0.3,0,0.6-0.1,0.7-0.3c0.1-0.2,0.2-0.5,0.2-0.9v-2.4c0-0.5-0.1-0.9-0.3-1.2c-0.2-0.3-0.5-0.4-1-0.4c-0.3,0-0.5,0.1-0.8,0.2
			c-0.2,0.1-0.5,0.3-0.7,0.6v3.3c0,0.5,0.1,0.8,0.2,0.9c0.1,0.2,0.3,0.2,0.7,0.3c0.1,0,0.1,0.1,0.1,0.2c0,0.1,0,0.2-0.1,0.2
			c-0.2,0-0.4,0-0.7,0c-0.3,0-0.6,0-0.8,0c-0.2,0-0.5,0-0.8,0c-0.3,0-0.5,0-0.7,0c-0.1,0-0.1-0.1-0.1-0.2c0-0.1,0-0.2,0.1-0.2
			c0.4-0.1,0.7-0.2,0.8-0.3c0.1-0.1,0.2-0.5,0.2-0.9v-2.7c0-0.4-0.1-0.6-0.2-0.8c-0.1-0.1-0.3-0.2-0.7-0.2c-0.1,0-0.1-0.1-0.1-0.2
			c0-0.1,0-0.2,0.1-0.2c0.5-0.1,0.9-0.3,1.2-0.4c0.3-0.2,0.5-0.3,0.6-0.4c0-0.1,0.1-0.1,0.2-0.1c0.1,0,0.2,0,0.2,0.1L78.1,18
			c0.7-0.7,1.4-1,2-1c0.7,0,1.2,0.2,1.6,0.6c0.4,0.4,0.6,0.9,0.6,1.5v2.8c0,0.5,0.1,0.8,0.2,0.9c0.1,0.1,0.4,0.2,0.8,0.3
			C83.2,23.2,83.3,23.2,83.3,23.4"/>
		<path style="clip-path:url(#SVGID_00000183934710926394707260000014445270354148658062_);" d="M89.7,19.4c0,0.1-0.1,0.2-0.3,0.2
			h-4c0,0.3,0,0.5,0,0.8c0,0.8,0.2,1.4,0.6,1.8c0.4,0.4,0.9,0.6,1.6,0.6c0.3,0,0.7-0.1,1-0.3c0.4-0.2,0.6-0.4,0.9-0.7l0,0
			c0,0,0.1,0,0.1,0.1c0,0.1,0.1,0.1,0.1,0.2c0,0.1-0.2,0.3-0.5,0.6c-0.3,0.3-0.7,0.6-1,0.7c-0.4,0.2-0.8,0.3-1.2,0.3
			c-0.9,0-1.6-0.3-2.2-1c-0.6-0.6-0.9-1.4-0.9-2.4c0-1,0.3-1.8,0.9-2.4c0.6-0.7,1.3-1,2.2-1c0.8,0,1.4,0.2,1.9,0.7
			C89.4,18.3,89.7,18.8,89.7,19.4 M88.3,18.8c0-0.4-0.1-0.7-0.4-0.9c-0.3-0.2-0.6-0.4-1-0.4c-0.4,0-0.7,0.2-1,0.5
			c-0.3,0.3-0.5,0.7-0.6,1.2l2-0.1c0.3,0,0.5,0,0.7-0.1C88.3,19,88.3,18.9,88.3,18.8z"/>
		<path style="clip-path:url(#SVGID_00000183934710926394707260000014445270354148658062_);" d="M102.3,23.4c0,0.1,0,0.2-0.1,0.2
			c-0.2,0-0.4,0-0.7,0c-0.3,0-0.6,0-0.8,0c-0.2,0-0.5,0-0.8,0c-0.3,0-0.5,0-0.7,0c-0.1,0-0.1-0.1-0.1-0.2c0-0.1,0-0.2,0.1-0.2
			c0.3,0,0.5-0.1,0.7-0.3c0.1-0.2,0.2-0.5,0.2-0.9v-2.4c0-0.5-0.1-0.9-0.3-1.2c-0.2-0.3-0.5-0.4-1-0.4c-0.6,0-1.1,0.2-1.5,0.6v3.4
			c0,0.5,0.1,0.8,0.2,0.9c0.1,0.2,0.3,0.2,0.7,0.3c0.1,0,0.1,0.1,0.1,0.2c0,0.1,0,0.2-0.1,0.2c-0.2,0-0.4,0-0.7,0
			c-0.3,0-0.5,0-0.8,0c-0.2,0-0.5,0-0.8,0c-0.3,0-0.5,0-0.7,0c-0.1,0-0.1-0.1-0.1-0.2c0-0.1,0-0.2,0.1-0.2c0.3,0,0.6-0.1,0.7-0.3
			c0.1-0.2,0.2-0.5,0.2-0.9v-2.4c0-0.5-0.1-0.9-0.3-1.2c-0.2-0.3-0.5-0.4-1-0.4c-0.3,0-0.5,0.1-0.8,0.2c-0.2,0.1-0.5,0.3-0.7,0.6
			v3.3c0,0.5,0.1,0.8,0.2,0.9c0.1,0.2,0.3,0.2,0.7,0.3c0.1,0,0.1,0.1,0.1,0.2c0,0.1,0,0.2-0.1,0.2c-0.2,0-0.4,0-0.7,0
			c-0.3,0-0.6,0-0.8,0c-0.2,0-0.5,0-0.8,0c-0.3,0-0.5,0-0.7,0c-0.1,0-0.1-0.1-0.1-0.2c0-0.1,0-0.2,0.1-0.2c0.4-0.1,0.7-0.2,0.8-0.3
			c0.1-0.1,0.2-0.5,0.2-0.9v-2.7c0-0.4,0-0.6-0.2-0.8c-0.1-0.1-0.3-0.2-0.7-0.2c-0.1,0-0.1-0.1-0.1-0.2c0-0.1,0-0.2,0.1-0.2
			c0.5-0.1,0.9-0.3,1.2-0.4c0.3-0.2,0.5-0.3,0.6-0.4c0-0.1,0.1-0.1,0.2-0.1c0.1,0,0.2,0,0.2,0.1L93,18c0.7-0.7,1.4-1,2-1
			c0.9,0,1.6,0.4,1.9,1.1c0.7-0.7,1.5-1.1,2.2-1.1c0.7,0,1.2,0.2,1.6,0.6c0.4,0.4,0.6,0.9,0.6,1.5v2.8c0,0.5,0.1,0.8,0.2,0.9
			c0.1,0.1,0.4,0.2,0.8,0.3C102.2,23.2,102.3,23.2,102.3,23.4"/>
		<path style="clip-path:url(#SVGID_00000183934710926394707260000014445270354148658062_);" d="M108.7,19.4c0,0.1-0.1,0.2-0.3,0.2
			h-4c0,0.3,0,0.5,0,0.8c0,0.8,0.2,1.4,0.6,1.8c0.4,0.4,0.9,0.6,1.6,0.6c0.3,0,0.7-0.1,1-0.3c0.4-0.2,0.6-0.4,0.9-0.7l0,0
			c0,0,0.1,0,0.1,0.1c0,0.1,0.1,0.1,0.1,0.2c0,0.1-0.2,0.3-0.5,0.6c-0.3,0.3-0.7,0.6-1,0.7c-0.4,0.2-0.8,0.3-1.2,0.3
			c-0.9,0-1.6-0.3-2.2-1c-0.6-0.6-0.9-1.4-0.9-2.4c0-1,0.3-1.8,0.9-2.4c0.6-0.7,1.3-1,2.2-1c0.8,0,1.4,0.2,1.9,0.7
			C108.4,18.3,108.7,18.8,108.7,19.4 M107.3,18.8c0-0.4-0.1-0.7-0.4-0.9c-0.3-0.2-0.6-0.4-1-0.4c-0.4,0-0.7,0.2-1,0.5
			c-0.3,0.3-0.5,0.7-0.6,1.2l2-0.1c0.3,0,0.5,0,0.7-0.1C107.3,19,107.3,18.9,107.3,18.8z"/>
		<path style="clip-path:url(#SVGID_00000183934710926394707260000014445270354148658062_);" d="M117.1,23.4c0,0.1,0,0.2-0.1,0.2
			c-0.2,0-0.4,0-0.7,0c-0.3,0-0.6,0-0.8,0c-0.2,0-0.5,0-0.8,0c-0.3,0-0.5,0-0.7,0c-0.1,0-0.1-0.1-0.1-0.2c0-0.1,0-0.2,0.1-0.2
			c0.3,0,0.6-0.1,0.7-0.3c0.1-0.2,0.2-0.5,0.2-0.9v-2.4c0-0.5-0.1-0.9-0.3-1.2c-0.2-0.3-0.5-0.4-1-0.4c-0.3,0-0.5,0.1-0.8,0.2
			c-0.2,0.1-0.5,0.3-0.7,0.6v3.3c0,0.5,0.1,0.8,0.2,0.9c0.1,0.2,0.3,0.2,0.7,0.3c0.1,0,0.1,0.1,0.1,0.2c0,0.1,0,0.2-0.1,0.2
			c-0.2,0-0.4,0-0.7,0c-0.3,0-0.6,0-0.8,0c-0.2,0-0.5,0-0.8,0c-0.3,0-0.5,0-0.7,0c-0.1,0-0.1-0.1-0.1-0.2c0-0.1,0-0.2,0.1-0.2
			c0.4-0.1,0.7-0.2,0.8-0.3c0.1-0.1,0.2-0.5,0.2-0.9v-2.7c0-0.4,0-0.6-0.1-0.8c-0.1-0.1-0.3-0.2-0.7-0.2c-0.1,0-0.1-0.1-0.1-0.2
			c0-0.1,0-0.2,0.1-0.2c0.5-0.1,0.9-0.3,1.2-0.4c0.3-0.2,0.5-0.3,0.6-0.4c0-0.1,0.1-0.1,0.2-0.1c0.1,0,0.2,0,0.2,0.1L112,18
			c0.7-0.7,1.4-1,2-1c0.7,0,1.2,0.2,1.6,0.6c0.4,0.4,0.6,0.9,0.6,1.5v2.8c0,0.5,0.1,0.8,0.2,0.9c0.1,0.1,0.4,0.2,0.8,0.3
			C117.1,23.2,117.1,23.2,117.1,23.4"/>
		<path style="clip-path:url(#SVGID_00000183934710926394707260000014445270354148658062_);" d="M122.3,17.8c0,0.3-0.1,0.4-0.2,0.4
			l-2.2-0.1v3.5c0,0.9,0.3,1.4,1,1.4c0.4,0,0.8-0.1,1.1-0.3c0,0,0.1,0,0.1,0.1c0,0.1,0,0.1,0,0.2c0,0.1-0.2,0.3-0.5,0.5
			c-0.4,0.2-0.8,0.3-1.2,0.3c-0.6,0-1-0.2-1.3-0.5c-0.3-0.3-0.5-0.8-0.5-1.3v-0.1l0-3.5c0-0.1-0.1-0.2-0.2-0.2h-0.6
			c-0.1,0-0.2-0.1-0.2-0.2c0-0.1,0-0.2,0.1-0.2c0.7-0.4,1.3-1,1.8-1.7c0.1-0.1,0.1-0.1,0.2-0.1c0.1,0,0.2,0,0.2,0.1l-0.1,1.4h2.2
			C122.2,17.4,122.3,17.5,122.3,17.8"/>
		<path style="clip-path:url(#SVGID_00000183934710926394707260000014445270354148658062_);" d="M135,16.4c0,0.9-0.3,1.6-1,2.2
			c-0.7,0.6-1.5,0.9-2.5,0.9c-0.6,0-1.2,0-1.7-0.1v2.6c0,0.3,0,0.6,0.1,0.7c0.1,0.1,0.2,0.2,0.4,0.3c0.2,0.1,0.5,0.1,0.9,0.2
			c0.1,0,0.1,0.1,0.1,0.2c0,0.1,0,0.2-0.1,0.2c-0.3,0-0.7,0-1.2,0c-0.4,0-0.8,0-1.1,0c-0.3,0-0.7,0-1.1,0c-0.5,0-0.8,0-1.2,0
			c-0.1,0-0.1-0.1-0.1-0.2c0-0.1,0-0.2,0.1-0.2c0.6-0.1,1-0.2,1.2-0.3c0.2-0.2,0.3-0.5,0.3-0.9v-6.9c0-0.3,0-0.6-0.1-0.7
			c-0.1-0.1-0.2-0.2-0.5-0.3c-0.2-0.1-0.5-0.1-0.9-0.2c-0.1,0-0.1-0.1-0.1-0.2c0-0.1,0-0.2,0.1-0.2c0.3,0,0.7,0,1.2,0
			c0.4,0,0.8,0,1.1,0c0.3,0,0.7,0,1.1,0c0.4,0,0.8,0,1.2,0c1.2,0,2.1,0.3,2.7,0.8C134.7,14.7,135,15.4,135,16.4 M133.4,16.4
			c0-0.8-0.2-1.4-0.6-1.8c-0.4-0.4-0.9-0.7-1.5-0.7c-0.4,0-0.7,0-0.9,0.1c-0.2,0.1-0.4,0.2-0.4,0.3c-0.1,0.1-0.1,0.4-0.1,0.8v3.4
			c0,0.2,0.1,0.3,0.2,0.4c0.1,0.1,0.4,0.1,0.9,0.1c0.8,0,1.4-0.2,1.8-0.7C133.2,17.8,133.4,17.2,133.4,16.4z"/>
		<path style="clip-path:url(#SVGID_00000183934710926394707260000014445270354148658062_);" d="M140.5,17.8c0,0.2-0.1,0.4-0.2,0.5
			c-0.1,0.1-0.3,0.2-0.4,0.2c-0.2,0-0.4-0.1-0.6-0.2c-0.2-0.1-0.3-0.2-0.4-0.2c-0.3,0-0.6,0.2-1,0.6v3.3c0,0.4,0.1,0.7,0.2,0.9
			c0.1,0.2,0.5,0.3,0.9,0.3c0.1,0,0.1,0.1,0.1,0.2c0,0.1,0,0.2-0.1,0.2c-0.2,0-0.5,0-0.9,0c-0.4,0-0.7,0-1,0c-0.2,0-0.5,0-0.9,0
			c-0.3,0-0.6,0-0.8,0c-0.1,0-0.1-0.1-0.1-0.2c0-0.1,0-0.2,0.1-0.2c0.4-0.1,0.7-0.2,0.8-0.3c0.1-0.1,0.2-0.5,0.2-0.9v-2.7
			c0-0.4-0.1-0.6-0.2-0.8c-0.1-0.1-0.3-0.2-0.7-0.2c-0.1,0-0.1-0.1-0.1-0.2c0-0.1,0-0.2,0.1-0.2c0.5-0.1,0.9-0.3,1.2-0.4
			c0.3-0.1,0.5-0.3,0.6-0.4c0.1-0.1,0.1-0.1,0.2-0.1c0.1,0,0.2,0,0.2,0.1l-0.1,0.9c0.4-0.4,0.7-0.6,1-0.8c0.3-0.1,0.6-0.2,0.8-0.2
			c0.2,0,0.4,0.1,0.6,0.2C140.4,17.4,140.5,17.6,140.5,17.8"/>
		<path style="clip-path:url(#SVGID_00000183934710926394707260000014445270354148658062_);" d="M144.4,23.4c0,0.1,0,0.2-0.1,0.2
			c-0.2,0-0.5,0-0.8,0c-0.4,0-0.6,0-0.9,0c-0.2,0-0.5,0-0.9,0c-0.3,0-0.6,0-0.8,0c-0.1,0-0.1-0.1-0.1-0.2c0-0.1,0-0.2,0.1-0.2
			c0.4-0.1,0.7-0.2,0.8-0.3c0.1-0.1,0.2-0.5,0.2-0.9v-2.7c0-0.4-0.1-0.6-0.2-0.8c-0.1-0.1-0.3-0.2-0.7-0.2c-0.1,0-0.1-0.1-0.1-0.2
			c0-0.1,0-0.2,0.1-0.2c0.5-0.1,0.9-0.3,1.3-0.4c0.3-0.1,0.5-0.3,0.6-0.4c0-0.1,0.1-0.1,0.2-0.1c0.1,0,0.2,0,0.2,0.1
			c-0.1,1.1-0.1,1.9-0.1,2.5v2.3c0,0.5,0.1,0.8,0.2,0.9c0.1,0.1,0.4,0.2,0.8,0.3C144.3,23.2,144.4,23.2,144.4,23.4 M143.3,14.5
			c0,0.2-0.1,0.4-0.2,0.5c-0.1,0.2-0.3,0.2-0.5,0.2c-0.2,0-0.4-0.1-0.5-0.2c-0.1-0.2-0.2-0.3-0.2-0.5c0-0.2,0.1-0.4,0.2-0.5
			c0.1-0.1,0.3-0.2,0.5-0.2c0.2,0,0.4,0.1,0.5,0.2C143.3,14.1,143.3,14.3,143.3,14.5z"/>
		<path style="clip-path:url(#SVGID_00000183934710926394707260000014445270354148658062_);" d="M152.5,23.4c0,0.1,0,0.2-0.1,0.2
			c-0.2,0-0.4,0-0.7,0c-0.3,0-0.6,0-0.8,0c-0.2,0-0.5,0-0.8,0c-0.3,0-0.5,0-0.7,0c-0.1,0-0.1-0.1-0.1-0.2c0-0.1,0-0.2,0.1-0.2
			c0.3,0,0.6-0.1,0.7-0.3c0.1-0.2,0.2-0.5,0.2-0.9v-2.4c0-0.5-0.1-0.9-0.3-1.2c-0.2-0.3-0.5-0.4-1-0.4c-0.3,0-0.5,0.1-0.8,0.2
			c-0.2,0.1-0.5,0.3-0.7,0.6v3.3c0,0.5,0.1,0.8,0.2,0.9c0.1,0.2,0.3,0.2,0.7,0.3c0.1,0,0.1,0.1,0.1,0.2c0,0.1,0,0.2-0.1,0.2
			c-0.2,0-0.4,0-0.7,0c-0.3,0-0.6,0-0.8,0c-0.2,0-0.5,0-0.8,0c-0.3,0-0.5,0-0.7,0c-0.1,0-0.1-0.1-0.1-0.2c0-0.1,0-0.2,0.1-0.2
			c0.4-0.1,0.7-0.2,0.8-0.3c0.1-0.1,0.2-0.5,0.2-0.9v-2.7c0-0.4-0.1-0.6-0.2-0.8c-0.1-0.1-0.3-0.2-0.7-0.2c-0.1,0-0.1-0.1-0.1-0.2
			c0-0.1,0-0.2,0.1-0.2c0.5-0.1,0.9-0.3,1.2-0.4c0.3-0.2,0.5-0.3,0.6-0.4c0-0.1,0.1-0.1,0.2-0.1c0.1,0,0.2,0,0.2,0.1l-0.1,0.9
			c0.7-0.7,1.4-1,2-1c0.7,0,1.2,0.2,1.6,0.6c0.4,0.4,0.6,0.9,0.6,1.5v2.8c0,0.5,0.1,0.8,0.2,0.9c0.1,0.1,0.4,0.2,0.8,0.3
			C152.5,23.2,152.5,23.2,152.5,23.4"/>
		<path style="clip-path:url(#SVGID_00000183934710926394707260000014445270354148658062_);" d="M158.8,18.2c0,0.4-0.2,0.6-0.6,0.6
			c-0.2,0-0.3,0-0.4-0.1c-0.1-0.1-0.2-0.2-0.3-0.5c-0.1-0.3-0.3-0.5-0.4-0.6c-0.1-0.1-0.3-0.1-0.6-0.1c-0.6,0-1,0.2-1.4,0.7
			c-0.3,0.5-0.5,1.2-0.5,2.1c0,0.8,0.2,1.4,0.6,1.9c0.4,0.5,0.9,0.7,1.6,0.7c0.7,0,1.3-0.2,1.8-0.7l0,0c0,0,0.1,0,0.1,0.1
			c0,0.1,0.1,0.1,0.1,0.2c0,0.1-0.1,0.3-0.4,0.5c-0.3,0.2-0.6,0.4-0.9,0.5c-0.3,0.1-0.7,0.2-1.1,0.2c-0.9,0-1.6-0.3-2.2-1
			c-0.6-0.6-0.9-1.4-0.9-2.4c0-1,0.3-1.8,1-2.4c0.7-0.6,1.4-1,2.3-1c0.7,0,1.2,0.1,1.7,0.3C158.5,17.6,158.8,17.9,158.8,18.2"/>
		<path style="clip-path:url(#SVGID_00000183934710926394707260000014445270354148658062_);" d="M163.3,23.4c0,0.1,0,0.2-0.1,0.2
			c-0.2,0-0.5,0-0.8,0c-0.4,0-0.6,0-0.9,0c-0.2,0-0.5,0-0.9,0c-0.3,0-0.6,0-0.8,0c-0.1,0-0.1-0.1-0.1-0.2c0-0.1,0-0.2,0.1-0.2
			c0.4-0.1,0.7-0.2,0.8-0.3c0.1-0.1,0.2-0.5,0.2-0.9v-2.7c0-0.4-0.1-0.6-0.2-0.8c-0.1-0.1-0.3-0.2-0.7-0.2c-0.1,0-0.1-0.1-0.1-0.2
			c0-0.1,0-0.2,0.1-0.2c0.5-0.1,0.9-0.3,1.3-0.4c0.3-0.1,0.5-0.3,0.6-0.4c0-0.1,0.1-0.1,0.2-0.1c0.1,0,0.2,0,0.2,0.1
			c-0.1,1.1-0.1,1.9-0.1,2.5v2.3c0,0.5,0.1,0.8,0.2,0.9c0.1,0.1,0.4,0.2,0.8,0.3C163.2,23.2,163.3,23.2,163.3,23.4 M162.3,14.5
			c0,0.2-0.1,0.4-0.2,0.5c-0.1,0.2-0.3,0.2-0.5,0.2c-0.2,0-0.4-0.1-0.5-0.2c-0.1-0.2-0.2-0.3-0.2-0.5c0-0.2,0.1-0.4,0.2-0.5
			c0.1-0.1,0.3-0.2,0.5-0.2c0.2,0,0.4,0.1,0.5,0.2C162.2,14.1,162.3,14.3,162.3,14.5z"/>
		<path style="clip-path:url(#SVGID_00000183934710926394707260000014445270354148658062_);" d="M169.8,19.4c0,0.1-0.1,0.2-0.3,0.2
			h-4c0,0.3,0,0.5,0,0.8c0,0.8,0.2,1.4,0.6,1.8c0.4,0.4,0.9,0.6,1.6,0.6c0.3,0,0.7-0.1,1-0.3c0.4-0.2,0.6-0.4,0.9-0.7l0,0
			c0,0,0.1,0,0.1,0.1c0,0.1,0.1,0.1,0.1,0.2c0,0.1-0.2,0.3-0.5,0.6c-0.3,0.3-0.7,0.6-1,0.7c-0.4,0.2-0.8,0.3-1.2,0.3
			c-0.9,0-1.6-0.3-2.2-1c-0.6-0.6-0.9-1.4-0.9-2.4c0-1,0.3-1.8,0.9-2.4c0.6-0.7,1.3-1,2.2-1c0.8,0,1.4,0.2,1.9,0.7
			C169.5,18.3,169.8,18.8,169.8,19.4 M168.5,18.8c0-0.4-0.1-0.7-0.4-0.9c-0.3-0.2-0.6-0.4-1-0.4c-0.4,0-0.7,0.2-1,0.5
			c-0.3,0.3-0.5,0.7-0.6,1.2l2-0.1c0.3,0,0.5,0,0.7-0.1C168.4,19,168.5,18.9,168.5,18.8z"/>
		<path style="clip-path:url(#SVGID_00000183934710926394707260000014445270354148658062_);" d="M175.8,17.8c0,0.2-0.1,0.4-0.2,0.5
			c-0.1,0.1-0.3,0.2-0.4,0.2c-0.2,0-0.4-0.1-0.6-0.2c-0.2-0.1-0.3-0.2-0.4-0.2c-0.3,0-0.6,0.2-1,0.6v3.3c0,0.4,0.1,0.7,0.2,0.9
			c0.1,0.2,0.5,0.3,0.9,0.3c0.1,0,0.1,0.1,0.1,0.2c0,0.1,0,0.2-0.1,0.2c-0.2,0-0.5,0-0.9,0c-0.4,0-0.7,0-1,0c-0.2,0-0.5,0-0.9,0
			c-0.3,0-0.6,0-0.8,0c-0.1,0-0.1-0.1-0.1-0.2c0-0.1,0-0.2,0.1-0.2c0.4-0.1,0.7-0.2,0.8-0.3c0.1-0.1,0.2-0.5,0.2-0.9v-2.7
			c0-0.4-0.1-0.6-0.2-0.8c-0.1-0.1-0.3-0.2-0.7-0.2c-0.1,0-0.1-0.1-0.1-0.2c0-0.1,0-0.2,0.1-0.2c0.5-0.1,0.9-0.3,1.2-0.4
			c0.3-0.1,0.5-0.3,0.6-0.4c0.1-0.1,0.1-0.1,0.2-0.1c0.1,0,0.2,0,0.2,0.1l-0.1,0.9c0.4-0.4,0.7-0.6,1-0.8c0.3-0.1,0.6-0.2,0.8-0.2
			c0.2,0,0.4,0.1,0.6,0.2C175.7,17.4,175.8,17.6,175.8,17.8"/>
		<path style="clip-path:url(#SVGID_00000183934710926394707260000014445270354148658062_);fill:#706F6F;" d="M34.7,30.8
			c0,0.4-0.2,0.8-0.5,1.1c-0.3,0.3-0.7,0.5-1.1,0.5H31v2.4h-0.8v-5.6h3c0.4,0,0.8,0.2,1.1,0.5C34.6,30,34.7,30.4,34.7,30.8
			 M33.9,30.8c0-0.2-0.1-0.4-0.2-0.6c-0.2-0.2-0.3-0.2-0.5-0.2H31v1.6h2.1c0.2,0,0.4-0.1,0.5-0.2C33.8,31.2,33.9,31,33.9,30.8z"/>
		
			<path style="clip-path:url(#SVGID_00000183934710926394707260000014445270354148658062_);fill:none;stroke:#706F6F;stroke-width:0.1563;stroke-miterlimit:10;" d="
			M33.9,30.8c0-0.2-0.1-0.4-0.2-0.6c-0.2-0.2-0.3-0.2-0.5-0.2H31v1.6h2.1c0.2,0,0.4-0.1,0.5-0.2C33.8,31.2,33.9,31,33.9,30.8z"/>
		
			<path style="clip-path:url(#SVGID_00000183934710926394707260000014445270354148658062_);fill:none;stroke:#706F6F;stroke-width:0.1563;stroke-miterlimit:10;" d="
			M34.7,30.8c0,0.4-0.2,0.8-0.5,1.1c-0.3,0.3-0.7,0.5-1.1,0.5H31v2.4h-0.8v-5.6h3c0.4,0,0.8,0.2,1.1,0.5
			C34.6,30,34.7,30.4,34.7,30.8z"/>
		<path style="clip-path:url(#SVGID_00000183934710926394707260000014445270354148658062_);fill:#706F6F;" d="M39.7,34.8l-1.4-2.4
			h-1.5v2.4h-0.8v-5.6h3c0.4,0,0.8,0.2,1.1,0.5c0.3,0.3,0.5,0.7,0.5,1.1c0,0.4-0.1,0.7-0.4,1c-0.3,0.3-0.6,0.5-1,0.5l1.4,2.4H39.7
			 M39.8,30.8c0-0.2-0.1-0.4-0.2-0.6C39.4,30.1,39.3,30,39,30h-2.1v1.6H39c0.2,0,0.4-0.1,0.5-0.2C39.7,31.2,39.8,31,39.8,30.8z"/>
		
			<path style="clip-path:url(#SVGID_00000183934710926394707260000014445270354148658062_);fill:none;stroke:#706F6F;stroke-width:0.1563;stroke-miterlimit:10;" d="
			M39.8,30.8c0-0.2-0.1-0.4-0.2-0.6C39.4,30.1,39.3,30,39,30h-2.1v1.6H39c0.2,0,0.4-0.1,0.5-0.2C39.7,31.2,39.8,31,39.8,30.8z"/>
		
			<path style="clip-path:url(#SVGID_00000183934710926394707260000014445270354148658062_);fill:none;stroke:#706F6F;stroke-width:0.1563;stroke-miterlimit:10;" d="
			M39.7,34.8l-1.4-2.4h-1.5v2.4h-0.8v-5.6h3c0.4,0,0.8,0.2,1.1,0.5c0.3,0.3,0.5,0.7,0.5,1.1c0,0.4-0.1,0.7-0.4,1
			c-0.3,0.3-0.6,0.5-1,0.5l1.4,2.4H39.7z"/>
		
			<rect x="42" y="29.2" style="clip-path:url(#SVGID_00000183934710926394707260000014445270354148658062_);fill:#706F6F;" width="0.8" height="5.6"/>
		
			<rect x="42" y="29.2" style="clip-path:url(#SVGID_00000183934710926394707260000014445270354148658062_);fill:none;stroke:#706F6F;stroke-width:0.1563;stroke-miterlimit:10;" width="0.8" height="5.6"/>
		<polyline style="clip-path:url(#SVGID_00000183934710926394707260000014445270354148658062_);fill:#706F6F;" points="48,34.8 
			45.4,30.8 45.4,34.8 44.5,34.8 44.5,29.2 45.3,29.2 47.9,33.2 47.9,29.2 48.8,29.2 48.8,34.8 48,34.8 		"/>
		
			<polygon style="clip-path:url(#SVGID_00000183934710926394707260000014445270354148658062_);fill:none;stroke:#706F6F;stroke-width:0.1563;stroke-miterlimit:10;" points="
			48,34.8 45.4,30.8 45.4,34.8 44.5,34.8 44.5,29.2 45.3,29.2 47.9,33.2 47.9,29.2 48.8,29.2 48.8,34.8 		"/>
		<path style="clip-path:url(#SVGID_00000183934710926394707260000014445270354148658062_);fill:#706F6F;" d="M54.7,30.9
			c-0.2-0.3-0.5-0.5-0.8-0.7c-0.3-0.2-0.6-0.3-1-0.3c-0.6,0-1,0.2-1.4,0.6c-0.4,0.4-0.6,0.9-0.6,1.4c0,0.6,0.2,1,0.6,1.4
			c0.4,0.4,0.9,0.6,1.4,0.6c0.7,0,1.3-0.3,1.7-1l0.7,0.5c-0.3,0.4-0.6,0.7-1,1c-0.4,0.2-0.9,0.4-1.4,0.4c-0.8,0-1.4-0.3-2-0.8
			c-0.6-0.6-0.8-1.2-0.8-2c0-0.8,0.3-1.4,0.8-2c0.6-0.6,1.2-0.8,2-0.8c0.5,0,1,0.1,1.4,0.4c0.4,0.2,0.8,0.6,1,1L54.7,30.9"/>
		
			<path style="clip-path:url(#SVGID_00000183934710926394707260000014445270354148658062_);fill:none;stroke:#706F6F;stroke-width:0.1563;stroke-miterlimit:10;" d="
			M54.7,30.9c-0.2-0.3-0.5-0.5-0.8-0.7c-0.3-0.2-0.6-0.3-1-0.3c-0.6,0-1,0.2-1.4,0.6c-0.4,0.4-0.6,0.9-0.6,1.4c0,0.6,0.2,1,0.6,1.4
			c0.4,0.4,0.9,0.6,1.4,0.6c0.7,0,1.3-0.3,1.7-1l0.7,0.5c-0.3,0.4-0.6,0.7-1,1c-0.4,0.2-0.9,0.4-1.4,0.4c-0.8,0-1.4-0.3-2-0.8
			c-0.6-0.6-0.8-1.2-0.8-2c0-0.8,0.3-1.4,0.8-2c0.6-0.6,1.2-0.8,2-0.8c0.5,0,1,0.1,1.4,0.4c0.4,0.2,0.8,0.6,1,1L54.7,30.9z"/>
		
			<rect x="56.8" y="29.2" style="clip-path:url(#SVGID_00000183934710926394707260000014445270354148658062_);fill:#706F6F;" width="0.8" height="5.6"/>
		
			<rect x="56.8" y="29.2" style="clip-path:url(#SVGID_00000183934710926394707260000014445270354148658062_);fill:none;stroke:#706F6F;stroke-width:0.1563;stroke-miterlimit:10;" width="0.8" height="5.6"/>
		<path style="clip-path:url(#SVGID_00000183934710926394707260000014445270354148658062_);fill:#706F6F;" d="M63.9,30.8
			c0,0.4-0.2,0.8-0.5,1.1c-0.3,0.3-0.7,0.5-1.1,0.5h-2.1v2.4h-0.8v-5.6h3c0.4,0,0.8,0.2,1.1,0.5C63.7,30,63.9,30.4,63.9,30.8
			 M63,30.8c0-0.2-0.1-0.4-0.2-0.6c-0.2-0.2-0.3-0.2-0.5-0.2h-2.1v1.6h2.1c0.2,0,0.4-0.1,0.5-0.2C63,31.2,63,31,63,30.8z"/>
		
			<path style="clip-path:url(#SVGID_00000183934710926394707260000014445270354148658062_);fill:none;stroke:#706F6F;stroke-width:0.1563;stroke-miterlimit:10;" d="
			M63,30.8c0-0.2-0.1-0.4-0.2-0.6c-0.2-0.2-0.3-0.2-0.5-0.2h-2.1v1.6h2.1c0.2,0,0.4-0.1,0.5-0.2C63,31.2,63,31,63,30.8z"/>
		
			<path style="clip-path:url(#SVGID_00000183934710926394707260000014445270354148658062_);fill:none;stroke:#706F6F;stroke-width:0.1563;stroke-miterlimit:10;" d="
			M63.9,30.8c0,0.4-0.2,0.8-0.5,1.1c-0.3,0.3-0.7,0.5-1.1,0.5h-2.1v2.4h-0.8v-5.6h3c0.4,0,0.8,0.2,1.1,0.5
			C63.7,30,63.9,30.4,63.9,30.8z"/>
		<path style="clip-path:url(#SVGID_00000183934710926394707260000014445270354148658062_);fill:#706F6F;" d="M68.7,34.8l-0.4-1
			h-2.6l-0.4,1h-0.9l2-5.6h1l2,5.6H68.7 M67.1,30.2l-1,2.8h2L67.1,30.2z"/>
		
			<polygon style="clip-path:url(#SVGID_00000183934710926394707260000014445270354148658062_);fill:none;stroke:#706F6F;stroke-width:0.1563;stroke-miterlimit:10;" points="
			67.1,30.2 66,32.9 68.1,32.9 		"/>
		
			<polygon style="clip-path:url(#SVGID_00000183934710926394707260000014445270354148658062_);fill:none;stroke:#706F6F;stroke-width:0.1563;stroke-miterlimit:10;" points="
			68.7,34.8 68.4,33.8 65.8,33.8 65.4,34.8 64.5,34.8 66.5,29.2 67.6,29.2 69.6,34.8 		"/>
		<path style="clip-path:url(#SVGID_00000183934710926394707260000014445270354148658062_);fill:#706F6F;" d="M75.2,32.6
			c0,0.6-0.2,1.2-0.7,1.6c-0.4,0.4-1,0.7-1.6,0.7c-0.6,0-1.2-0.2-1.6-0.7c-0.4-0.4-0.7-1-0.7-1.6v-3.4h0.8v3.4c0,0.4,0.1,0.7,0.4,1
			c0.3,0.3,0.6,0.4,1,0.4c0.4,0,0.7-0.1,1-0.4c0.3-0.3,0.4-0.6,0.4-1v-3.4h0.8V32.6"/>
		
			<path style="clip-path:url(#SVGID_00000183934710926394707260000014445270354148658062_);fill:none;stroke:#706F6F;stroke-width:0.1563;stroke-miterlimit:10;" d="
			M75.2,32.6c0,0.6-0.2,1.2-0.7,1.6c-0.4,0.4-1,0.7-1.6,0.7c-0.6,0-1.2-0.2-1.6-0.7c-0.4-0.4-0.7-1-0.7-1.6v-3.4h0.8v3.4
			c0,0.4,0.1,0.7,0.4,1c0.3,0.3,0.6,0.4,1,0.4c0.4,0,0.7-0.1,1-0.4c0.3-0.3,0.4-0.6,0.4-1v-3.4h0.8V32.6z"/>
		<polyline style="clip-path:url(#SVGID_00000183934710926394707260000014445270354148658062_);fill:#706F6F;" points="78.9,30 
			78.9,34.8 78.1,34.8 78.1,30 76.4,30 76.4,29.2 80.6,29.2 80.6,30 78.9,30 		"/>
		
			<polygon style="clip-path:url(#SVGID_00000183934710926394707260000014445270354148658062_);fill:none;stroke:#706F6F;stroke-width:0.1563;stroke-miterlimit:10;" points="
			78.9,30 78.9,34.8 78.1,34.8 78.1,30 76.4,30 76.4,29.2 80.6,29.2 80.6,30 		"/>
		<path style="clip-path:url(#SVGID_00000183934710926394707260000014445270354148658062_);fill:#706F6F;" d="M81.8,34.8v-5.6h3.5
			V30h-2.7v1.5h2v0.8h-2V34h2.7v0.8H81.8 M83.6,28.7H83l0.8-0.8h0.9L83.6,28.7z"/>
		
			<polygon style="clip-path:url(#SVGID_00000183934710926394707260000014445270354148658062_);fill:none;stroke:#706F6F;stroke-width:0.1563;stroke-miterlimit:10;" points="
			83.6,28.7 83,28.7 83.9,27.8 84.8,27.8 		"/>
		
			<polygon style="clip-path:url(#SVGID_00000183934710926394707260000014445270354148658062_);fill:none;stroke:#706F6F;stroke-width:0.1563;stroke-miterlimit:10;" points="
			81.8,34.8 81.8,29.2 85.3,29.2 85.3,30 82.6,30 82.6,31.5 84.6,31.5 84.6,32.3 82.6,32.3 82.6,34 85.3,34 85.3,34.8 		"/>
		<path style="clip-path:url(#SVGID_00000183934710926394707260000014445270354148658062_);fill:#706F6F;" d="M94.8,32
			c0,0.8-0.3,1.4-0.8,2c-0.5,0.5-1.2,0.8-2,0.8h-2.1v-5.6H92c0.8,0,1.4,0.3,2,0.8C94.5,30.6,94.8,31.2,94.8,32 M94,32
			c0-0.5-0.2-1-0.6-1.4C93,30.2,92.5,30,92,30h-1.3v4H92c0.5,0,1-0.2,1.4-0.6C93.8,33,94,32.5,94,32z"/>
		
			<path style="clip-path:url(#SVGID_00000183934710926394707260000014445270354148658062_);fill:none;stroke:#706F6F;stroke-width:0.1563;stroke-miterlimit:10;" d="
			M94,32c0-0.5-0.2-1-0.6-1.4C93,30.2,92.5,30,92,30h-1.3v4H92c0.5,0,1-0.2,1.4-0.6C93.8,33,94,32.5,94,32z"/>
		
			<path style="clip-path:url(#SVGID_00000183934710926394707260000014445270354148658062_);fill:none;stroke:#706F6F;stroke-width:0.1563;stroke-miterlimit:10;" d="
			M94.8,32c0,0.8-0.3,1.4-0.8,2c-0.5,0.5-1.2,0.8-2,0.8h-2.1v-5.6H92c0.8,0,1.4,0.3,2,0.8C94.5,30.6,94.8,31.2,94.8,32z"/>
		<polyline style="clip-path:url(#SVGID_00000183934710926394707260000014445270354148658062_);fill:#706F6F;" points="96.2,34.8 
			96.2,29.2 99.7,29.2 99.7,30 97,30 97,31.5 99,31.5 99,32.3 97,32.3 97,34 99.7,34 99.7,34.8 96.2,34.8 		"/>
		
			<polygon style="clip-path:url(#SVGID_00000183934710926394707260000014445270354148658062_);fill:none;stroke:#706F6F;stroke-width:0.1563;stroke-miterlimit:10;" points="
			96.2,34.8 96.2,29.2 99.7,29.2 99.7,30 97,30 97,31.5 99,31.5 99,32.3 97,32.3 97,34 99.7,34 99.7,34.8 		"/>
		<polyline style="clip-path:url(#SVGID_00000183934710926394707260000014445270354148658062_);fill:#706F6F;" points="109,34.8 
			109,31.2 107.5,34.8 106.7,34.8 105.1,31.2 105.1,34.8 104.3,34.8 104.3,29.2 105.1,29.2 107.1,33.7 109,29.2 109.9,29.2 
			109.9,34.8 109,34.8 		"/>
		
			<polygon style="clip-path:url(#SVGID_00000183934710926394707260000014445270354148658062_);fill:none;stroke:#706F6F;stroke-width:0.1563;stroke-miterlimit:10;" points="
			109,34.8 109,31.2 107.5,34.8 106.7,34.8 105.1,31.2 105.1,34.8 104.3,34.8 104.3,29.2 105.1,29.2 107.1,33.7 109,29.2 
			109.9,29.2 109.9,34.8 		"/>
		<path style="clip-path:url(#SVGID_00000183934710926394707260000014445270354148658062_);fill:#706F6F;" d="M116.9,32
			c0,0.8-0.3,1.4-0.8,2c-0.6,0.6-1.2,0.8-2,0.8s-1.4-0.3-2-0.8c-0.6-0.6-0.8-1.2-0.8-2c0-0.8,0.3-1.4,0.8-2c0.6-0.6,1.2-0.8,2-0.8
			s1.4,0.3,2,0.8C116.7,30.5,116.9,31.2,116.9,32 M116.1,32c0-0.6-0.2-1-0.6-1.4c-0.4-0.4-0.9-0.6-1.4-0.6c-0.6,0-1,0.2-1.4,0.6
			c-0.4,0.4-0.6,0.9-0.6,1.4c0,0.6,0.2,1,0.6,1.4c0.4,0.4,0.9,0.6,1.4,0.6c0.6,0,1-0.2,1.4-0.6C115.9,33,116.1,32.5,116.1,32z"/>
		
			<path style="clip-path:url(#SVGID_00000183934710926394707260000014445270354148658062_);fill:none;stroke:#706F6F;stroke-width:0.1563;stroke-miterlimit:10;" d="
			M116.1,32c0-0.6-0.2-1-0.6-1.4c-0.4-0.4-0.9-0.6-1.4-0.6c-0.6,0-1,0.2-1.4,0.6c-0.4,0.4-0.6,0.9-0.6,1.4c0,0.6,0.2,1,0.6,1.4
			c0.4,0.4,0.9,0.6,1.4,0.6c0.6,0,1-0.2,1.4-0.6C115.9,33,116.1,32.5,116.1,32z"/>
		
			<path style="clip-path:url(#SVGID_00000183934710926394707260000014445270354148658062_);fill:none;stroke:#706F6F;stroke-width:0.1563;stroke-miterlimit:10;" d="
			M116.9,32c0,0.8-0.3,1.4-0.8,2c-0.6,0.6-1.2,0.8-2,0.8s-1.4-0.3-2-0.8c-0.6-0.6-0.8-1.2-0.8-2c0-0.8,0.3-1.4,0.8-2
			c0.6-0.6,1.2-0.8,2-0.8s1.4,0.3,2,0.8C116.7,30.5,116.9,31.2,116.9,32z"/>
		<polyline style="clip-path:url(#SVGID_00000183934710926394707260000014445270354148658062_);fill:#706F6F;" points="121.7,34.8 
			119.1,30.8 119.1,34.8 118.3,34.8 118.3,29.2 119.1,29.2 121.7,33.2 121.7,29.2 122.5,29.2 122.5,34.8 121.7,34.8 		"/>
		
			<polygon style="clip-path:url(#SVGID_00000183934710926394707260000014445270354148658062_);fill:none;stroke:#706F6F;stroke-width:0.1563;stroke-miterlimit:10;" points="
			121.7,34.8 119.1,30.8 119.1,34.8 118.3,34.8 118.3,29.2 119.1,29.2 121.7,33.2 121.7,29.2 122.5,29.2 122.5,34.8 		"/>
		<path style="clip-path:url(#SVGID_00000183934710926394707260000014445270354148658062_);fill:#706F6F;" d="M127.7,34.8l-0.4-1
			h-2.6l-0.4,1h-0.9l2-5.6h1l2,5.6H127.7 M126.1,30.2l-1,2.8h2L126.1,30.2z"/>
		
			<polygon style="clip-path:url(#SVGID_00000183934710926394707260000014445270354148658062_);fill:none;stroke:#706F6F;stroke-width:0.1563;stroke-miterlimit:10;" points="
			126.1,30.2 125.1,32.9 127.1,32.9 		"/>
		
			<polygon style="clip-path:url(#SVGID_00000183934710926394707260000014445270354148658062_);fill:none;stroke:#706F6F;stroke-width:0.1563;stroke-miterlimit:10;" points="
			127.7,34.8 127.4,33.8 124.8,33.8 124.4,34.8 123.5,34.8 125.6,29.2 126.6,29.2 128.6,34.8 		"/>
		<path style="clip-path:url(#SVGID_00000183934710926394707260000014445270354148658062_);fill:#706F6F;" d="M133.9,30.9
			c-0.2-0.3-0.5-0.5-0.8-0.7c-0.3-0.2-0.6-0.3-1-0.3c-0.6,0-1,0.2-1.4,0.6c-0.4,0.4-0.6,0.9-0.6,1.4c0,0.6,0.2,1,0.6,1.4
			c0.4,0.4,0.9,0.6,1.4,0.6c0.7,0,1.3-0.3,1.7-1l0.7,0.5c-0.3,0.4-0.6,0.7-1,1c-0.4,0.2-0.9,0.4-1.4,0.4c-0.8,0-1.4-0.3-2-0.8
			c-0.6-0.6-0.8-1.2-0.8-2c0-0.8,0.3-1.4,0.8-2c0.6-0.6,1.2-0.8,2-0.8c0.5,0,1,0.1,1.4,0.4c0.4,0.2,0.8,0.6,1,1L133.9,30.9"/>
		
			<path style="clip-path:url(#SVGID_00000183934710926394707260000014445270354148658062_);fill:none;stroke:#706F6F;stroke-width:0.1563;stroke-miterlimit:10;" d="
			M133.9,30.9c-0.2-0.3-0.5-0.5-0.8-0.7c-0.3-0.2-0.6-0.3-1-0.3c-0.6,0-1,0.2-1.4,0.6c-0.4,0.4-0.6,0.9-0.6,1.4c0,0.6,0.2,1,0.6,1.4
			c0.4,0.4,0.9,0.6,1.4,0.6c0.7,0,1.3-0.3,1.7-1l0.7,0.5c-0.3,0.4-0.6,0.7-1,1c-0.4,0.2-0.9,0.4-1.4,0.4c-0.8,0-1.4-0.3-2-0.8
			c-0.6-0.6-0.8-1.2-0.8-2c0-0.8,0.3-1.4,0.8-2c0.6-0.6,1.2-0.8,2-0.8c0.5,0,1,0.1,1.4,0.4c0.4,0.2,0.8,0.6,1,1L133.9,30.9z"/>
		<path style="clip-path:url(#SVGID_00000183934710926394707260000014445270354148658062_);fill:#706F6F;" d="M141.3,32
			c0,0.8-0.3,1.4-0.8,2c-0.6,0.6-1.2,0.8-2,0.8c-0.8,0-1.4-0.3-2-0.8c-0.6-0.6-0.8-1.2-0.8-2c0-0.8,0.3-1.4,0.8-2
			c0.6-0.6,1.2-0.8,2-0.8c0.8,0,1.4,0.3,2,0.8C141,30.5,141.3,31.2,141.3,32 M140.5,32c0-0.6-0.2-1-0.6-1.4
			c-0.4-0.4-0.9-0.6-1.4-0.6c-0.6,0-1,0.2-1.4,0.6c-0.4,0.4-0.6,0.9-0.6,1.4c0,0.6,0.2,1,0.6,1.4c0.4,0.4,0.9,0.6,1.4,0.6
			c0.6,0,1-0.2,1.4-0.6C140.3,33,140.5,32.5,140.5,32z"/>
		
			<path style="clip-path:url(#SVGID_00000183934710926394707260000014445270354148658062_);fill:none;stroke:#706F6F;stroke-width:0.1563;stroke-miterlimit:10;" d="
			M140.5,32c0-0.6-0.2-1-0.6-1.4c-0.4-0.4-0.9-0.6-1.4-0.6c-0.6,0-1,0.2-1.4,0.6c-0.4,0.4-0.6,0.9-0.6,1.4c0,0.6,0.2,1,0.6,1.4
			c0.4,0.4,0.9,0.6,1.4,0.6c0.6,0,1-0.2,1.4-0.6C140.3,33,140.5,32.5,140.5,32z"/>
		
			<path style="clip-path:url(#SVGID_00000183934710926394707260000014445270354148658062_);fill:none;stroke:#706F6F;stroke-width:0.1563;stroke-miterlimit:10;" d="
			M141.3,32c0,0.8-0.3,1.4-0.8,2c-0.6,0.6-1.2,0.8-2,0.8c-0.8,0-1.4-0.3-2-0.8c-0.6-0.6-0.8-1.2-0.8-2c0-0.8,0.3-1.4,0.8-2
			c0.6-0.6,1.2-0.8,2-0.8c0.8,0,1.4,0.3,2,0.8C141,30.5,141.3,31.2,141.3,32z"/>
		<path style="clip-path:url(#SVGID_00000183934710926394707260000014445270354148658062_);fill:#B51F1F;" d="M22.1,8
			c0,0-1.6,0-1.6,0c-0.4-0.7-0.9-1.2-1.5-1.3l-2,0c-0.3,0-0.6,0.2-0.9,0.4c-0.2,0.2-0.5,0.3-0.8,0.4c0.3-0.2,0.5-0.5,0.5-0.8
			c0-0.1,0-0.1,0-0.2l-0.5-1.1l1.1,0.6l0-2.2l-1.1,0.6l0.6-1.1l-1.2,0v0l-0.1,0l-0.1,0v0l-1.2,0l0.6,1.1l-1.1-0.6l0,2.2l1.1-0.6
			l-0.5,1.1c0,0.1,0,0.1,0,0.2c0,0.3,0.2,0.6,0.5,0.8c-0.3-0.1-0.5-0.3-0.8-0.4c-0.3-0.2-0.6-0.4-0.9-0.4l-2,0C9.5,6.8,9,7.3,8.6,8
			C8.6,8,7,8,7,8c-2.1,0.1-3.7,1.6-3.7,3.4c0,1.2,0.8,2.3,2,3c1.3,0.7,2.1,1.8,2.1,3H7.1c-0.3,0-0.5,0.2-0.5,0.4
			c0,0.2,0.2,0.4,0.5,0.4l0,0.9c-0.3,0-0.5,0.2-0.5,0.4c0,0.2,0.2,0.4,0.5,0.4H22c0.3,0,0.5-0.2,0.5-0.4c0-0.2-0.2-0.4-0.5-0.4
			l0-0.9c0.3,0,0.5-0.2,0.5-0.4c0-0.2-0.2-0.4-0.5-0.4h-0.3c0.1-1.2,0.9-2.3,2.1-3c1.2-0.6,2-1.7,2-3C25.8,9.6,24.2,8.2,22.1,8
			 M18,7.9c0.2,0.1,0.3,0.3,0.4,0.6c-0.6,0.2-1.2,0.4-1.9,0.5c0-0.1,0-0.2-0.1-0.3C17,8.5,17.5,8.2,18,7.9z M11.1,7.9
			c0.5,0.4,1,0.6,1.6,0.7c0,0.1,0,0.2-0.1,0.3c-0.7-0.1-1.4-0.2-1.9-0.5C10.8,8.2,11,8,11.1,7.9z M9.7,17.4c-0.1-1.4-1-2.8-2.5-3.6
			c-1-0.5-1.6-1.4-1.6-2.4c0-1.3,1-2.4,2.4-2.7c0.1,0,0.2,0,0.2,0.1C8.1,9.4,8,10,8,10.6c0,1.3,0.4,2.6,1,3.3l0.6,0.9
			c0.4,0.7,0.6,1.6,0.7,2.6H9.7z M13.3,17.3L13.3,17.3l-0.8,0.1c0-1.1-0.3-2.3-0.8-3.2c-0.1-0.2-0.5-0.8-0.6-0.9
			c-0.6-0.6-0.9-1.6-0.9-2.7c0-0.4,0-0.8,0.1-1.2c0.7,0.1,1.5,0.2,2.2,0.2c0,0.3-0.1,0.6-0.1,1c0,0.5,0,1,0.1,1.5c0,0,0,0.2,0.4,1.9
			C13.3,15,13.4,16.5,13.3,17.3z M14.5,19.6l-1.2-0.7l1.2-0.7l1.2,0.7L14.5,19.6z M17.4,14.2c-0.5,0.9-0.8,2-0.8,3.2l-0.8,0l0-0.1
			c-0.2-0.8,0-2.3,0.3-3.3c0.4-1.6,0.4-1.9,0.4-1.9c0.1-0.5,0.1-0.9,0.1-1.5c0-0.3,0-0.7-0.1-1c0.8,0,1.5-0.1,2.2-0.2
			c0.1,0.4,0.1,0.8,0.1,1.2c0,1.1-0.3,2.1-0.9,2.7C17.9,13.5,17.5,14.1,17.4,14.2z M21.9,13.8c-1.5,0.8-2.5,2.2-2.5,3.6h-0.7
			c0-0.9,0.3-1.8,0.7-2.6l0.6-0.9c0.6-0.7,1-2,1-3.3c0-0.7-0.1-1.3-0.3-1.8c0.1,0,0.2,0,0.2-0.1c1.4,0.3,2.4,1.4,2.4,2.7
			C23.5,12.4,22.9,13.3,21.9,13.8z"/>
	</g>
</g>
</svg>
