<?xml version="1.0" encoding="utf-8"?>
<!-- Generator: Adobe Illustrator 26.0.1, SVG Export Plug-In . SVG Version: 6.00 Build 0)  -->
<svg version="1.1" id="Logo-Sirtomad" xmlns="http://www.w3.org/2000/svg" xmlns:xlink="http://www.w3.org/1999/xlink" x="0px"
	 y="0px" viewBox="0 0 349.6 89.9" style="enable-background:new 0 0 349.6 89.9;" xml:space="preserve">
<style type="text/css">
	.st0{fill:#525251;}
	.st1{fill:url(#SVGID_1_);}
	.st2{fill:url(#SVGID_00000175297017226930955450000005759071944582438313_);}
	.st3{fill:url(#SVGID_00000028306690556774571270000000541110638606217610_);}
	.st4{fill:#706F6F;}
</style>
<g>
	<g>
		<path class="st0" d="M18.4,68.4c0.6,0.5,1,1.1,1.3,1.9s0.4,1.5,0.4,2.4c0,1.7-0.5,3.1-1.6,4.2c-0.5,0.5-1.2,1-2,1.2
			c-0.8,0.3-1.6,0.4-2.5,0.4H9.7V66.8h4.3c0.9,0,1.8,0.1,2.5,0.4C17.2,67.4,17.9,67.8,18.4,68.4z M17.2,75.8
			c0.8-0.8,1.3-1.8,1.3-3.1c0-1.3-0.4-2.3-1.2-3.1s-1.9-1.2-3.4-1.2h-2.5v8.6h2.5C15.2,76.9,16.4,76.5,17.2,75.8z"/>
		<path class="st0" d="M24.4,66.8v11.6h-1.6V66.8H24.4z"/>
		<path class="st0" d="M37.7,66.8v11.6h-1.6v-8.9l-3.7,4.6l-3.7-4.6v8.9H27V66.8h1.4l3.9,4.8l3.9-4.8H37.7z"/>
		<path class="st0" d="M41.9,66.8v11.6h-1.6V66.8H41.9z"/>
		<path class="st0" d="M55.1,66.8v11.6h-1.3l-7.6-8.8v8.8h-1.6V66.8h1.3c0.7,0.9,1.5,1.7,2.1,2.5c0.7,0.8,1.4,1.6,2.1,2.3
			c0.6,0.6,1.1,1.3,1.7,1.9c0.6,0.7,1.1,1.3,1.7,2v-8.8H55.1z"/>
		<path class="st0" d="M67.8,66.8v6.5c0,0.8-0.1,1.4-0.3,2.1s-0.6,1.2-1,1.7c-0.9,1-2.1,1.5-3.6,1.5c-1.4,0-2.6-0.5-3.6-1.4
			S58,74.9,58,73.4v-6.6h1.6v6.5c0,0.6,0.1,1.1,0.2,1.5c0.2,0.4,0.4,0.8,0.7,1.1c0.6,0.6,1.4,1,2.4,1c1,0,1.8-0.3,2.4-1
			c0.3-0.3,0.5-0.7,0.7-1.2s0.2-1,0.2-1.6v-6.5H67.8z"/>
		<path class="st0" d="M77,76.9v1.5h-6.8V66.8h6.7v1.5h-5.1v3.5h4.9v1.5h-4.9v3.6H77z"/>
		<path class="st0" d="M86.1,74.7l2.4,3.7h-1.9l-2-3.1c-0.2-0.3-0.4-0.6-0.6-0.8c-0.2-0.3-0.4-0.5-0.5-0.7c-0.3-0.3-0.8-0.5-1.4-0.5
			h-1.3v5.2h-1.6V66.8h3.1c0.6,0,1.1,0.1,1.6,0.2c0.5,0.1,0.9,0.3,1.3,0.6c0.4,0.3,0.6,0.6,0.8,1c0.2,0.4,0.3,0.9,0.3,1.4
			c0,0.8-0.2,1.5-0.7,2c-0.3,0.3-0.6,0.6-1,0.8c0.1,0.1,0.2,0.2,0.2,0.3s0.2,0.2,0.2,0.3c0.2,0.2,0.3,0.5,0.5,0.7
			C85.8,74.2,86,74.5,86.1,74.7z M84.1,71.3c0.2-0.1,0.3-0.3,0.4-0.5s0.2-0.4,0.2-0.7c0-0.5-0.2-0.9-0.6-1.2c-0.4-0.3-1-0.5-1.8-0.5
			h-1.5v3.4h1.4c0.4,0,0.8,0,1.1-0.1S83.9,71.4,84.1,71.3z"/>
		<path class="st0" d="M102.5,76.9v1.5h-7V66.8h1.6v10.1H102.5z"/>
		<path class="st0" d="M111.2,76.9v1.5h-6.8V66.8h6.7v1.5H106v3.5h4.9v1.5H106v3.6H111.2z"/>
		<path class="st0" d="M119,73.1c0.5,0.5,0.7,1.3,0.7,2.2c0,0.9-0.3,1.7-1,2.3s-1.5,1-2.4,1c-0.7,0-1.3-0.1-1.9-0.4
			c-0.3-0.1-0.5-0.2-0.7-0.3c-0.2-0.1-0.4-0.3-0.7-0.4v-2c0.3,0.2,0.5,0.4,0.7,0.5s0.4,0.3,0.5,0.4c0.2,0.1,0.3,0.2,0.4,0.2
			c0.1,0.1,0.2,0.1,0.3,0.2c0.4,0.2,0.7,0.3,1.1,0.3c0.5,0,1-0.2,1.4-0.5c0.4-0.3,0.5-0.8,0.5-1.3c0-0.3,0-0.5-0.1-0.7
			s-0.2-0.4-0.4-0.5c-0.2-0.1-0.4-0.3-0.7-0.5c-0.3-0.2-0.7-0.3-1.1-0.5c-0.9-0.3-1.6-0.7-2.1-1.2c-0.3-0.3-0.4-0.6-0.6-0.9
			c-0.1-0.3-0.2-0.7-0.2-1.2c0-0.9,0.3-1.6,1-2.3c0.7-0.6,1.5-1,2.4-1c0.7,0,1.3,0.1,1.8,0.3c0.3,0.1,0.5,0.2,0.6,0.3
			s0.3,0.2,0.5,0.3l0,1.8c-0.2-0.1-0.4-0.2-0.5-0.3c-0.2-0.1-0.3-0.2-0.4-0.2c-0.1-0.1-0.2-0.1-0.3-0.2c-0.1,0-0.2-0.1-0.3-0.2
			c-0.3-0.2-0.8-0.3-1.3-0.3c-0.5,0-1,0.2-1.3,0.5c-0.4,0.3-0.5,0.7-0.5,1.1c0,0.3,0,0.5,0.1,0.6s0.2,0.3,0.3,0.4
			c0.3,0.3,0.9,0.6,1.6,0.9c0.6,0.2,1,0.4,1.4,0.6C118.4,72.6,118.7,72.8,119,73.1z"/>
		<path class="st0" d="M136.9,68.4c0.6,0.5,1,1.1,1.3,1.9s0.4,1.5,0.4,2.4c0,1.7-0.5,3.1-1.6,4.2c-0.5,0.5-1.2,1-2,1.2
			c-0.8,0.3-1.6,0.4-2.5,0.4h-4.4V66.8h4.3c0.9,0,1.8,0.1,2.5,0.4C135.7,67.4,136.4,67.8,136.9,68.4z M135.7,75.8
			c0.8-0.8,1.3-1.8,1.3-3.1c0-1.3-0.4-2.3-1.2-3.1s-1.9-1.2-3.4-1.2h-2.5v8.6h2.5C133.7,76.9,134.8,76.5,135.7,75.8z"/>
		<path class="st0" d="M147.9,76.9v1.5H141V66.8h6.7v1.5h-5.1v3.5h4.9v1.5l-4.9,0v3.6H147.9z M145.5,63.4h2.4l-3.2,3.3h-1.4
			L145.5,63.4z"/>
		<path class="st0" d="M160,75.6v1.8c-0.4,0.2-0.7,0.4-1,0.5c-0.3,0.1-0.7,0.3-1,0.4c-0.4,0.1-0.7,0.2-1.1,0.2c-0.3,0-0.7,0.1-1,0.1
			c-1.8,0-3.3-0.6-4.5-1.7c-1.2-1.1-1.8-2.5-1.8-4.3c0-1.7,0.6-3.1,1.8-4.2c0.6-0.6,1.3-1,2-1.3c0.7-0.3,1.6-0.4,2.4-0.4
			c0.6,0,1.3,0.1,1.9,0.3c0.4,0.1,0.7,0.2,1,0.3c0.3,0.1,0.7,0.3,1.1,0.5v1.9c-0.5-0.3-1-0.5-1.3-0.7c-0.3-0.2-0.7-0.3-1-0.4
			c-0.6-0.2-1.3-0.3-1.9-0.3c-1.3,0-2.3,0.4-3.1,1.3c-0.8,0.8-1.3,1.9-1.3,3.1c0,1.3,0.4,2.4,1.2,3.2c0.8,0.8,1.9,1.2,3.2,1.2
			c0.7,0,1.4-0.1,2-0.3c0.2-0.1,0.3-0.1,0.5-0.2c0.2-0.1,0.3-0.1,0.5-0.2c0.2-0.1,0.4-0.2,0.6-0.3C159.5,75.9,159.7,75.7,160,75.6z"
			/>
		<path class="st0" d="M171.8,66.8v11.6h-1.6v-5.1h-6.4v5.1h-1.6V66.8h1.6v5h6.4v-5H171.8z"/>
		<path class="st0" d="M181,76.9v1.5h-6.8V66.8h6.7v1.5h-5.1v3.5h4.9v1.5h-4.9v3.6H181z"/>
		<path class="st0" d="M192.2,66.8v1.5h-4.1v10.1h-1.6V68.3h-4.1v-1.5H192.2z"/>
		<path class="st0" d="M199.3,73.1c0.5,0.5,0.7,1.3,0.7,2.2c0,0.9-0.3,1.7-1,2.3s-1.5,1-2.4,1c-0.7,0-1.3-0.1-1.9-0.4
			c-0.3-0.1-0.5-0.2-0.7-0.3c-0.2-0.1-0.4-0.3-0.7-0.4v-2c0.3,0.2,0.5,0.4,0.7,0.5s0.4,0.3,0.5,0.4c0.2,0.1,0.3,0.2,0.4,0.2
			c0.1,0.1,0.2,0.1,0.3,0.2c0.4,0.2,0.7,0.3,1.1,0.3c0.5,0,1-0.2,1.4-0.5c0.4-0.3,0.5-0.8,0.5-1.3c0-0.3,0-0.5-0.1-0.7
			s-0.2-0.4-0.4-0.5c-0.2-0.1-0.4-0.3-0.7-0.5c-0.3-0.2-0.7-0.3-1.1-0.5c-0.9-0.3-1.6-0.7-2.1-1.2c-0.3-0.3-0.4-0.6-0.6-0.9
			c-0.1-0.3-0.2-0.7-0.2-1.2c0-0.9,0.3-1.6,1-2.3c0.7-0.6,1.5-1,2.4-1c0.7,0,1.3,0.1,1.8,0.3c0.3,0.1,0.5,0.2,0.6,0.3
			s0.3,0.2,0.5,0.3l0,1.8c-0.2-0.1-0.4-0.2-0.5-0.3c-0.2-0.1-0.3-0.2-0.4-0.2c-0.1-0.1-0.2-0.1-0.3-0.2c-0.1,0-0.2-0.1-0.3-0.2
			c-0.3-0.2-0.8-0.3-1.3-0.3c-0.5,0-1,0.2-1.3,0.5c-0.4,0.3-0.5,0.7-0.5,1.1c0,0.3,0,0.5,0.1,0.6s0.2,0.3,0.3,0.4
			c0.3,0.3,0.9,0.6,1.6,0.9c0.6,0.2,1,0.4,1.4,0.6C198.8,72.6,199.1,72.8,199.3,73.1z"/>
		<path class="st0" d="M204.1,76.1v1.7c0,0.5-0.1,0.9-0.3,1.4c-0.1,0.2-0.2,0.3-0.3,0.5s-0.3,0.3-0.4,0.4c0,0,0,0-0.1,0.1
			c0,0-0.1,0.1-0.1,0.1c-0.1,0-0.1,0.1-0.2,0.2c-0.1,0.1-0.2,0.2-0.4,0.3v-1.5c0.1-0.1,0.1-0.1,0.1-0.2c0,0,0-0.1,0.1-0.1
			s0.1-0.1,0.1-0.1s0.1-0.1,0.1-0.1c0-0.1,0.1-0.2,0.1-0.3h-0.3v-2.3H204.1z"/>
		<path class="st0" d="M220,66.8h1.7l-4.9,11.7H216l-4.9-11.7h1.7l3.6,8.5L220,66.8z"/>
		<path class="st0" d="M226,66.7l5.3,11.7h-1.7l-1.7-3.7h-4.8l-1.7,3.7h-1.7l5.4-11.7H226z M223.8,73.2h3.4l-1.7-3.7L223.8,73.2z"/>
		<path class="st0" d="M239.8,76.9v1.5h-7V66.8h1.6v10.1H239.8z"/>
		<path class="st0" d="M250.5,68.4c1.2,1.2,1.8,2.6,1.8,4.2c0,1.7-0.6,3.1-1.8,4.2c-1.2,1.1-2.6,1.7-4.3,1.7c-1.7,0-3.2-0.6-4.4-1.7
			c-1.2-1.1-1.8-2.6-1.8-4.2s0.6-3.1,1.7-4.2c1.2-1.1,2.6-1.7,4.4-1.7C247.9,66.7,249.3,67.2,250.5,68.4z M249.3,75.7
			c0.9-0.9,1.3-1.9,1.3-3.1s-0.4-2.2-1.3-3.1c-0.9-0.9-1.9-1.3-3.1-1.3c-1.2,0-2.3,0.4-3.1,1.3c-0.9,0.9-1.3,1.9-1.3,3.1
			c0,1.2,0.4,2.2,1.3,3.1c0.9,0.9,1.9,1.3,3.2,1.3C247.4,77,248.4,76.6,249.3,75.7z"/>
		<path class="st0" d="M261.5,74.7l2.4,3.7h-1.9l-2-3.1c-0.2-0.3-0.4-0.6-0.6-0.8c-0.2-0.3-0.4-0.5-0.5-0.7
			c-0.3-0.3-0.8-0.5-1.4-0.5h-1.3v5.2h-1.6V66.8h3.1c0.6,0,1.1,0.1,1.6,0.2c0.5,0.1,0.9,0.3,1.3,0.6c0.4,0.3,0.6,0.6,0.8,1
			c0.2,0.4,0.3,0.9,0.3,1.4c0,0.8-0.2,1.5-0.7,2c-0.3,0.3-0.6,0.6-1,0.8c0.1,0.1,0.2,0.2,0.2,0.3s0.2,0.2,0.2,0.3
			c0.2,0.2,0.3,0.5,0.5,0.7C261.2,74.2,261.3,74.5,261.5,74.7z M259.4,71.3c0.2-0.1,0.3-0.3,0.4-0.5s0.2-0.4,0.2-0.7
			c0-0.5-0.2-0.9-0.6-1.2c-0.4-0.3-1-0.5-1.8-0.5h-1.5v3.4h1.4c0.4,0,0.8,0,1.1-0.1S259.2,71.4,259.4,71.3z"/>
		<path class="st0" d="M267.6,66.8v11.6H266V66.8H267.6z"/>
		<path class="st0" d="M275.8,73.1c0.5,0.5,0.7,1.3,0.7,2.2c0,0.9-0.3,1.7-1,2.3s-1.5,1-2.4,1c-0.7,0-1.3-0.1-1.9-0.4
			c-0.3-0.1-0.5-0.2-0.7-0.3c-0.2-0.1-0.4-0.3-0.7-0.4v-2c0.3,0.2,0.5,0.4,0.7,0.5s0.4,0.3,0.5,0.4c0.2,0.1,0.3,0.2,0.4,0.2
			c0.1,0.1,0.2,0.1,0.3,0.2c0.4,0.2,0.7,0.3,1.1,0.3c0.5,0,1-0.2,1.4-0.5c0.4-0.3,0.5-0.8,0.5-1.3c0-0.3,0-0.5-0.1-0.7
			s-0.2-0.4-0.4-0.5c-0.2-0.1-0.4-0.3-0.7-0.5c-0.3-0.2-0.7-0.3-1.1-0.5c-0.9-0.3-1.6-0.7-2.1-1.2c-0.3-0.3-0.4-0.6-0.6-0.9
			c-0.1-0.3-0.2-0.7-0.2-1.2c0-0.9,0.3-1.6,1-2.3c0.7-0.6,1.5-1,2.4-1c0.7,0,1.3,0.1,1.8,0.3c0.3,0.1,0.5,0.2,0.6,0.3
			s0.3,0.2,0.5,0.3l0,1.8c-0.2-0.1-0.4-0.2-0.5-0.3c-0.2-0.1-0.3-0.2-0.4-0.2c-0.1-0.1-0.2-0.1-0.3-0.2c-0.1,0-0.2-0.1-0.3-0.2
			c-0.3-0.2-0.8-0.3-1.3-0.3c-0.5,0-1,0.2-1.3,0.5c-0.4,0.3-0.5,0.7-0.5,1.1c0,0.3,0,0.5,0.1,0.6s0.2,0.3,0.3,0.4
			c0.3,0.3,0.9,0.6,1.6,0.9c0.6,0.2,1,0.4,1.4,0.6C275.2,72.6,275.5,72.8,275.8,73.1z"/>
		<path class="st0" d="M285.2,76.9v1.5h-6.8V66.8h6.7v1.5H280v3.5h4.9v1.5H280v3.6H285.2z"/>
		<path class="st0" d="M294.3,74.7l2.4,3.7h-1.9l-2-3.1c-0.2-0.3-0.4-0.6-0.6-0.8c-0.2-0.3-0.4-0.5-0.5-0.7
			c-0.3-0.3-0.8-0.5-1.4-0.5H289v5.2h-1.6V66.8h3.1c0.6,0,1.1,0.1,1.6,0.2c0.5,0.1,0.9,0.3,1.3,0.6c0.4,0.3,0.6,0.6,0.8,1
			c0.2,0.4,0.3,0.9,0.3,1.4c0,0.8-0.2,1.5-0.7,2c-0.3,0.3-0.6,0.6-1,0.8c0.1,0.1,0.2,0.2,0.2,0.3s0.2,0.2,0.2,0.3
			c0.2,0.2,0.3,0.5,0.5,0.7C294,74.2,294.1,74.5,294.3,74.7z M292.3,71.3c0.2-0.1,0.3-0.3,0.4-0.5s0.2-0.4,0.2-0.7
			c0-0.5-0.2-0.9-0.6-1.2c-0.4-0.3-1-0.5-1.8-0.5H289v3.4h1.4c0.4,0,0.8,0,1.1-0.1S292.1,71.4,292.3,71.3z"/>
		<path class="st0" d="M310.2,67.6c0.4,0.3,0.6,0.6,0.8,1.1c0.2,0.4,0.3,0.9,0.3,1.4c0,0.5-0.1,1-0.3,1.4s-0.5,0.8-0.8,1.1
			c-0.7,0.5-1.7,0.8-2.8,0.8h-1.7v5.1h-1.6V66.8h3.5c0.6,0,1.1,0.1,1.6,0.2C309.4,67.2,309.8,67.4,310.2,67.6z M309,71.4
			c0.2-0.1,0.3-0.3,0.4-0.5c0.1-0.2,0.2-0.5,0.2-0.8c0-0.3,0-0.5-0.1-0.7c-0.1-0.2-0.2-0.4-0.4-0.5c-0.2-0.2-0.4-0.3-0.7-0.4
			s-0.6-0.1-1-0.1h-1.8v3.6h1.7C308,71.9,308.6,71.7,309,71.4z"/>
		<path class="st0" d="M320.1,76.9v1.5h-7V66.8h1.6v10.1H320.1z"/>
		<path class="st0" d="M330.8,66.8v6.5c0,0.8-0.1,1.4-0.3,2.1s-0.6,1.2-1,1.7c-0.9,1-2.1,1.5-3.6,1.5c-1.4,0-2.6-0.5-3.6-1.4
			s-1.4-2.2-1.4-3.7v-6.6h1.6v6.5c0,0.6,0.1,1.1,0.2,1.5c0.2,0.4,0.4,0.8,0.7,1.1c0.6,0.6,1.4,1,2.4,1c1,0,1.8-0.3,2.4-1
			c0.3-0.3,0.5-0.7,0.7-1.2s0.2-1,0.2-1.6v-6.5H330.8z"/>
		<path class="st0" d="M339.3,73.1c0.5,0.5,0.7,1.3,0.7,2.2c0,0.9-0.3,1.7-1,2.3s-1.5,1-2.4,1c-0.7,0-1.3-0.1-1.9-0.4
			c-0.3-0.1-0.5-0.2-0.7-0.3c-0.2-0.1-0.4-0.3-0.7-0.4v-2c0.3,0.2,0.5,0.4,0.7,0.5s0.4,0.3,0.5,0.4c0.2,0.1,0.3,0.2,0.4,0.2
			c0.1,0.1,0.2,0.1,0.3,0.2c0.4,0.2,0.7,0.3,1.1,0.3c0.5,0,1-0.2,1.4-0.5c0.4-0.3,0.5-0.8,0.5-1.3c0-0.3,0-0.5-0.1-0.7
			s-0.2-0.4-0.4-0.5c-0.2-0.1-0.4-0.3-0.7-0.5c-0.3-0.2-0.7-0.3-1.1-0.5c-0.9-0.3-1.6-0.7-2.1-1.2c-0.3-0.3-0.4-0.6-0.6-0.9
			c-0.1-0.3-0.2-0.7-0.2-1.2c0-0.9,0.3-1.6,1-2.3c0.7-0.6,1.5-1,2.4-1c0.7,0,1.3,0.1,1.8,0.3c0.3,0.1,0.5,0.2,0.6,0.3
			s0.3,0.2,0.5,0.3l0,1.8c-0.2-0.1-0.4-0.2-0.5-0.3c-0.2-0.1-0.3-0.2-0.4-0.2c-0.1-0.1-0.2-0.1-0.3-0.2c-0.1,0-0.2-0.1-0.3-0.2
			c-0.3-0.2-0.8-0.3-1.3-0.3c-0.5,0-1,0.2-1.3,0.5c-0.4,0.3-0.5,0.7-0.5,1.1c0,0.3,0,0.5,0.1,0.6s0.2,0.3,0.3,0.4
			c0.3,0.3,0.9,0.6,1.6,0.9c0.6,0.2,1,0.4,1.4,0.6C338.7,72.6,339,72.8,339.3,73.1z"/>
	</g>
</g>
<g>
	<linearGradient id="SVGID_1_" gradientUnits="userSpaceOnUse" x1="186.5595" y1="42.9228" x2="180.2095" y2="6.9102">
		<stop  offset="0.2265" style="stop-color:#71A423"/>
		<stop  offset="0.6515" style="stop-color:#95BA1A"/>
		<stop  offset="1" style="stop-color:#ADC90E"/>
	</linearGradient>
	<path class="st1" d="M177.4,10.8l0.5-3.5l-6.9,6.2l5,7.7l0.4-2.6c6.4,2.2,11,8.3,11,15.5c0,1.6-0.2,3.1-0.6,4.5l4.8-1.7l2.5,4.8
		c0.8-2.4,1.1-4.9,1.1-7.5C195,23,187.5,13.7,177.4,10.8z"/>
	
		<linearGradient id="SVGID_00000050622914227403217470000012022720632456570787_" gradientUnits="userSpaceOnUse" x1="143.5682" y1="25.6834" x2="171.0026" y2="25.6834">
		<stop  offset="0.4103" style="stop-color:#1CBAE0"/>
		<stop  offset="0.6834" style="stop-color:#1B97B5"/>
		<stop  offset="0.8939" style="stop-color:#167E96"/>
		<stop  offset="1" style="stop-color:#13738A"/>
	</linearGradient>
	<path style="fill:url(#SVGID_00000050622914227403217470000012022720632456570787_);" d="M171,9.9L171,9.9
		c-13.4,0-24.2,10.8-24.2,24.1c0,0.8,0.1,1.6,0.1,2.4l-3.3,0.8l8.2,4.2l5.4-7.5l-2.7,0.6c0-0.2,0-0.4,0-0.6
		c0-8.9,7.2-16.2,16.2-16.4l-3.1-3.9L171,9.9z"/>
	
		<linearGradient id="SVGID_00000044136223143907893630000013653050279759893672_" gradientUnits="userSpaceOnUse" x1="148.3927" y1="49.219" x2="194.3413" y2="49.219">
		<stop  offset="0" style="stop-color:#CD400B"/>
		<stop  offset="0.5709" style="stop-color:#E25F08"/>
		<stop  offset="1" style="stop-color:#EE7203"/>
	</linearGradient>
	<path style="fill:url(#SVGID_00000044136223143907893630000013653050279759893672_);" d="M194.3,48.5l-4-8.3l-8.8,2.7L184,44
		c-3,3.9-7.7,6.5-13,6.5c-6.9,0-12.8-4.2-15.3-10.3l-2.4,4.4l-4.8-1.9c3.6,8.8,12.4,15.5,22.5,15.5c8.5,0,16-4.4,20.2-11L194.3,48.5
		z"/>
</g>
<path class="st4" d="M42.5,43.9c-0.4,7.5-7.2,11.9-13.2,12.8c-1,0.1-2.1,0.2-3.1,0.2c-6.2,0-12.4-2.6-16.2-7.2
	c-1.3-1.6-1.1-4,0.4-5.4c1.6-1.4,3.9-1.2,5.3,0.5c2.8,3.3,7.8,5.1,12.5,4.4c3.1-0.5,6.5-2.4,6.7-5.7c0.2-2.9-2-5.6-5.2-6.3
	c-1.3-0.3-2.7-0.4-4.2-0.5c-3.3-0.2-7-0.4-10.4-2.8c-4.6-3.2-6.9-9.1-5.5-14.2c1.5-5.6,6.6-9.9,12.7-10.8c5.9-0.8,12.1,0.8,16.6,4.4
	c1.6,1.3,1.9,3.7,0.6,5.4c-1.3,1.6-3.7,1.9-5.3,0.6c-2.9-2.3-7-3.4-10.9-2.8c-3,0.5-5.7,2.6-6.4,5.3c-0.6,2.3,0.8,4.6,2.5,5.9
	c1.7,1.2,3.9,1.3,6.5,1.4c1.8,0.1,3.6,0.2,5.5,0.6C38.1,31.1,42.9,37.3,42.5,43.9z"/>
<path class="st4" d="M54,56.9c-2.1,0-3.8-1.7-3.8-3.9V12.5c0-2.2,1.7-3.9,3.8-3.9c2.2,0,3.9,1.7,3.9,3.9V53
	C57.8,55.2,56.1,56.9,54,56.9z"/>
<path class="st4" d="M98.7,56.5c-0.6,0.3-1.1,0.4-1.8,0.4c-1.3,0-2.7-0.7-3.3-2l-9.3-17.7h-8.1v15.8c0,2-1.6,3.8-3.6,3.9
	c-2.2,0.1-3.9-1.6-3.9-3.7V12.5v0c0-2.1,1.7-3.8,3.8-3.8l0,0h14.2c7.6,0,13.9,6.7,13.9,14.6c0,5.5-3.6,10.4-8.6,12.6l8.2,15.5
	C101.2,53.2,100.5,55.5,98.7,56.5z M76.2,29.6h10c3.7,0,6.9-3,6.9-6.4c0-3.8-3.1-7.1-6.4-7.1H76.2V29.6z"/>
<path class="st4" d="M142.9,12.4c0,2.2-1.7,3.9-3.8,3.9h-10.9V53c0,2.2-1.7,3.9-3.8,3.9c-2.2,0-3.9-1.7-3.9-3.9V16.3h-10.9
	c-2.1,0-3.8-1.7-3.8-3.9c0-2.1,1.7-3.8,3.8-3.8h29.5C141.2,8.6,142.9,10.3,142.9,12.4z"/>
<path class="st4" d="M245.5,12.5V53c0,2.2-1.8,3.9-3.9,3.9c-2.2,0-3.9-1.7-3.9-3.9V24.3l-9.9,13.6c-0.7,1-1.8,1.6-3.1,1.6
	c-1.2,0-2.4-0.6-3.1-1.6l-9.9-13.6V53c0,2.2-1.7,3.9-3.9,3.9c-2.1,0-3.8-1.7-3.8-3.9V12.5v-0.1c0-0.1,0-0.1,0-0.2V12
	c0-0.1,0.1-0.1,0.1-0.2v-0.2c0.1-0.1,0.1-0.1,0.1-0.2s0.1-0.1,0.1-0.2c0-0.1,0.1-0.1,0.1-0.1c0-0.1,0.1-0.1,0.1-0.2
	c0.1-0.1,0.1-0.1,0.1-0.2l0.1-0.1c0-0.1,0.1-0.1,0.1-0.2l0.1-0.1c0-0.1,0.1-0.1,0.1-0.2c0-0.1,0.1-0.1,0.1-0.1l0.2-0.1
	c0-0.1,0.1-0.1,0.1-0.1c0-0.1,0.1-0.1,0.1-0.1l0.1-0.1c0.1-0.1,0.1-0.1,0.1-0.1c0-0.1,0-0.1,0.1-0.1c0-0.1,0.1-0.1,0.1-0.1
	c0.1,0,0.1-0.1,0.2-0.1C206,9.1,206,9.1,206,9c0.1,0,0.1,0,0.2-0.1c0.1,0,0.1-0.1,0.2-0.1c0.1,0,0.1-0.1,0.2-0.1
	c0.1,0,0.1,0,0.1-0.1c0.1,0,0.1,0,0.3-0.1h0.1c0.1,0,0.1,0,0.3-0.1h0.1c0.1,0,0.1,0,0.3,0c0.1,0,0.1,0,0.1,0h0.3c0,0,0.1,0,0.1,0.1
	h0.2c0.1,0,0.1,0,0.2,0.1h0.2c0.1,0.1,0.1,0.1,0.2,0.1c0.1,0.1,0.1,0.1,0.2,0.1c0.1,0.1,0.1,0.1,0.1,0.1l0.2,0.1
	c0.1,0,0.1,0,0.1,0.1c0.1,0,0.1,0.1,0.2,0.1c0.1,0,0.1,0.1,0.1,0.1l0.2,0.1c0.1,0.1,0.1,0.1,0.1,0.1c0.1,0,0.1,0.1,0.2,0.1
	c0,0.1,0.1,0.1,0.1,0.1c0.1,0.1,0.1,0.1,0.1,0.1c0.1,0.1,0.1,0.1,0.1,0.2c0.1,0,0.1,0,0.1,0.1l13.7,18.9l13.8-18.9
	c0-0.1,0-0.1,0.1-0.1c0-0.1,0.1-0.1,0.1-0.2c0-0.1,0.1-0.1,0.1-0.1c0-0.1,0.1-0.1,0.1-0.1c0.1-0.1,0.1-0.1,0.1-0.1l0.1-0.1
	c0.1-0.1,0.1-0.1,0.2-0.1c0.1,0,0.1-0.1,0.1-0.1c0.1-0.1,0.1-0.1,0.2-0.1c0.1-0.1,0.1-0.1,0.1-0.1l0.2-0.1c0.1,0,0.1,0,0.2-0.1
	c0.1,0,0.1,0,0.1-0.1c0.1,0,0.1,0,0.2-0.1h0.2c0.1-0.1,0.1-0.1,0.2-0.1h0.2c0.1-0.1,0.1-0.1,0.2-0.1h0.2c0.1,0,0.1,0,0.1,0h0.1
	c0.1,0,0.1,0,0.3,0h0.1c0.1,0.1,0.1,0.1,0.2,0.1h0.2c0.1,0.1,0.1,0.1,0.2,0.1c0.1,0.1,0.1,0.1,0.1,0.1c0.1,0,0.2,0.1,0.3,0.1
	c0,0,0.1,0.1,0.1,0.1c0.1,0.1,0.1,0.1,0.2,0.1l0.2,0.1c0,0,0.1,0.1,0.1,0.1l0.2,0.1c0,0,0,0,0.1,0.1l0.1,0.1c0.1,0,0.1,0.1,0.1,0.1
	c0.1,0,0.1,0.1,0.2,0.1l0.1,0.1c0,0.1,0.1,0.1,0.1,0.1c0,0.1,0.1,0.1,0.1,0.1c0.1,0.1,0.1,0.1,0.1,0.2l0.1,0.1
	c0,0.1,0.1,0.1,0.1,0.2c0,0.1,0,0.1,0.1,0.1c0,0.1,0.1,0.1,0.1,0.2c0.1,0.1,0.1,0.1,0.1,0.2c0.1,0.1,0.1,0.1,0.1,0.1
	c0.1,0.1,0.1,0.1,0.1,0.2s0.1,0.1,0.1,0.2s0,0.1,0.1,0.2V12c0,0.1,0,0.1,0,0.2v0.2C245.4,12.4,245.5,12.4,245.5,12.5z"/>
<path class="st4" d="M295,56.4c-1.8,1-4.1,0.2-5.1-1.7l-5-10h-0.1h-21.7c-0.2,0-0.3,0-0.4-0.1l-4.6,10c-0.6,1.4-2,2.2-3.4,2.2
	c-0.6,0-1.1-0.1-1.6-0.4c-1.9-0.9-2.7-3.1-1.8-5.1l18.6-40.6c0.6-1.3,1.9-2.2,3.4-2.2h0.1c1.5,0,2.7,0.8,3.4,2.1l20,40.6
	C297.7,53.2,296.9,55.5,295,56.4z M281.1,37l-7.8-15.7L266.2,37H281.1z"/>
<path class="st4" d="M340.5,32.7c0,13.3-10.9,24.2-24.2,24.2h-0.1l-10,0c-2.1-0.1-3.7-1.8-3.7-3.9V12.4c0-2.1,1.7-3.8,3.8-3.8h10
	C329.6,8.6,340.5,19.4,340.5,32.7z M332.8,32.7c0-9.1-7.5-16.5-16.5-16.5h-6.2V49l6.2,0.2C325.4,49.2,332.8,41.8,332.8,32.7z"/>
</svg>
