<?xml version="1.0" encoding="utf-8"?>
<!-- Generator: Adobe Illustrator 26.0.1, SVG Export Plug-In . SVG Version: 6.00 Build 0)  -->
<svg version="1.1" id="Logo-Sidomra" xmlns="http://www.w3.org/2000/svg" xmlns:xlink="http://www.w3.org/1999/xlink" x="0px"
	 y="0px" viewBox="0 0 2557.1 1494.7" style="enable-background:new 0 0 2557.1 1494.7;" xml:space="preserve">
<style type="text/css">
	.st0{fill-rule:evenodd;clip-rule:evenodd;fill:#498CC7;}
	.st1{fill-rule:evenodd;clip-rule:evenodd;fill:#009640;}
	.st2{fill-rule:evenodd;clip-rule:evenodd;fill:#FFED00;}
	.st3{fill-rule:evenodd;clip-rule:evenodd;fill:#498DC4;}
	.st4{fill-rule:evenodd;clip-rule:evenodd;fill:#4A8CC7;}
</style>
<g>
	<g>
		<path class="st0" d="M965.9,475.2c-3-7.5-5.8-15.1-9.1-22.5c-6.3-13.8-19.5-19.6-32.6-14.6c-13.7,5.2-20.5,18.9-15.4,33.3
			c7.8,21.6,16,43,24.9,64.1c4,9.5,4.3,18.2,1.5,28c-7.7,27.2-7.4,27.4,17.6,40.9c17.8,9.6,35.4,19.5,53.5,28.5
			c13.3,6.6,19.3,16.9,20.9,31.2c4.1,37.8,8.7,75.6,13.3,113.3c0.8,6.9,2.8,13.7,3.3,20.6c1.1,17.3-8,29.6-23.4,32.6
			c-15.1,2.9-28.3-4.3-32.4-21.3c-4.8-19.9-7-40.5-9.8-60.9c-2.8-20-4.6-40.2-7.9-60.2c-0.7-4.4-4.8-9.7-8.8-11.9
			c-28.9-16-57.9-32-87.4-46.8c-23.6-11.8-33.1-30.6-31.5-56c3.1-47.9,17.5-92.3,43.5-132.7c11.2-17.4,26.6-28.3,47.7-29.6
			c24.3-1.4,39.6,12.6,39.6,36.8c0,9.1-2.4,18.1-3.7,27.2C968.4,475.4,967.1,475.3,965.9,475.2z"/>
		<path class="st0" d="M872.9,635.4c24.9,13.3,46.9,24.6,68.5,36.8c10.6,6,15,32.9,6.7,44.8c-24.1,34.9-48.5,69.6-73.5,103.7
			c-9.2,12.5-27.5,13.7-39.9,4.5c-13-9.6-16-27.4-6.1-41.5c18-25.8,36.2-51.6,54.9-76.9c5.5-7.4,6.6-13.9,3.7-22.5
			C882.2,669.4,878.3,654,872.9,635.4z"/>
		<path class="st0" d="M1007.1,420.2c-30.2,0.1-54.7-24.5-54.8-55c-0.1-29.2,25-54.8,54-54.9c30.9-0.2,56,24.7,55.9,55.2
			C1062.1,395.9,1037.7,420.1,1007.1,420.2z"/>
		<path class="st0" d="M932.4,442.5c10.9,0,17,6,20.6,15.7c8.5,22.6,16.9,45.2,26.3,67.4c2.1,4.8,7.4,9.9,12.3,11.7
			c21.2,7.6,42.9,14,64.3,20.9c15.9,5.1,22.7,14.9,18.7,26.9c-4.1,12.6-14.9,16.9-30.4,12c-25.9-8.2-51.8-16.8-77.8-24.8
			c-10.1-3.1-16.5-8.8-20.2-18.9c-10.2-27.7-21.5-55.1-31.8-82.7C909.1,456,917.9,442.8,932.4,442.5z"/>
		<path class="st0" d="M515.1,673.1c22.2,14.5,42.4,27.6,62.4,41.1c1.9,1.3,3.3,5.4,2.7,7.6c-1.1,4.4-3.2,8.9-6,12.4
			C552.7,761.3,531,788.3,509,815c-8.8,10.7-22.2,12.8-33.7,6.4c-10.8-6.1-16.5-19-12.6-31c1.5-4.7,4.4-9.1,7.5-13
			c15.7-19.8,31.3-39.7,47.8-58.9c5.6-6.5,6.6-12.1,3.8-19.9C519,691.1,517.6,683.1,515.1,673.1z"/>
		<g>
			<path class="st0" d="M599.2,541.3c-1-5.3-1.8-10.7-3.1-15.9c-3.3-14.1-14.3-22.1-27.1-19.9c-13,2.2-21,13.1-18.7,27.7
				c3.7,23.1,8.5,45.9,12.6,68.9c1.9,10.6,2.7,21.3,4.9,31.8c0.6,2.8,4,5.4,6.8,7.2c16.8,11.2,33.7,22.5,50.8,33.2
				c9.5,6,15.1,13.8,17.2,25c6,32.1,12.8,64.1,19.1,96.2c3.6,18.5-5.1,32.7-21.3,35.5c-15.5,2.7-28.2-7.4-31.8-25.2
				c-5.4-27.1-10.5-54.3-16.4-81.3c-0.9-4.3-4.1-9.2-7.8-11.7c-26.1-17.7-52.3-35.2-79-52c-15.3-9.6-21.5-23.3-20.4-40.4
				c2.7-41.4,16.5-79,40.8-112.7c10.3-14.3,24.7-22.3,42.3-24.2c29-3,46.9,18.8,38.3,46.6c-1.2,4-3.3,7.7-5,11.5
				C600.7,541.6,599.9,541.4,599.2,541.3z"/>
			<path class="st0" d="M643,409.8c16.7,1,31.2,12.4,40.4,30.5c9,17.8,9.6,36-1.8,53.1c-10.7,16.1-29.4,21.2-48.4,14.2
				c-27.4-10.2-43-44.8-32.4-72.1C607,419.4,621.5,409.6,643,409.8z"/>
			<path class="st0" d="M573.7,510.7c9.1,0.8,15,6.2,16.9,16.4c3.9,21.4,8.1,42.7,11.8,64.2c1.3,7.8,4.5,13.1,11.5,17.4
				c19.5,12,38.5,24.8,57.7,37.4c11.6,7.6,14.8,16.9,9.2,26.3c-5.7,9.5-16.5,10.8-28.4,3.2c-23.5-15.1-47.2-30.1-70.1-46.1
				c-5.1-3.6-9.6-10.5-11-16.6c-5.8-26.5-10.5-53.3-15.3-80.1C553.7,520.9,561.3,511.1,573.7,510.7z"/>
		</g>
		<g>
			<path class="st0" d="M187.6,746.2c-17.6-5.5-33.3-8.6-47.4-15.2c-20.3-9.5-25.4-25.2-19.1-46.6c9.6-32.3,27.5-59.1,52.5-81.3
				c15.5-13.9,33.4-17.9,53.1-11c22.1,7.7,27.2,28.5,11.2,48.4c-1.3-4.6-2.4-8.4-3.4-12.3c-4-14.9-14-21.9-27.2-19
				c-12.5,2.7-18.9,14.7-15.5,29.3c3.8,16.2,7.7,32.3,11.7,48.9c-5.6,0.8-9.8,1.4-14,1.9c0,0.9-0.1,1.8-0.1,2.7
				c2.2,0.6,4.4,1.6,6.6,1.7c16,0.7,31.9,1.3,47.9,1.8c11.6,0.3,20.8,4.8,24.9,15.9c3.8,10.4,0.8,19.6-7.3,27.6
				c-27.9,27.7-55.4,55.8-83.3,83.6c-11.1,11.1-25.2,11.6-35.4,1.9c-10.7-10.1-10.7-24.2,0.9-36.1
				C158.1,773.9,173.2,760,187.6,746.2z"/>
			<path class="st0" d="M325.5,595c-0.7,11.4-4.8,23.9-18,30.5c-13.6,6.8-26.9,3.4-38.3-5.4c-19.7-15.1-28.7-35.4-25.3-60.3
				c2.9-22,23.5-33.6,44.2-25.6C309.8,542.6,326.3,568.2,325.5,595z"/>
			<path class="st0" d="M273.8,740.6c11.2,11.9,24.8,26.2,38,40.9c7.1,7.9,6.8,17.5,0,23.8c-7.2,6.6-15.9,6.3-23.7-1.7
				c-13.2-13.7-25.9-27.8-39.9-42.9C256.5,754.1,264.6,747.7,273.8,740.6z"/>
		</g>
		<path class="st0" d="M243.3,684.1c-12.5,0-22.5,0-33.5,0c-4.5-19-9.3-37.4-13-55.9c-1.9-9.4,3.4-15.9,12.5-18.1
			c8.3-2,15.6,1.9,17.8,9.6C233.2,640.7,237.9,662.2,243.3,684.1z"/>
		<g>
			<path class="st0" d="M1221.8,395.2c2.1-6,5-11.4,10.3-15.2c4.5-3.3,9.5-5.4,15.2-5.5c1.4,0,2.8-0.1,4.2-0.1
				c45.2,0,90.4,0.1,135.6-0.1c5.5,0,9.3,1.8,12.6,6.2c16.6,22.2,33.4,44.2,50,66.4c1.5,2,3,2.8,5.6,2.8c27.7-0.1,55.4-0.1,83.2-0.1
				c7.3,0,11.4,4.1,11.5,11.3c0,5.4,0,10.8,0,16.2c0,6.8-4.3,11.2-11.1,11.2c-33,0.1-66,0-99,0c-6.3,0-10.3-4.1-13.7-8.5
				c-8.6-11.1-17-22.3-25.4-33.5c-1-1.4-2.1-2.8-3.1-4.2c-0.5-0.6-1.8-3.2-2.4-2.1c-0.3,0.6-0.1,3.4-0.1,4.2
				c0,119.1,0,238.1,0,357.2c0,9-2.4,16.8-9.6,22.6c-13.9,11.4-38.9,6.5-43.5-14.8c-0.5-2.4-0.5-4.9-0.5-7.4c0-7,0-14.1,0-21.1
				c0-7,0-14,0-21c0-7,0-14,0-21c0-7,0-14,0-21c0-7,0-14,0-21c0-7,0-14.1,0-21.1c0-7,0-14,0-21c0-7,0-14,0-21c0-7,0-14.1,0-21.1
				c0-7,0-14,0-21c0-2.1,0.3-4.5-1-6.3c-0.8-1.2-2.3-1.6-3.6-1.9c-3.3-0.6-7.6-0.8-10.4,1.5c-2.5,2.1-2,5.5-2,8.5c0,1.7,0,3.5,0,5.2
				c0,3.5,0,7,0,10.5c0,7,0,13.9,0,20.9c0,7,0,13.9,0,20.9c0,7,0,14,0,20.9c0,7,0,13.9,0,20.9c0,7,0,13.9,0,20.9c0,7,0,13.9,0,20.9
				c0,7,0,14,0,21c0,6.9,0,13.9,0,20.8c0,7,0,13.9,0,20.9c0,1.7,0,3.4,0,5.1c0,12.6-6.2,22.1-16.9,26c-18.4,6.7-36.5-5.8-36.5-25.3
				c0-11.8,0-23.6,0-35.4c0-11.9,0-23.8,0-35.6c0-11.9,0-23.9,0-35.8c0-11.9,0-23.7,0-35.6c0-11.9,0-23.9,0-35.8
				c0-11.9,0-23.7,0-35.6c0-11.9,0-23.9,0-35.8c0-11.9,0-23.9,0-35.8c0-11.9,0-23.7,0-35.6c0-11.9,0-23.9,0-35.8
				c0-3,0.7-8.3-3.1-9.4c-4-1.1-7.6,2.1-7.6,6c0,44.3,0,88.7,0,133c0,10.4-5,17-14.4,19.5c-9.8,2.6-19.3-2-23.4-11.3
				c-0.2-0.4-0.4-0.7-0.6-1.1C1221.8,520.3,1221.8,457.7,1221.8,395.2z"/>
			<path class="st0" d="M1637.9,597.8c-0.9,5.4-1.8,10.8-2.6,16.2c-2.3,16.4-4.5,32.8-6.8,49.2c-2.3,16.5-4.6,33-6.9,49.6
				c-2.3,16.4-4.6,32.8-6.8,49.2c-2.3,16.3-4.5,32.6-6.7,48.9c-0.9,6.3-1.8,12.6-2.7,19c-41.5,0-82.9,0-124.7,0
				c-10.8-78.3-21.6-156.6-32.5-235.4c11.9,0,23.6,0,35.5,0c9.1,66,18.2,132.2,27.4,198.6c21.2,0,42.4,0,63.9,0
				c9.1-66.2,18.3-132.5,27.4-198.6c12,0,23.7,0,35.4,0C1637.9,595.6,1637.9,596.7,1637.9,597.8z"/>
			<path class="st0" d="M1339.5,248.9c2.6,0.6,5.2,1.2,7.7,2c22.6,6.4,38.6,28.4,37.3,51.1c-1.4,25.1-19.3,45.3-43.5,49.1
				c-29.3,4.6-56.4-16.1-59.7-45.6c-2.9-26.4,16.2-51.6,42.5-55.9c0.7-0.1,1.4-0.4,2.1-0.7C1330.5,248.9,1335,248.9,1339.5,248.9z"
				/>
			<path class="st0" d="M1562.2,624.7c2.1,12.6,4.1,24.7,6.2,37.2c-12.5,2.1-24.7,4.1-37.3,6.2c-2.1-12.5-4.1-24.6-6.2-37.1
				C1537.2,628.8,1549.5,626.8,1562.2,624.7z"/>
			<path class="st0" d="M1587.9,546.1c-11.6,5.5-22.7,10.8-34.2,16.2c-5.5-11.4-10.8-22.5-16.3-34c11.5-5.5,22.7-10.8,34.2-16.2
				C1577,523.5,1582.3,534.6,1587.9,546.1z"/>
			<path class="st0" d="M1541.8,612.7c-11.2-6-22.1-11.8-33.4-17.8c6-11.1,11.8-22,17.9-33.2c11.2,6,22.2,11.8,33.4,17.8
				C1553.7,590.6,1547.8,601.5,1541.8,612.7z"/>
		</g>
	</g>
	<g>
		<path class="st0" d="M2339.5,231c-10.6,9.9-21.3,19.8-32.3,30.1c-79.3-81.2-176.1-116.2-289.9-96c-82.5,14.6-148.6,57.9-197.4,126
			c-94.3,131.5-63.6,293.5,14.6,380.3c3.2-15.2,6.3-29.6,9.2-44c14.8-72.1,28.8-144.3,44.7-216.1c7.5-33.7,29.2-56.9,62.9-67.1
			c14.4-4.4,29.4-4.7,42.9,2.6c32.8,17.8,65.4,35.8,97.5,54.8c23.7,14,46.5,29.5,69.7,44.3c5.5,3.5,9.8,7.8,8.5,15.1
			c-1.7,9-10.1,13.3-19.8,9.6c-21.1-8.1-42.1-16.7-63.1-25.1c-14.6-5.8-29.1-11.7-43.7-17.6c-22.2-9-40.6,0.4-46.8,23.8
			c-4.7,17.7-1.4,35.3,0.7,52.9c5.3,46,10.8,92,16.2,138c5.1,43.7,10.3,87.4,15.2,131.2c0.7,6.4,3.4,9.7,10,9.8
			c19.8,0.3,39.6,0.7,59.4,1.1c5.1,0.1,5.9-2.6,5.5-6.9c-0.8-9.5-1.3-18.9-2.2-31.1c25.1,19.1,48.6,36.9,73.2,55.6
			c-21.7,21-42.7,41.2-65.3,63.1c-0.8-10.9-1.8-19.8-2.1-28.6c-0.1-5.3-1.8-6.9-7.3-6.6C1974,836.5,1870.4,791,1792,692.5
			c-63.4-79.7-88.2-172.1-71.7-272.7c23-140.2,102.7-238.4,236.6-284.7c142.4-49.3,269.6-15.6,377.7,89.5c1.3,1.3,2.5,2.6,3.6,4
			C2338.7,229.2,2338.9,230,2339.5,231z M1987.8,773.4c-1.3-5.4-1.9-8.1-2.7-10.8c-7.5-26.2-15-52.4-22.4-78.7
			c-8.6-30.2-17.2-60.4-25.9-90.5c-1.5-5.1-3.2-12.1-9.8-10.9c-4.2,0.8-7.6,6.4-11.3,9.9c-0.5,0.5-0.6,1.4-0.8,2.1
			c-13.1,36.6-26.1,73.2-39.5,109.6c-2.1,5.6-1.1,8.7,3.5,12.3c24.2,19.1,50.5,34.7,79.1,46.2C1967,766.5,1976.5,769.5,1987.8,773.4
			z"/>
		<path class="st1" d="M2190.3,822.3c6.1-11.6,11.3-21.5,16.9-32.2c-65.5-35.2-96.5-90.1-93-163.7c2-41.8,18.6-77.8,50-106.5
			c-2,5.1-4.4,10.2-6.1,15.5c-8.6,26.5-4.3,52,6.6,76.7c17.5,39.5,47.3,66.7,86.3,84.3c5.8,2.6,9.2,1.9,11.9-4.3
			c3.2-7.4,7.4-14.4,11.2-21.5c0.7,0.1,1.4,0.2,2.1,0.3c15.1,41.1,30.2,82.2,45.8,124.7C2278.5,804.3,2235.5,813.1,2190.3,822.3z"/>
		<path class="st2" d="M2266.8,351.9c31.7-31.1,63.1-61.8,95.3-93.2c25.1,33.7,51,68.7,77,103.7c-0.2,0.7-0.4,1.5-0.5,2.2
			c-6.7-0.3-13.4-0.6-20.1-0.9c-13.4-0.7-13.4-0.7-14.6,12.7c-6.2,71-57.6,129.4-129.5,146.8c-29.5,7.1-58.7,6.2-87.7-2.4
			c-1.7-0.5-3.4-1.1-5.1-1.8c-0.7-0.3-1.3-0.8-2.5-1.6c1.2-0.6,1.9-1.4,2.7-1.4c40.4-0.5,68.6-22.1,90.8-53.3
			c20.6-29.1,29-62.1,29.3-97.5c0.1-8.1-2.8-11.6-11.2-11.2c-7.2,0.4-14.4-0.4-21.6-0.8C2268.5,353.1,2268.1,352.7,2266.8,351.9z"/>
		<path class="st0" d="M2488.7,536.7c-15.9,41.5-31.5,82.2-48,125.4c-6.6-11.3-12.1-20.9-17.8-30.7
			c-68.5,37.2-133.4,31.9-194.7-14.7c-30.2-22.9-58.1-69.8-56.8-92.7c0.5,0.2,1.1,0.2,1.4,0.6c24.3,37.6,61.5,49,103.3,48.8
			c32.9-0.2,63.1-10.9,90.6-29.1c5.5-3.6,7.3-6.9,3-12.9c-4.7-6.6-8.3-14.1-13.7-23.5C2401.1,517.6,2444,527,2488.7,536.7z"/>
		<path class="st3" d="M1999.8,327.7c-30-0.2-54.3-24.7-54.3-54.8c0-30.4,24.8-55.2,55-54.9c29.9,0.2,54.4,24.8,54.5,54.8
			C2055.1,303,2030.1,327.8,1999.8,327.7z"/>
	</g>
</g>
<g>
	<path class="st4" d="M82.1,1233c6.2-15.1,24.5-16,34.1-9c4.8,3.5,7,8.9,8.8,14.1c7,20.1,13.7,40.3,20.7,61.2
		c5.2-19,10.2-37.4,15.4-55.7c1.6-5.5,2.9-11.1,6.5-15.9c7.9-10.7,30.5-9.6,36,7.3c6.6,20.7,12.7,41.7,19.2,63.1
		c3.9-11.5,7.6-22.5,11.3-33.6c3.6-10.8,7.2-21.6,11.1-32.3c2.5-7.1,11.4-12.6,19.3-12.4c9.9,0.3,16.5,4.7,19,12.8
		c1.8,6,0,11.4-2.3,16.9c-10.1,24.2-20,48.6-30.4,72.7c-2.8,6.5-5.1,13.9-12.2,17.5c-13.1,6.8-34.5,3.8-39.6-16.3
		c-3.4-13.3-8.1-26.3-12.2-39.5c-1.2-4-2.4-7.9-4-13c-5.1,18-10.6,34.7-14.5,51.8c-5,21.9-29,24.7-42.3,15.1
		c-5.9-4.2-8-11.6-10.8-18.1c-6.5-14.8-12.7-29.8-19-44.7c-4.7-11.1-9.4-22.3-14.1-33.4C82.1,1239,82.1,1236,82.1,1233z"/>
	<path class="st4" d="M806.1,918c5.6,1.8,11.6,1,17.2,3c7.5,2.7,14.7,5.7,19.2,12.8c7.3,11.3,1.6,25.2-11.5,27
		c-5.2,0.7-10.3-1.6-15.3-3c-6.8-1.9-13.5-4.2-20.7-1.9c-5.5,1.7-8.7,5.6-9.7,10.8c-1,5.3,2.5,9.1,6.4,12.1c5.5,4.1,12,6,18.3,8.2
		c11.6,4,22.4,9.1,31.5,17.7c7.9,7.4,12.2,16.5,13.4,26.8c0.9,8.5,0.9,17.2-1.7,25.6c-6,19.8-19.1,32.3-39,37.3
		c-20.8,5.2-40.8,3.1-59.2-8.5c-8-5-11.5-13.9-9.6-21.7c2.6-10.5,12-14.7,23.6-11.8c8.4,2.1,16.5,5.2,25,7.2
		c13.5,3.2,27-8.2,22.1-22.2c-2.7-7.6-9.5-10.7-16.2-13.4c-12.5-4.9-25.4-8.6-36.7-16.4c-9.6-6.6-14.6-15.8-15.7-26.7
		c-1.1-10.4-0.8-21,3.6-31.1c7.1-16.3,19.7-25.3,36.3-29.9c4.3-1.2,8.8,0.1,12.9-1.9C802.1,918,804.1,918,806.1,918z"/>
	<path class="st4" d="M1820.1,918c5.3,2,11.1,1.9,16.5,3.9c6.9,2.5,12.8,6.2,18.4,11.2c5.7,5.1,6.6,15.7,3.2,21.9
		c-3.8,6.9-11.4,9.6-20.1,7.6c-6-1.4-11.9-3.5-18-4.7c-15.8-3.1-30.3,3.1-37.9,17.5c-10.7,20.1-11.2,41.2-2.2,61.8
		c7.8,17.9,25.8,26,45.1,20.1c6.3-1.9,12.4-4.2,18.5-6.4c9-3.2,18.1,6.7,18.7,14.6c0.9,11.7-5.9,18.3-14.8,23.5
		c-9.2,5.3-19.3,7.9-30.1,8.2c-12.8,0.3-25.3-0.8-37.2-5.9c-13.2-5.7-23.2-15-31-26.6c-14-20.7-16.4-44.3-14.7-68.3
		c1.2-17,6.4-33.2,16.8-47.1c13-17.4,29.8-28.4,51.9-30.1c0.8-0.1,1.7,0,2.1-1C1810.1,918,1815.1,918,1820.1,918z"/>
	<path class="st4" d="M2077.1,918c4.7,1,9.5,1.7,14.1,3.1c8.8,2.7,17.3,6.3,22.8,14.4c4.9,7.1,4.5,15-0.9,22.5
		c-3.3,4.7-10.6,6.5-18,4.6c-8.1-2-15.8-5.3-24.3-5.6c-18.1-0.6-28.9,10.5-34.2,23.6c-6.9,16.7-7.2,34.2-1.5,51.5
		c5.7,17.2,19.9,27.6,37.6,26.9c7.8-0.3,15-3.4,22.1-6.2c6.5-2.5,12.5-4.1,18.8,1c7.1,5.7,7.6,20.6,0.6,27.7
		c-8,8.1-17.9,12.4-28.7,14.3c-13,2.3-26.2,2.1-39.2-1.6c-18-5.1-31.5-15.9-41.3-31.6c-8-12.8-11.5-26.8-13.1-41.8
		c-2.2-21.3-0.1-41.9,9.9-60.9c11.3-21.6,28.9-35.9,53.3-40.9c2.3-0.5,5,1.1,7.1-1.1C2067.1,918,2072.1,918,2077.1,918z"/>
	<path class="st4" d="M833.1,1344c-3.8-2.4-8.1-0.9-12.2-1.8c-9.8-2-18.9-5-26.9-11c-6.7-5-8.7-14.5-4.9-21.9
		c3.3-6.6,12.2-10.4,19.8-8.1c9.5,2.8,18.8,6.2,28.3,9.1c3.8,1.1,7.7,1.1,11.5-0.6c2.2-1,4.4-2.5,4.3-4.7c-0.1-2.3-1.9-4.1-4.3-5.4
		c-6.1-3.3-12.6-5.5-19.1-7.8c-9.5-3.4-18.6-7.6-27.2-13.1c-13.1-8.2-14-28.7-6.5-40c7.8-11.6,19.7-17.2,32.7-19.7
		c14.1-2.7,28.3-1.7,42.1,2.9c6,2,11.7,4.4,16.3,9.1c6,6.2,7.2,12.6,3.3,19.4c-3,5.4-12.2,9-18.8,7c-7.8-2.3-15.5-4.9-23.4-7.2
		c-3.4-1-6.9-0.9-10.4-0.3c-1.9,0.3-4,1.2-4.5,3.6c-0.5,2.5,0.8,4,2.8,5.3c6,3.9,12.8,5.8,19.5,7.9c9.6,3,19,6.6,27,12.4
		c11.2,8.1,16.3,18,11.9,33.1c-4.9,16.5-17.9,23.8-32.8,28.5c-5.6,1.7-11.5,2.1-17.3,3.1C840.5,1344,836.8,1344,833.1,1344z"/>
	<path class="st4" d="M2274.1,1281.1c0-13-0.2-26,0.1-39c0.1-5.6,1-11.3,4.9-15.9c3-3.6,6.7-5.9,11.5-6.2c9.3-0.6,18,0.4,23.6,9.3
		c1.3,2,2.9-0.2,3.7-0.8c8.2-6.5,17.5-8.6,27.7-8.6c10.2,0,20.1,0.2,29.6,5c4.7,2.3,9.1,5,12.8,8.5c1.7,1.6,2.5,1.6,4.4,0
		c10-8.5,21.4-13.7,34.9-13.5c9.5,0.2,18.8-0.3,27.9,3.9c13.5,6.3,21.2,16.6,22.9,31c2.6,21.7,0.9,43.5,0.9,65.2
		c0,7.7-2,16-10.2,19.5c-8.1,3.5-16.7,3.9-24.4-1.6c-4.7-3.4-6.5-8.6-7.1-14.2c-1.9-17-0.8-34.2-1-51.2c0-2.8-0.2-5.4-0.9-8.2
		c-2.2-8.9-8.2-14.1-17-14.3c-9.1-0.2-17.1,5.7-19,14.2c-0.8,3.2-1.1,6.4-1.1,9.7c0.1,14.5,0,29,0,43.5c0,5.6-1.3,11-3.9,15.8
		c-3.6,6.8-14.2,10.1-22.1,8.5c-14.5-3-16.2-11.2-16.8-22.8c-0.8-15.5-0.2-31-0.2-46.5c0-4.3-0.9-8.4-2.5-12.3
		c-3.8-9.1-12.8-11-22.3-8.7c-8.9,2.2-12.9,9.6-13.1,18.2c-0.3,14.8,0.1,29.7-0.2,44.5c-0.1,4.7-0.7,9.4-1.9,14
		c-2.7,10.8-14.8,15.8-24.3,13.3c-11.7-3.1-16.8-9.7-16.8-21.8C2274.1,1306.7,2274.1,1293.9,2274.1,1281.1z"/>
	<path class="st4" d="M1356.2,1280.7c-0.2-10.5,0-21-0.1-31.5c-0.1-5.8,0.9-11.4,2.1-16.9c1.4-6.8,8.7-11.8,15.7-12.4
		c9-0.7,16.6,1.3,22.3,8.7c1.4,1.7,2.3,1.4,4,0c7.1-5.9,15.5-8.4,24.6-8.6c10.4-0.2,20.9-0.7,30.8,3.9c5.2,2.4,10.1,5.1,14.1,9.2
		c1.7,1.8,2.6,2,4.7,0.2c10.9-9.2,23.3-13.9,37.9-13.5c9.7,0.3,19.2,0.5,28,5.2c11.1,6,17.4,15.4,19.9,27.8
		c0.9,4.6,0.9,9.2,0.9,13.7c0,17.8-0.2,35.7,0.1,53.5c0.3,20.9-19.4,26.2-32.6,19c-7.5-4.1-9.2-11.5-9.3-19c-0.3-15-0.2-30-0.1-45
		c0-4.3-0.8-8.4-2.1-12.4c-2.4-7.6-10.2-13.3-17-12.6c-11.4,1.2-17.9,7.3-19,16.9c-2,17.7-0.4,35.5-0.9,53.2
		c-0.1,3.9-1.4,7.5-2.7,11.2c-3.3,9.6-15.6,11.9-23,10.3c-10.7-2.3-15.1-7.6-16.4-19.9c-1.8-17.2-0.2-34.5-1-51.7
		c-0.3-6.8-1.6-13.7-8.7-17.2c-10.6-5.2-25.2-2-28.2,12.5c-0.7,3.2-1,6.4-1,9.7c0.1,14.2-0.1,28.3,0.1,42.5c0,3.5-0.7,6.9-1.4,10.2
		c-3.9,17.6-27,17.1-35.3,9c-3.3-3.2-4.8-7.9-5.4-12.7C1355.2,1309.6,1356.5,1295.1,1356.2,1280.7z"/>
	<path class="st4" d="M621.1,991.2c0,2.3,0,3.9,0,5.5c0,25.7,0.2,51.3-0.1,77c-0.1,6.6-1.1,13.7-7.6,17.7
		c-10.7,6.4-23.1,2.8-26.1-9.7c-1.3-5.4-2.1-11-2.1-16.6c0-38.3,0-76.7,0-115c0-5.8,0.9-11.5,2-17.1c1.2-5.8,4.9-10.1,10.4-11.5
		c5.6-1.4,11.4-0.8,16.2,3.7c8.4,7.7,13.8,17.5,20.2,26.7c16.9,24.1,33.5,48.4,50.5,73c1.1-1.6,0.6-3.1,0.6-4.5
		c0-25.8,0-51.7,0.1-77.5c0-5.9,1.6-11.4,5-16.2c4.4-6.1,11.1-6.5,17.5-5.4c5.4,1,9.2,4.6,10.8,10.3c1.5,5.3,2.7,10.5,2.7,15.9
		c0,41.3-0.1,82.7,0.1,124c0,4-0.7,7.9-1.4,11.8c-1,5.4-4,10-9.8,11.2c-6.2,1.3-12.4,1.4-17.6-3.6c-10.3-9.9-17.2-22.4-25.3-34
		c-14.8-21.1-29.4-42.3-44.1-63.4C622.7,992.9,622.1,992.3,621.1,991.2z"/>
	<path class="st4" d="M360.1,1299c3-10.6,5.5-19.9,8.1-29.1c3.1-11.1,6-22.3,9.2-33.4c3.4-11.8,12.5-16.1,21.3-15.6
		c9.8,0.7,17.1,5.8,20.3,16.5c4.3,14.1,8.5,28.3,12.6,42.4c1.7,5.7,3.3,11.4,5.1,17.6c2.7-3.4,3.1-7.3,4.3-10.7
		c5.9-17.1,11.7-34.3,17-51.6c5.3-17.1,27-19.2,36.3-8.5c5.8,6.7,4.5,14,1.6,21.1c-11.1,27.1-22.3,54.2-34,81.1
		c-5.5,12.7-13.2,15.3-27.6,14c-10.3-1-17.3-6.8-20.4-17.2c-5.3-17.6-11-35.1-17-54c-2.2,7.4-4.1,13.7-5.9,20
		c-3.7,12.6-7.2,25.3-11.1,37.8c-2.2,6.9-11.7,13-19.2,13.5c-18.4,1.1-24.2-6.2-30.7-21.3c-6.2-14.6-12.5-29.2-18.5-43.8
		c-5.1-12.3-11-24.2-15.1-36.9c-1.8-5.6,2.2-16.2,9.9-19.1c14.8-5.4,27-0.9,32.2,14.9C345.4,1257.3,352.6,1277.5,360.1,1299z"/>
	<path class="st4" d="M574.7,1297.7c3.3-11.8,6.5-23.6,9.7-35.3c2.3-8.2,4.6-16.4,6.8-24.6c2.9-10.9,9.2-15.7,17.7-16.8
		c11.9-1.5,20.9,6.4,23.4,14.9c5.8,19.5,11.9,38.9,17.9,58.4c0.3,1,0.5,1.9,1.5,2.4c7.2-20.8,14.8-41.5,21.4-62.5
		c2.8-8.9,14.1-15.9,24.1-13.3c9.7,2.5,14.5,6.1,15.1,13.1c0.6,5.9-0.6,11.6-2.9,17.1c-10.1,24.1-20,48.2-30.2,72.3
		c-1.9,4.4-4,8.8-7.2,12.5c-6.9,8.2-16.3,8.3-25.3,6.7c-9.5-1.7-15.6-8.1-18.5-17.7c-5-16.6-10.5-33-15.8-49.4c-0.3-0.9,0-1.9,0-3.9
		c-2.9,3.3-3,6.8-3.9,9.8c-4.6,15.4-8.7,30.9-13.2,46.3c-2.7,9.1-11.6,15.1-20.9,15.6c-19.5,1-24-7.5-31.1-24.1
		c-5.5-13-11-25.9-16.5-38.9c-5-11.9-10.3-23.8-14.9-35.9c-5.4-14.3,7-23.7,17.7-24.1c14.3-0.5,19.8,6.7,23.6,17.5
		c6.6,18.7,12.7,37.6,19.1,56.4C572.7,1295.2,572.9,1296.8,574.7,1297.7z"/>
	<path class="st4" d="M1623.1,1008.2c0-20,0.1-40-0.1-60c0-3.7,0.4-7.3,1.5-10.7c3.2-10.7,7-13.6,19.1-14.3c17-0.9,34-0.6,51-0.1
		c9.4,0.3,18.2,4.7,19.8,12.4c2.9,14.6-3,21.3-16.4,23.4c-11.2,1.8-22.5,0.8-33.8,0.9c-3.2,0-4.3,0.9-4.2,4.2c0.2,7,0.2,14,0,21
		c-0.1,3,0.8,4,3.9,4c9.2-0.2,18.3-0.4,27.5,0c7.9,0.3,15.3,2.6,18.5,10.7c3.5,8.6,1,19.6-10,23.4c-7,2.4-14.1,1.6-21.1,1.8
		c-4.7,0.1-9.3,0.2-14,0c-3.5-0.2-5,0.5-4.9,4.5c0.3,7.5,0.3,15,0,22.5c-0.1,3.4,1.1,4.2,4.3,4.1c10.7-0.2,21.3-0.4,32,0.1
		c6.9,0.3,13.7,1.8,17.8,8.5c6,9.6,1.3,22-9.3,25.6c-3.6,1.2-7.3,1.9-11.1,1.9c-16.2-0.1-32.3-0.1-48.5,0
		c-17.2,0.1-21.8-7.6-22-22.3C1622.9,1049.2,1623.1,1028.7,1623.1,1008.2z"/>
	<path class="st4" d="M2248.1,1008.7c0-21.3-0.1-42.6,0.1-64c0-5.4,1-10.7,4.8-15.1c4.2-5,10-6.4,15.9-6.5c16.5-0.3,33-0.7,49.5,0.1
		c11.7,0.5,17.9,3.2,20.8,12.3c3.7,11.5-3.7,22.2-15.8,23.6c-11.4,1.3-22.9,0.7-34.3,0.8c-3,0-4.1,0.7-4,3.9
		c0.2,7.2,0.2,14.3,0,21.5c-0.1,3.3,1.2,3.8,4.1,3.8c8.8-0.1,17.7,0,26.5-0.1c4.2,0,8.1,1,11.8,2.9c7.1,3.6,9.3,10,8.6,17.4
		c-0.7,7.8-5.6,12.9-13.7,14.7c-9.5,2.2-19.2,0.7-28.8,1c-8.4,0.2-8.4,0-8.4,8.4c0,6,0.2,12-0.1,18c-0.2,3.6,0.7,4.9,4.6,4.8
		c10.2-0.3,20.3,0,30.5-0.1c4.2,0,8.3,0.9,11.9,2.6c6.3,3.1,9.2,8.5,9.1,15.7c-0.1,7-3,12.2-9.1,15.2c-3.6,1.8-7.7,2.7-11.9,2.6
		c-17.7-0.1-35.3,0.1-53-0.1c-6.5-0.1-13-1.4-16.4-7.9c-1.9-3.6-2.7-7.7-2.7-11.9C2248.2,1051,2248.1,1029.8,2248.1,1008.7z"/>
	<path class="st4" d="M1327.1,1014c0,9.8,0.2,19.7,0,29.5c-0.5,23.9-11.3,42.5-36.3,47.9c-18.1,3.9-36.7,4-53.2-7.3
		c-10.2-7-15.9-16.8-18.4-28.7c-1.3-6.1-2.1-12.2-2.1-18.4c0-14.8,0-29.6,0-44.5c0-6.2,0.8-12.4,2-18.4c1.4-6.9,7.9-12.4,14.5-13.1
		c8.6-0.9,16.8,3.8,18.7,11.4c0.9,3.6,1.8,7.2,1.8,10.9c0,14.7,0,29.3,0,44c0,6.1,0.8,12,2,17.9c1.3,6.2,7.1,11.4,12.6,11.8
		c11,0.9,17.6-3.2,19.6-10.4c1.8-6.4,2.3-12.8,2.5-19.2c0.6-15.3,0.2-30.6,0.2-46c0-4.8,1.1-9.5,3.6-13.4c4.2-6.5,11-8.2,18.2-7
		c7.1,1.3,11.4,6.1,13.2,13.2c0.8,3.2,1,6.4,1,9.7C1327.1,994.1,1327.1,1004.1,1327.1,1014z"/>
	<path class="st4" d="M1908.1,1045.2c0-9.3-0.4-16.7,0.1-24c0.4-6-1.6-10.7-4.8-15.5c-11.4-16.8-22.7-33.7-33.7-50.8
		c-3.2-5-6-10.5-5.7-17.1c0.4-7.2,3.7-13.2,9.5-15.5c7.2-2.9,13.7-1.7,19.1,3.7c9.8,9.9,16,22.4,23.8,33.7c2.9,4.2,6,8.3,8.4,12.8
		c2,3.7,3,2.1,4.5-0.1c8.6-13,16.9-26.2,25.9-38.9c4.6-6.6,9.6-12.6,19.3-12.7c9-0.1,17.6,12,15.3,20.2c-2.5,8.7-7.6,15.9-12.4,23.3
		c-10.1,15.4-20.2,30.7-30.4,46c-1.4,2.1-1.9,4-1.9,6.4c0.1,18,0,36,0.1,54c0,4-0.7,7.8-2,11.6c-3.2,9.7-9.4,13.2-21,11.8
		c-6.3-0.7-11.9-7.8-13.1-15.5C1907.3,1066.7,1908.7,1054.9,1908.1,1045.2z"/>
	<path class="st4" d="M2030.8,1343.1c-19.6,0.1-34.9-3.1-48.2-13c-13.3-10-21.6-22.7-23.7-39.7c-1.5-11.8-0.3-22.9,4-33.9
		c4.9-12.3,13.6-21.1,24.8-27.7c11-6.5,22.8-9.1,35.5-10c12.8-0.8,25.3,0.1,37.3,4.3c6.8,2.4,13.4,5.6,15.8,13.5
		c2.8,9.3-2.5,17.6-12,19.5c-8.6,1.7-16.1-2-24-3.6c-14.5-3-26.7-0.4-34.3,12.3c-8.8,14.7-3.8,38.6,17.1,43.3
		c11.3,2.5,21.5-1.1,31.9-3.7c9.9-2.5,18.7,2.1,21.6,11.6c2,6.4-2.2,13.5-9.9,18.1C2057.1,1339.8,2044.1,1343.5,2030.8,1343.1z"/>
	<path class="st4" d="M123.1,1018.5c0-17.7-0.2-35.3,0.1-53c0.1-4.8-1.5-5.9-5.9-5.6c-6.9,0.6-13.8-0.3-20.6-2
		c-6-1.5-10.8-6.7-11.6-12.7c-1.2-8.8,1.5-15.3,7.9-18.8c4.4-2.5,9.2-3.5,14.2-3.5c22.3,0,44.7,0,67-0.1c3.4,0,6.6,0.5,9.7,1.4
		c8.9,2.6,13.9,9.6,13.2,18.2c-0.7,9.4-6.7,15.1-16.4,16.5c-5.8,0.8-11.5,1.1-17.3,0.8c-3.7-0.2-4.3,1.3-4.3,4.6
		c0.1,34.7,0.1,69.3,0.1,104c0,5.3-0.9,10.5-2.6,15.5c-2.7,7.9-9.2,11.1-19.3,10c-5.8-0.6-11.8-6.9-13.1-13.7
		c-0.8-4.1-1.1-8.2-1-12.3C123.2,1051.5,123.1,1035,123.1,1018.5z"/>
	<path class="st4" d="M2139.1,1007.8c0-21-0.2-42,0.1-63c0.1-6.2,1-12.3,4.8-17.7c6.4-9.1,22.7-8.4,28.2,1.4
		c2.7,4.9,3.8,10.1,3.8,15.6c0.1,35.6,0.1,71.3-0.1,106.9c0,4.2,1.2,5.3,5.3,5.1c10.3-0.3,20.7-0.4,31,0c7.7,0.3,15.1,2.2,18.6,10.4
		c3.6,8.5,1.1,20.4-10,23.7c-3.7,1.1-7.3,1.9-11.1,1.8c-16.7-0.1-33.3,0.1-50-0.1c-14.9-0.1-20.3-7.2-20.5-20.7
		C2138.9,1050.1,2139.1,1028.9,2139.1,1007.8z"/>
	<path class="st4" d="M1624.1,1220c7.1-0.5,12.9,2.5,17.4,7.9c1.6,1.9,2.6,2.2,5.1,0.4c9.5-7,20.1-11.4,32.1-8.2
		c10.7,2.9,18.9,13.1,12.5,23.4c-3.3,5.3-9.2,7.2-14.6,9.5c-8,3.3-16.6,4.7-24.2,9.2c-6.1,3.5-6.9,9.2-7,14.9
		c-0.3,13.6-0.2,27.3,0,41c0.1,3.7-0.5,7.3-1.4,10.6c-2.4,8.4-9.2,13-18.7,13.4c-8.2,0.3-17.5-3.4-20.2-11.7
		c-1.8-5.4-2.3-10.8-1.8-16.4c0.1-1.3,0-2.7,0-4c0-23,0.1-45.9,0-68.9C1603.1,1228,1610.8,1219,1624.1,1220z"/>
	<path class="st4" d="M1383.8,972c5.1-6.3,11.7-10.1,19.6-11.7c7.6-1.5,13.6,1.6,18.7,7.1c4.4,4.7,5,10.5,3.7,16
		c-1.3,5.1-5.8,8.2-10.4,10.9c-5.4,3.2-11.4,5.2-17.2,7.5c-9.8,4-14,9.5-14.1,20.2c0,15.2-0.1,30.3,0.1,45.5
		c0.1,4.5-0.9,8.7-2.3,12.8c-2.8,8.2-9.5,11.8-19.7,10.6c-7.5-0.9-11.8-5.3-14.1-15.5c-1-4.4-1-8.8-1-13.2c0-25.8,0-51.6,0-77.5
		c0-5.6,1.2-11,3.8-15.8c5.9-11.3,22.7-10.3,30-0.4C1381.8,969.7,1382.6,970.9,1383.8,972z"/>
	<path class="st4" d="M383.1,1007.6c0,21.3,0.2,42.6-0.1,63.9c-0.1,6.7-1.4,13.4-6.5,18.6c-7.1,7.1-20.6,5.1-25.6-3.7
		c-2.8-4.9-3.7-10.3-3.7-15.6c-0.2-42.3-0.2-84.6,0-126.9c0-7.7,1-16.1,8.4-20.6c9.2-5.6,23.4-3.5,26.5,12.5
		c0.9,4.4,0.9,8.8,0.9,13.3C383.1,968.7,383.1,988.2,383.1,1007.6z"/>
	<path class="st4" d="M972.1,1278.5c0,14.8,0.1,27-0.1,39.1c-0.1,5.2-0.7,10.4-3.2,15c-4.9,9.2-14.1,10.4-21.9,9.1
		c-10.4-1.8-15.7-6.6-16.9-20c-2.2-25.4-0.5-50.8-0.9-76.2c-0.1-5.3,0.9-10.7,3-15.6c2.4-5.6,7.3-9.1,13-9.8
		c12.5-1.5,24.1,1.4,26.1,18.2C972.9,1252.7,971.3,1266.9,972.1,1278.5z"/>
	<path class="st4" d="M975.1,1190.9c1.2,10.1-10.2,18.8-18.4,20.3c-6.1,1.1-11.6,0.3-17.1-1.5c-8.3-2.9-14.5-12.4-13.4-20.5
		c1.3-9.3,7.8-15.9,17.2-18.1c13.9-3.2,24.3,2.3,29.5,11.2C974.6,1185.1,975.3,1187.9,975.1,1190.9z"/>
	<path class="st4" d="M740.1,1301c10.5-1.2,18.4,3.6,22.5,12.4c5,10.6-0.2,22.5-12.7,26.7c-9.6,3.2-18.8,2.6-26.6-3.6
		c-13.8-10.8-9-28.9,7.1-34.6C733.7,1300.8,736.9,1301.2,740.1,1301z"/>
	<path class="st4" d="M1907.5,1301c12.5-0.9,21,6.4,23.5,13.8c3.3,9.4-0.2,17.5-8.3,22.8c-11.2,7.4-26.9,5.7-35.7-5.3
		c-6.8-8.4-4.2-21.9,5.4-27.4C1897.2,1302.1,1902.3,1300.2,1907.5,1301z"/>
	<path class="st4" d="M560.4,996.8c-1.6-16.2-5.2-31.3-13.9-45.1c-8.5-13.5-19.9-23.4-35-29.1c-6.3-2.4-12.9-2.9-19.3-4.6
		c-5,0-10,0-15,0c-2.1,2.1-4.7,0.6-7.1,1.1c-27.5,5.8-45,23-54.9,48.6c-5.8,15-6.5,30.8-6.1,46.8c0.2,9.3,1.5,18.3,4.1,27.2
		c6.4,21.7,18.6,38.9,39.3,48.9c14.3,7,29.7,7.7,45.4,5.6c25.8-3.6,42.8-18.9,53.5-41.1C560.1,1036.8,562.3,1017.1,560.4,996.8z
		 M510.1,1047.2c-5,6.8-12,10.6-20.3,11.8c-21.8,3.2-35.2-12.5-39.5-30.6c-4-17.3-3.4-34.4,3.6-51.2c9.1-21.7,35.1-28.7,52.6-13
		c7.9,7.1,11.5,16.9,13.6,27.2c1.2,5.7,0.9,11.5,1,18.4C521.8,1022.8,518.5,1035.7,510.1,1047.2z"/>
	<path class="st4" d="M2471,1054.3c-8.4-9.7-16.4-19.7-24.7-29.5c-1.9-2.3-2.6-2.9,1.2-3.9c15.3-4.1,25.9-13.2,30.9-28.8
		c2.5-7.7,1.8-15.4,1.7-23.1c0-8.8-3.4-16.7-8.3-23.8c-10.5-15.3-26.5-20.6-43.8-21.9c-13.4-1-27-0.8-40.5,0
		c-11.7,0.7-17.7,3.7-20.1,15.6c-0.8,4-1.2,8.2-1.2,12.3c-0.1,38,0,76-0.1,114c0,5.6,0.7,11.2,2.2,16.6c1.6,5.7,4.3,11,11,12
		c6.3,0.9,12.7,1.7,17.9-3.9c4.3-4.6,5.7-10,5.8-15.8c0.3-14,0.1-28,0.1-42c0-1.4,0-2.7,0-5c15.1,20,29.7,39,44,58.2
		c6.2,8.3,13.8,11.9,22.2,9.9c7.1-1.6,10.1-7.1,12.8-13c0-3,0-6,0-9C2479.5,1066.1,2475.9,1059.9,2471,1054.3z M2442.1,981.2
		c-0.9,8.4-6.5,14.9-13.8,16.8c-4.4,1.2-8.9,0.8-13.3,0.9c-11.8,0-11.8,0-11.8-11.9c0-8.2,0.1-16.3-0.1-24.5
		c-0.1-2.8,0.8-3.8,3.7-3.7c8.7,0.4,17.5-1,25.8,3.1C2439.8,965.6,2442.8,974.2,2442.1,981.2z"/>
	<path class="st4" d="M2239.3,1273c-1.4-12.6-6-23.3-14.3-32.6c-12.8-14.3-29.5-21-48.1-22.2c-17.4-1.2-34.2,1.3-49.7,10.7
		c-23.9,14.5-33.2,40.8-27.8,65.5c5.6,25.3,22.8,39.8,47.3,46.7c4.8,1.3,9.8,0.9,14.4,2.9c5.7,0,11.3,0,17,0
		c0.3-0.3,0.6-0.9,0.9-0.9c11.3-0.7,21.7-4,31.5-9.9c11.3-6.9,19.8-16,24.7-28.4C2239.2,1294.5,2240.6,1284.1,2239.3,1273z
		 M2169.1,1309.8c-15.7-0.1-26.7-11.2-26.8-29.4c-0.2-15.8,10.9-28.8,26.7-28.3c16.3-0.7,27.4,12.7,27.1,28.4
		C2195.7,1298.6,2184.9,1309.8,2169.1,1309.8z"/>
	<path class="st4" d="M1320.8,1266.7c-4.6-22-19.3-36-40.1-43.8c-13.6-5.1-27.5-5.7-41.9-4c-15.6,1.9-29.3,7.9-40.6,18.6
		c-17.4,16.7-20.9,38-15.5,60c5.7,23.2,22.8,36.9,45.5,43.4c4.8,1.4,9.9,2.1,14.9,3.1c5.7,0,11.3,0,17,0c0.1-0.8,0.7-1,1.4-1
		c7.4-0.1,14.3-2.1,21.1-4.8C1314.4,1325.6,1327.1,1297,1320.8,1266.7z M1272.2,1299.8c-4.7,6.6-15.5,10.5-23.8,9.4
		c-12.3-1.7-19.4-8.2-22.7-19.9c-0.8-3,0-5.9-0.7-8.8c-1.6-12.6,8.3-25.4,20.1-27.9c13.3-2.8,25.3,2.3,30.8,15.5
		C1280.4,1278.8,1279.4,1289.8,1272.2,1299.8z"/>
	<path class="st4" d="M1146.1,1190.6c0-5.5-2-10.5-5.5-14.6c-7.3-8.7-30.1-9.3-35.1,7.4c-0.9,3-1.5,6.3-1.4,9.6
		c0.2,11.1,0.1,22.3,0.1,33.4c-22-11.9-44.1-11.9-65.8,0c-21.9,12.1-34.4,36.4-30.4,63c3,19.3,13.1,33.8,29,43.3
		c21.7,12.9,44.5,14.1,66.6,0c2.2-1.4,2.4-0.8,3.6,0.7c6.5,7.9,17.5,10.8,26.9,7c8.6-3.5,11.8-8.6,11.9-19.3
		C1146.4,1277.6,1146.2,1234.1,1146.1,1190.6z M1076.6,1308.8c-14.5-1-23.5-10.2-25.4-24.5c-1-8,0.4-15.7,5.5-22.6
		c10.6-14.7,32.8-13.7,42.4,0.1c3.8,5.5,5.7,11.5,5,17.8C1105.5,1296.8,1092.5,1309.9,1076.6,1308.8z"/>
	<path class="st4" d="M1594.1,1061.6c-8.8-12.6-19.4-23.7-29.3-35.4c-3.2-3.8-3.1-3.8,1.4-5.4c11.6-4.1,21.2-10.4,27.1-22
		c5.1-10.2,5.6-20.8,4.5-31.4c-1.1-11.2-5.6-21.3-14-29.1c-10.9-10.2-24.5-14.5-39.1-15.2c-13.5-0.7-27-0.3-40.5-0.1
		c-10.4,0.2-17.3,5.7-19.1,15.2c-0.7,3.9-1.2,7.8-1.2,11.8c0.1,36.8,0.1,73.7,0.1,110.5c0,6.1,0,12.2,0.9,18.3
		c1.2,7.4,6.8,14.4,12.9,15.2c10.8,1.4,17.9-2,20.9-10.7c1.3-3.8,2.2-7.9,2.2-12c0-14.1,0-28.3,0-42.4c0.3-0.1,0.7-0.3,1-0.4
		c7.7,10.2,15.2,20.5,23,30.5c8.4,10.8,15.5,22.5,25.4,32.1c7.6,7.3,21.1,5.8,26.4-3.2C1602.6,1078.3,1599.7,1069.6,1594.1,1061.6z
		 M1549,996.9c-8.4,3.6-17.3,1.6-26,2c-2.4,0.1-1.8-1.9-1.8-3.3c-0.1-5.7,0-11.3,0-17c0-5.5,0-11,0-16.5c0-1.4-0.3-3.2,2-3.2
		c9.2,0.3,18.5-1.4,27.3,3c7,3.5,9.4,9.9,9.5,16.6C1559.9,986.4,1557,993.5,1549,996.9z"/>
	<path class="st4" d="M320.7,1066.3c-8.2-15.2-20.8-27-31.3-40.5c-2.2-2.8-3.2-4,1.2-5.1c7.8-2,14.7-6,20.1-11.9
		c15-16.6,14.7-44.3,4.4-61.4c-10.2-16.8-26.5-23-44.9-24.3c-12.6-0.9-25.3-0.4-38-0.1c-6.3,0.1-12.7,1.5-16.6,7.1
		c-3.4,5-4.4,10.9-4.4,16.9c-0.1,37.8,0,75.6,0,113.4c0,6.1-0.3,12.2,1,18.3c1.4,6.9,4.5,12.4,11.4,14.9c6.4,2.3,14.5,0,18.4-5.2
		c3.8-5,5-11.1,5.1-17.2c0.2-14.2,0.1-28.3,0.1-43.4c1.2,0.9,1.8,1.3,2.1,1.7c10,13.8,19.8,27.8,30,41.4
		c5.7,7.6,10.4,15.9,18.2,21.8c6.4,4.8,17.5,2.8,21.9-3.3C324.9,1082,324.7,1073.9,320.7,1066.3z M262.7,999
		c-5-0.2-11.6,1.6-14.4-0.9c-3.3-2.9-0.8-9.7-1.1-14.7c-0.1-1.5,0-3,0-4.5c0-5.3,0.1-10.6-0.1-15.9c-0.1-2.9,0.6-4.2,3.8-4
		c8,0.5,16-0.7,23.8,2.8c7.3,3.3,9.8,10.7,9.8,17.5C284.3,993.7,273.7,999.4,262.7,999z"/>
	<path class="st4" d="M1057.4,1019c-1.5-19.7-8.9-35.7-24-48.4c-15.5-13-44.4-15.8-60.8,1.4c-0.5-0.7-0.9-1.3-1.4-2
		c-5.2-7.9-13.1-10.6-22-8.1c-7.5,2.1-11.9,9.9-11.9,19.7c-0.1,44.5,0,89-0.1,133.4c0,4.4,0.1,8.8,1,13.2
		c1.5,7.5,7.6,13.4,16.1,13.6c7.1,0.2,14.6-2.6,17.1-10.8c1.8-5.8,2.8-11.6,2.9-17.7c0.1-9.6,0-19.3,0-28.8c1-0.5,1.3,0.3,1.8,0.6
		c12,8.5,25.2,10.5,39.1,6.6c16.4-4.5,27.4-16,34.8-30.6C1056.6,1048.2,1058.5,1034,1057.4,1019z M1013.7,1048.2
		c-8.2,12.2-25,13.7-34.1,0.5c-9.2-13.2-9.1-33,2.1-46.5c3.1-3.8,9.1-6.1,14.8-6.1c12.1,0.1,19.2,8.3,22.4,20.6
		C1021.6,1027.4,1020.3,1038.3,1013.7,1048.2z"/>
	<path class="st4" d="M1848.1,1278.2c-0.6-14.6,1.2-29.2-1-43.7c-0.9-5.7-5.7-12.2-12.5-13.7c-9.9-2.1-18.4-0.8-25.1,7.3
		c-1.7,2-2.9,2.1-4.7,0c-2.2-2.6-5.5-3.8-8.5-5.3c-12-5.7-24.6-4.9-37-2.9c-15.9,2.7-28.5,11.4-38.1,24.1
		c-10.5,13.9-13.7,29.6-11.2,46.8c2.5,17,10.9,29.9,24.5,40c8.5,6.3,17.9,9.6,28.4,11.1c15.7,2.3,30-0.2,42.6-10.1
		c2-1.6,2.7-0.8,3.7,0.9c4.9,8.2,18.4,11.4,27.7,7.1c8.4-3.8,11-11.1,11.2-19.4c0.3-13.2,0.1-26.3,0.1-39.5
		C1848.1,1280.2,1848.2,1279.2,1848.1,1278.2z M1806,1280.5c-0.5,14.9-10.7,28.8-26.4,27.5c-15.2,1.5-26.6-12.3-26.5-27
		c0.2-17.1,10.6-27.6,26.4-28C1794.4,1252.7,1806.6,1265.3,1806,1280.5z"/>
	<path class="st4" d="M1200.7,1010.3c-4.3-22.8-18.1-37.2-37.6-45.3c-12.8-5.3-25.8-5.9-39.2-4.1c-14.6,1.9-27.4,8.1-38,19.3
		c-16.3,17.2-19.6,39.3-14.5,62c5.4,24,21.4,38.2,42.6,44.9c4.5,1.4,9.3,2.1,13.9,3.2c5.3,0,10.6,0,15.9,0c0.1-0.8,0.7-1,1.3-1
		c6.9-0.1,13.3-2.1,19.8-5C1194.7,1071.2,1206.6,1041.6,1200.7,1010.3z M1155.2,1044.5c-4.4,6.8-14.6,10.8-22.3,9.7
		c-11.5-1.7-18.2-8.5-21.2-20.6c-0.8-3.1,0-6.1-0.6-9.1c-1.5-13,7.8-26.3,18.8-28.9c12.5-2.9,23.7,2.4,28.8,16
		C1162.9,1022.8,1162,1034.2,1155.2,1044.5z"/>
</g>
</svg>
