<?xml version="1.0" encoding="utf-8"?>
<!-- Generator: Adobe Illustrator 26.0.1, SVG Export Plug-In . SVG Version: 6.00 Build 0)  -->
<svg version="1.1" id="Logo-Grand-Avignon" xmlns="http://www.w3.org/2000/svg" xmlns:xlink="http://www.w3.org/1999/xlink" x="0px"
	 y="0px" viewBox="0 0 510 253" style="enable-background:new 0 0 510 253;" xml:space="preserve">
<style type="text/css">
	.st0{fill:#7BBB58;}
	.st1{fill:#FFFFFF;}
</style>
<rect x="32.6" y="25.2" class="st0" width="450.6" height="168.6"/>
<path class="st1" d="M111.8,86.8c-2,1.2-3.5,1.3-5.1,1.3c-6.5,0-9-8.7-9-19.7c0-12.9,2.6-21,9.7-21c1.9,0,3.4,0.3,4.4,0.8V86.8z
	 M126,97.8V41.5c-3.4-2.5-8.8-4.4-17.1-4.4c-17,0-25.3,11.5-25.3,32.2c0,17.6,7.8,29.1,19.4,29.1c4.3,0,7-1,8.8-2.3v3.1
	c0,6.7-2.9,11.1-10.2,11.1c-5.6,0-9.8-1.6-12-3.3l-3.7,10.5c4.1,2.9,9.6,4.5,18.3,4.5C117.2,122,126,114.4,126,97.8z"/>
<path class="st1" d="M159.9,58.9c-3.1-1.6-6.7-1.5-9.3-0.2v46.2h-13.4V52c5.1-3,12.3-4.7,25.2-4.1L159.9,58.9z"/>
<path class="st1" d="M189.8,95.9c-1,0.4-2.9,0.9-4.8,0.9c-5.3,0-8.1-3.2-8.1-8.9c0-8.1,4.3-11,12.9-12.2V95.9z M202.8,101.8V68.4
	c0-15.4-7.9-20.6-18.4-20.6c-8.4,0-14,2.4-17.3,4.2l2.8,8.8c3-1.6,7.2-2.9,11.9-2.9c4.9,0,8,2.5,8,7.8v1.9c-15,2-25.6,6.5-25.6,20.8
	c0,11.1,6.8,17.6,20.2,17.6C193.1,106,198.8,104.4,202.8,101.8z"/>
<path class="st1" d="M239.8,104.9V65.3c0-4.9-2-7.6-6.8-7.6c-2.8,0-4.2,0.3-5.6,1v46.2H214V52c4.5-2.5,10.8-4.2,19.4-4.2
	c13.7,0,20.1,5.6,20.1,17.5v39.7H239.8z"/>
<path class="st1" d="M289.8,95.2c-1,0.6-2.5,0.6-3.7,0.6c-6.9,0-9.6-7.3-9.6-19.3c0-10.5,2.2-19.2,10-19.2c1.3,0,2.4,0.2,3.3,0.4
	V95.2z M303.3,101.8V23.2h-13.5v26c-1.3-0.5-3.2-1-6.6-1c-11.9,0-20.2,11-20.2,29c0,18.6,8.2,28.7,22.6,28.7
	C294,106,299.2,104.4,303.3,101.8z"/>
<g>
	<path class="st1" d="M155.6,167.2c-1.2,0.5-3.4,1.1-5.6,1.1c-6.2,0-9.5-3.8-9.5-10.5c0-9.5,5-13,15.1-14.3V167.2z M170.9,174.2V135
		c0-18.1-9.3-24.2-21.6-24.2c-9.9,0-16.5,2.8-20.3,4.9l3.3,10.4c3.6-1.8,8.4-3.4,13.9-3.4c5.7,0,9.4,2.9,9.4,9.2v2.2
		c-17.6,2.3-30,7.6-30,24.4c0,13.1,7.9,20.6,23.7,20.6C159.5,179.1,166.1,177.3,170.9,174.2z"/>
	<path class="st1" d="M204.6,178.1h-12.8L176.9,122h13.8l7.8,37.4h0.1l8.1-37.4h12.5L204.6,178.1z"/>
	<path class="st1" d="M226.9,178.1V122h13.5v56.1H226.9z"/>
	<path class="st1" d="M277.2,168.1c-1.9,1.1-3.3,1.2-4.8,1.2c-6.1,0-8.5-8.2-8.5-18.7c0-12.3,2.5-19.9,9.2-19.9
		c1.8,0,3.2,0.3,4.2,0.7V168.1z M290.7,178.5v-53.4c-3.2-2.4-8.3-4.2-16.2-4.2c-16.1,0-24,10.9-24,30.6c0,16.8,7.4,27.6,18.4,27.6
		c4.1,0,6.7-0.9,8.3-2.2v2.9c0,6.3-2.7,10.5-9.7,10.5c-5.3,0-9.3-1.6-11.3-3.1l-3.5,10c3.8,2.7,9.2,4.3,17.4,4.3
		C282.3,201.5,290.7,194.3,290.7,178.5z"/>
	<path class="st1" d="M327.7,178.1v-39.7c0-4.9-2-7.6-6.8-7.6c-2.8,0-4.2,0.3-5.6,1v46.2h-13.4v-53c4.5-2.5,10.8-4.2,19.4-4.2
		c13.7,0,20.1,5.6,20.1,17.5v39.7H327.7z"/>
	<path class="st1" d="M378.6,149.7c0,10.1-1,18.4-7.1,18.4c-5.8,0-7-8.3-7-18.5c0-10.2,1-18.7,7-18.7
		C377.5,130.9,378.6,139.5,378.6,149.7z M392,150c0-16.7-6.7-29-20.5-29c-13.7,0-20.5,12.4-20.5,29c0,16.7,6.8,29.2,20.5,29.2
		C385.3,179.1,392,166.6,392,150z"/>
	<path class="st1" d="M427.6,178.1v-39.7c0-4.9-2-7.6-6.8-7.6c-2.8,0-4.2,0.3-5.6,1v46.2h-13.4v-53c4.5-2.5,10.8-4.2,19.4-4.2
		c13.7,0,20.1,5.6,20.1,17.5v39.7H427.6z"/>
</g>
<g>
	<path d="M43.1,212.8V212c0-1.6-1.1-2.4-2.8-2.4c-1.6,0-2.8,0.8-2.8,2.4v8.1c0,1.6,1.1,2.4,2.8,2.4c1.6,0,2.8-0.8,2.8-2.4v-1.3h4.7
		v0.1c0,5.4-2.8,7.7-7.5,7.7s-7.5-2.3-7.5-7.7v-5.7c0-5.4,2.8-7.7,7.5-7.7c4.6,0,7.4,2.2,7.5,7.4H43.1z"/>
	<path d="M56.3,212c0-1.6,1.1-2.4,2.8-2.4c1.6,0,2.8,0.8,2.8,2.4v8.1c0,1.6-1.1,2.4-2.8,2.4c-1.6,0-2.8-0.8-2.8-2.4V212z
		 M51.6,218.8c0,5.4,2.8,7.7,7.5,7.7c4.7,0,7.5-2.3,7.5-7.7v-5.7c0-5.4-2.8-7.7-7.5-7.7c-4.7,0-7.5,2.3-7.5,7.7V218.8z"/>
	<path d="M70.7,205.8h4.6v2.3c1.5-1.4,3.1-2.7,5.1-2.7c1.8,0,3,1.2,3.6,3.1c1.5-1.6,3-3.1,5-3.1c2.8,0,4.3,1.7,4.3,5.4v15.4h-4.7
		v-15.5c0-1.3-0.5-1.7-1.2-1.7c-0.9,0-2.4,1-3,1.8v15.4h-4.7v-15.5c0-1.3-0.5-1.7-1.3-1.7c-1,0-2.4,1-2.9,1.8v15.4h-4.7V205.8z"/>
	<path d="M97.7,205.8h4.6v2.3c1.5-1.4,3.1-2.7,5.1-2.7c1.8,0,3,1.2,3.6,3.1c1.5-1.6,3-3.1,5-3.1c2.8,0,4.3,1.7,4.3,5.4v15.4h-4.7
		v-15.5c0-1.3-0.5-1.7-1.2-1.7c-0.9,0-2.4,1-3,1.8v15.4h-4.7v-15.5c0-1.3-0.5-1.7-1.3-1.7c-1,0-2.4,1-2.9,1.8v15.4h-4.7V205.8z"/>
	<path d="M139,205.8v20.4h-4.6v-2.3c-1.7,1.5-3.3,2.7-5.3,2.7c-2.9,0-4.4-1.5-4.4-5.2v-15.5h4.7v15c0,1.3,0.4,2.2,1.7,2.2
		c1,0,2.1-0.9,3.1-1.8v-15.4H139z"/>
	<path d="M143.5,226.2v-20.4h4.6v2.3c1.7-1.5,3.3-2.7,5.3-2.7c2.9,0,4.4,1.5,4.4,5.2v15.5h-4.7v-15c0-1.3-0.4-2.2-1.7-2.2
		c-1,0-2.1,0.9-3.1,1.8v15.4H143.5z"/>
	<path d="M171.6,221.2c-1.1,1.1-2.1,1.9-3.6,1.9c-1.3,0-2.1-0.8-2.1-2.1c0-2.1,2.8-3.7,5.7-4.7V221.2z M166.6,211.8
		c0-1.5,1.2-2.5,2.6-2.5c1.3,0,2.4,0.7,2.4,2.4v1.5c-5.9,1.8-10.4,3.8-10.4,8.5c0,3.3,1.8,4.9,4.7,4.9c2.4,0,4.2-1,5.6-2.4
		c0.1,0.8,0.2,1.5,0.3,2h4.7c-0.1-0.5-0.3-1.1-0.3-1.6v-12.9c0-3.6-1.9-6.2-6.9-6.2c-3.8,0-7.2,1.8-7.6,6.3H166.6z"/>
	<path d="M195.3,205.8v20.4h-4.6v-2.3c-1.7,1.5-3.3,2.7-5.3,2.7c-2.9,0-4.4-1.5-4.4-5.2v-15.5h4.7v15c0,1.3,0.4,2.2,1.7,2.2
		c1,0,2.1-0.9,3.1-1.8v-15.4H195.3z"/>
	<path d="M197.7,210.5v-3.8h1.9v-5.5h4.7v5.5h3v3.8h-3v10.4c0,1,0.9,1.5,2.1,1.5c0.3,0,0.6,0,0.9,0v4c-0.9,0.2-1.8,0.2-2.7,0.2
		c-3.1,0-5.1-1.1-5.1-4v-12H197.7z"/>
	<path d="M214.5,213.3v-1.1c0-1.8,0.9-2.9,2.8-2.9c1.9,0,2.8,1.1,2.8,2.9v1.1H214.5z M217.6,197.9l-3.5,5.5h3.8l5.5-5.5H217.6z
		 M224.8,217.1v-4.8c0-4.2-3.1-6.9-7.5-6.9c-4.5,0-7.5,2.8-7.5,7.2v6.7c0,4.5,3,7.2,7.5,7.2c4.8,0,7.3-2.5,7.5-6.7h-4.7
		c0,1.6-0.8,2.8-2.8,2.8c-1.6,0-2.8-0.9-2.8-2.9v-2.7H224.8z"/>
	<path d="M248.9,221.6c-0.9,1-1.8,1.5-2.8,1.5c-1.3,0-2.3-0.8-2.3-4.9v-4.3c0-4,1-4.9,2.3-4.9c1,0,1.9,0.5,2.8,1.5V221.6z
		 M253.6,226.2v-27.1h-4.7v8.5c-2.2-1.6-3.4-2.2-4.7-2.2c-3.7,0-5.2,2.8-5.2,8.1v4.9c0,5.2,1.5,8.1,5.2,8.1c2.1,0,4.2-1.6,5-2.8h0.1
		v2.5H253.6z"/>
	<path d="M257.9,199.1h4.1v10.1h-4.1V199.1z"/>
	<path d="M275.7,221.2c-1.1,1.1-2.1,1.9-3.6,1.9c-1.3,0-2.1-0.8-2.1-2.1c0-2.1,2.8-3.7,5.7-4.7V221.2z M270.7,211.8
		c0-1.5,1.2-2.5,2.6-2.5c1.3,0,2.4,0.7,2.4,2.4v1.5c-5.9,1.8-10.4,3.8-10.4,8.5c0,3.3,1.8,4.9,4.7,4.9c2.4,0,4.2-1,5.6-2.4
		c0.1,0.8,0.2,1.5,0.3,2h4.7c-0.1-0.5-0.3-1.1-0.3-1.6v-12.9c0-3.6-1.9-6.2-6.9-6.2c-3.8,0-7.2,1.8-7.6,6.3H270.7z"/>
	<path d="M293.8,213.2c0,3.6-0.7,4.3-2.7,4.3c-1.4,0-2.2-1.3-2.2-3.8c0-3.2,0.7-4.4,2.5-4.4C293,209.3,293.8,210.6,293.8,213.2z
		 M300.8,205.4c-1.8,0-2.9,0.9-4.1,2.4c-1.2-1.5-3.4-2.4-5.3-2.4c-5.3,0-7,3.3-7,7.7c0,3.4,0.8,5.6,3.1,7.1
		c-1.2,0.7-2.8,1.8-2.8,3.4c0,1.3,0.8,2.2,1.9,2.9c-1.1,0.7-2.8,1.6-2.8,3.2c0,2.3,2.8,3.7,7.8,3.7c5.5,0,9.1-1.6,9.1-5.1
		c0-7.4-11.8-3.4-11.8-6c0-0.5,0.6-0.8,0.8-1.2c0.7,0.2,1.3,0.3,1.9,0.3c4.6,0,6.8-2.9,6.8-8c0-1.2-0.3-2.2-0.6-3.6
		c0.6-0.2,1.1-0.4,1.6-0.4c0.4,0,1.1,0.2,1.5,0.3V205.4z M294.4,227.5c1.4,0.1,1.7,0.4,1.7,1.1c0,1-1.3,1.6-3.6,1.6
		c-2.8,0-4.3-0.5-4.3-1.5c0-0.8,0.5-1.2,1-1.6L294.4,227.5z"/>
	<path d="M312.6,213.2c0,3.6-0.7,4.3-2.7,4.3c-1.4,0-2.2-1.3-2.2-3.8c0-3.2,0.7-4.4,2.5-4.4C311.8,209.3,312.6,210.6,312.6,213.2z
		 M319.6,205.4c-1.8,0-2.9,0.9-4.1,2.4c-1.2-1.5-3.4-2.4-5.3-2.4c-5.3,0-7,3.3-7,7.7c0,3.4,0.8,5.6,3.1,7.1
		c-1.2,0.7-2.8,1.8-2.8,3.4c0,1.3,0.8,2.2,1.9,2.9c-1.1,0.7-2.8,1.6-2.8,3.2c0,2.3,2.8,3.7,7.8,3.7c5.5,0,9.1-1.6,9.1-5.1
		c0-7.4-11.8-3.4-11.8-6c0-0.5,0.6-0.8,0.8-1.2c0.7,0.2,1.3,0.3,1.9,0.3c4.6,0,6.8-2.9,6.8-8c0-1.2-0.3-2.2-0.6-3.6
		c0.6-0.2,1.1-0.4,1.6-0.4c0.4,0,1.1,0.2,1.5,0.3V205.4z M313.1,227.5c1.4,0.1,1.7,0.4,1.7,1.1c0,1-1.3,1.6-3.6,1.6
		c-2.8,0-4.3-0.5-4.3-1.5c0-0.8,0.5-1.2,1-1.6L313.1,227.5z"/>
	<path d="M323.2,199.1h4.7v27.1h-4.7V199.1z"/>
	<path d="M337.4,212c0-1.6,1.1-2.4,2.8-2.4c1.6,0,2.8,0.8,2.8,2.4v8.1c0,1.6-1.1,2.4-2.8,2.4c-1.6,0-2.8-0.8-2.8-2.4V212z
		 M332.7,218.8c0,5.4,2.8,7.7,7.5,7.7c4.7,0,7.5-2.3,7.5-7.7v-5.7c0-5.4-2.8-7.7-7.5-7.7c-4.7,0-7.5,2.3-7.5,7.7V218.8z"/>
	<path d="M351.8,205.8h4.6v2.3c1.5-1.4,3.1-2.7,5.1-2.7c1.8,0,3,1.2,3.6,3.1c1.5-1.6,3-3.1,5-3.1c2.8,0,4.3,1.7,4.3,5.4v15.4h-4.7
		v-15.5c0-1.3-0.5-1.7-1.2-1.7c-0.9,0-2.4,1-3,1.8v15.4h-4.7v-15.5c0-1.3-0.5-1.7-1.3-1.7c-1,0-2.4,1-2.9,1.8v15.4h-4.7V205.8z"/>
	<path d="M383.2,213.3v-1.1c0-1.8,0.9-2.9,2.8-2.9c1.9,0,2.8,1.1,2.8,2.9v1.1H383.2z M386.3,197.9l-3.5,5.5h3.8l5.5-5.5H386.3z
		 M393.5,217.1v-4.8c0-4.2-3.1-6.9-7.5-6.9c-4.5,0-7.5,2.8-7.5,7.2v6.7c0,4.5,3,7.2,7.5,7.2c4.8,0,7.3-2.5,7.5-6.7h-4.7
		c0,1.6-0.8,2.8-2.8,2.8c-1.6,0-2.8-0.9-2.8-2.9v-2.7H393.5z"/>
	<path d="M397.6,226.2v-20.4h4.6v2.7h0.1c1.1-2,2.5-3.1,4.9-3.1v5.1c-0.8-0.2-1.7-0.5-2.5-0.5c-1.5,0-2.3,1.2-2.3,2.2v13.9H397.6z"
		/>
	<path d="M419.4,221.2c-1.1,1.1-2.1,1.9-3.6,1.9c-1.3,0-2.1-0.8-2.1-2.1c0-2.1,2.8-3.7,5.7-4.7V221.2z M414.3,211.8
		c0-1.5,1.2-2.5,2.6-2.5c1.3,0,2.4,0.7,2.4,2.4v1.5c-5.9,1.8-10.4,3.8-10.4,8.5c0,3.3,1.8,4.9,4.7,4.9c2.4,0,4.2-1,5.6-2.4
		c0.1,0.8,0.2,1.5,0.3,2h4.7c-0.1-0.5-0.3-1.1-0.3-1.6v-12.9c0-3.6-1.9-6.2-6.9-6.2c-3.8,0-7.2,1.8-7.6,6.3H414.3z"/>
	<path d="M426.8,210.5v-3.8h1.9v-5.5h4.7v5.5h3v3.8h-3v10.4c0,1,0.9,1.5,2.1,1.5c0.3,0,0.6,0,0.9,0v4c-0.9,0.2-1.8,0.2-2.7,0.2
		c-3.1,0-5.1-1.1-5.1-4v-12H426.8z"/>
	<path d="M444.6,205.8v20.4h-4.7v-20.4H444.6z M439.8,202.3V198h4.7v4.3H439.8z"/>
	<path d="M454,212c0-1.6,1.1-2.4,2.8-2.4c1.6,0,2.8,0.8,2.8,2.4v8.1c0,1.6-1.1,2.4-2.8,2.4c-1.6,0-2.8-0.8-2.8-2.4V212z
		 M449.3,218.8c0,5.4,2.8,7.7,7.5,7.7c4.7,0,7.5-2.3,7.5-7.7v-5.7c0-5.4-2.8-7.7-7.5-7.7c-4.7,0-7.5,2.3-7.5,7.7V218.8z"/>
	<path d="M468.4,226.2v-20.4h4.6v2.3c1.7-1.5,3.3-2.7,5.3-2.7c2.9,0,4.4,1.5,4.4,5.2v15.5h-4.7v-15c0-1.3-0.5-2.2-1.7-2.2
		c-1,0-2.1,0.9-3.1,1.8v15.4H468.4z"/>
</g>
</svg>
