<?xml version="1.0" encoding="utf-8"?>
<!-- Generator: Adobe Illustrator 26.0.1, SVG Export Plug-In . SVG Version: 6.00 Build 0)  -->
<svg version="1.1" id="Logo-Cannes" xmlns="http://www.w3.org/2000/svg" xmlns:xlink="http://www.w3.org/1999/xlink" x="0px"
	 y="0px" viewBox="0 0 595.3 264" style="enable-background:new 0 0 595.3 264;" xml:space="preserve">
<style type="text/css">
	.st0{clip-path:url(#SVGID_00000070839369114747361110000003147076400776870837_);fill:#302821;}
	.st1{clip-path:url(#SVGID_00000070839369114747361110000003147076400776870837_);fill:#468936;}
	.st2{clip-path:url(#SVGID_00000070839369114747361110000003147076400776870837_);fill:#307FB0;}
	.st3{clip-path:url(#SVGID_00000070839369114747361110000003147076400776870837_);fill:#79C7C9;}
	.st4{clip-path:url(#SVGID_00000070839369114747361110000003147076400776870837_);fill:#F8AC18;}
	.st5{clip-path:url(#SVGID_00000070839369114747361110000003147076400776870837_);fill:#E74215;}
</style>
<g>
	<defs>
		<rect id="SVGID_1_" y="-9.5" width="595.3" height="283.5"/>
	</defs>
	<clipPath id="SVGID_00000112632615207912198450000008213459489526398625_">
		<use xlink:href="#SVGID_1_"  style="overflow:visible;"/>
	</clipPath>
	<path style="clip-path:url(#SVGID_00000112632615207912198450000008213459489526398625_);fill:#302821;" d="M554.4,214.1
		c9.5,0,16.1-5,16.1-13.5v-0.1c0-7.5-4.9-10.9-14.4-13.2c-8.7-2.1-10.8-3.6-10.8-7.1v-0.1c0-3,2.7-5.3,7.3-5.3
		c3.5,0,6.9,1.2,10.4,3.4c0.6,0.4,1.3,0.6,2.1,0.6c2.1,0,3.7-1.6,3.7-3.7c0-1.5-0.8-2.6-1.7-3.2c-4.1-2.7-8.6-4.2-14.3-4.2
		c-9,0-15.4,5.3-15.4,13.1v0.1c0,8.3,5.4,11.1,15,13.5c8.4,1.9,10.2,3.7,10.2,6.9v0.1c0,3.3-3.1,5.7-8,5.7c-4.9,0-8.9-1.7-12.6-4.6
		c-0.5-0.4-1.2-0.7-2.3-0.7c-2.1,0-3.7,1.6-3.7,3.7c0,1.3,0.6,2.4,1.5,3C542.5,212.2,548.3,214.1,554.4,214.1 M482.6,209.9
		c0,2.1,1.7,3.9,3.9,3.9c2.1,0,3.9-1.7,3.9-3.9v-28.6l23.2,30c1.1,1.4,2.3,2.4,4.1,2.4h0.3c2.2,0,3.9-1.7,3.9-3.9v-37.9
		c0-2.1-1.7-3.9-3.9-3.9c-2.1,0-3.9,1.7-3.9,3.9v27.7l-22.5-29.2c-1.1-1.4-2.2-2.3-4.1-2.3h-0.8c-2.3,0-4,1.8-4,4V209.9z
		 M457.4,209.9c0,2.2,1.7,3.9,4,3.9c2.2,0,3.9-1.7,3.9-3.9V172c0-2.2-1.7-3.9-3.9-3.9c-2.3,0-4,1.7-4,3.9V209.9z M413.2,190.8v-15.1
		h11.5c5.9,0,9.3,2.6,9.3,7.5v0.1c0,4.6-3.6,7.5-9.3,7.5H413.2z M405.3,209.9c0,2.2,1.7,3.9,4,3.9c2.2,0,3.9-1.7,3.9-3.9v-12.1h10
		l11,14c0.9,1.2,2.1,2.1,3.9,2.1c1.9,0,3.8-1.5,3.8-3.7c0-1.2-0.5-2.1-1.3-3l-8.6-10.9c6.1-1.9,10.2-6.2,10.2-13.5v-0.1
		c0-3.9-1.4-7.3-3.7-9.7c-2.9-2.8-7.3-4.5-13-4.5h-16.1c-2.3,0-4,1.7-4,4V209.9z M360.9,213.5h26.5c1.9,0,3.5-1.5,3.5-3.5
		c0-1.9-1.6-3.5-3.5-3.5h-22.6v-12.1h19.4c1.9,0,3.5-1.5,3.5-3.5c0-2-1.6-3.6-3.5-3.6h-19.4v-11.7h22.3c1.9,0,3.5-1.5,3.5-3.5
		c0-1.9-1.6-3.5-3.5-3.5h-26.2c-2.3,0-4,1.7-4,4v37.1C356.9,211.8,358.7,213.5,360.9,213.5 M373.6,165c1.8,0,3-0.3,4.6-1.7l4.3-4.1
		c0.6-0.6,1.1-1.2,1.1-1.9c0-1.2-2.6-2.5-4.6-2.5c-1.4,0-2.4,0.7-3.1,1.9l-3.7,5.7c-0.3,0.4-0.5,1-0.5,1.4
		C371.6,164.5,372.5,165,373.6,165 M311.9,209.5c0,2.3,1.7,4,4,4h24.4c2,0,3.6-1.6,3.6-3.6c0-2-1.6-3.6-3.6-3.6h-20.4V172
		c0-2.2-1.7-3.9-3.9-3.9c-2.3,0-4,1.7-4,3.9V209.5z"/>
	<path style="clip-path:url(#SVGID_00000112632615207912198450000008213459489526398625_);fill:#302821;" d="M541.5,151.5h24.2
		c1.8,0,3.2-1.4,3.2-3.2c0-1.8-1.5-3.2-3.2-3.2h-20.7V134h17.7c1.8,0,3.2-1.4,3.2-3.2c0-1.8-1.5-3.3-3.2-3.3h-17.7v-10.7h20.4
		c1.8,0,3.2-1.4,3.2-3.2c0-1.8-1.5-3.2-3.2-3.2h-24c-2.1,0-3.6,1.6-3.6,3.6v33.9C537.8,149.9,539.4,151.5,541.5,151.5 M497.9,144.9
		v-28h8.1c8.7,0,14.3,5.9,14.3,14v0.1c0,8.1-5.7,13.9-14.3,13.9H497.9z M490.6,147.9c0,2.1,1.6,3.6,3.6,3.6H506
		c12.9,0,21.9-9,21.9-20.6v-0.1c0-11.6-8.9-20.5-21.9-20.5h-11.7c-2.1,0-3.6,1.6-3.6,3.6V147.9z M447.4,152.1
		c8.6,0,14.7-4.6,14.7-12.3v-0.1c0-6.8-4.5-9.9-13.2-12.1c-7.9-1.9-9.8-3.3-9.8-6.5v-0.1c0-2.7,2.5-4.9,6.7-4.9
		c3.2,0,6.3,1.1,9.5,3.1c0.6,0.4,1.2,0.5,1.9,0.5c1.9,0,3.4-1.5,3.4-3.4c0-1.4-0.8-2.4-1.6-2.9c-3.7-2.5-7.9-3.8-13.1-3.8
		c-8.2,0-14.1,4.9-14.1,11.9v0.1c0,7.6,4.9,10.2,13.7,12.3c7.7,1.8,9.3,3.4,9.3,6.3v0.1c0,3.1-2.8,5.2-7.3,5.2
		c-4.5,0-8.1-1.5-11.5-4.2c-0.5-0.4-1.1-0.6-2.1-0.6c-1.9,0-3.4,1.5-3.4,3.4c0,1.2,0.6,2.2,1.4,2.8
		C436.5,150.4,441.8,152.1,447.4,152.1 M403.9,148.2c0,2,1.6,3.6,3.6,3.6c2.1,0,3.7-1.6,3.7-3.6v-12.9l14.1-19.2
		c0.5-0.7,1-1.6,1-2.6c0-1.9-1.4-3.5-3.5-3.5c-1.5,0-2.6,0.9-3.5,2.2l-11.7,16.6l-11.5-16.5c-0.9-1.3-1.9-2.2-3.5-2.2
		c-2.1,0-3.6,1.5-3.6,3.5c0,1,0.4,1.8,0.8,2.5l14.2,19.5V148.2z M360.8,135.2l7.2-16.7l7.2,16.7H360.8z M347.9,148.5
		c0,1.9,1.5,3.4,3.4,3.4c1.5,0,2.8-0.8,3.4-2.3l3.5-7.9h20l3.4,7.7c0.6,1.5,1.8,2.5,3.5,2.5c1.9,0,3.4-1.5,3.4-3.5
		c0-0.5-0.1-1-0.4-1.5l-15.3-34.1c-0.8-1.8-2.2-2.9-4.3-2.9H368c-2.1,0-3.5,1.1-4.4,2.9l-15.3,34.1
		C348,147.4,347.9,147.9,347.9,148.5 M320.7,131.8v-14.8h8.4c5.4,0,8.9,2.5,8.9,7.4v0.1c0,4.3-3.4,7.4-8.9,7.4H320.7z M313.5,148.2
		c0,2,1.6,3.6,3.6,3.6c2,0,3.6-1.6,3.6-3.6v-9.9h8.2c9.1,0,16.5-4.8,16.5-14.1v-0.1c0-8.3-6-13.8-15.7-13.8h-12.6
		c-2.1,0-3.6,1.6-3.6,3.6V148.2z"/>
	<path style="clip-path:url(#SVGID_00000112632615207912198450000008213459489526398625_);fill:#302821;" d="M552.5,96.9
		c9.5,0,16.1-5,16.1-13.5v-0.1c0-7.5-4.9-10.9-14.4-13.2c-8.7-2.1-10.8-3.6-10.8-7.1v-0.1c0-3,2.7-5.3,7.3-5.3
		c3.5,0,6.9,1.2,10.4,3.4c0.6,0.4,1.3,0.6,2.1,0.6c2.1,0,3.7-1.6,3.7-3.7c0-1.5-0.8-2.6-1.7-3.2c-4.1-2.7-8.6-4.2-14.3-4.2
		c-9,0-15.4,5.3-15.4,13.1v0.1c0,8.3,5.4,11.1,15,13.5c8.4,1.9,10.2,3.7,10.2,6.9v0.1c0,3.4-3.1,5.7-8,5.7s-8.9-1.7-12.6-4.6
		c-0.5-0.4-1.2-0.7-2.3-0.7c-2.1,0-3.7,1.6-3.7,3.7c0,1.3,0.6,2.4,1.5,3C540.6,95,546.4,96.9,552.5,96.9 M501.4,96.3H528
		c1.9,0,3.5-1.5,3.5-3.5c0-1.9-1.6-3.5-3.5-3.5h-22.6V77.1h19.4c1.9,0,3.5-1.5,3.5-3.5c0-2-1.6-3.6-3.5-3.6h-19.4V58.3h22.3
		c1.9,0,3.5-1.5,3.5-3.5c0-1.9-1.6-3.5-3.5-3.5h-26.2c-2.3,0-4,1.7-4,4v37.1C497.4,94.5,499.2,96.3,501.4,96.3 M450.4,92.7
		c0,2.1,1.7,3.9,3.9,3.9c2.1,0,3.9-1.7,3.9-3.9V64.1l23.2,30c1.1,1.4,2.3,2.4,4.1,2.4h0.3c2.2,0,3.9-1.7,3.9-3.9V54.7
		c0-2.1-1.7-3.9-3.9-3.9c-2.1,0-3.9,1.7-3.9,3.9v27.7l-22.5-29.2c-1.1-1.4-2.2-2.3-4.1-2.3h-0.8c-2.3,0-4,1.8-4,4V92.7z M403.4,92.7
		c0,2.1,1.7,3.9,3.9,3.9c2.1,0,3.9-1.7,3.9-3.9V64.1l23.2,30c1.1,1.4,2.3,2.4,4.1,2.4h0.3c2.2,0,3.9-1.7,3.9-3.9V54.7
		c0-2.1-1.7-3.9-3.9-3.9c-2.1,0-3.9,1.7-3.9,3.9v27.7l-22.5-29.2c-1.1-1.4-2.2-2.3-4.1-2.3h-0.8c-2.3,0-4,1.8-4,4V92.7z M368.5,78.4
		l7.9-18.2l7.9,18.2H368.5z M354.4,92.9c0,2.1,1.6,3.7,3.7,3.7c1.7,0,3-0.9,3.7-2.5l3.8-8.7h21.9l3.7,8.4c0.7,1.7,2,2.8,3.9,2.8
		c2.1,0,3.7-1.7,3.7-3.8c0-0.5-0.1-1.1-0.4-1.7l-16.8-37.4c-0.9-2-2.4-3.2-4.7-3.2h-0.4c-2.3,0-3.9,1.2-4.8,3.2l-16.8,37.4
		C354.6,91.8,354.4,92.3,354.4,92.9 M334.7,97c7.3,0,12.1-2.3,16.4-6.1c0.7-0.6,1.3-1.6,1.3-2.8c0-2-1.7-3.7-3.7-3.7
		c-1,0-1.8,0.4-2.4,0.9c-3.3,2.8-6.5,4.3-11.3,4.3c-8.6,0-14.9-7.2-14.9-16v-0.1c0-8.8,6.3-15.9,14.9-15.9c4.3,0,7.7,1.5,10.8,4.1
		c0.5,0.4,1.3,0.8,2.4,0.8c2.2,0,3.9-1.7,3.9-3.9c0-1.4-0.7-2.5-1.5-3.2c-3.9-3-8.5-5.1-15.5-5.1c-13.7,0-23.3,10.5-23.3,23.3v0.1
		C311.8,86.8,321.6,97,334.7,97"/>
	<path style="clip-path:url(#SVGID_00000112632615207912198450000008213459489526398625_);fill:#468936;" d="M80.1,120.1l0-0.3
		l-1.2-0.7l0,0.3L80.1,120.1z M62.8,124.8c-1,1.5-0.9-1.6-1.4-1.9C62.2,121.6,62,124.4,62.8,124.8 M89.5,122.9c-1,1,1.6,2.1,1.1,3
		l0.6-0.3c-0.4,1.8-1.5-1.5-2.1-0.9l0.4-0.4c-0.2-1.5-1.2-0.8-1.8-1.9C88,121.8,89.9,122.5,89.5,122.9 M63.9,125.8
		c-0.6,1.2-0.7,0.7-1.2,0.3C62.9,125.6,63.4,125.4,63.9,125.8 M83.9,125.4c0.5,1.1-0.7,1.4-1.2,0.9c0.6,1.5,1.4,1.1,2.2,1.2
		c0.1,0.1,0.3,0.2,0.5,0.1c-0.2-0.1-0.3-0.1-0.5-0.1c-0.4-0.3-0.5-1.1-0.7-1.6l0.2-0.5l-1.1-0.2L83.9,125.4z M97.4,126.5l-1.6-1.8
		l-1,0.4L97.4,126.5z M118.5,122c0.6-0.1,0.6-0.4,1.2,1c0.5,0.5,0.6-0.3,1.1,0.2C120.3,124.5,119.4,122.4,118.5,122
		c-0.1,0-0.3,0-0.6,0C118.1,121.8,118.3,121.9,118.5,122 M115.6,123.8c1.6,2.6,2.8,0.5,3.5,1.1C118.4,125.8,116.4,126.9,115.6,123.8
		 M79.4,131.3c-0.2,0.5,1.2,2.1,1.8,1.5l0.3,2.2c-0.5-1.4-2.1-1-2.3-1.1C78.3,131.9,79.2,132.7,79.4,131.3 M48,130.6l0.3,0.5
		c0,0.6-0.5,1.1-0.6,1.5C47,132.4,46.8,131.2,48,130.6 M54.7,135.5c0.3-0.2,0.5-0.4,0.7-0.6l0,0.4C55,136,54.9,135.8,54.7,135.5
		c-0.3,0.2-0.7,0.3-1,0.5c-0.6,1.4,0.5,2.6,0.7,3.4c-0.6-0.5-0.8-2-1.8-1.2c0,0.4-0.2,0.7,0.4,0.8c0,0-1.3,0.1-1.3,0.1
		c-0.8-2.3,0.7-2.6,2-3.1c0.1-0.3,0.3-0.6,0.6-1C54.5,134.8,54.6,135.2,54.7,135.5 M47.5,135.9c-0.5,1.6-1.5,3.7,1,3.2
		c0.7-1.6,0.2-1.7,1.6-3.5c-0.4-0.5-1.2,0-1.6,0.1c0.3,0.4,1.1-0.2,0.8,0.9C48.3,137,47.7,136.6,47.5,135.9c0.2-0.6,0.3-1.1,0.2-1.4
		C47.5,135,47.4,135.5,47.5,135.9 M44.9,138l1,0.1l0.3-2.3L44.9,138z M57.7,138.1c-0.5,1.1,0.8,1.8,1.2,1.7L57.7,138.1z M57.3,134.6
		l-0.5-0.5l0.2,2.6L57.3,134.6z M69,134.9l2,0.9c0.1,2.6-1.7,0-2.4,0.5C68,135,68.8,135.8,69,134.9 M85.5,133.3
		c0.6,1.1-0.7,3.5-1.9,1.4C84.5,134.3,85.6,134.2,85.5,133.3 M121.5,124.2l-1.5,0.2l1.6,0.1L121.5,124.2z M133.1,120.6
		c1.5,4.9,3.8,2.8,5.4,4.9c-0.7-1.6-1.1-4.2-3.3-3.6c1.1-2,2.8,2.7,1.9-1.5c-0.8,0.5-2.5-0.4-2.8-0.5l1-0.4
		C133.2,116.8,134.3,121.4,133.1,120.6 M158.1,117.3l-1-1.3l1.2,1.2L158.1,117.3l0.2,0.3l-2.7-0.2L158.1,117.3z M158,116.1l2,0.7
		l-1.4-1l3.3,1.7C161.4,118.9,159,117.5,158,116.1 M160.5,115c-0.5,0-0.8-0.1-1-0.3c-0.6-0.3-1.2-0.9-1.5-1.7c1.2,0.4,1,1.2,1.5,1.7
		C159.9,114.9,160.2,115,160.5,115 M174.6,109.7c-0.2-0.4-0.4-0.8-0.8-1.2c-0.2-0.1-0.5-0.3-0.8-0.6c0.1,0,0.5,0.2,0.8,0.6
		c0.7,0.2,1.2-0.1,1.2-0.7c-0.7-0.8-1.2-0.4-1.8-0.9c-0.1-2.2,5.5,2.9,1.6-2.4c0.8,0.5,3.1,1.6,3.2,2.7
		C176.6,107.2,174.8,108.4,174.6,109.7c0.1,0.3,0.2,0.6,0,0.7C174.5,110.2,174.5,109.9,174.6,109.7 M185.4,106.4l-0.2-0.9l0.7-0.1
		L185.4,106.4z M196.4,101.7l-1.1,0.2l-0.5-1.8L196.4,101.7z M159.4,108.6c-0.6,0.3-2.2,1.1-2,0.9
		C156.8,108.3,158.5,108.1,159.4,108.6 M150.2,109.4l-1.7,0.2C149.2,110.7,149.9,109.9,150.2,109.4 M158.5,106.5l-1-0.6
		C158.1,105.8,158.4,106.1,158.5,106.5l0.8,0.6C158.7,108.2,158.8,107.2,158.5,106.5 M147.1,109.4l-0.4,0.5
		c-0.1,1.1,1.2,3.8-1.2,1.4l1.2-1.4C146.7,109.6,146.8,109.4,147.1,109.4 M152.1,115.6c-2-0.7-2.6-1.8-4.9-3.7
		c0.8-1.3,2.8,1.6,3.3,2.8c1.5,0.8,0.5-0.6,0.9-1L152.1,115.6z M149.7,111.2c1.5,0.8,4,1.7,4.5,3c-1.2-2.3-3.2-3-3.6-2.9
		C150.4,111.4,150.2,111.4,149.7,111.2 M103,121.8l0.9,1.2l-0.2,0.2l1.4,0.6c-0.6,2-3-1-4-1.3C101.8,122.5,104.9,125.1,103,121.8
		 M139.9,112.7c1.5,1.6,2.7,1,3.8,1.1c-0.6-1.6-2.5-3.1-3.5-2.6C138.2,110.2,140.9,113.7,139.9,112.7 M134.7,112.4l-0.2,0.2l1.5,0.8
		L134.7,112.4z M109.8,117.4c0.5,0.2,0.7,0.3,0.9,0.1c-0.6-0.8-1.9-1.9-1.5-2.3c0.8,0.9,2.1,0.9,2.8,2.2
		C110.2,116.1,111.4,120.2,109.8,117.4 M91.4,121.4c0.1,0.1,0.2,0.1,0.3,0.2C91.7,121.6,91.6,121.5,91.4,121.4
		c-1.3-0.8-0.5,1.7-2.2-0.6C89.1,118.6,90.6,120.6,91.4,121.4 M108.4,130.1l1.4,0.6l0,0.3l-1.4-0.6L108.4,130.1z M118.9,127.6
		l0.3,1.5l-1.1-1L118.9,127.6z M181.1,100.7c0.9,0.8-0.3,0.4-0.5,0.6l1.3-0.1C181.7,100.7,181.3,100.8,181.1,100.7 M112.3,114.2
		l0.8,0c0.1-0.1,0.2-0.2,0.5,0l-0.5,0C112.9,114.6,113,115.5,112.3,114.2 M72.5,121.1c-0.7,1.3-2.4-1-3.2-1.1l0.5,1l-1-0.8l0.3,1.4
		c-1.5-0.6-3.1,1-3.8-1.3l0.4,2.3c0,0-0.4-0.5-0.8-0.9c-0.4-0.5-0.8-0.9-0.8-0.9l0.9,1.6c-1.7,0.5-4-1.4-4.2-1.4l0.1,0.9
		c-0.3,0.4-0.4-0.2-0.6-0.5l0.1,1.3c-1.1-0.2-1.9,0.3-2.7,0.7c-0.8,0.4-1.7,0.7-2.6-0.2c-0.7,0.2,0.2,0.5,0,1.2
		c-0.7,0.9-1.3-0.2-1.1-0.8c-0.7,2,0.7,1.6-0.7,3c-0.2-1.1-0.3,1.9-1.2,1.2l0.7-2.5c-0.7,0.3-1,1.9-1.8,1.4
		c-0.4-1.3,2.6-2.4,1.3-3.1c-0.4,0-1.5,1.2-2.8,2.1c-1.3,1-2.7,1.6-3,0.7c-2.4,0.4-2.1,3.7-3.8,2.1c0,0,0,0.5,0.1,1
		c0.1,0.5,0.2,1.1,0.2,1.1c-0.9,0.4-1.6,1.6-2.3,0.6c0.4-1,0.8-2.4,0.4-2.8c0.2,1.4-0.8,1.7-2,2c-1.2,0.3-2.6,0.6-2.5,2.3l-0.8-0.6
		c0,0.1-0.2,0.3-0.4,0.5l-1.4-0.6c0.2,0.9,1.9,2.2-0.6,3.1l-2.4-0.8c-0.8,1.4-2,1.4-3,2.3c0,0,0.9,1.5,2.1,3c0.5,0.8,1.2,1.5,1.7,2
		c0.5,0.5,0.8,0.9,0.8,0.9c0.3-0.9-0.3-1.8,0.7-2.3c2.4,0.2,0.5,2.1,3.1,1.9l0-1.3c-0.2,0.4,0,0.7-0.5,0.6c-1.1,0.3-0.8-0.5-0.3-1.1
		c1.6-0.9,2.6,0.6,2.6,1.7c2.5,0.7,2-2.2,2.8-2.4c-0.1,1.3,0.8,1.6,1.9,1.8c1.1,0.1,2.2,0.1,2.7,0.8l-0.2-1.7c2.4-1.3,3.2,0.5,4,1.2
		l0.1-1.3c2.3,0.7,4.2-3.4,4.9,1.3l-0.1-0.9c1-0.3,2.4-1,3.1,0.4c0.1-0.5,0.3-1.2,0.7-1.3c0.3,1.8,1.3,0.5,2.6,0.3
		c-0.8-0.5-0.4-2.8-1.2-3.4c1.9-2.2,1.5,2.7,3.1,2.7c0.9-1.2-0.8-1.3-1-2.2c1.1,0.7,2.3-0.6,3.3-1.5c1-0.9,1.8-1.4,2.7,0.9l-0.8,1.5
		c1,1,1.5,1,1.4,0.5c-0.3,0.2-0.4-0.3-0.6-0.7c2.3-2.5,4.8,3.2,7.5,2c-0.4-0.8-0.9-1.1-1-1.8c1-1,2.3,4.3,3.9,2.3l-0.7-0.9
		c0.5-0.7,1.4,0.7,1.4,1c-1.1-3.8,4.4-0.4,4-5.6c1.6,2,5,3.1,5.4,1.8c0.3-2.5-2-2.3-2.4-4.5c0.9-0.2,2.2,1.8,3.2,0.9
		c0.9,2.1-1,4.8,2.1,5.5l-0.1-1.2c-0.2,0.2-0.4,0.7-0.9,0.5c-1.3-1.1-0.1-1.5-0.2-2.1l3,0.1c1.2,2.2-0.7,2-0.6,2.6
		c2-0.9,3.1-4.7,5.7-3.6l-0.6-0.8c3.3,1.4-0.4-4.4,3.2-1.2c0.8-0.8-1.5-2.3,0-2.8c0.4-0.1,0.6,0.8,0.6,1.1c2.3,0.4-0.1-2.3,2.6-0.6
		l-1.5-2.3c2.9,1.2,7,4.8,8.4,3.4c-1-1.8-2-1.4-3.1-2.6c4,2.7,6.1-0.9,9.2,0.3c0.1,1.7,2.8,3.3,2,4.9c-1.5-2.3-1.5-0.6-2.4-0.6
		c3.8,4.8,4.1-3.7,6.7,0.6l-0.6-1.9c0.5,0.2,2,1.3,1.7,2.1l2-1.8c-1.6-1.2-5-3.9-4.6-1.8c-1.7-1.8,0.4-1.5-1.3-3.6
		c3.2,2.6,0.4-1.5,2.5-1.3c0.5,2.8,3.5,3.1,4,4.4c0.3-0.6,2.2,0.3,3.1,1.1c1.1,0,2.4-2.7,4.5-2.1c-1-0.7-2.5-1.5-3.3-3.2
		c1.3,0.8,2.1,0.5,1.3-1.4c-4.6-2.9,1.4,4.6-2.3,3c-1.7-2-2.7-2.4-4.3-2.8c0-1.4-0.6-1.9-1.1-3.5c3.9,4.3,4.4-0.5,7.6,1.3
		c1.6,1.1,2.4,4.2,4.7,4.2l-1,1.8c1.2-1.7,1.1,1.3,3,1.4l-1.4-1.3c0.8-0.5,1.3-0.4,2.4,0.6l-2-2.1c0.4-0.4,1.2-0.9,1.9,0.4
		c-0.2-0.6-0.4-1.1-0.6-1.5c0.3,0.4,0.7,0.5,1.2,0.3c-0.5-0.2-0.7,0-1-0.7c2.6,0-0.8-2.6,0.8-2.8c-0.5-0.5-0.5-1.2-0.1-1.7
		c1.9,3.7,5,3.4,6.8,5.3l0-0.1l2.7,1c-0.5-0.2-0.7-1.3-0.3-1.8l-0.1,0c0.3-0.7-2.8-3.8-0.5-3.2l1.5,0.8c-0.2-0.1-0.4-0.7-0.4-1
		l1.5,0.7c-0.3-3.8,3.9,1.2,4.7-1c-0.4,0.4-1.3,0.4-1.5-0.8c0.1-0.5,0.8-0.2,1.4,0.2l-0.3-0.4l4.6,1.4c-1-1.1-2.9-0.7-2.8-2.4
		c-0.4-1.8,1.5-0.3,2.2-0.3c0.5,1-0.2,2.1,1.2,2.3c-0.1-0.5,0.4-1.8-0.5-2.3c1.7,0.7,3.7,0.8,5.7,2.2c0.1-0.5-0.6-0.8-0.9-0.8
		l0.1,0.3c-1-0.3-1.5-2.4-2.3-1.1c-1.9-3.1,1.5-1.4,2.4-2.2l-3.1-1.6c0.8-5.1,7.7-1.7,10.9-2.5c-0.4,1.2-1.7,0.5-0.1,2.9
		c2.6,0.6,2.1,0.2,4.3,0.1l-0.2-0.1c0.3-1.5,3.1,0.5,2.4-1.9c-1.2-1.2-0.7,1.7-2.3-1l2.6-0.5c-1.7-1.4-2.6,0.5-3.7,0.4
		c-0.6,0.3,1.6,0,2.3,1.9c-2.3,0.6-3.9-1-6.5-3.3c-1.8-1.7-0.1-2.2,0.3-2.3c3.1,2.4,6,3.1,7.5,1.2l0-2.4c2.2,1.5,4,5.4,5.7,4.3
		l-1.5-1.3c0.1-0.7,0.3-1,0.5-1c-1.5-0.9-3.2-1.8-4.7-2.8c-0.7-3.5,4.2,0.6,6.3,0.7c-0.3-0.4-1-0.3-1.7-1.1c2.1-1.5,7,1.5,9.2,1.4
		c0-1.6-2.2-0.4-3-2.6c1.5,0.5,1.5-1.6,3,0.1c-2.1-2.5,2.2-0.9-1.3-2.8c2.9-2.3,8.5-1,13.1-0.7c-0.7-0.7-1.1-1.4-1.3-2
		c-1.2,0.4-3.5,0.2-5.4-1.4c-0.1-1.6,3.1,1.2,2.8,0.3c-0.8-0.5-1.7-0.3-2.5-1.6c0.1-1.8,2.1,0.1,3,0.1l0,0.8
		c3.5,1.1,4.3,4.2,6.3,2.7c-0.1-1.9-0.9-1.3-2.2-3.3c1.1,0.6,1.5-2.2,3.5-0.2l-1.4,0.6c1.4,0.2,2.4-0.1,3.6,0.4
		c-0.4-0.4-0.7-0.8-1-0.9c1.3,0.4,2.2-0.1,3.5,1.1l-1.2-2.2c0.1,1.1-1.2,1.8-2.3,0.6c-1.1-1.9,1.2-1.2,1.7-1.6c-3.3,0.3-5.5-3-7-0.8
		l0.8,0.5c-0.5,2.1-3.8-0.1-5.1,0.4c0.1-0.6-0.3-1.4-0.7-1.7c-1.9,2.6-5.6,2.2-8.3,4.3l-2.3-1.8l0.9,1.6c-1.2,1.2-1.8-2.2-2.7-1.7
		c0.4-0.1,0.5,0.2,0.8,0.5c-3.1-1.3-0.1,1.8-1.5,1.6c1.6,1.6,2.5,0,3.4,2.4c-3.1-1.3-5.4,0.7-8.1-3.2c-2.6,2.6-8.5,1.5-11.7,2
		c0,0.8,0.6,0.5,0.7,1.1c-2.5-1.9-3.1,2.7-4.3,0.7c-0.2,0.7,0.4,2.3,0.5,2.9c-1.3-0.8-2.5-1-3.7-1l1,0.4l0.1,0.3l-1.5-0.5l0-0.1
		c-2.7,0.1-5.3,1.3-8.7-0.2c2,1,1.1,2.5,2.1,3.2c-3-2.9-5.7-2.3-7.7-1.4c0.4,0.7,0.5,1.3,1.1,1.7l-2-1l0.6,0.8
		c-1.9,1.2-6.4-1.8-7,0.1c1.1,0.2,1.5,0.8,2.2,1.9c-1.7,0.3-3.2,0.7-5.7,0.2c0.2,0.2,0.4,0.4,0.5,0.6c-0.3,0.4-1.4-0.2-2.1-0.5
		l0.8,1.7c-1.4-0.5-2.2,0.6-4.1-0.4c0.5,1.9-3.7-1-4.6,0.1c-0.7-0.3,2.1,1.6,0.6,1.9c-2.1-3.5-1.9,0.4-4-3.5l-0.5,1.7l-1.3-1.9
		c0.8,3.9-2.4-1.2-3.4,0.3c0.3,0.4,0.5,0.5,0.6,0.8c-0.7-0.3-2-0.2-1.6-1.4c-0.8,0.2-4.2,0-1.8,1.7c-0.6-1.1,1-0.4,1.7-0.1
		c0.8,1.7-0.8,1.3-0.3,3.2c-0.1-0.2-0.4-0.4-0.7-0.7l0.3,1.1c-2.5-1.5-3.5,0.2-5.8-1.8c0.2,0.5,0.1,1-0.5,1l-1-2.1l-1.7,0.4l2.3,2.8
		c-1.6,1-4.6-2.1-6.3-2.3c1.3,3.6-3.6-0.6-3.5,2.7l1.7,0.7c-2.9-0.1-2.3,2.1-5.3,1.4c1.5-1.6,1.8-0.9,3.4-4.4
		c-2.3,2.1-6-0.8-7.8,1.8c0.6,0.8,1.5,1.2,1.2,2.2c-1.4-1.7-2.5,0.6-3.1-1.6c-0.5,0.9,0.2,2.9-0.2,3.3l-4-2l0.3,0.4
		c-2.7,5.9-9.8-1.6-13.1,1.1l0.5,1.1l-1.6-1.5c1.2,1,0.1,1.5,0.3,2.5c0,0-0.8-0.5-1.7-1.1c-0.8-0.5-1.6-1.1-1.6-1.1
		C71.2,119.4,71.9,121.7,72.5,121.1"/>
	<path style="clip-path:url(#SVGID_00000112632615207912198450000008213459489526398625_);fill:#307FB0;" d="M114.1,210l0-0.3
		l-1.1-0.8l0,0.3L114.1,210z M96,212.6c-1.4,1.3-0.5-1.7-1-2C96.1,209.4,95.3,212.1,96,212.6 M122.9,213.8c-1.2,0.9,1.1,2.2,0.4,3.1
		l0.7-0.2c-0.8,1.7-1.2-1.6-1.9-1.1l0.5-0.3c0.1-1.5-1-0.9-1.3-2.1C121.6,212.5,123.3,213.5,122.9,213.8 M96.8,213.8
		c-0.9,1.1-0.9,0.6-1.2,0.2C95.8,213.3,96.4,213.3,96.8,213.8 M116.7,215.6c0.3,1.1-1,1.3-1.4,0.7c0.3,1.5,1.2,1.3,1.9,1.4
		c0.1,0.1,0.3,0.2,0.5,0.2c-0.2-0.1-0.3-0.1-0.5-0.2c-0.3-0.3-0.3-1.1-0.4-1.7l0.3-0.5l-1-0.4L116.7,215.6z M129.8,218.2l-1.2-1.9
		l-1.1,0.3L129.8,218.2z M151.8,216.2c0.6,0,0.7-0.3,1,1.1c0.4,0.5,0.7-0.2,1.1,0.3C153.1,218.9,152.6,216.7,151.8,216.2
		c-0.1,0-0.3,0-0.6-0.1C151.4,216,151.6,216.1,151.8,216.2 M148.5,217.7c1,2.7,2.6,0.8,3.3,1.5C150.8,219.9,148.6,220.8,148.5,217.7
		 M111,220.9c-0.3,0.5,0.7,2.2,1.5,1.7l-0.2,2.2c-0.2-1.4-1.8-1.2-2-1.4C109.7,221.4,110.5,222.2,111,220.9 M79.9,216.6l0.2,0.6
		c-0.2,0.6-0.7,1-0.9,1.4C78.6,218.2,78.7,217,79.9,216.6 M85.5,222.2c0.3-0.1,0.6-0.3,0.8-0.6l-0.1,0.4
		C85.7,222.7,85.6,222.5,85.5,222.2c-0.3,0.1-0.7,0.3-1.1,0.4c-0.9,1.3-0.1,2.6,0,3.4c-0.5-0.6-0.3-2-1.5-1.4
		c-0.1,0.4-0.3,0.7,0.2,0.8c0,0-1.3-0.1-1.3-0.1c-0.3-2.3,1.3-2.4,2.7-2.8c0.2-0.3,0.4-0.6,0.8-0.9
		C85.5,221.5,85.5,221.9,85.5,222.2 M78.3,221.7c-0.9,1.5-2.4,3.4,0.2,3.2c1.1-1.5,0.6-1.7,2.4-3.3c-0.3-0.6-1.2-0.1-1.6-0.1
		c0.2,0.4,1.1-0.1,0.5,1C78.9,222.9,78.3,222.4,78.3,221.7c0.3-0.5,0.6-1,0.5-1.3C78.5,220.8,78.3,221.3,78.3,221.7 M75.2,223.5
		l0.9,0.2l0.8-2.3L75.2,223.5z M87.9,225.1c-0.8,1,0.4,1.8,0.8,1.8L87.9,225.1z M88.3,221.6l-0.4-0.5l-0.4,2.6L88.3,221.6z
		 M99.8,223.2l1.7,1.1c-0.5,2.6-1.6-0.2-2.5,0.2C98.8,223.2,99.4,224.1,99.8,223.2 M116.5,223.6c0.3,1.1-1.5,3.3-2.3,1.2
		C115.3,224.4,116.4,224.5,116.5,223.6 M154.2,218.7l-1.6,0.1l1.5,0.2L154.2,218.7z M166.5,216.6c0.4,4.9,3.1,3.2,4.2,5.4
		c-0.3-1.6-0.1-4.3-2.5-3.9c1.6-1.9,2.2,3,2.3-1.2c-0.9,0.4-2.4-0.7-2.6-0.8l1.1-0.3C167.5,212.8,167.6,217.4,166.5,216.6
		 M192.2,216.1l-0.7-1.4l0.9,1.4L192.2,216.1l0.2,0.3l-2.7-0.5L192.2,216.1z M192.3,215l1.8,0.9l-1.1-1.2l2.9,2.1
		C195,218.1,193,216.5,192.3,215 M195,214.2c-0.5-0.1-0.7-0.2-0.9-0.4c-0.5-0.4-1-1-1.1-1.8c1.1,0.6,0.8,1.3,1.1,1.8
		C194.4,214,194.7,214.2,195,214.2 M210.2,210.6c-0.1-0.4-0.3-0.8-0.5-1.2c-0.2-0.1-0.5-0.3-0.6-0.7c0.2,0,0.4,0.3,0.6,0.7
		c0.6,0.3,1.2,0,1.3-0.6c-0.5-0.8-1.1-0.5-1.6-1.1c0.4-2.2,4.8,3.5,2.1-2.2c0.7,0.6,2.7,1.9,2.6,3
		C212.8,208.4,210.7,209.4,210.2,210.6c0.1,0.3,0,0.6-0.2,0.7C210,211.1,210.1,210.8,210.2,210.6 M221.7,208.7l0-0.9l0.7,0
		L221.7,208.7z M233.6,205.2l-1.1,0.1l-0.1-1.8L233.6,205.2z M195.3,207.8c-0.7,0.3-2.4,0.9-2.2,0.7
		C192.9,207.2,194.7,207.2,195.3,207.8 M186.1,207.6l-1.8,0C184.8,208.7,185.6,207.9,186.1,207.6 M195,205.6l-0.8-0.8
		C194.8,204.9,195,205.2,195,205.6l0.7,0.6C194.7,207.3,195.1,206.4,195,205.6 M183,207.2l-0.5,0.4c-0.4,1.1,0.3,3.9-1.5,1.3
		l1.5-1.3C182.6,207.3,182.7,207.2,183,207.2 M186.6,213.8c-1.8-0.9-2.2-2-4-4.2c1.1-1.2,2.4,1.9,2.7,3.2c1.3,1,0.7-0.6,1.1-0.9
		L186.6,213.8z M185.2,209.2c1.3,1,3.5,2.1,3.8,3.4c-0.7-2.4-2.5-3.4-2.9-3.3C185.9,209.5,185.6,209.4,185.2,209.2 M136.5,214.3
		l0.6,1.3l-0.2,0.2l1.3,0.7c-1,1.9-2.8-1.3-3.6-1.8C135.2,214.8,137.6,217.7,136.5,214.3 M175.1,209.6c1.1,1.8,2.4,1.3,3.5,1.5
		c-0.2-1.6-1.7-3.3-2.8-3C174,206.9,175.9,210.7,175.1,209.6 M170,208.7l-0.2,0.2l1.3,1L170,208.7z M144.2,210.7
		c0.4,0.2,0.6,0.4,0.9,0.2c-0.4-0.8-1.4-2-1-2.4c0.6,1,1.9,1.1,2.3,2.5C145,209.6,145.2,213.7,144.2,210.7 M125.1,212.5
		c0.1,0.1,0.2,0.1,0.3,0.3C125.3,212.8,125.2,212.7,125.1,212.5c-1.1-1-0.8,1.7-2.1-0.8C123.4,209.5,124.4,211.7,125.1,212.5
		 M139.9,223.1l1.3,0.7l0,0.3l-1.3-0.7L139.9,223.1z M151,221.8l-0.1,1.5l-0.8-1.1L151,221.8z M218.7,202.6c0.7,0.9-0.4,0.4-0.6,0.6
		l1.3,0.1C219.3,202.6,218.9,202.7,218.7,202.6 M147.4,207.9l0.8,0.1c0.1-0.1,0.3-0.2,0.5,0l-0.5,0
		C147.9,208.3,147.9,209.2,147.4,207.9 M106.4,210.1c-1,1.2-2.1-1.3-2.9-1.4l0.3,1l-0.9-0.9l0,1.4c-1.4-0.8-3.3,0.6-3.5-1.7
		l-0.1,2.3c0,0-0.3-0.5-0.6-1c-0.3-0.5-0.6-1-0.6-1l0.6,1.6c-1.8,0.3-3.6-1.8-3.8-1.8l-0.1,0.9c-0.4,0.4-0.4-0.2-0.5-0.5l-0.2,1.3
		c-1-0.4-1.9,0.1-2.8,0.4c-0.9,0.3-1.9,0.5-2.5-0.5c-0.8,0.1,0.1,0.5-0.3,1.1c-0.9,0.8-1.2-0.3-0.9-0.9c-1.1,1.9,0.3,1.7-1.4,2.9
		c0-1.1-0.7,1.8-1.5,1l1.2-2.4c-0.8,0.2-1.4,1.7-2.1,1.1c-0.1-1.3,3.1-2.1,2-2.9c-0.3-0.1-1.8,1-3.3,1.8c-1.5,0.8-3.1,1.3-3.1,0.3
		c-2.5,0.1-2.9,3.4-4.3,1.7c0,0-0.1,0.5-0.1,1c0,0.5-0.1,1.1-0.1,1.1c-1,0.3-2,1.4-2.5,0.3c0.6-0.9,1.4-2.2,1.1-2.7
		c-0.1,1.4-1.2,1.6-2.4,1.8c-1.2,0.2-2.7,0.3-3,2l-0.7-0.7c0,0.1-0.2,0.3-0.5,0.4l-1.2-0.7c0,0.9,1.4,2.3-1.3,3l-2.1-1.1
		c-1.1,1.3-2.3,1.1-3.5,1.9c0,0,0.6,1.6,1.4,3.2c0.4,0.8,0.8,1.6,1.2,2.2c0.4,0.6,0.6,1,0.6,1c0.5-0.8,0.1-1.8,1.3-2.2
		c2.3,0.5,0,2.1,2.6,2.2l0.3-1.3c-0.2,0.4-0.1,0.7-0.6,0.6c-1.2,0.2-0.7-0.6-0.1-1.1c1.8-0.7,2.4,0.9,2.2,2c2.3,1,2.5-1.9,3.3-2
		c-0.4,1.2,0.4,1.7,1.5,2c1,0.2,2.2,0.3,2.4,1.1l0.2-1.7c2.7-1,3,0.8,3.7,1.6l0.4-1.3c2.1,1,4.9-2.8,4.5,1.9l0.1-0.9
		c1-0.2,2.6-0.7,3,0.7c0.2-0.5,0.6-1.1,1-1.2c-0.1,1.8,1.2,0.7,2.5,0.6c-0.7-0.6,0.2-2.8-0.4-3.5c2.4-2,0.9,2.8,2.5,3
		c1.2-1-0.5-1.4-0.5-2.3c1,0.8,2.5-0.3,3.6-1.1c1.2-0.8,2.1-1.2,2.5,1.2l-1.2,1.4c0.8,1.1,1.3,1.1,1.2,0.7c-0.3,0.1-0.4-0.3-0.4-0.8
		c2.9-2.2,4.1,3.7,7,2.9c-0.2-0.9-0.6-1.2-0.6-1.9c1.2-0.9,1.3,4.5,3.4,2.8l-0.4-1c0.7-0.6,1.2,0.8,1.2,1.1c-0.2-3.9,4.5,0.2,5.3-5
		c1.2,2.1,4.3,3.7,4.9,2.4c0.8-2.4-1.5-2.5-1.4-4.7c0.9-0.1,1.7,2.1,3,1.2c0.4,2.2-2,4.6,0.9,5.7l0.2-1.2c-0.2,0.2-0.6,0.6-1,0.4
		c-1-1.2,0.2-1.5,0.3-2.1l3,0.4c0.7,2.3-1.2,1.9-1.2,2.5c2.2-0.7,4.2-4.3,6.5-2.9l-0.4-0.8c3,1.7,0.6-4.4,3.4-0.8
		c0.9-0.7-0.9-2.4,0.7-2.7c0.5-0.1,0.4,0.8,0.4,1.1c2.2,0.6,0.4-2.3,2.7-0.3l-0.9-2.4c2.6,1.5,5.9,5.5,7.5,4.3
		c-0.6-1.9-1.7-1.6-2.5-3c3.4,3.2,6.3-0.2,9.1,1.4c-0.3,1.7,2,3.6,0.8,5.1c-1-2.4-1.3-0.7-2.2-0.9c2.6,5.2,4.9-3.1,6.5,1.4l-0.1-1.9
		c0.4,0.2,1.7,1.6,1.2,2.2l2.3-1.5c-1.3-1.3-4.1-4.4-4.2-2.3c-1.2-1.9,0.7-1.4-0.5-3.7c2.5,2.9,0.7-1.4,2.7-1
		c-0.1,2.8,2.7,3.5,3,4.8c0.5-0.6,2.1,0.5,2.9,1.4c1.1,0.1,3-2.3,4.9-1.6c-0.9-0.8-2.2-1.8-2.6-3.5c1.1,0.9,2,0.8,1.6-1.3
		c-3.9-3.3,0.3,4.7-3,2.7c-1.3-2.2-2.1-2.7-3.7-3.2c0.3-1.4-0.1-1.9-0.3-3.5c2.9,4.6,4.4,0,7.3,2.1c1.3,1.3,1.4,4.4,3.7,4.7
		l-1.4,1.7c1.6-1.6,0.9,1.4,2.6,1.7l-1.1-1.5c0.9-0.4,1.4-0.2,2.2,0.9l-1.5-2.3c0.5-0.4,1.4-0.8,1.8,0.6c0-0.6-0.1-1.1-0.2-1.5
		c0.2,0.4,0.5,0.6,1.2,0.5c-0.4-0.2-0.7,0-0.9-0.8c2.6,0.3-0.2-2.7,1.4-2.6c-0.4-0.5-0.2-1.3,0.3-1.6c1,3.8,4.1,4,5.5,6l0-0.1
		l2.5,1.3c-0.5-0.3-0.4-1.4,0.1-1.8l-0.1,0c0.5-0.7-2-4,0.3-3.2l1.3,1c-0.2-0.1-0.2-0.7-0.2-1l1.3,0.9c0.5-3.8,3.6,1.6,4.9-0.4
		c-0.4,0.4-1.3,0.2-1.3-1c0.2-0.5,0.9-0.1,1.3,0.4l-0.2-0.4l4.3,1.9c-0.7-1.2-2.7-1.1-2.2-2.6c0-1.8,1.6-0.1,2.2-0.1
		c0.2,1-0.7,2.1,0.7,2.4c0-0.5,0.8-1.7,0-2.4c1.5,0.9,3.5,1.2,5.1,2.8c0.2-0.5-0.5-0.8-0.7-0.9l0,0.3c-0.9-0.5-0.9-2.6-2-1.3
		c-1.2-3.3,1.8-1.2,2.9-1.8l-2.7-1.9c1.9-5,8-0.8,11.3-1.2c-0.6,1.2-1.8,0.3-0.8,2.9c2.5,0.9,2,0.4,4.3,0.6l-0.2-0.1
		c0.6-1.5,2.9,0.8,2.9-1.6c-0.9-1.3-1.1,1.6-2.1-1.3l2.7-0.2c-1.4-1.6-2.7,0.2-3.8-0.1c-0.7,0.3,1.6,0.2,1.9,2.1
		c-2.5,0.3-3.6-1.5-5.7-4c-1.4-1.9,0.4-2.2,0.8-2.3c2.5,2.7,5.2,3.7,7.2,2l0.6-2.4c1.9,1.8,2.7,5.7,4.7,4.9l-1.2-1.4
		c0.3-0.7,0.5-0.9,0.7-1c-1.3-1-2.8-2.2-4-3.3c0.1-3.5,4,1.1,6.1,1.4c-0.2-0.4-0.9-0.4-1.4-1.2c2.4-1.2,6.6,2.2,8.8,2.4
		c0.3-1.6-2.1-0.7-2.4-2.9c1.4,0.6,1.9-1.4,2.9,0.5c-1.5-2.7,2.4-0.6-0.6-2.9c3.4-1.9,8.6-0.1,13.2,0.8c-0.5-0.8-0.8-1.5-0.8-2.1
		c-1.3,0.3-3.6-0.2-5-2c0.3-1.6,2.8,1.6,2.7,0.7c-0.7-0.6-1.6-0.4-2.1-1.8c0.5-1.8,2,0.3,2.9,0.5l-0.2,0.8c3.2,1.5,3.3,4.7,5.6,3.4
		c0.3-1.9-0.6-1.4-1.4-3.5c0.9,0.7,2-2,3.6,0.2l-1.5,0.5c1.3,0.4,2.4,0.2,3.5,0.8c-0.3-0.4-0.5-0.9-0.8-1c1.2,0.5,2.2,0.1,3.2,1.4
		l-0.7-2.3c-0.1,1.1-1.6,1.6-2.4,0.4c-0.6-2,1.4-1.1,2.1-1.4c-3.3,0-4.8-3.6-6.8-1.6l0.7,0.6c-0.9,2-3.7-0.5-5.1-0.2
		c0.2-0.5,0-1.4-0.4-1.7c-2.5,2.3-6,1.6-9.2,3.2l-1.9-2.1l0.6,1.7c-1.5,1.1-1.3-2.3-2.3-2c0.4-0.1,0.5,0.2,0.7,0.6
		c-2.7-1.6-0.5,1.8-1.9,1.4c1.2,1.7,2.4,0.3,2.8,2.8c-2.7-1.6-5.5,0-7.3-4c-3.2,2.3-8.8,0.5-12,0.6c-0.2,0.8,0.5,0.5,0.5,1.1
		c-2.1-2.2-3.6,2.3-4.4,0.2c-0.4,0.7-0.1,2.3-0.1,2.9c-1.1-0.9-2.3-1.3-3.4-1.4l0.9,0.5l0,0.3l-1.3-0.7l0-0.1
		c-2.7-0.2-5.5,0.7-8.6-1.2c1.8,1.2,0.5,2.6,1.4,3.4c-2.3-3.2-5.1-2.9-7.3-2.2c0.2,0.7,0.2,1.3,0.7,1.8l-1.8-1.2l0.4,0.8
		c-2.2,1-5.9-2.5-7-0.7c1.1,0.3,1.3,1,1.7,2.1c-1.7,0.1-3.4,0.3-5.7-0.5c0.2,0.2,0.3,0.4,0.4,0.7c-0.4,0.4-1.3-0.4-2-0.7l0.4,1.7
		c-1.2-0.7-2.3,0.4-3.9-0.8c0,1.9-3.4-1.4-4.6-0.4c-0.7-0.4,1.7,1.8,0.2,1.9c-1.2-3.7-2,0.1-3.2-3.9l-0.9,1.6l-0.8-2
		c-0.1,3.9-2.1-1.5-3.5-0.1c0.2,0.4,0.4,0.5,0.4,0.8c-0.6-0.4-1.9-0.5-1.3-1.6c-0.9,0.1-4.1-0.5-2.2,1.5c-0.4-1.1,1.1-0.3,1.7,0.1
		c0.4,1.7-1.1,1.2-1,3.1c-0.1-0.2-0.3-0.5-0.5-0.7l0.1,1.1c-2.2-1.7-3.5-0.2-5.3-2.5c0.1,0.5-0.1,1-0.7,0.9l-0.6-2.2l-1.8,0.2
		l1.6,3.1c-1.8,0.8-4-2.6-5.8-3c0.4,3.6-3.4-1-4.1,2.3l1.5,0.9c-2.8-0.4-2.8,1.8-5.5,0.8c1.8-1.4,2-0.7,4.4-3.9
		c-2.7,1.8-5.8-1.5-8.1,0.8c0.4,0.8,1.2,1.3,0.7,2.3c-1-1.8-2.7,0.3-2.7-1.9c-0.7,0.8-0.4,2.9-0.9,3.2l-3.5-2.4l0.2,0.4
		c-4,5.5-9.4-2.7-13.3-0.4l0.2,1.2l-1.2-1.7c0.9,1.1-0.3,1.5-0.2,2.5c0,0-0.7-0.6-1.4-1.3c-0.7-0.6-1.4-1.3-1.4-1.3
		C105.5,208.2,105.7,210.6,106.4,210.1"/>
	<path style="clip-path:url(#SVGID_00000112632615207912198450000008213459489526398625_);fill:#79C7C9;" d="M207.7,78.6l0,0.3
		l1.7,0.5l0-0.3L207.7,78.6z M230.8,67.6c0.8-2.1,2.1,1.3,3.1,1.2C233.4,70.6,232.1,67.6,230.8,67.6 M195.8,76.7
		c1.2-1.3-1.8-2.2-1.2-3.3l-0.7,0.4c0.6-2.1,1.7,1.6,2.5,0.8l-0.5,0.5c0.2,1.7,1.4,0.8,2.1,2C197.5,77.9,195.3,77.2,195.8,76.7
		 M228.8,67c0.3-1.5,0.6-1.1,1.5-0.9C230.4,66.8,229.7,67.2,228.8,67 M202.8,73.1c-0.7-1.2,0.9-1.7,1.5-1.2c-0.8-1.6-1.8-1.1-2.7-1
		c-0.2-0.1-0.4-0.1-0.6-0.1c0.2,0.1,0.4,0.1,0.6,0.1c0.5,0.3,0.6,1.2,0.9,1.8l-0.2,0.6l1.3,0.1L202.8,73.1z M186.7,73.4l1.8,1.9
		l1.3-0.6L186.7,73.4z M161.4,80.1c-0.7,0.1-0.7,0.5-1.3-1.1c-0.6-0.5-0.8,0.4-1.3-0.2C159.6,77.2,160.4,79.6,161.4,80.1
		c0.2,0,0.4-0.1,0.7,0C161.8,80.2,161.6,80.2,161.4,80.1 M165,77.8c-1.5-2.9-3.2-0.5-4-1.1C162,75.7,164.5,74.2,165,77.8
		 M207.9,65.5c0.2-0.6-1.6-2.1-2.3-1.4l-0.6-2.5c0.7,1.5,2.5,0.8,2.7,0.9C209.1,64.6,208,63.9,207.9,65.5 M244.1,53.3l-0.8-0.2
		c-0.6-0.5-0.7-1.2-1.1-1.6C242.9,51.3,244.4,52.1,244.1,53.3 M233.5,52.8c-0.1,0.3-0.2,0.6-0.2,0.9l-0.3-0.4
		C232.8,52.4,233.1,52.6,233.5,52.8c0.1-0.3,0.3-0.6,0.6-0.9c-0.6-1.6-2.4-2.2-3.1-3c0.8,0.2,2.1,1.6,2.4,0.4
		c-0.3-0.4-0.4-0.8-0.9-0.6l0.9-0.7c2.3,1.7,1.5,2.8,0.7,3.9c0.1,0.4,0.2,0.7,0.2,1.2C234.2,53.3,233.8,53,233.5,52.8 M239.2,48.7
		c-1.1-1.7-2.2-4-3.4-2.3c0.9,1.9,1.4,1.7,1.8,4c0.8,0.2,0.9-0.7,1.2-1c-0.6-0.2-0.7,0.8-1.4-0.4C237.6,48.2,238.4,48.2,239.2,48.7
		c0.4,0.6,0.8,1.1,1.1,1.3C240,49.4,239.6,49,239.2,48.7 M239,45.4l-0.7,0.4l2,2.2L239,45.4z M229,51.5c-0.2-1.4-1.8-1.5-2.1-1.2
		L229,51.5z M231.7,54.9l0.8,0.2l-2-2.5L231.7,54.9z M219.1,58.9l-2.4-0.4c-1-2.9,1.8-0.4,2.4-1.2C220.1,58.5,219,57.9,219.1,58.9
		 M200.7,64.2c-0.7-1.2,0.5-4.1,2.1-1.9C201.8,62.9,200.6,63.2,200.7,64.2 M158.2,77.6l1.8-0.3l-1.8,0L158.2,77.6z M144.1,82.1
		c-0.9-5.6-3.9-3.2-5.3-5.6c0.5,1.8,0.4,4.8,3.2,4.1c-1.7,2.4-2.7-3.1-2.5,1.7c1-0.6,2.9,0.4,3.2,0.5l-1.3,0.5
		C143.2,86.4,142.7,81.2,144.1,82.1 M114.1,85.7l0.8,1.5l-1-1.5L114.1,85.7l-0.2-0.3l3.1,0.3L114.1,85.7z M113.9,87l-2.1-0.9
		l1.3,1.2l-3.4-2.1C110.8,83.7,113.1,85.3,113.9,87 M110.8,88.1c0.6,0.1,0.9,0.2,1,0.4c0.6,0.4,1.2,1,1.3,2c-1.3-0.6-0.9-1.4-1.3-2
		C111.4,88.3,111.1,88.1,110.8,88.1 M92.8,93.4c0.1,0.4,0.2,1,0.5,1.4c0.3,0.1,0.5,0.3,0.7,0.7c-0.2,0-0.5-0.3-0.7-0.7
		c-0.7-0.3-1.4,0.1-1.6,0.7c0.5,0.9,1.3,0.6,1.8,1.1c-0.6,2.5-5.4-3.8-2.7,2.6c-0.8-0.7-3.1-2.1-2.8-3.3
		C89.5,96.1,92,94.8,92.8,93.4c0-0.4,0-0.7,0.2-0.8C93,92.9,92.9,93.1,92.8,93.4 M79,96.2l-0.1,1l-0.8,0L79,96.2z M64.4,100.4
		l1.3-0.1l-0.1,2.1L64.4,100.4z M110.2,95.5c0.8-0.4,2.9-1.2,2.6-1C113.1,96,111,96.1,110.2,95.5 M121.3,94.9l2.1-0.2
		C122.8,93.4,121.8,94.4,121.3,94.9 M110.5,98l1,0.8C110.8,98.8,110.6,98.4,110.5,98l-0.8-0.7C110.9,96,110.4,97.1,110.5,98 M125,95
		l0.6-0.5c0.5-1.3-0.4-4.4,1.8-1.6l-1.8,1.6C125.4,94.8,125.3,95,125,95 M120.7,87.8c2.1,0.8,2.6,2.1,4.8,4.3
		c-1.3,1.5-2.9-1.8-3.2-3.3c-1.6-1-0.8,0.7-1.3,1.2L120.7,87.8z M122.3,92.9c-1.6-1-4.2-2.1-4.5-3.5c0.8,2.7,2.9,3.6,3.4,3.5
		C121.5,92.6,121.8,92.7,122.3,92.9 M179.6,79.2l-0.9-1.3l0.2-0.2l-1.6-0.6c0.8-2.4,3.5,0.9,4.6,1.2
		C181.1,78.4,177.7,75.6,179.6,79.2 M134.4,91.2c-1.4-1.9-2.9-1.2-4.2-1.3c0.3,1.8,2.2,3.6,3.5,3.1
		C135.8,94.1,133.3,90.1,134.4,91.2 M140.5,91.5l0.3-0.2l-1.6-1L140.5,91.5z M171.1,84.9c-0.5-0.2-0.8-0.3-1.1,0
		c0.6,0.9,2,2,1.5,2.5c-0.9-1-2.4-0.9-3.1-2.4C170.4,86.3,169.5,81.7,171.1,84.9 M193.4,78.7c-0.1-0.1-0.2-0.1-0.4-0.2
		C193.2,78.5,193.3,78.6,193.4,78.7c1.5,0.8,0.6-2.1,2.6,0.4C196.1,81.7,194.4,79.5,193.4,78.7 M174.1,70l-1.6-0.6l0-0.3l1.6,0.6
		L174.1,70z M161.6,73.5l-0.1-1.7l1.1,1.1L161.6,73.5z M81.9,103.1c-0.7-1,0.5-0.5,0.8-0.7l-1.6,0C81.1,103.1,81.6,102.9,81.9,103.1
		 M167.6,88.7l-1,0.1c-0.1,0.2-0.3,0.2-0.6,0l0.6,0C167,88.3,166.9,87.3,167.6,88.7 M218,75.5c0.8-1.7,3.5,0.4,4.8,0.2l-0.9-0.9
		l1.7,0.5l-0.7-1.5c2.4,0.1,4.2-2.3,6.1-0.1l-1.4-2.4l3.1,1.2l-2.1-1.3c2.2-1.3,6.9-0.6,7.4-0.8l-0.7-0.8c0.2-0.6,0.8-0.1,1.3,0.1
		l-1-1.3c3.9-0.8,3.3-4.2,8.2-4.2c1-0.7-0.8-0.2-1.3-1c0.1-1.3,2-0.7,2.6-0.2c-1.4-2-2.8-0.8-2.4-2.9c1.5,0.7-1.6-1.8,0.2-1.9l2,2.5
		c0.7-0.8-0.9-2.2,0.6-2.4c2.2,0.6-0.4,3.8,2.4,3.3c1.2-0.6-0.5-7.2,2.8-6.6c1.4-2.2-3.4-3.8,0-4.2l-2.9-1.1
		c0.1-0.9-0.9-2.2,0.7-2.1c1,0.9,2.5,2,3.3,1.9c-3.9-1.1,0.8-3.9-3.2-5.7l1-0.2c-0.2-0.1-0.3-0.3-0.4-0.5l1.2-0.6
		c-1.1-0.3-3.1,0.1-3.3-2.2L249,39c-1.3-1.3-1-2.2-1.7-3.3l-7-1c0.7,0.8,1.8,1.1,2,2.2c-1,1.3-2-1.2-2.8,0.5l1.2,1
		c-0.3-0.4-0.6-0.5-0.4-0.8c0.1-0.9,0.8-0.1,1.2,0.6c0.3,1.7-1.6,1.1-2.6,0.2c-1.7,0.8,1.1,2.9,0.9,3.5c-2.3-2.2-2.9,1.1-4.6,0.3
		l1.6,1.4c-0.3,2.5-2.4,1.2-3.5,0.9l1,1.3c-2,0.4-0.6,5.3-4.5,0.9l0.7,0.8c-0.6,0.7-1.2,2.1-2.7,0.9c0.3,0.6,0.5,1.3,0.3,1.6
		c-1.4-1.7-1.5,0-2.4,0.7c1,0.2,2,2.7,3.1,3.1c-0.6,3.1-3-2.2-4.5-1.6c-0.3,1.5,1.5,1.1,2.1,1.9c-3-0.6-2,7.1-5.9,2.7l0.2-1.9
		c-1.4-0.8-1.9-0.6-1.6-0.2c0.2-0.3,0.5,0.2,0.9,0.6c-1.6,3.4-6.1-2.2-8.4-0.3c0.6,0.8,1.2,1,1.6,1.8c-0.8,1.4-3.5-4.3-4.7-1.8
		l0.9,0.9c-0.4,0.9-1.6-0.5-1.7-0.9c1.9,4.2-4.5,1.1-3.5,7c-2.1-2-5.8-2.9-6.2-1.3c-0.2,2.9,2.4,2.4,3,4.9c-1,0.3-2.6-1.8-3.8-0.6
		c-1.1-2.3,0.9-5.6-2.6-6.1l0.2,1.4c0.2-0.3,0.4-0.8,1-0.7c1.4,1.1,0.2,1.7,0.3,2.4l-3.4,0.2c-1.3-2.4,0.8-2.4,0.7-3
		c-2.2,1.2-3.5,5.7-6.5,4.7l0.6,0.9c-3.8-1.3,0.3,5-3.7,1.7c-0.9,1,1.6,2.5-0.2,3.2c-0.5,0.2-0.6-0.9-0.7-1.2
		c-2.6-0.2,0,2.6-3.1,0.9l1.6,2.5c-3.3-1.1-7.8-5-9.4-3.3c1,2,2.2,1.4,3.4,2.8c-4.4-2.9-7.2,1.4-10.7,0.2c0.1-2-2.9-3.7-1.7-5.6
		c1.5,2.5,1.6,0.6,2.6,0.6c-3.8-5.4-5.1,4.5-7.5-0.4l0.4,2.1c-0.5-0.2-2.2-1.5-1.7-2.3l-2.5,2.1c1.6,1.3,5.2,4.3,5,1.9
		c1.7,2-0.7,1.8,1.1,4.1c-3.3-2.9-0.7,1.8-3,1.6c-0.2-3.2-3.6-3.5-4.1-5c-0.5,0.7-2.5-0.3-3.4-1.1c-1.3,0-3.1,3.1-5.4,2.6
		c1.1,0.7,2.7,1.7,3.3,3.6c-1.3-0.8-2.4-0.5-1.7,1.7c4.8,3.2-0.8-5.3,3.2-3.5c1.7,2.3,2.7,2.7,4.6,3.1c-0.2,1.6,0.4,2.2,0.7,4
		c-3.9-4.8-5.2,0.8-8.7-1.2c-1.6-1.3-2.1-4.8-4.7-4.8l1.5-2.1c-1.7,2-1.1-1.4-3.2-1.6l1.4,1.5c-1,0.6-1.5,0.4-2.6-0.7l1.9,2.4
		c-0.5,0.5-1.5,1.1-2.1-0.5c0.1,0.7,0.2,1.2,0.4,1.7c-0.3-0.4-0.7-0.6-1.4-0.4c0.5,0.2,0.8,0,1.1,0.8c-3,0,0.4,3-1.4,3.2
		c0.5,0.6,0.3,1.4-0.2,1.9c-1.4-4.2-5-4-6.7-6.1l0,0.1l-2.9-1.2c0.6,0.2,0.5,1.5,0,2.1l0.1,0c-0.5,0.8,2.4,4.4-0.2,3.7l-1.6-1
		c0.3,0.1,0.3,0.8,0.3,1.1l-1.6-0.9c-0.5,4.4-4.2-1.4-5.7,1c0.5-0.5,1.5-0.4,1.6,1c-0.3,0.6-1,0.3-1.6-0.3l0.3,0.4l-4.9-1.7
		c0.8,1.4,3.1,1,2.6,2.8c0,2.1-1.8,0.3-2.6,0.3c-0.3-1.1,0.8-2.4-0.8-2.7c0,0.6-0.9,2,0,2.7c-1.8-0.8-4-1.1-5.9-2.8
		c-0.2,0.6,0.5,0.9,0.8,1v-0.3c1,0.4,1,2.8,2.3,1.3c1.3,3.6-2.1,1.5-3.4,2.4l3.1,2c-2.3,5.9-9.4,1.5-13.3,2.3
		c0.8-1.4,2.1-0.5,1.1-3.3c-2.8-0.9-2.3-0.3-4.9-0.4l0.3,0.1c-0.8,1.7-3.3-0.8-3.4,2c1,1.5,1.3-1.9,2.3,1.4l-3.1,0.4
		c1.5,1.7,3.1-0.4,4.4-0.1c0.8-0.3-1.8-0.1-2-2.3c2.9-0.5,4.1,1.5,6.4,4.2c1.5,2-0.6,2.5-1.1,2.6c-2.8-3-5.9-3.9-8.3-1.9l-0.9,2.7
		c-2-1.9-2.7-6.4-5-5.4l1.2,1.6c-0.4,0.8-0.7,1.1-0.9,1.1c1.5,1.1,3,2.4,4.4,3.6c-0.4,4-4.7-1-7-1.4c0.2,0.5,1,0.5,1.5,1.4
		c-2.9,1.5-7.4-2.3-10-2.5c-0.6,1.8,2.3,0.7,2.4,3.2c-1.5-0.7-2.4,1.7-3.4-0.5c1.4,3.1-2.9,0.8,0.3,3.3c-4.3,2.3-10.2,0.2-15.3-0.9
		c0.5,0.9,0.7,1.7,0.6,2.4c1.6-0.3,4.2,0.2,5.6,2.3c-0.7,1.8-3-1.8-3.1-0.8c0.7,0.7,1.8,0.5,2.2,2.1c-0.9,2-2.3-0.4-3.4-0.5l0.3-0.9
		c-3.5-1.7-3-5.3-6-3.9c-0.7,2.2,0.4,1.6,1,4c-1-0.8-2.8,2.2-4.2-0.2l1.9-0.5c-1.5-0.5-2.8-0.3-3.9-1c0.2,0.5,0.4,1,0.7,1.2
		c-1.3-0.6-2.6-0.2-3.5-1.7l0.3,2.7c0.4-1.3,2.3-1.8,2.9-0.4c0.3,2.3-1.9,1.2-2.7,1.5c3.9,0.1,4.9,4.2,7.7,2l-0.7-0.7
		c1.5-2.3,4.3,0.6,6,0.2c-0.4,0.6-0.2,1.6,0.1,2c3.4-2.7,7.5-1.8,11.6-3.8l2,2.3l-0.4-2c1.9-1.2,1.2,2.6,2.5,2.2
		c-0.5,0.1-0.5-0.2-0.7-0.7c3.1,1.8,0.9-2.1,2.5-1.7c-1.2-2-2.9-0.3-3-3.1c3,1.8,6.6-0.2,8.2,4.4c4.1-2.8,10.6-0.9,14.6-1.3
		c0.3-0.9-0.5-0.6-0.5-1.3c2.3,2.4,4.6-2.9,5.3-0.5c0.5-0.8,0.3-2.6,0.3-3.3c1.3,1,2.7,1.3,4,1.4l-1.1-0.5l0-0.3l1.6,0.7l0,0.2
		c3.3,0.1,6.7-1.3,10.3,0.7c-2.1-1.2-0.5-3-1.6-3.7c2.6,3.5,6.1,2.8,8.7,1.8c-0.3-0.8-0.3-1.5-0.8-2l2.1,1.2l-0.5-0.9
		c2.6-1.4,7.1,2.1,8.4-0.1c-1.3-0.2-1.6-1-2.1-2.2c2.1-0.4,4-0.8,6.8-0.2c-0.2-0.2-0.4-0.4-0.5-0.7c0.5-0.5,1.6,0.3,2.4,0.6
		l-0.6-1.9c1.5,0.6,2.8-0.8,4.7,0.4c-0.2-2.2,4.2,1.1,5.6-0.2c0.8,0.3-2.2-1.8-0.3-2.2c1.7,4,2.4-0.5,4.1,3.9l1-2l1.2,2.1
		c-0.2-4.5,2.7,1.3,4.2-0.5c-0.3-0.4-0.6-0.5-0.6-0.9c0.8,0.3,2.4,0.2,1.7,1.6c1.1-0.3,5.1-0.2,2.5-2.1c0.6,1.2-1.3,0.5-2.1,0.2
		c-0.6-1.9,1.2-1.6,0.9-3.7c0.1,0.2,0.5,0.5,0.7,0.7l-0.2-1.2c2.8,1.6,4.2-0.4,6.7,1.9c-0.1-0.6,0-1.1,0.8-1.2l1,2.3l2.1-0.6
		l-2.3-3.2c2-1.3,5.2,2.2,7.3,2.2c-1.1-4.1,4.3,0.5,4.5-3.4l-1.9-0.7c3.4-0.2,3-2.7,6.5-2.1c-2,2-2.3,1.2-4.6,5.4
		c3-2.7,7.2,0.4,9.7-2.8c-0.6-0.9-1.7-1.2-1.3-2.4c1.5,1.8,3.1-1,3.6,1.5c0.7-1.1-0.1-3.3,0.4-3.8l4.7,1.9L197,83
		c3.5-7.1,12.6,0.4,17.5-3.7l-0.7-1.2l2.3,1.4c-1.7-0.9-0.2-1.7-0.6-2.8l5,1.5C220.1,77.1,218.7,74.7,218,75.5"/>
	<path style="clip-path:url(#SVGID_00000112632615207912198450000008213459489526398625_);fill:#F8AC18;" d="M95.2,151.6l0-0.3
		l-1.6-0.5l0,0.3L95.2,151.6z M70.8,160.4c-1.1,1.8-1.9-1.2-2.9-1.2C68.7,157.6,69.5,160.3,70.8,160.4 M106.9,153.4
		c-1.3,1.1,1.7,2,0.9,3l0.8-0.4c-0.7,1.9-1.7-1.4-2.4-0.7l0.5-0.4c-0.1-1.5-1.4-0.7-1.9-1.8C105.3,152.3,107.4,152.9,106.9,153.4
		 M72.7,161c-0.5,1.3-0.8,1-1.6,0.7C71.1,161.1,71.9,160.7,72.7,161 M99.6,156.5c0.6,1.1-1,1.5-1.6,1c0.7,1.4,1.7,1,2.6,0.9
		c0.2,0.1,0.4,0.1,0.6,0.1c-0.2-0.1-0.4-0.1-0.6-0.1c-0.5-0.3-0.5-1.1-0.7-1.6l0.2-0.5l-1.3-0.1L99.6,156.5z M115.9,156.4l-1.7-1.7
		l-1.3,0.5L115.9,156.4z M141.8,149.9c0.7-0.1,0.7-0.4,1.3,0.9c0.6,0.5,0.8-0.4,1.3,0.1C143.7,152.3,142.8,150.2,141.8,149.9
		c-0.2,0-0.4,0.1-0.7,0.1C141.4,149.8,141.6,149.8,141.8,149.9 M138.1,152c1.5,2.5,3.3,0.3,4.1,0.8
		C141.2,153.8,138.6,155.1,138.1,152 M93.6,163.1c-0.3,0.5,1.4,1.9,2.2,1.3l0.3,2.2c-0.6-1.4-2.4-0.8-2.7-0.8
		C92.3,163.9,93.3,164.5,93.6,163.1 M55.1,172.3l0.8,0.3c0.5,0.5,0.5,1.1,0.8,1.5C55.9,174,54.5,173.3,55.1,172.3 M65.7,173.3
		c0.2-0.3,0.3-0.5,0.3-0.8l0.3,0.4C66.3,173.7,66,173.5,65.7,173.3c-0.2,0.3-0.5,0.5-0.7,0.8c0.3,1.5,2,2.1,2.7,2.8
		c-0.8-0.3-1.9-1.5-2.4-0.5c0.3,0.4,0.3,0.7,0.8,0.6l-1.1,0.6c-2.1-1.7-1-2.6,0-3.5c-0.1-0.3-0.1-0.7,0-1.1
		C65.1,172.8,65.4,173.1,65.7,173.3 M59.2,176.7c0.8,1.5,1.5,3.7,3.1,2.2c-0.5-1.7-1.1-1.6-1.1-3.7c-0.8-0.3-1.1,0.6-1.3,0.8
		c0.5,0.2,0.8-0.6,1.3,0.4C60.7,177.2,59.9,177.1,59.2,176.7c-0.3-0.5-0.6-1-0.9-1.2C58.5,175.9,58.8,176.4,59.2,176.7 M58.8,179.5
		l0.8-0.3l-1.6-2L58.8,179.5z M70.1,174.7c0,1.2,1.6,1.4,1.9,1.2L70.1,174.7z M67.9,171.6l-0.8-0.3l1.6,2.3L67.9,171.6z M81.3,168.6
		l2.4,0.5c0.6,2.6-1.9,0.3-2.7,1C80.3,168.8,81.3,169.5,81.3,168.6 M100.9,164.4c0.6,1.1-1,3.6-2.4,1.7
		C99.6,165.5,100.9,165.3,100.9,164.4 M145.1,151.9l-1.8,0.4l1.9-0.1L145.1,151.9z M159.4,147.1c1.2,4.9,4.2,2.5,5.8,4.5
		c-0.7-1.6-0.8-4.2-3.5-3.4c1.6-2.2,3,2.5,2.5-1.7c-1,0.6-3-0.1-3.3-0.2l1.3-0.6C160,143.1,160.9,147.7,159.4,147.1 M189.7,140.8
		l-1.1-1.2l1.3,1.1L189.7,140.8l0.2,0.3l-3.2,0.2L189.7,140.8z M189.7,139.5l2.3,0.5l-1.5-0.9l3.8,1.4
		C193.4,142,190.8,140.9,189.7,139.5 M192.7,138.1c-0.6,0-0.9-0.1-1.1-0.2c-0.7-0.3-1.4-0.7-1.7-1.5c1.4,0.3,1.1,1.1,1.7,1.5
		C192,138.1,192.4,138.2,192.7,138.1 M209.8,130.7c-0.2-0.4-0.5-0.8-0.8-1.1c-0.3-0.1-0.6-0.2-0.9-0.5c0.2-0.1,0.5,0.2,0.9,0.5
		c0.8,0.2,1.4-0.3,1.5-0.9c-0.7-0.7-1.4-0.2-2.1-0.6c0-2.2,6.3,2.2,2-2.8c0.9,0.4,3.6,1.2,3.6,2.3
		C212.4,127.8,210.3,129.4,209.8,130.7c0.1,0.3,0.2,0.6-0.1,0.7C209.7,131.2,209.8,130.9,209.8,130.7 M222.8,125.6l-0.3-0.9l0.8-0.2
		L222.8,125.6z M235.7,118.7l-1.3,0.4l-0.6-1.7L235.7,118.7z M191.9,131.7c-0.7,0.4-2.7,1.4-2.5,1.2
		C189,131.6,191,131.2,191.9,131.7 M181.1,133.7L179,134C179.7,135.1,180.6,134.1,181.1,133.7 M191.2,129.6L190,129
		C190.7,128.9,191,129.2,191.2,129.6l1,0.5C191.1,131.3,191.4,130.3,191.2,129.6 M177.4,134l-0.5,0.5c-0.3,1.2,1,3.8-1.5,1.6
		l1.5-1.6C176.9,134.2,177.1,134,177.4,134 M182.7,139.8c-2.3-0.5-3-1.5-5.4-3.2c1.1-1.5,3.2,1.3,3.7,2.6c1.7,0.7,0.7-0.7,1.1-1.2
		L182.7,139.8z M180.3,135.5c1.7,0.7,4.5,1.3,5,2.5c-1.2-2.3-3.5-2.7-4-2.6C181.2,135.7,180.9,135.6,180.3,135.5 M123.3,151.1
		l0.9,1.1l-0.2,0.2l1.6,0.5c-0.9,2.1-3.5-0.7-4.6-1C121.8,151.8,125.1,154.3,123.3,151.1 M168.5,138.2c1.6,1.5,3,0.7,4.4,0.7
		c-0.5-1.6-2.6-2.9-3.8-2.3C166.8,135.8,169.7,139.1,168.5,138.2 M162.3,138.5l-0.2,0.2l1.7,0.7L162.3,138.5z M132,145.9
		c0.5,0.2,0.8,0.2,1.1,0c-0.6-0.8-2-1.7-1.5-2.2c0.9,0.8,2.4,0.7,3.1,2C132.7,144.6,133.6,148.7,132,145.9 M109.4,151.6
		c0.1,0.1,0.2,0.1,0.4,0.2C109.7,151.8,109.6,151.7,109.4,151.6c-1.4-0.8-0.8,1.8-2.6-0.4C107,149,108.5,150.9,109.4,151.6
		 M128.7,159.2l1.7,0.5l0,0.3l-1.6-0.5L128.7,159.2z M141.6,155.7l0.1,1.5l-1.2-0.9L141.6,155.7z M217.9,120.3
		c1,0.7-0.4,0.5-0.6,0.7l1.5-0.3C218.7,120.2,218.2,120.4,217.9,120.3 M135.5,142.4l1-0.1c0.1-0.1,0.3-0.2,0.6-0.1l-0.6,0.1
		C136.1,142.8,136.1,143.7,135.5,142.4 M84.6,153.9c-1,1.5-3.5-0.5-4.8-0.3l0.8,0.9L79,154l0.6,1.4c-2.4-0.2-4.5,1.9-6.1-0.2
		l1.1,2.2l-3-1.2l1.9,1.2c-2.4,1-6.9,0.2-7.5,0.3l0.5,0.8c-0.3,0.5-0.8,0-1.3-0.1l0.8,1.2c-4,0.5-4,3.6-8.8,3.2
		c-1.1,0.6,0.8,0.3,1.1,1c-0.3,1.1-2.1,0.5-2.7,0c1.1,1.9,2.7,0.9,1.9,2.7c-1.3-0.7,1.3,1.6-0.5,1.6l-1.6-2.3
		c-0.8,0.6,0.5,2-1.1,2.1c-2.1-0.7,1.1-3.3-1.9-3c-1.3,0.5-0.8,6.4-4,5.7c-1.9,1.8,2.7,3.6-0.8,3.7l2.7,1.2c-0.3,0.8,0.5,2-1.1,1.8
		c-0.8-0.9-2.1-1.9-2.9-1.9c3.8,1.2-1.6,3.4,2.1,5.2l-1.1,0.1c0.2,0.1,0.3,0.3,0.3,0.5l-1.3,0.5c1.1,0.4,3.2,0.1,2.9,2.2l-1.9,0.9
		c1.1,1.3,0.5,2,1.1,3.1l7,1.3c-0.5-0.8-1.6-1.1-1.6-2c1.3-1.1,1.9,1.2,2.9-0.3l-1.1-0.9c0.3,0.4,0.5,0.5,0.3,0.7
		c-0.3,0.8-0.8,0-1.1-0.6c0-1.5,1.9-0.9,2.7,0c1.9-0.6-0.5-2.6-0.3-3.1c1.9,2.1,3.2-0.8,4.8,0l-1.3-1.3c0.8-2.2,2.7-1,3.8-0.6
		l-0.8-1.2c2.2-0.2,1.6-4.6,4.8-0.6l-0.5-0.8c0.7-0.6,1.6-1.8,2.9-0.7c-0.2-0.5-0.3-1.2,0-1.4c1.1,1.6,1.5,0.1,2.6-0.5
		c-1-0.3-1.6-2.5-2.6-2.9c1.1-2.7,2.7,2.1,4.3,1.7c0.5-1.3-1.3-1-1.9-1.8c3,0.6,3.2-6.2,6.4-2.2l-0.5,1.6c1.4,0.7,1.9,0.6,1.6,0.2
		c-0.3,0.2-0.5-0.2-0.8-0.6c2.1-3,5.9,2.2,8.6,0.6c-0.5-0.8-1.1-0.9-1.4-1.6c1.1-1.2,3,4,4.6,1.7l-0.8-0.9c0.5-0.7,1.6,0.5,1.6,0.8
		c-1.4-3.8,4.8-0.9,4.5-6.2c1.9,1.8,5.7,2.7,6.2,1.3c0.5-2.6-2.2-2.2-2.5-4.4c1.1-0.3,2.5,1.6,3.8,0.5c0.9,2.1-1.5,5,2,5.4l0-1.2
		c-0.3,0.2-0.5,0.7-1.1,0.6c-1.4-1,0-1.5-0.1-2.1l3.5-0.2c1.1,2.1-1,2.1-1,2.7c2.4-1.1,4.1-5.1,7.1-4.2l-0.6-0.8
		c3.8,1.1,0.1-4.4,4-1.5c1-0.9-1.4-2.2,0.4-2.9c0.5-0.1,0.6,0.8,0.6,1.1c2.7,0.2,0.1-2.3,3.2-0.9l-1.5-2.2c3.3,0.9,7.8,4.3,9.6,2.8
		c-0.9-1.8-2.2-1.2-3.4-2.5c4.5,2.5,7.4-1.5,11-0.5c-0.1,1.7,2.9,3.2,1.7,4.9c-1.5-2.2-1.7-0.4-2.8-0.4c3.9,4.6,5.4-4.2,7.9,0.1
		l-0.4-1.9c0.6,0.2,2.3,1.2,1.8,2l2.6-2c-1.7-1-5.5-3.5-5.3-1.4c-1.8-1.7,0.7-1.6-1.1-3.5c3.5,2.4,0.7-1.6,3.1-1.5
		c0.2,2.8,3.8,2.9,4.3,4.2c0.5-0.7,2.6,0.1,3.6,0.8c1.4-0.1,3.2-3,5.6-2.6c-1.2-0.6-2.9-1.3-3.6-3c1.4,0.7,2.5,0.3,1.7-1.6
		c-5.1-2.5,1,4.7-3.2,3.3c-1.8-1.9-2.9-2.2-4.8-2.4c0.1-1.4-0.4-1.9-0.9-3.5c4.2,4,5.3-1,9,0.6c1.7,1,2.4,4.1,5.1,3.9l-1.4,2
		c1.7-1.9,1.2,1.2,3.4,1.1l-1.5-1.2c1-0.6,1.6-0.5,2.8,0.4l-2.2-2c0.5-0.5,1.5-1.1,2.2,0.2c-0.1-0.6-0.3-1.1-0.5-1.4
		c0.3,0.3,0.7,0.5,1.4,0.2c-0.6-0.1-0.8,0.1-1.2-0.6c3.1-0.3-0.6-2.7,1.2-2.9c-0.5-0.4-0.4-1.2,0.1-1.7c1.8,3.6,5.5,3,7.5,4.7l0,0
		l3.1,0.7c-0.6-0.1-0.6-1.3-0.2-1.9l-0.1,0.1c0.4-0.8-3-3.6-0.2-3.3l1.7,0.7c-0.3-0.1-0.4-0.7-0.4-1l1.7,0.6c0-3.9,4.5,0.8,5.8-1.5
		c-0.5,0.5-1.6,0.5-1.8-0.7c0.2-0.5,1-0.3,1.7,0.1l-0.3-0.4c0,0,1.3,0.2,2.7,0.4c1.3,0.2,2.7,0.4,2.7,0.4c-1-1.1-3.4-0.4-3.1-2.1
		c-0.3-1.8,1.8-0.5,2.6-0.6c0.4,1-0.4,2.2,1.2,2.3c-0.1-0.5,0.6-1.9-0.4-2.4c2,0.5,4.3,0.4,6.6,1.6c0.2-0.5-0.7-0.7-1-0.8l0.1,0.3
		c-1.2-0.2-1.6-2.3-2.6-0.8c-1.9-3,1.9-1.6,3.1-2.6l-3.6-1.3c1.4-5.4,9.3-2.8,13.1-4.1c-0.5,1.3-2,0.8-0.4,3.1
		c3.1,0.3,2.5-0.1,5.1-0.5l-0.3,0c0.4-1.6,3.6,0.1,3.1-2.3c-1.4-1.1-0.9,1.8-2.7-0.7c0,0,0.8-0.2,1.6-0.4c0.8-0.2,1.5-0.5,1.5-0.5
		c-1.9-1.2-3.1,0.9-4.5,0.9c-0.7,0.4,1.9-0.2,2.6,1.6c-2.9,0.9-4.6-0.5-7.5-2.5c-2-1.5,0-2.3,0.5-2.5c3.5,2,6.9,2.4,8.8,0.1l0.1-2.5
		c2.5,1.3,4.4,4.9,6.5,3.6l-1.7-1.1c0.2-0.8,0.4-1.1,0.6-1.2c-1.8-0.6-3.7-1.4-5.4-2.1c-0.7-3.5,4.9-0.1,7.4-0.3
		c-0.4-0.3-1.2-0.2-1.9-0.9c2.5-1.8,8.2,0.4,10.8-0.2c0-1.7-2.5,0-3.5-2.1c1.7,0.2,1.9-2,3.5-0.4c-2.4-2.3,2.6-1.3-1.4-2.7
		c1.7-1.4,4.2-2.1,7-2.4c2.7-0.4,5.7-0.5,8.4-0.8c-0.8-0.6-1.3-1.3-1.6-1.8c-1.4,0.7-4.1,1-6.3-0.4c-0.1-1.7,3.6,0.7,3.3-0.2
		c-1-0.4-1.9,0.1-2.9-1.2c0.1-1.9,2.4-0.3,3.4-0.4l0,0.8c4.1,0.4,5,3.6,7.4,1.6c-0.2-2-1-1.2-2.6-3c1.3,0.4,1.8-2.5,4.1-1l-0.8,0.5
		c-0.4,0.2-0.8,0.5-0.8,0.5c1.7,0,2.8-0.6,4.1-0.4c-0.4-0.3-0.8-0.7-1.2-0.7c1.5,0.1,2.5-0.6,4.1,0.3l-1.5-2.1
		c0.2,1.1-1.4,2.1-2.6,1.2c-1.3-1.8,1.3-1.6,1.9-2.1c-3.8,1.1-6.4-1.9-8.1,0.7l1,0.4c-0.5,2.3-4.4,0.7-5.9,1.4
		c0.1-0.6-0.4-1.4-0.9-1.6c-2.1,3.1-6.3,3.5-9.6,6l-2.7-1.5l1.1,1.5c-1.4,1.5-2-1.9-3.2-1.3c0.5-0.2,0.6,0.1,1,0.4
		c-3.5-0.8-0.2,1.9-1.8,2c1.8,1.4,2.9-0.4,3.9,1.9c-3.5-0.8-6.3,1.6-9.3-1.9c-3.1,3.1-10,2.8-13.7,3.8c0,0.8,0.6,0.4,0.8,1
		c-2.9-1.7-3.8,3.2-5.1,1.3c-0.3,0.8,0.3,2.3,0.4,2.9c-1.5-0.6-2.9-0.7-4.2-0.5l1.2,0.2l0.1,0.3l-1.7-0.3l0-0.1
		c-3.2,0.5-6.3,2.1-10.2,0.9c2.3,0.8,1,2.5,2.2,3c-3.2-2.7-6.5-1.7-8.9-0.5c0.4,0.7,0.5,1.3,1.1,1.7l-2.3-0.8l0.7,0.7
		c-2.4,1.4-7.4-1.1-8.4,0.9c1.3,0,1.7,0.7,2.4,1.7c-2,0.5-3.9,1.1-6.7,0.8c0.2,0.2,0.4,0.4,0.6,0.6c-0.4,0.5-1.6-0.1-2.4-0.3
		l0.8,1.6c-1.6-0.4-2.7,0.9-4.8,0c0.4,1.9-4.3-0.6-5.5,0.6c-0.8-0.2,2.3,1.5,0.5,1.9c-2-3.4-2.3,0.6-4.4-3.2l-0.8,1.8l-1.3-1.8
		c0.4,3.9-2.8-1-4.2,0.6c0.3,0.4,0.6,0.5,0.6,0.8c-0.8-0.2-2.4-0.1-1.7-1.3c-1,0.3-5,0.4-2.4,2c-0.6-1.1,1.3-0.5,2.1-0.3
		c0.7,1.7-1.2,1.4-0.7,3.3c-0.1-0.2-0.5-0.4-0.8-0.6l0.3,1.1c-2.8-1.3-4.2,0.6-6.7-1.4c0.2,0.5,0,1-0.7,1.1l-1-2l-2.1,0.6l2.4,2.7
		c-2,1.2-5.2-1.8-7.3-1.8c1.1,3.6-4.2-0.3-4.5,3.1l1.9,0.6c-3.4,0.2-3,2.4-6.5,1.9c2-1.8,2.3-1.1,4.7-4.8c-3,2.4-7.2-0.4-9.6,2.5
		c0.6,0.8,1.6,1.1,1.2,2.1c-1.4-1.6-3.1,0.9-3.5-1.3c-0.7,1-0.1,2.9-0.6,3.4l-4.6-1.7l0.3,0.4c-4,6.2-12.5-0.5-17.7,2.9l0.6,1.1
		l-2.2-1.3c1.6,0.8,0,1.5,0.3,2.5l-4.8-1.5C82.7,152.4,83.8,154.6,84.6,153.9"/>
	<path style="clip-path:url(#SVGID_00000112632615207912198450000008213459489526398625_);fill:#E74215;" d="M170.2,187.8l0,0.3
		l1.6,0.5l0-0.3L170.2,187.8z M194.6,179.4c1.1-1.8,1.9,1.2,2.9,1.3C196.7,182.2,195.9,179.5,194.6,179.4 M158.5,185.7
		c1.3-1.1-1.6-2.1-0.8-3l-0.8,0.3c0.8-1.8,1.6,1.5,2.4,0.8l-0.5,0.4c0,1.5,1.3,0.8,1.9,1.8C160.1,186.8,158,186.1,158.5,185.7
		 M192.8,178.8c0.5-1.3,0.8-1,1.6-0.7C194.3,178.7,193.5,179,192.8,178.8 M165.9,182.7c-0.5-1.1,1.1-1.5,1.6-1c-0.6-1.4-1.6-1-2.6-1
		c-0.2-0.1-0.4-0.1-0.6-0.1c0.2,0.1,0.4,0.1,0.6,0.1c0.4,0.3,0.5,1.1,0.7,1.6l-0.3,0.5l1.3,0.1L165.9,182.7z M149.7,182.4l1.6,1.7
		l1.3-0.5L149.7,182.4z M123.5,187.8c-0.7,0.1-0.8,0.4-1.2-0.9c-0.5-0.5-0.8,0.3-1.3-0.1C121.9,185.2,122.6,187.4,123.5,187.8
		c0.2,0,0.4,0,0.7,0C124,187.9,123.8,187.9,123.5,187.8 M127.4,185.8c-1.3-2.6-3.2-0.5-4-1C124.4,183.9,127.1,182.7,127.4,185.8
		 M172,176.3c0.3-0.5-1.3-2-2.1-1.3l-0.3-2.2c0.5,1.4,2.4,0.8,2.7,0.9C173.4,175.5,172.3,174.9,172,176.3 M210.3,167.7l-0.8-0.3
		c-0.5-0.5-0.5-1.1-0.8-1.5C209.5,165.9,210.9,166.6,210.3,167.7 M199.8,166.5c-0.2,0.3-0.3,0.5-0.3,0.8l-0.3-0.4
		C199.2,166.2,199.5,166.3,199.8,166.5c0.2-0.3,0.5-0.5,0.7-0.8c-0.3-1.5-2-2.1-2.6-2.9c0.8,0.3,1.8,1.5,2.4,0.5
		c-0.3-0.4-0.3-0.7-0.8-0.6l1.1-0.6c2.1,1.7,1,2.6,0,3.5c0.1,0.3,0.1,0.7,0,1.1C200.4,167,200.1,166.7,199.8,166.5 M206.2,163.2
		c-0.8-1.6-1.5-3.7-3.1-2.2c0.5,1.7,1.1,1.6,1,3.7c0.8,0.3,1.1-0.6,1.3-0.8c-0.5-0.2-0.8,0.6-1.3-0.4
		C204.7,162.7,205.6,162.7,206.2,163.2c0.3,0.6,0.6,1,0.9,1.2C207,164,206.6,163.5,206.2,163.2 M206.6,160.3l-0.8,0.3l1.6,2.1
		L206.6,160.3z M195.5,165.1c0-1.2-1.6-1.5-1.9-1.2L195.5,165.1z M197.6,168.2l0.8,0.3l-1.6-2.4L197.6,168.2z M184.3,171l-2.4-0.5
		c-0.5-2.6,1.9-0.3,2.7-0.9C185.3,170.8,184.3,170.1,184.3,171 M164.9,174.8c-0.5-1.1,1.1-3.6,2.4-1.6
		C166.2,173.7,164.8,173.9,164.9,174.8 M120.5,185.6l1.9-0.3l-1.9,0L120.5,185.6z M105.8,189.4c-0.7-4.9-3.8-2.8-5.3-4.9
		c0.5,1.6,0.3,4.3,3.1,3.6c-1.8,2.1-2.7-2.7-2.6,1.5c1.1-0.5,2.9,0.4,3.2,0.5l-1.3,0.5C104.8,193.3,104.5,188.7,105.8,189.4
		 M75.2,193l0.9,1.3L75,193L75.2,193l-0.2-0.3l3.2,0.2L75.2,193z M75,194.2l-2.1-0.7l1.3,1.1l-3.5-1.8
		C71.7,191.3,74.2,192.7,75,194.2 M71.8,195.3c0.6,0,0.9,0.2,1.1,0.3c0.6,0.3,1.2,0.9,1.4,1.7c-1.4-0.5-0.9-1.2-1.4-1.7
		C72.5,195.4,72.1,195.3,71.8,195.3 M53.5,200.5c0.1,0.4,0.3,0.8,0.6,1.2c0.3,0.1,0.5,0.3,0.8,0.6c-0.2,0-0.5-0.2-0.8-0.6
		c-0.7-0.3-1.5,0.1-1.6,0.7c0.5,0.8,1.3,0.4,1.9,0.9c-0.5,2.2-5.7-3.1-2.6,2.4c-0.8-0.6-3.2-1.7-3-2.8
		C50.3,202.9,52.8,201.7,53.5,200.5c-0.1-0.3,0-0.6,0.2-0.7C53.7,200,53.6,200.2,53.5,200.5 M39.6,203.5l0,0.9l-0.8,0L39.6,203.5z
		 M25.1,208l1.3-0.2l0,1.8L25.1,208z M71.4,201.7c0.8-0.3,2.9-1.1,2.7-0.9C74.3,202.1,72.2,202.3,71.4,201.7 M82.5,201l2.1-0.2
		C84.1,199.7,83.1,200.5,82.5,201 M71.7,203.9l1,0.7C72,204.7,71.8,204.3,71.7,203.9l-0.9-0.6C72.1,202.2,71.6,203.2,71.7,203.9
		 M86.3,201l0.6-0.5c0.5-1.2-0.4-3.9,1.8-1.4l-1.8,1.4C86.8,200.8,86.6,201,86.3,201 M81.9,194.7c2.1,0.7,2.7,1.8,4.9,3.7
		c-1.3,1.4-3-1.6-3.2-2.9c-1.6-0.8-0.8,0.6-1.3,1.1L81.9,194.7z M83.6,199.2c-1.6-0.8-4.3-1.7-4.6-3c0.8,2.4,3,3.1,3.5,3
		C82.8,198.9,83.1,199,83.6,199.2 M142,187.4l-0.8-1.2l0.3-0.2l-1.6-0.5c1.1-2.1,3.5,0.9,4.5,1.2C143.6,186.7,140.4,184.1,142,187.4
		 M95.8,197.6c-1.4-1.7-2.9-1-4.3-1.1c0.3,1.6,2.2,3.1,3.5,2.7C97.2,200.1,94.7,196.6,95.8,197.6 M101.9,197.8l0.3-0.2l-1.6-0.8
		L101.9,197.8z M133,192.2c-0.5-0.2-0.8-0.3-1.1-0.1c0.5,0.8,1.9,1.8,1.3,2.3c-0.8-0.9-2.4-0.8-2.9-2.2
		C132.2,193.5,131.7,189.3,133,192.2 M155.9,187.3c-0.1-0.1-0.2-0.1-0.4-0.2C155.7,187.1,155.8,187.2,155.9,187.3
		c1.4,0.8,0.8-1.8,2.6,0.5C158.3,190.1,156.8,188.1,155.9,187.3 M137.2,179.1l-1.6-0.5l0-0.3l1.6,0.5L137.2,179.1z M124.2,182l0-1.5
		l1.1,1L124.2,182z M43,209.4c-0.8-0.9,0.5-0.4,0.8-0.6l-1.6,0.1C42.2,209.5,42.7,209.3,43,209.4 M129.3,195.5l-1,0
		c-0.1,0.1-0.3,0.2-0.6,0l0.6,0C128.7,195.2,128.7,194.2,129.3,195.5 M180.8,185.6c1.1-1.5,3.4,0.6,4.8,0.4l-0.8-0.9l1.6,0.5
		l-0.5-1.4c2.4,0.2,4.5-1.8,6.1,0.2l-1.1-2.2l2.9,1.3l-1.9-1.2c2.4-1,6.9-0.1,7.4-0.2l-0.5-0.8c0.3-0.5,0.8,0,1.3,0.1l-0.8-1.2
		c4-0.5,4-3.5,8.8-3.1c1.1-0.5-0.8-0.3-1.1-1c0.3-1.1,2.1-0.5,2.7,0c-1-1.9-2.6-0.9-1.8-2.8c1.3,0.8-1.3-1.7,0.5-1.6l1.6,2.4
		c0.8-0.6-0.5-2,1.1-2.1c2.1,0.7-1.1,3.3,1.8,3.1c1.3-0.5,0.8-6.4,4-5.6c1.9-1.8-2.6-3.6,0.8-3.7l-2.7-1.2c0.3-0.8-0.5-2,1.1-1.8
		c0.8,0.9,2.1,1.9,2.9,1.9c-3.7-1.3,1.6-3.4-2.1-5.3l1.1-0.1c-0.2-0.1-0.3-0.3-0.3-0.5l1.3-0.5c-1.1-0.4-3.2-0.2-2.9-2.2l1.9-0.9
		c-1-1.3-0.5-2-1-3.1l-6.9-1.4c0.5,0.8,1.6,1.1,1.6,2.1c-1.3,1.1-1.8-1.2-2.9,0.2l1.1,1c-0.3-0.4-0.5-0.5-0.3-0.7
		c0.3-0.8,0.8,0,1.1,0.7c0,1.5-1.9,0.9-2.7,0c-1.9,0.6,0.5,2.6,0.2,3.1c-1.9-2.1-3.2,0.7-4.8-0.1l1.3,1.4c-0.8,2.2-2.7,0.9-3.7,0.6
		l0.8,1.2c-2.1,0.2-1.6,4.6-4.8,0.5l0.5,0.8c-0.7,0.6-1.6,1.8-2.9,0.6c0.2,0.5,0.3,1.2,0,1.4c-1.1-1.6-1.5-0.1-2.6,0.4
		c1,0.3,1.5,2.5,2.6,2.9c-1.1,2.7-2.7-2.1-4.2-1.7c-0.5,1.3,1.3,1.1,1.8,1.8c-2.9-0.7-3.2,6.2-6.4,2.1l0.5-1.6
		c-1.3-0.8-1.9-0.6-1.6-0.2c0.3-0.2,0.5,0.2,0.8,0.6c-2.1,2.9-5.8-2.3-8.5-0.7c0.5,0.8,1.1,1,1.3,1.7c-1.1,1.2-2.9-4-4.5-1.8
		l0.8,0.9c-0.5,0.7-1.6-0.5-1.6-0.8c1.3,3.8-4.8,0.8-4.5,6.1c-1.9-1.8-5.6-2.8-6.1-1.5c-0.5,2.6,2.1,2.2,2.4,4.4
		c-1.1,0.2-2.4-1.7-3.7-0.6c-0.8-2.1,1.6-4.9-1.9-5.5l0,1.2c0.3-0.2,0.5-0.7,1.1-0.6c1.3,1.1,0,1.5,0,2.1l-3.5,0
		c-1.1-2.2,1.1-2.1,1.1-2.7c-2.4,1-4.2,4.9-7.2,3.9l0.5,0.8c-3.7-1.3-0.2,4.5-4,1.4c-1.1,0.9,1.3,2.3-0.5,2.9
		c-0.5,0.1-0.5-0.8-0.5-1.1c-2.7-0.3-0.2,2.3-3.2,0.7l1.4,2.3c-3.2-1.1-7.5-4.6-9.3-3.1c0.8,1.8,2.1,1.3,3.2,2.6
		c-4.3-2.6-7.4,1.1-10.9,0c0.3-1.7-2.7-3.3-1.4-5c1.4,2.3,1.6,0.5,2.7,0.6c-3.5-4.8-5.6,3.9-7.7-0.5l0.3,1.9
		c-0.5-0.2-2.1-1.3-1.6-2.1l-2.7,1.8c1.6,1.1,5.1,3.8,5.1,1.7c1.6,1.7-0.8,1.5,0.8,3.6c-3.2-2.6-0.8,1.6-3.2,1.3
		c0-2.8-3.5-3.1-3.9-4.4c-0.5,0.6-2.5-0.3-3.5-1c-1.3,0-3.4,2.7-5.7,2.3c1.1,0.7,2.7,1.5,3.2,3.2c-1.3-0.7-2.4-0.5-1.8,1.5
		c4.8,2.8-0.6-4.7,3.4-3.1c1.6,2.1,2.7,2.4,4.6,2.7c-0.3,1.4,0.3,1.9,0.6,3.5c-3.8-4.3-5.3,0.6-8.8-1.1c-1.6-1.1-1.9-4.3-4.6-4.2
		l1.6-1.9c-1.8,1.8-1.1-1.3-3.2-1.4l1.3,1.4c-1.1,0.5-1.6,0.4-2.7-0.6l1.9,2.1c-0.5,0.4-1.6,1-2.1-0.4c0.1,0.6,0.2,1.1,0.3,1.5
		c-0.3-0.4-0.7-0.6-1.4-0.3c0.5,0.2,0.8,0,1.1,0.7c-3.1,0,0.3,2.7-1.5,2.8c0.5,0.5,0.2,1.3-0.3,1.7c-1.4-3.7-5.1-3.5-6.8-5.3l0,0.1
		l-2.9-1c0.6,0.2,0.5,1.3-0.1,1.9l0.1,0c-0.5,0.7,2.4,3.8-0.2,3.2l-1.6-0.8c0.3,0.1,0.3,0.7,0.3,1l-1.6-0.7c-0.5,3.9-4.3-1.2-5.8,1
		c0.5-0.4,1.6-0.4,1.6,0.8c-0.3,0.5-1.1,0.2-1.6-0.2l0.3,0.4l-5.1-1.4c0.8,1.2,3.2,0.8,2.7,2.4c0,1.8-1.9,0.3-2.7,0.3
		c-0.3-1,0.8-2.2-0.8-2.4c0,0.5-0.9,1.8,0,2.4c-1.8-0.7-4.2-0.9-6.1-2.3c-0.2,0.5,0.6,0.8,0.8,0.9l0-0.3c1.1,0.4,1.1,2.5,2.4,1.1
		c1.4,3.2-2.1,1.4-3.4,2.2l3.2,1.7c-2.3,5.2-9.6,1.6-13.6,2.4c0.8-1.2,2.1-0.5,1-3c-2.9-0.7-2.4-0.2-5.1-0.2l0.3,0.1
		c-0.8,1.6-3.5-0.5-3.4,1.9c1.1,1.3,1.3-1.7,2.4,1.1l-3.2,0.4c1.6,1.4,3.2-0.4,4.5-0.3c0.8-0.3-1.9,0-2.2-1.9
		c2.9-0.5,4.3,1.1,6.7,3.4c1.6,1.8-0.5,2.2-1,2.4c-3-2.5-6.2-3.3-8.6-1.3l-0.8,2.4c-2.2-1.6-3-5.5-5.4-4.5l1.4,1.4
		c-0.3,0.7-0.6,1-0.9,1c1.6,0.9,3.3,1.9,4.7,2.9c-0.2,3.5-4.8-0.7-7.2-0.9c0.3,0.4,1.1,0.4,1.6,1.1c-2.9,1.4-7.8-1.7-10.5-1.7
		c-0.5,1.6,2.4,0.5,2.7,2.7c-1.6-0.5-2.4,1.6-3.5-0.2c1.7,2.6-2.9,0.8,0.6,2.9c-4.2,2.2-10.4,0.8-15.8,0.2c0.6,0.8,0.8,1.5,0.9,2.1
		c1.6-0.4,4.3-0.1,5.9,1.7c-0.5,1.6-3.2-1.4-3.2-0.5c0.8,0.6,1.9,0.3,2.4,1.7c-0.8,1.9-2.4-0.2-3.5-0.3l0.2-0.8
		c-3.8-1.2-3.6-4.5-6.5-3c-0.5,1.9,0.6,1.4,1.4,3.5c-1.1-0.7-2.6,2.1-4.3,0.1l1.9-0.6c-1.6-0.3-2.9,0-4.1-0.5c0.3,0.4,0.5,0.9,0.9,1
		c-1.3-0.4-2.7,0-3.8-1.2l0.6,2.3c0.2-1.1,2.1-1.7,2.9-0.5c0.6,2-1.8,1.2-2.6,1.5c4-0.2,5.4,3.3,8,1.2l-0.8-0.6
		c1.3-2.1,4.5,0.2,6.2-0.2c-0.3,0.6-0.1,1.4,0.3,1.7c3.1-2.6,7.4-2,11.4-4l2.2,1.9l-0.6-1.7c1.8-1.2,1.4,2.3,2.7,1.8
		c-0.5,0.1-0.5-0.2-0.8-0.6c3.2,1.4,0.8-1.8,2.4-1.6c-1.4-1.7-2.9-0.1-3.3-2.6c3.2,1.4,6.7-0.5,8.6,3.5c4-2.6,10.6-1.3,14.6-1.7
		c0.2-0.8-0.5-0.5-0.6-1.1c2.4,2,4.5-2.7,5.3-0.6c0.5-0.7,0.2-2.3,0.2-2.9c1.4,0.8,2.7,1,4.1,1.1l-1.1-0.4l0-0.3l1.6,0.5l0,0.1
		c3.3-0.1,6.7-1.3,10.4,0.3c-2.1-1-0.6-2.6-1.6-3.3c2.7,3,6.2,2.4,8.8,1.4c-0.3-0.7-0.3-1.3-0.8-1.8l2.1,1l-0.5-0.8
		c2.6-1.2,7.2,1.8,8.5-0.2c-1.3-0.1-1.6-0.8-2.1-1.9c2.1-0.4,4.1-0.7,6.9-0.2c-0.2-0.2-0.4-0.4-0.5-0.6c0.5-0.4,1.6,0.2,2.4,0.5
		l-0.6-1.7c1.5,0.5,2.8-0.7,4.8,0.3c-0.1-2,4.2,0.9,5.6-0.2c0.8,0.3-2.1-1.6-0.3-1.9c1.6,3.6,2.4-0.4,4,3.5l1-1.8l1.1,1.9
		c0-3.9,2.7,1.2,4.2-0.4c-0.3-0.4-0.5-0.5-0.5-0.8c0.8,0.3,2.4,0.2,1.6,1.4c1.1-0.2,5-0.1,2.6-1.8c0.5,1.1-1.3,0.5-2.1,0.2
		c-0.6-1.7,1.3-1.4,1-3.3c0.1,0.2,0.4,0.4,0.7,0.7l-0.2-1.1c2.7,1.4,4.3-0.3,6.6,1.7c-0.1-0.5,0.1-1,0.8-1l0.8,2.1l2.1-0.5l-2.2-2.8
		c2.1-1.1,5.1,2,7.2,2.1c-0.8-3.6,4.3,0.5,4.8-2.9l-1.9-0.6c3.5,0,3.2-2.3,6.6-1.7c-2.1,1.7-2.4,1-5,4.7c3.2-2.3,7.2,0.6,9.8-2.1
		c-0.5-0.8-1.6-1.1-1.1-2.2c1.3,1.7,3.2-0.7,3.5,1.5c0.8-0.9,0.2-2.9,0.8-3.4l4.5,1.8l-0.3-0.4c4.2-6.1,12.5,0.9,17.8-2.5l-0.5-1.1
		l2.1,1.3c-1.6-0.8,0-1.5-0.3-2.5l4.8,1.6C182.7,187.2,181.6,185,180.8,185.6"/>
</g>
</svg>
