<?xml version="1.0" encoding="utf-8"?>
<!-- Generator: Adobe Illustrator 26.0.1, SVG Export Plug-In . SVG Version: 6.00 Build 0)  -->
<svg version="1.1" id="Logo-Call-Lens-Lievin" xmlns="http://www.w3.org/2000/svg" xmlns:xlink="http://www.w3.org/1999/xlink"
	 x="0px" y="0px" viewBox="0 0 470.2 249.5" style="enable-background:new 0 0 470.2 249.5;" xml:space="preserve">
<style type="text/css">
	.st0{fill:#6D7D85;}
	.st1{fill:#BEB486;}
	.st2{fill:#AEC977;}
	.st3{fill:#4D8A9B;}
	.st4{fill:#DA504D;}
</style>
<g>
	<g>
		<path class="st0" d="M38.6,159.8c0,2.2-1.4,3.4-3.4,3.4H30c-2,0-3.4-1.2-3.4-3.4v-14.1c0-2.2,1.4-3.4,3.4-3.4h5.3
			c2,0,3.4,1.2,3.4,3.4v3.6h-2.8v-4.6h-6.5v16.3h6.5v-4.6h2.8V159.8z"/>
		<path class="st0" d="M54.8,159.8c0,2.2-1.4,3.4-3.4,3.4h-5.3c-2,0-3.4-1.2-3.4-3.4v-10.6c0-2.2,1.4-3.4,3.4-3.4h5.3
			c2,0,3.4,1.2,3.4,3.4V159.8z M52.1,160.8v-12.8h-6.5v12.8H52.1z"/>
		<path class="st0" d="M81.6,163.2h-2.8v-15.1h-6.5v15.1h-2.8v-15.1h-6.5v15.1h-2.8v-17.4h2.8v2.3l1.5-2.3H69c1.7,0,2.9,0.7,3.4,2.3
			l1.5-2.3h4.4c2,0,3.4,1.2,3.4,3.4V163.2z"/>
		<path class="st0" d="M108.5,163.2h-2.8v-15.1h-6.5v15.1h-2.8v-15.1h-6.5v15.1h-2.8v-17.4h2.8v2.3l1.5-2.3h4.4
			c1.7,0,2.9,0.7,3.4,2.3l1.5-2.3h4.4c2,0,3.4,1.2,3.4,3.4V163.2z"/>
		<path class="st0" d="M126,163.2h-2.8v-2.3l-1.5,2.3h-4.4c-2,0-3.4-1.2-3.4-3.4v-14h2.8v15.1h6.5v-15.1h2.8V163.2z"/>
		<path class="st0" d="M143.6,163.2h-2.8v-15.1h-6.5v15.1h-2.8v-17.4h2.8v2.3l1.5-2.3h4.4c2,0,3.4,1.2,3.4,3.4V163.2z"/>
		<path class="st0" d="M161.1,163.2h-2.8v-2.3l-1.6,2.3h-4.3c-2,0-3.4-1.2-3.4-3.4v-3c0-2.2,1.4-3.4,3.4-3.4h5.9v-5.2h-6.2v2.9h-2.8
			v-1.8c0-2.2,1.4-3.4,3.4-3.4h5c2,0,3.4,1.2,3.4,3.4V163.2z M158.4,160.8v-5.2h-6.5v5.2H158.4z"/>
		<path class="st0" d="M178.7,163.2h-2.8v-2.3l-1.5,2.3H170c-2,0-3.4-1.2-3.4-3.4v-14h2.8v15.1h6.5v-15.1h2.8V163.2z"/>
		<path class="st0" d="M191.8,163.2H188c-2,0-3.4-1.2-3.4-3.4v-11.5h-2.8V146h2.8v-3.7h2.8v3.7h4.4v2.3h-4.4v12.6h4.4V163.2z"/>
		<path class="st0" d="M207.5,159.8c0,2.2-1.4,3.4-3.4,3.4h-5.3c-2,0-3.4-1.2-3.4-3.4v-10.6c0-2.2,1.4-3.4,3.4-3.4h5.3
			c2,0,3.4,1.2,3.4,3.4v6.4h-9.3v5.2h6.5v-2.9h2.8V159.8z M204.7,153.3v-5.2h-6.5v5.2H204.7z M204.6,139.7l-2,3.7h-3.1l2-3.7H204.6z
			"/>
		<path class="st0" d="M233.3,163.2h-2.8v-2.3l-1.6,2.3h-4.3c-2,0-3.4-1.2-3.4-3.4v-10.6c0-2.2,1.4-3.4,3.4-3.4h4.4l1.5,2.3v-8.4
			h2.8V163.2z M230.5,160.8v-12.8H224v12.8H230.5z"/>
		<rect x="237.4" y="142.3" class="st0" width="2.8" height="7"/>
		<path class="st0" d="M256.3,163.2h-2.8v-5.8h-6.5v5.8h-2.8v-13.9l4.6-7h2.7l4.6,7V163.2z M253.6,155.1v-5.8l-3.3-4.9l-3.3,4.9v5.8
			H253.6z"/>
		<path class="st0" d="M273.9,165.8c0,2.2-1.4,3.4-3.4,3.4h-7.3v-2.3h7.9v-6.1l-1.6,2.3h-4.3c-2,0-3.4-1.2-3.4-3.4v-10.6
			c0-2.2,1.4-3.4,3.4-3.4h4.4l1.5,2.3v-2.3h2.8V165.8z M271.1,160.8v-12.8h-6.5v12.8H271.1z"/>
		<path class="st0" d="M291.4,165.8c0,2.2-1.4,3.4-3.4,3.4h-7.3v-2.3h7.9v-6.1l-1.6,2.3h-4.3c-2,0-3.4-1.2-3.4-3.4v-10.6
			c0-2.2,1.4-3.4,3.4-3.4h4.4l1.5,2.3v-2.3h2.8V165.8z M288.7,160.8v-12.8h-6.5v12.8H288.7z"/>
		<path class="st0" d="M302.5,163.2h-2.2c-2,0-3.4-1.2-3.4-3.4v-20.1h2.8v21.2h2.8V163.2z"/>
		<path class="st0" d="M318.2,159.8c0,2.2-1.4,3.4-3.4,3.4h-5.3c-2,0-3.4-1.2-3.4-3.4v-10.6c0-2.2,1.4-3.4,3.4-3.4h5.3
			c2,0,3.4,1.2,3.4,3.4V159.8z M315.5,160.8v-12.8h-6.5v12.8H315.5z"/>
		<path class="st0" d="M345.1,163.2h-2.8v-15.1h-6.5v15.1H333v-15.1h-6.5v15.1h-2.8v-17.4h2.8v2.3l1.5-2.3h4.4
			c1.7,0,2.9,0.7,3.4,2.3l1.5-2.3h4.4c2,0,3.4,1.2,3.4,3.4V163.2z"/>
		<path class="st0" d="M362.6,159.8c0,2.2-1.4,3.4-3.4,3.4h-5.3c-2,0-3.4-1.2-3.4-3.4v-10.6c0-2.2,1.4-3.4,3.4-3.4h5.3
			c2,0,3.4,1.2,3.4,3.4v6.4h-9.3v5.2h6.5v-2.9h2.8V159.8z M359.9,153.3v-5.2h-6.5v5.2H359.9z M359.8,139.7l-2,3.7h-3.1l2-3.7H359.8z
			"/>
		<polygon class="st0" points="375.2,148.7 370.9,148.7 370.9,163.2 368.1,163.2 368.1,145.8 370.9,145.8 370.9,148.1 372.4,145.8 
			375.2,145.8 		"/>
		<path class="st0" d="M390,163.2h-2.8v-2.3l-1.6,2.3h-4.3c-2,0-3.4-1.2-3.4-3.4v-3c0-2.2,1.4-3.4,3.4-3.4h5.9v-5.2h-6.2v2.9h-2.8
			v-1.8c0-2.2,1.4-3.4,3.4-3.4h5c2,0,3.4,1.2,3.4,3.4V163.2z M387.3,160.8v-5.2h-6.5v5.2H387.3z"/>
		<path class="st0" d="M403.1,163.2h-3.8c-2,0-3.4-1.2-3.4-3.4v-11.5h-2.8V146h2.8v-3.7h2.8v3.7h4.4v2.3h-4.4v12.6h4.4V163.2z"/>
		<path class="st0" d="M409.5,143.2h-2.8v-3.5h2.8V143.2z M409.5,163.2h-2.8v-17.4h2.8V163.2z"/>
		<path class="st0" d="M427.1,159.8c0,2.2-1.4,3.4-3.4,3.4h-5.3c-2,0-3.4-1.2-3.4-3.4v-10.6c0-2.2,1.4-3.4,3.4-3.4h5.3
			c2,0,3.4,1.2,3.4,3.4V159.8z M424.3,160.8v-12.8h-6.5v12.8H424.3z"/>
		<path class="st0" d="M444.6,163.2h-2.8v-15.1h-6.5v15.1h-2.8v-17.4h2.8v2.3l1.5-2.3h4.4c2,0,3.4,1.2,3.4,3.4V163.2z"/>
	</g>
	<polygon class="st1" points="216.4,22.8 145.7,126 176.9,126 232.1,45.5 	"/>
	<polygon class="st2" points="277.1,22.8 251.2,22.8 251.2,73.6 287.2,126 303.3,126 303.3,100.3 277.1,100.3 	"/>
	<polygon class="st3" points="381,126.4 381,100.6 355.1,100.6 355.1,23.1 329.3,23.1 329.3,126.4 	"/>
	<g>
		<rect x="263.2" y="202.3" class="st0" width="8.4" height="6.8"/>
		<rect x="159" y="202.3" class="st0" width="8.4" height="6.8"/>
		<path class="st0" d="M115.5,182.8v52h239.4v-52H115.5z M267.5,191.4h4l-2.6,4.8h-4L267.5,191.4z M151.9,221.7h-6.4
			c-2.6,0-4.4-1.5-4.4-4.4v-22.6h3.6v24h7.2V221.7z M171,212h-12v6.8h8.4V215h3.5v2.3c0,2.9-1.8,4.4-4.4,4.4h-6.8
			c-2.6,0-4.4-1.5-4.4-4.4v-13.7c0-2.9,1.8-4.4,4.4-4.4h6.8c2.6,0,4.4,1.5,4.4,4.4V212z M193.6,221.7H190v-19.5h-8.4v19.5h-3.6
			v-22.4h3.6v2.9l2-2.9h5.6c2.6,0,4.4,1.5,4.4,4.4V221.7z M216.2,206h-3.5v-3.7h-8.4v6.5h7.6c2.6,0,4.4,1.5,4.4,4.4v4.2
			c0,2.9-1.8,4.4-4.4,4.4H205c-2.6,0-4.4-1.5-4.4-4.4V215h3.6v3.7h8.4v-6.5H205c-2.6,0-4.4-1.5-4.4-4.4v-4.2c0-2.9,1.8-4.4,4.4-4.4
			h6.8c2.6,0,4.4,1.5,4.4,4.4V206z M231.1,211h-11.3v-3.2h11.3V211z M245.4,221.7H239c-2.6,0-4.4-1.5-4.4-4.4v-22.6h3.6v24h7.2
			V221.7z M252.5,221.7H249v-22.4h3.6V221.7z M252.5,195.9H249v-4.5h3.6V195.9z M275.2,212h-12v6.8h8.4V215h3.5v2.3
			c0,2.9-1.8,4.4-4.4,4.4H264c-2.6,0-4.4-1.5-4.4-4.4v-13.7c0-2.9,1.8-4.4,4.4-4.4h6.8c2.6,0,4.4,1.5,4.4,4.4V212z M297.8,212.8
			l-6,9h-3.5l-6-9v-13.5h3.6v13.5l4.2,6.3l4.2-6.3v-13.5h3.5V212.8z M308.5,221.7h-3.6v-22.4h3.6V221.7z M308.5,195.9h-3.6v-4.5h3.6
			V195.9z M331.1,221.7h-3.5v-19.5h-8.4v19.5h-3.6v-22.4h3.6v2.9l2-2.9h5.6c2.6,0,4.4,1.5,4.4,4.4V221.7z"/>
	</g>
	<g>
		<path class="st4" d="M121.8,62.3c9.4-13.9,28.3-17.5,42.2-8.3l14.8-21.6c-25.9-17.4-61-10.6-78.5,15.2
			c-17.5,25.7-10.9,60.7,14.5,78.4l14.8-21.6C115.9,94.9,112.4,76.1,121.8,62.3z"/>
	</g>
</g>
</svg>
