<?xml version="1.0" encoding="utf-8"?>
<!-- Generator: Adobe Illustrator 26.0.1, SVG Export Plug-In . SVG Version: 6.00 Build 0)  -->
<svg version="1.1" id="Logo-Roanne" xmlns="http://www.w3.org/2000/svg" xmlns:xlink="http://www.w3.org/1999/xlink" x="0px"
	 y="0px" viewBox="0 0 1367 398" style="enable-background:new 0 0 1367 398;" xml:space="preserve">
<style type="text/css">
	.st0{fill:#707072;}
	.st1{fill:#4AAE4D;}
	.st2{fill:#066938;}
	.st3{fill:#4C4B4E;}
</style>
<path class="st0" d="M1307.1,138.6c-7.2-16.7-16.9-31.2-28.8-43.8c-7.8-9-16.8-14.9-28.7-14.9c-19.5,0-35.3,15.8-35.3,35.3
	c0,11.1,5.7,20.3,13.2,27.3l8.3,9.9c9.2,13.3,13.7,28.4,13.7,45.3c0,11-2.1,21.5-6.2,31.5c-6.4,15.1-16.2,26.7-29.5,35
	c-6.4,4.6-13.4,8.1-20.9,10.6c-7.5,2.5-15.7,3.8-24.3,3.8c-10.5,0-21-2.3-31.5-6.9c-7.9-3.3-15-7.9-21.4-13.5
	c-1.4,14.3-7.6,27.2-18,37.6c-7.7,7.6-16.7,13-26.6,15.8c4.2,3.6,8.6,7,13.2,10.1c11.9,8.2,25,14.6,39.4,19.2
	c14.4,4.6,29.4,6.9,44.9,6.9c20.1,0,39.8-3.9,59-11.6c8.4-3.7,16.2-8.1,23.6-13c1.6,5.3,4.4,10.1,8.6,14.4
	c6.9,6.9,15.1,10.3,24.7,10.3c9.6,0,34.3,0,34.3,0s0-25.4,0-35l0-115.2C1318.8,177.4,1314.9,157.8,1307.1,138.6z"/>
<path class="st1" d="M1277.4,94.1c0,0-2-2.4-3.2-3.5c0,0-0.1-0.1-0.1-0.1c-0.1-0.1-0.1-0.1-0.2-0.2c-2.7-2.6-5.6-5-8.4-7.3
	c-0.7-0.5-1.3-1-2-1.5c-1.3-1-2.6-2-3.9-2.9c-7.4-5.3-15.1-10-23.3-13.9c-6.1-2.9-12.3-5.3-18.6-7.3c-0.1-0.1-0.3-0.1-0.5-0.2
	c-1.5-0.5-3.1-0.9-4.6-1.4c-8.9-2.6-17.9-4.5-27.1-5.3c-4.1-0.4-8.2-0.5-12.3-0.6c-0.7,0-1.4,0-2.2,0c-9.6,0-19.2,0.8-28.7,2.5
	c-8.6,1.8-17,4.4-25.3,7.7c-2.7,1-5.5,2-8.2,3.2c-8,3.6-15.6,8-22.8,12.9l-0.5-2.2c-1.6-5.2-4.4-9.9-8.6-14.1
	c-6.8-6.7-15-10.1-24.6-10.1c-9.6,0-34.2,0-34.2,0l0,236.6c0,0,25.4,0,35,0c9.6,0,17.8-3.4,24.7-10.3c6.8-6.9,10.3-15.1,10.3-24.7
	c0,0,0-43.5,0-48.6c0-7.5,4-21,4-21c1.6-6.5,4-12.9,7.3-19.2c0.9-1.7,1.9-3.4,2.9-5.1c2.7-4.1,5.7-8.1,9.2-11.9
	c5.6-6.1,12-11.1,19.2-15.1c7.2-4,14.5-7,21.9-8.9c16.2-3.2,31.5-2.2,46,3.1c8.1,2.8,15.3,6.6,21.7,11.3c0.5,0.4,1,0.8,1.5,1.2
	c0.7,0.6,1.4,1.1,2.1,1.7c1.4,1.3,4.5,3.6,4.5,3.6c6.7,5.5,14.4,8.4,23.2,8.2c9.6-0.2,17.7-3.8,24.3-10.9c6.6-7.1,9.7-15.5,9.3-25.3
	C1285,106.9,1282.3,99.9,1277.4,94.1z"/>
<path class="st2" d="M1276,140.2c6.6-7.1,9.7-15.5,9.3-25.3c-0.3-8.1-3-15-7.9-20.9c0,0-2-2.4-3.2-3.5c0,0-0.1-0.1-0.1-0.1
	c-0.1-0.1-0.1-0.1-0.2-0.2c-1.1-1.1-2.3-2.1-3.4-3.1c-6-4.6-12.7-7.3-20.8-7.3c-19.5,0-35.3,15.8-35.3,35.3
	c0,10.5,5.2,19.4,12.1,26.2c1.1,0.9,2,1.6,2,1.6c6.7,5.5,14.4,8.4,23.2,8.2C1261.3,150.9,1269.4,147.3,1276,140.2z"/>
<g>
	<rect x="827.8" y="55.4" class="st3" width="32.1" height="23.1"/>
	<rect x="827.8" y="90.2" class="st3" width="32.1" height="127"/>
	<path class="st3" d="M927,219c-26.2,0-48.2-4.4-67.1-23l21.1-21.1c12.9,13.2,30.2,16.7,46,16.7c19.5,0,34.9-6.9,34.9-22
		c0-10.7-6-17.6-21.4-18.9l-25.5-2.2c-29.9-2.5-47.2-16.1-47.2-44.1c0-31.2,26.8-48.8,60.2-48.8c23.9,0,44.4,5,59.2,17.9L967,94
		c-10.1-8.5-24.3-11.6-39.3-11.6c-19.2,0-29,8.5-29,20.5c0,9.5,5,16.7,22,18.3l25.2,2.2c29.9,2.5,47.6,16.7,47.6,45
		C993.4,201.7,965.1,219,927,219"/>
	<path class="st3" d="M498.2,55.6c-16.1,0-31.5,6-42.5,17.9V57.5h-31.5v159.7h32.1v-97.3c0-24.6,15.1-35.6,33.1-35.6
		c17.9,0,32.1,10.7,32.1,35.6v97.3h32.1V115.1c0-17.9-3.8-33.1-16.1-45C528.2,60.9,514.6,55.6,498.2,55.6"/>
	<path class="st3" d="M381.2,159.5c0,11.3-2.2,18.9-6.9,23.6c-8.5,8.2-17.6,9.1-29.9,9.1c-20.2,0-29.3-8.2-29.3-22.7
		c0-14.5,9.8-23,28.7-23h37.5V159.5z M247,180.9c-6,6-14.2,9.5-23.6,9.5c-9.4,0-17.3-3.5-23.3-9.5c-9.8-9.8-11-26.5-11-43.8
		c0-17.3,1.3-34,11-43.8c6-6,13.9-9.1,23.3-9.1c9.5,0,17.6,3.2,23.6,9.1c9.8,9.8,11,26.5,11,43.8C258,154.5,256.8,171.2,247,180.9
		 M347.5,55.6c-5.1,0-9.7,0.3-14.1,0.7V84c3.7-0.7,7.9-1.1,12.8-1.1c24.9,0,34.9,9.8,34.9,29.9v11.3H339c-24.5,0-40.8,8.6-49,22.3
		c0.1-3.1,0.2-6.2,0.2-9.4c0-26.8-3.8-46.9-18.9-62.7c-10.4-10.7-26.1-18.9-47.9-18.9c-21.7,0-37.2,8.2-47.6,18.9
		c-15.1,15.8-18.9,35.9-18.9,62.7c0,27.1,3.8,47.2,18.9,63c10.4,10.7,25.8,18.9,47.6,18.9c21.7,0,37.5-8.2,47.9-18.9
		c6.1-6.4,10.3-13.5,13.2-21.5c1.5,10.2,5.5,19.2,12,25.9c9.8,9.8,23,14.5,42.8,14.5c19.8,0,30.9-4.7,42.5-16.4v14.5h31.5l0-106.8
		C413.3,74.2,391.2,55.6,347.5,55.6"/>
	<path class="st3" d="M784.7,159.5c0,11.3-2.2,18.9-6.9,23.6c-8.5,8.2-17.6,9.1-29.9,9.1c-20.1,0-29.3-8.2-29.3-22.7
		c0-14.5,9.8-23,28.7-23h37.5V159.5z M751,55.6c-4.8,0-9.2,0.3-13.4,0.7v27.7c3.6-0.6,7.5-0.9,12.2-0.9c24.9,0,34.9,9.8,34.9,29.9
		v11.3h-42.2c-24,0-40.2,8.3-48.5,21.6v-30.7c0-17.9-3.8-33.1-16.1-45c-9.4-9.1-23-14.5-39.4-14.5c-16,0-31.5,6-42.5,17.9V57.5
		h-31.5v159.7h32.1v-97.3c0-24.6,15.1-35.6,33.1-35.6c17.9,0,32.1,10.7,32.1,35.6v97.3h32.1v-20.7c1.7,3,3.7,5.7,6,8.1
		c9.8,9.8,23,14.5,42.8,14.5c19.8,0,30.9-4.7,42.5-16.4v14.5h31.5V110.4C816.9,74.2,794.8,55.6,751,55.6"/>
	<path class="st3" d="M176.4,57.9c-6-1.6-12.5-2.3-19.8-2.3c-20.5,0-39.1,7.9-48.5,19.2V57.5H72.2v159.7h36.6v-97
		c0-22,16.5-35.9,36.3-35.9c3.8,0,7,0.4,9.9,1c3.2-7.4,7.6-14.3,13.5-20.4C170.9,62.4,173.5,60.1,176.4,57.9"/>
</g>
<g>
	<g>
		<path class="st1" d="M101.4,243.9l9.2,17.4H91.9L101.4,243.9z M96.9,235.6l-24.3,42.9h10l5-9.4h27.2l5.1,9.4h11.2l-24.6-42.9H96.9
			z"/>
		<g>
			<g>
				<polygon class="st1" points="308.1,278.4 308.1,235.6 318,235.6 318,270.4 350.2,270.4 350.2,278.4 				"/>
				<g>
					<g>
						<polygon class="st1" points="534.2,278.4 534.2,235.6 578.1,235.6 578.1,242.9 544.2,242.9 544.2,252.4 563.9,252.4 
							563.9,259.7 544.2,259.7 544.2,270.4 578.5,270.4 578.5,278.4 						"/>
						<g>
							<g>
								<path class="st1" d="M697.8,261.3h18.8l-9.2-17.4L697.8,261.3z M678.6,278.4l24.3-42.9h9.6l24.6,42.9h-11.2l-5.2-9.4h-27.2
									l-5,9.4H678.6z"/>
								<g>
									<polygon class="st1" points="778.1,243.2 778.1,278.4 768.1,278.4 768.1,243.2 748.4,243.2 748.4,235.6 797.8,235.6 
										797.8,243.2 									"/>
									<rect x="822.3" y="235.6" class="st1" width="10" height="42.9"/>
									<g>
										<path class="st1" d="M870.3,270.4h32.9v-27.2h-32.9V270.4z M860.4,245.7c0-4,0.7-6.7,2.2-8.1c1.5-1.4,4.3-2.1,8.4-2.1
											h31.6c4.1,0,6.9,0.7,8.4,2.1c1.5,1.4,2.2,4.1,2.2,8.1v22.6c0,4-0.7,6.7-2.2,8.1c-1.5,1.4-4.3,2.1-8.4,2.1H871
											c-4.1,0-6.9-0.7-8.4-2.1c-1.5-1.4-2.2-4.1-2.2-8.1V245.7z"/>
										<path class="st1" d="M935.1,278.4v-42.9h6.8l30.2,25.2c2.2,1.8,3.8,3.4,4.9,4.7c-0.3-4-0.4-6.5-0.4-7.4v-22.5h9v42.9h-6.8
											l-31.5-26.5c-1.3-1.1-2.5-2.3-3.6-3.5c0.3,2.8,0.4,5,0.4,6.8v23.2H935.1z"/>
									</g>
								</g>
							</g>
							<path class="st1" d="M638.9,242.9h-22.4v12h22.4c1.5,0,2.6-0.2,3.2-0.5c0.8-0.5,1.2-1.5,1.2-2.9v-5.2c0-1.4-0.4-2.4-1.2-2.9
								C641.5,243,640.4,242.9,638.9,242.9 M606.7,278.4v-42.9h36.7c6.4,0,9.6,2.8,9.6,8.3v10.1c0,5.5-3.2,8.3-9.6,8.3h-5.7
								l19.8,16.2h-14.3l-17.3-16.2h-9.5v16.2H606.7z"/>
						</g>
					</g>
					<g>
						<path class="st1" d="M383.4,270.4h32.9v-27.2h-32.9V270.4z M373.5,245.7c0-4,0.7-6.7,2.2-8.1c1.5-1.4,4.3-2.1,8.4-2.1h31.6
							c4.1,0,6.9,0.7,8.4,2.1c1.5,1.4,2.2,4.1,2.2,8.1v22.6c0,4-0.7,6.7-2.2,8.1c-1.5,1.4-4.3,2.1-8.4,2.1h-31.6
							c-4.1,0-6.9-0.7-8.4-2.1c-1.5-1.4-2.2-4.1-2.2-8.1V245.7z"/>
						<path class="st1" d="M452.6,278.4v-42.9h8.1l20.2,25.9l19.8-25.9h8v42.9h-9.2v-26.5c0-1,0.1-2.6,0.3-4.6
							c-1,2.2-1.9,3.7-2.5,4.5l-16.1,21.4h-2L463,251.8c-1.2-1.5-2-3-2.6-4.4c0.2,1.7,0.3,3.2,0.3,4.6v26.5H452.6z"/>
					</g>
				</g>
			</g>
			<g>
				<path class="st1" d="M193.3,243.2h-31.2v27.2h31.2v-9.6h-16.3v-7.3h26v14.8c0,4-0.7,6.7-2.2,8.1c-1.5,1.4-4.3,2.1-8.4,2.1h-29.6
					c-4.1,0-6.9-0.7-8.4-2.1c-1.5-1.4-2.2-4.1-2.2-8.1v-22.6c0-4,0.7-6.7,2.2-8.1c1.5-1.4,4.3-2.1,8.4-2.1h29.6c4,0,6.8,0.7,8.3,2
					c1.5,1.4,2.3,3.9,2.3,7.7v1l-9.7,1.7V243.2z"/>
				<path class="st1" d="M269.1,243.2h-31.2v27.2h31.2v-9.6h-16.3v-7.3h26v14.8c0,4-0.7,6.7-2.2,8.1c-1.5,1.4-4.3,2.1-8.4,2.1h-29.6
					c-4.1,0-6.9-0.7-8.4-2.1c-1.5-1.4-2.2-4.1-2.2-8.1v-22.6c0-4,0.7-6.7,2.2-8.1c1.5-1.4,4.3-2.1,8.4-2.1h29.6c4,0,6.8,0.7,8.3,2
					c1.5,1.4,2.3,3.9,2.3,7.7v1l-9.7,1.7V243.2z"/>
			</g>
		</g>
	</g>
</g>
</svg>
