<?xml version="1.0" encoding="utf-8"?>
<!-- Generator: Adobe Illustrator 26.0.1, SVG Export Plug-In . SVG Version: 6.00 Build 0)  -->
<svg version="1.1" id="Logo-Limoges-Metropole" xmlns="http://www.w3.org/2000/svg" xmlns:xlink="http://www.w3.org/1999/xlink"
	 x="0px" y="0px" viewBox="0 0 841.9 595.3" style="enable-background:new 0 0 841.9 595.3;" xml:space="preserve">
<style type="text/css">
	.st0{fill:#EC6608;}
	.st1{fill:#FFFFFF;}
</style>
<g>
	<rect x="61.1" y="81.6" class="st0" width="711.8" height="436.3"/>
	<g>
		<polygon class="st1" points="343,367.5 341.7,217.4 313.2,217.4 279.9,334.5 246.5,217.4 218,217.4 216.6,367.5 235.4,367.5 
			236.5,244.2 267.9,351.9 291.7,351.9 323.1,244.2 324.3,367.5 		"/>
		<g>
			<g>
				<path class="st1" d="M376.1,302.4c6,0,10.9-4.7,10.9-10.5c0-5.8-4.9-10.5-10.9-10.5c-6,0-10.9,4.7-10.9,10.5
					C365.2,297.6,370,302.4,376.1,302.4"/>
				<path class="st1" d="M168.7,318.2c12.5,0,22.7-9.8,22.7-21.9c0-12.1-10.2-21.9-22.7-21.9c-12.5,0-22.7,9.8-22.7,21.9
					C146.1,308.4,156.2,318.2,168.7,318.2"/>
				<path class="st1" d="M164.5,266.3c10.2,0,18.5-8,18.5-17.8c0-9.8-8.3-17.8-18.5-17.8c-10.2,0-18.5,8-18.5,17.8
					C146,258.3,154.3,266.3,164.5,266.3"/>
				<path class="st1" d="M176.1,223.6c7.5,0,13.5-5.9,13.5-13.1c0-7.2-6.1-13.1-13.5-13.1c-7.5,0-13.5,5.9-13.5,13.1
					C162.5,217.7,168.6,223.6,176.1,223.6"/>
				<path class="st1" d="M202.1,194.3c6.1,0,11-4.8,11-10.6c0-5.9-4.9-10.6-11-10.6c-6.1,0-11,4.7-11,10.6
					C191.1,189.6,196,194.3,202.1,194.3"/>
				<path class="st1" d="M231.3,178.2c5,0,9-3.9,9-8.7c0-4.8-4-8.7-9-8.7c-5,0-9,3.9-9,8.7C222.2,174.3,226.3,178.2,231.3,178.2"/>
				<path class="st1" d="M261.8,170.4c4.4,0,8-3.5,8-7.7c0-4.3-3.6-7.7-8-7.7c-4.4,0-8,3.5-8,7.7
					C253.8,166.9,257.4,170.4,261.8,170.4"/>
				<path class="st1" d="M289.2,169.4c3.2,0,5.9-2.5,5.9-5.7c0-3.1-2.6-5.7-5.9-5.7c-3.2,0-5.9,2.5-5.9,5.7
					C283.4,166.8,286,169.4,289.2,169.4"/>
				<path class="st1" d="M314,174.3c3,0,5.4-2.4,5.4-5.2c0-2.9-2.4-5.2-5.4-5.2c-3,0-5.4,2.3-5.4,5.2
					C308.6,171.9,311,174.3,314,174.3"/>
				<path class="st1" d="M332.9,183.6c2.3,0,4.1-1.8,4.1-4c0-2.2-1.8-4-4.1-4s-4.1,1.8-4.1,4C328.7,181.8,330.6,183.6,332.9,183.6"
					/>
				<path class="st1" d="M350.1,197.2c2.5,0,4.5-1.9,4.5-4.3c0-2.4-2-4.3-4.5-4.3c-2.5,0-4.5,1.9-4.5,4.3
					C345.6,195.3,347.6,197.2,350.1,197.2"/>
				<path class="st1" d="M364.8,217.2c3.6,0,6.6-2.8,6.6-6.4c0-3.5-2.9-6.4-6.6-6.4c-3.6,0-6.6,2.8-6.6,6.4
					C358.2,214.4,361.1,217.2,364.8,217.2"/>
				<path class="st1" d="M373.2,240.7c4,0,7.3-3.1,7.3-7c0-3.9-3.3-7-7.3-7c-4,0-7.3,3.1-7.3,7C365.9,237.5,369.2,240.7,373.2,240.7
					"/>
				<path class="st1" d="M378.5,268.8c4.8,0,8.7-3.8,8.7-8.4c0-4.6-3.9-8.4-8.7-8.4c-4.8,0-8.7,3.8-8.7,8.4
					C369.8,265.1,373.7,268.8,378.5,268.8"/>
				<path class="st1" d="M199.3,373.9c15.9,0,28.8-11.9,28.8-26.7c0-14.7-12.9-26.7-28.8-26.7c-15.9,0-28.8,11.9-28.8,26.7
					C170.5,362,183.4,373.9,199.3,373.9"/>
				<path class="st1" d="M661.3,332.9c0-3.3,0.8-5.7,2.4-7.4c1.6-1.7,3.7-2.5,6.4-2.5c2.7,0,4.9,0.8,6.5,2.5
					c1.7,1.7,2.5,4.2,2.5,7.7v4.7h-17.8V332.9z M652.5,350.5c0,6.2,1.5,10.7,4.4,13.7c2.9,3,7.9,4.5,14.9,4.5c2,0,4.3-0.2,6.9-0.6
					c2.6-0.4,5-0.8,7.3-1.2l0.4-7.8c-0.9,0.2-2,0.4-3.2,0.6c-1.2,0.2-2.5,0.4-3.8,0.6c-1.3,0.2-2.7,0.3-4,0.5
					c-1.3,0.1-2.5,0.2-3.6,0.2c-3.7,0-6.3-0.8-8-2.3c-1.7-1.6-2.5-4.1-2.5-7.6v-6.1H688v-10.7c0-6.1-1.5-10.7-4.5-13.8
					c-3-3.1-7.5-4.7-13.3-4.7c-6,0-10.5,1.6-13.3,4.8c-2.9,3.2-4.3,7.8-4.3,13.8V350.5z M637.5,296.7h-8.8v70.8h8.8V296.7z
					 M613.6,334.6c0-5.9-1.5-10.5-4.4-13.8c-2.9-3.4-7.5-5-13.9-5c-6.4,0-11,1.7-13.9,5c-2.9,3.4-4.4,8-4.4,13.8v15.3
					c0,5.9,1.5,10.5,4.4,13.8c2.9,3.4,7.5,5,13.9,5c6.4,0,11-1.7,13.9-5c2.9-3.4,4.4-8,4.4-13.8V334.6z M604.8,350.6
					c0,3.5-0.8,6.2-2.5,8c-1.7,1.8-4,2.7-7,2.7c-3,0-5.3-0.9-6.9-2.7c-1.7-1.8-2.5-4.5-2.5-8v-16.8c0-3.5,0.8-6.2,2.5-8
					c1.7-1.8,4-2.7,6.9-2.7c3,0,5.3,0.9,7,2.7c1.7,1.8,2.5,4.5,2.5,8V350.6z M551.9,325.9c1.2,1.6,1.9,4.4,1.9,8.3v16
					c0,7.2-2.8,10.8-8.5,10.8c-1.5,0-3-0.3-4.8-1c-1.7-0.7-3.4-1.6-4.9-2.7v-25.4c1.5-2.6,3.3-4.7,5.3-6.1c2-1.5,4.1-2.2,6.1-2.2
					C549,323.6,550.7,324.4,551.9,325.9 M535.6,386.7v-21.6c1.5,0.9,3.3,1.7,5.4,2.5c2.1,0.8,4.1,1.1,6,1.1c4.8,0,8.6-1.5,11.4-4.6
					c2.8-3,4.2-7.3,4.2-12.8V333c0-5.7-1.2-10.1-3.6-13c-2.4-2.9-5.8-4.4-10.2-4.4c-2.7,0-5.2,0.7-7.5,2.2c-2.3,1.5-4.4,3.6-6.2,6.4
					v-7.4h-8.3v69.8H535.6z M511.8,334.6c0-5.9-1.5-10.5-4.4-13.8c-2.9-3.4-7.5-5-13.9-5c-6.4,0-11,1.7-13.9,5
					c-2.9,3.4-4.4,8-4.4,13.8v15.3c0,5.9,1.5,10.5,4.4,13.8c2.9,3.4,7.5,5,13.9,5c6.4,0,11-1.7,13.9-5c2.9-3.4,4.4-8,4.4-13.8V334.6
					z M503,350.6c0,3.5-0.8,6.2-2.5,8c-1.7,1.8-4,2.7-6.9,2.7c-3,0-5.3-0.9-7-2.7c-1.7-1.8-2.5-4.5-2.5-8v-16.8c0-3.5,0.8-6.2,2.5-8
					c1.7-1.8,4-2.7,7-2.7c3,0,5.3,0.9,6.9,2.7c1.7,1.8,2.5,4.5,2.5,8V350.6z M450.9,367.5v-34.7c1.5-2.6,3.3-4.4,5.2-5.6
					c2-1.1,4.1-1.7,6.3-1.7c1,0,1.7,0,2.3,0c0.6,0,1.2,0.1,1.7,0.3v-10c-0.6-0.1-1.3-0.2-2.3-0.2c-2.7,0-5.2,0.8-7.6,2.3
					c-2.4,1.5-4.4,3.7-6.2,6.5v-7.6h-8.3v50.6H450.9z M407.5,353.1c0,5.6,1.3,9.6,3.8,12c2.6,2.4,6.6,3.6,12,3.6
					c1.6,0,3.1-0.1,4.5-0.3c1.4-0.2,2.7-0.5,3.8-0.7v-7.4c-1,0.2-2.4,0.4-4,0.6c-1.6,0.2-3.2,0.3-4.7,0.3c-2.2,0-3.9-0.6-5-1.7
					c-1.1-1.1-1.7-3-1.7-5.7v-29.7h13.5v-7.3h-13.5v-13.5h-7.2l-1.7,13.5h-7.3v7.3h7.3V353.1z M384.3,296.5h-8.8l-7.9,14.4h6.8
					L384.3,296.5z M366.4,332.9c0-3.3,0.8-5.7,2.4-7.4c1.6-1.7,3.7-2.5,6.4-2.5c2.7,0,4.9,0.8,6.5,2.5c1.7,1.7,2.5,4.2,2.5,7.7v4.7
					h-17.8V332.9z M357.5,350.5c0,6.2,1.5,10.7,4.4,13.7c2.9,3,7.9,4.5,14.9,4.5c2,0,4.3-0.2,6.9-0.6c2.6-0.4,5-0.8,7.3-1.2l0.4-7.8
					c-0.9,0.2-2,0.4-3.2,0.6c-1.2,0.2-2.5,0.4-3.8,0.6c-1.3,0.2-2.7,0.3-4,0.5c-1.3,0.1-2.5,0.2-3.6,0.2c-3.7,0-6.3-0.8-8-2.3
					c-1.7-1.6-2.5-4.1-2.5-7.6v-6.1H393v-10.7c0-6.1-1.5-10.7-4.5-13.8c-3-3.1-7.5-4.7-13.3-4.7c-6,0-10.5,1.6-13.3,4.8
					c-2.9,3.2-4.3,7.8-4.3,13.8V350.5z"/>
				<path class="st1" d="M676.2,261.3c1.4,0.6,2.5,1.3,3.1,2.2c0.6,0.9,0.9,2.1,0.9,3.5v1.3c0,1.9-0.6,3.2-1.7,4.1
					c-1.1,0.8-3.4,1.3-6.7,1.3c-3.8,0-7.7-0.5-11.7-1.5l-0.2,7c4.3,1,8.3,1.5,11.8,1.5c5.9,0,10.1-1.1,12.5-3.3
					c2.5-2.2,3.7-5.5,3.7-9.7v-2.2c0-2.3-0.7-4.4-2.1-6.3c-1.4-1.9-3.5-3.5-6.2-4.6l-8.8-3.6c-1.6-0.7-2.7-1.4-3.4-2.1
					c-0.6-0.7-0.9-1.6-0.9-2.9v-0.7c0-1.9,0.6-3.2,1.7-4.1c1.1-0.9,3.3-1.4,6.6-1.4c2.9,0,5.9,0.4,9.2,1.1l0.2-6.7
					c-2.1-0.4-3.8-0.7-5.4-0.9c-1.5-0.2-3-0.2-4.4-0.2c-5.7,0-9.8,1.1-12.2,3.3c-2.4,2.2-3.6,5.4-3.6,9.7v1.2c0,2.4,0.7,4.5,2.1,6.3
					c1.4,1.8,3.5,3.3,6.3,4.3L676.2,261.3z M625.4,248.4c0-2.9,0.7-5.1,2.2-6.6c1.5-1.5,3.4-2.2,5.7-2.2c2.4,0,4.4,0.7,5.9,2.2
					c1.5,1.5,2.2,3.8,2.2,6.9v4.2h-16V248.4z M617.5,264.3c0,5.5,1.3,9.7,4,12.4c2.6,2.7,7.1,4.1,13.4,4.1c1.8,0,3.9-0.2,6.2-0.6
					c2.3-0.4,4.5-0.7,6.6-1.1l0.4-7c-0.8,0.2-1.8,0.4-2.8,0.6c-1.1,0.2-2.2,0.4-3.5,0.5c-1.2,0.2-2.4,0.3-3.6,0.4
					c-1.2,0.1-2.3,0.2-3.3,0.2c-3.3,0-5.7-0.7-7.2-2.1c-1.5-1.4-2.2-3.7-2.2-6.9v-5.5h24v-9.6c0-5.5-1.4-9.6-4.1-12.5
					c-2.7-2.8-6.7-4.2-12-4.2c-5.4,0-9.4,1.4-12,4.3c-2.6,2.9-3.9,7-3.9,12.4V264.3z M578.5,247.3c0-2.6,0.7-4.5,2.1-5.8
					c1.4-1.3,3.4-2,6-2c1.4,0,2.7,0.1,4,0.4c1.3,0.2,2.3,0.5,2.9,0.8c0.3,0.9,0.6,1.9,0.8,3c0.2,1.1,0.3,2.4,0.3,3.8v2.8
					c0,2.6-0.7,4.5-2.1,5.9c-1.4,1.4-3.6,2.1-6.5,2.1c-1.6,0-2.8-0.1-3.8-0.3c-1-0.2-1.7-0.6-2.3-1.2c-0.6-0.6-0.9-1.4-1.2-2.4
					c-0.2-1-0.3-2.4-0.3-4.1V247.3z M572.1,296.3c2.2,0.5,4.6,0.9,7.1,1.2c2.5,0.3,4.7,0.5,6.5,0.5c3.9,0,7.1-0.3,9.6-0.8
					c2.5-0.5,4.4-1.3,5.8-2.2c1.4-1,2.4-2.2,2.9-3.6c0.5-1.5,0.8-3.1,0.8-5v-3.5c0-2.9-0.9-5.3-2.7-7.2c-1.8-1.9-4.1-2.9-6.9-3.2
					l-13.9-1c-1.8-0.1-3-0.5-3.6-1c-0.6-0.6-0.9-1.3-0.9-2.1v-0.6c0-1.3,0.7-2.5,2-3.7c2.1,0.6,4.7,0.9,7.9,0.9
					c2.6,0,4.9-0.4,6.9-1.1c2-0.7,3.6-1.8,5-3.1c1.4-1.3,2.4-2.9,3.1-4.8c0.7-1.9,1-3.9,1-6.1v-2.1c0-1.2-0.1-2.5-0.4-3.7
					c-0.3-1.2-0.8-2.4-1.4-3.4l7.9,0.3v-7l-14.6,0.2c-1.1-0.4-2.2-0.7-3.5-0.9c-1.2-0.2-2.6-0.3-4-0.3c-5.4,0-9.4,1.4-12.1,4.1
					c-2.6,2.7-4,6.2-4,10.5v2.1c0,2.6,0.2,4.8,0.7,6.7c0.5,1.8,1.2,3.4,2.3,4.6c-2.8,2.1-4.2,4.6-4.2,7.5v1.9c0,2.5,0.8,4.5,2.3,6
					c1.6,1.5,3.8,2.4,6.8,2.6l14,0.9c3,0.2,4.5,1.7,4.5,4.7v0.8c0,1.2-0.1,2.2-0.4,2.9c-0.2,0.8-0.8,1.4-1.6,1.9
					c-0.8,0.5-2,0.8-3.4,1c-1.5,0.2-3.5,0.3-5.9,0.3c-2.1,0-4.5-0.2-7-0.6c-2.6-0.4-4.9-0.9-6.9-1.6L572.1,296.3z M559.1,249.9
					c0-5.3-1.3-9.4-3.9-12.5c-2.6-3-6.8-4.5-12.5-4.5c-5.7,0-9.9,1.5-12.5,4.5c-2.6,3-3.9,7.2-3.9,12.5v13.8c0,5.3,1.3,9.4,3.9,12.4
					c2.6,3,6.8,4.5,12.5,4.5c5.7,0,9.9-1.5,12.5-4.5c2.6-3,3.9-7.2,3.9-12.4V249.9z M551.2,264.4c0,3.2-0.7,5.6-2.2,7.2
					c-1.5,1.6-3.6,2.5-6.2,2.5c-2.7,0-4.8-0.8-6.2-2.5c-1.5-1.6-2.2-4.1-2.2-7.2v-15.1c0-3.2,0.7-5.6,2.2-7.2
					c1.5-1.6,3.6-2.5,6.2-2.5c2.7,0,4.8,0.8,6.2,2.4c1.5,1.6,2.2,4,2.2,7.2V264.4z M465.4,279.6v-31.6c1.4-2.4,3-4.2,4.8-5.6
					c1.8-1.4,3.6-2.1,5.4-2.1c1.7,0,3.1,0.7,4.2,2.1c1.1,1.4,1.6,3.8,1.6,7.2v29.9h7.9v-31.6c1.4-2.4,3-4.2,4.8-5.6
					c1.8-1.4,3.6-2.1,5.4-2.1c1.7,0,3.1,0.7,4.2,2.1c1.1,1.4,1.6,3.8,1.6,7.2v29.9h7.9v-31.1c0-5-1-8.9-3.1-11.6c-2.1-2.7-5.1-4-9-4
					c-2.5,0-4.8,0.7-6.9,2.2c-2.1,1.5-4.1,3.6-5.7,6.4c-1.7-5.7-5.5-8.6-11.2-8.6c-2.4,0-4.6,0.7-6.7,2.1c-2.1,1.4-3.9,3.3-5.6,5.9
					V234h-7.5v45.5H465.4z M444.3,219c0-2.9-1.7-4.3-5.2-4.3c-3.4,0-5.1,1.4-5.1,4.3v2.7c0,2.8,1.7,4.2,5.1,4.2
					c3.5,0,5.2-1.4,5.2-4.2V219z M443.1,234h-7.9v45.5h7.9V234z M425.3,279.6v-7h-24.3v-54.1h-7.9v61.1H425.3z"/>
			</g>
			<g>
				<path class="st1" d="M198.4,443.4c-2.7,0.6-6.9,1.2-10.5,1.2c-11.4,0-13.9-6.9-13.9-19.5c0-12.9,2.5-19.7,13.9-19.7
					c3.9,0,8.1,0.7,10.5,1.2l-0.2,3.6c-2.5-0.4-6.9-1-9.9-1c-8.5,0-10,5.1-10,15.9c0,10.6,1.4,15.7,10.1,15.7c3.1,0,7.2-0.5,9.8-1
					L198.4,443.4z"/>
				<path class="st1" d="M227.5,429.9c0,10-2.5,14.6-11.8,14.6c-9.2,0-11.8-4.6-11.8-14.6c0-9.5,3.1-14,11.8-14
					C224.4,416,227.5,420.5,227.5,429.9z M223.2,429.9c0-7.6-1.7-10.4-7.5-10.4c-5.8,0-7.5,2.8-7.5,10.4c0,7.8,1,11.1,7.5,11.1
					C222.2,441,223.2,437.8,223.2,429.9z"/>
				<path class="st1" d="M235.3,444v-27.5h4.1v1.9c0,0,4.1-2.5,8-2.5c3.7,0,5.7,0.8,7.2,2.8c0,0,4.9-2.8,9.8-2.8
					c7.5,0,9.3,3.6,9.3,13.5V444h-4.1v-14.4c0-7.3-0.8-10-5.8-10c-4.1,0-7.8,2-7.8,2c0.5,1.3,0.7,4.7,0.7,8V444h-4.1v-14.2
					c0-7.6-0.8-10.2-5.8-10.2c-3.9,0-7.4,2-7.4,2V444H235.3z"/>
				<path class="st1" d="M282.4,444v-27.5h4.1v1.9c0,0,4.1-2.5,8-2.5c3.7,0,5.7,0.8,7.2,2.8c0,0,4.9-2.8,9.8-2.8
					c7.5,0,9.3,3.6,9.3,13.5V444h-4.1v-14.4c0-7.3-0.8-10-5.8-10c-4.1,0-7.8,2-7.8,2c0.5,1.3,0.7,4.7,0.7,8V444h-4.1v-14.2
					c0-7.6-0.8-10.2-5.8-10.2c-3.9,0-7.4,2-7.4,2V444H282.4z"/>
				<path class="st1" d="M350.8,416.5V444h-4.1v-1.9c0,0-4.1,2.5-8.1,2.5c-7.7,0-9.3-3.6-9.3-13.7v-14.4h4.1v14.3
					c0,7.6,0.7,10.1,5.8,10.1c4.1,0,7.5-2,7.5-2v-22.3H350.8z"/>
				<path class="st1" d="M359.8,444v-27.5h4.1v1.9c0,0,4.5-2.5,8.5-2.5c7.6,0,9.3,3.7,9.3,13.5V444h-4.1v-14.4c0-7.3-0.8-10-5.9-10
					c-4,0-7.8,2-7.8,2V444H359.8z"/>
				<path class="st1" d="M409.9,438.9c0.1,1.6,1.4,2.2,3.2,2.4l-0.2,3.2c-2.9,0-4.9-0.6-6.5-2.2c0,0-5,2.2-9.9,2.2
					c-5,0-7.8-2.9-7.8-8.4c0-5.3,2.8-7.6,8.4-8.1l8.6-0.8v-2.4c0-3.9-1.7-5.2-5-5.2c-3.9,0-10.4,0.7-10.4,0.7l-0.2-3.1
					c0,0,6.1-1.2,10.8-1.2c6.2,0,8.9,2.9,8.9,8.9V438.9z M397.6,431.1c-3.4,0.3-4.7,1.9-4.7,5c0,3.2,1.4,5.1,4.2,5.1
					c4.1,0,8.6-1.7,8.6-1.7v-9.1L397.6,431.1z"/>
				<path class="st1" d="M440.4,416.5V444h-4.1v-1.9c0,0-4.1,2.5-8.1,2.5c-7.7,0-9.3-3.6-9.3-13.7v-14.4h4.1v14.3
					c0,7.6,0.7,10.1,5.8,10.1c4.1,0,7.5-2,7.5-2v-22.3H440.4z"/>
				<path class="st1" d="M455,420.1v13.2c0,6,0.4,7.7,4,7.7c1.5,0,4.9-0.3,4.9-0.3l0.3,3.4c0,0-3.7,0.6-5.6,0.6
					c-5.7,0-7.6-2.1-7.6-10.1v-14.5H447v-3.6h3.9v-8.4h4.1v8.4h8.7v3.6H455z"/>
				<path class="st1" d="M490.2,440.4l0.1,3.2c0,0-6.3,0.9-10.7,0.9c-8.2,0-10.9-4.8-10.9-14.1c0-10.5,4.5-14.5,11.5-14.5
					c7.3,0,11.1,3.9,11.1,12.9L491,432h-18.2c0,5.9,1.8,9,7.2,9C484.2,440.9,490.2,440.4,490.2,440.4z M487.1,428.7
					c0-6.8-2.1-9.2-6.9-9.2c-4.7,0-7.3,2.6-7.4,9.2H487.1z M485.8,403.3l1.4,3.5l-12.2,4.7l-1.2-2.8L485.8,403.3z"/>
				<path class="st1" d="M533.3,416.5V444h-4.1v-1.9c0,0-4.1,2.5-8.1,2.5c-7.7,0-9.3-3.6-9.3-13.7v-14.4h4.1v14.3
					c0,7.6,0.7,10.1,5.8,10.1c4.1,0,7.5-2,7.5-2v-22.3H533.3z"/>
				<path class="st1" d="M542.3,416.5h4.1v3.7c0,0,4.8-3.3,10.1-4.3v4.2c-5.2,1-10,3.7-10,3.7V444h-4.1V416.5z"/>
				<path class="st1" d="M584.6,429.8c0,11-3,14.7-13,14.7c-3.3,0-9.2-0.6-9.2-0.6v-39.5h4.1v13.4c0,0,4.2-1.9,8.1-1.9
					C582.1,416,584.6,419.9,584.6,429.8z M580.4,429.8c0-7.1-1.4-10.2-6.3-10.2c-3.8,0-7.6,1.6-7.6,1.6v19.4c0,0,3.6,0.3,5.1,0.3
					C579.1,440.9,580.4,437.5,580.4,429.8z"/>
				<path class="st1" d="M611.9,438.9c0.1,1.6,1.4,2.2,3.2,2.4l-0.2,3.2c-2.9,0-4.9-0.6-6.5-2.2c0,0-5,2.2-9.9,2.2
					c-5,0-7.8-2.9-7.8-8.4c0-5.3,2.8-7.6,8.4-8.1l8.6-0.8v-2.4c0-3.9-1.7-5.2-5-5.2c-3.9,0-10.4,0.7-10.4,0.7l-0.2-3.1
					c0,0,6.1-1.2,10.8-1.2c6.2,0,8.9,2.9,8.9,8.9V438.9z M599.6,431.1c-3.4,0.3-4.7,1.9-4.7,5c0,3.2,1.4,5.1,4.2,5.1
					c4.1,0,8.6-1.7,8.6-1.7v-9.1L599.6,431.1z"/>
				<path class="st1" d="M621.1,405.5h4.1v4.8h-4.1V405.5z M621.1,416.5h4.1V444h-4.1V416.5z"/>
				<path class="st1" d="M634.3,444v-27.5h4.1v1.9c0,0,4.5-2.5,8.5-2.5c7.6,0,9.3,3.7,9.3,13.5V444h-4.1v-14.4c0-7.3-0.8-10-5.9-10
					c-4,0-7.8,2-7.8,2V444H634.3z"/>
				<path class="st1" d="M685.2,440.4l0.1,3.2c0,0-6.3,0.9-10.7,0.9c-8.2,0-10.9-4.8-10.9-14.1c0-10.5,4.5-14.5,11.5-14.5
					c7.3,0,11.1,3.9,11.1,12.9l-0.2,3.1h-18.2c0,5.9,1.8,9,7.2,9C679.2,440.9,685.2,440.4,685.2,440.4z M682.2,428.7
					c0-6.8-2.1-9.2-6.9-9.2c-4.7,0-7.3,2.6-7.4,9.2H682.2z"/>
			</g>
		</g>
	</g>
</g>
</svg>
