<?xml version="1.0" encoding="utf-8"?>
<!-- Generator: Adobe Illustrator 26.0.1, SVG Export Plug-In . SVG Version: 6.00 Build 0)  -->
<svg version="1.1" id="Logo-Save-Au-Touch" xmlns="http://www.w3.org/2000/svg" xmlns:xlink="http://www.w3.org/1999/xlink" x="0px"
	 y="0px" viewBox="0 0 910.8 1300.5" style="enable-background:new 0 0 910.8 1300.5;" xml:space="preserve">
<style type="text/css">
	.Voûte _x002D__x0020_Vert{fill:url(#SVGID_1_);stroke:#FFFFFF;stroke-width:0.25;stroke-miterlimit:1;}
	.st0{fill:#FFFFFF;}
	.st1{fill:#004B95;}
	.st2{fill:#FFED00;}
	.st3{fill:#002156;}
	.st4{fill:#008563;}
</style>
<linearGradient id="SVGID_1_" gradientUnits="userSpaceOnUse" x1="-498.1918" y1="182.0291" x2="-497.4847" y2="181.322">
	<stop  offset="0" style="stop-color:#259E2E"/>
	<stop  offset="0.9831" style="stop-color:#1C381D"/>
</linearGradient>
<g>
	<rect class="st0" width="910.8" height="1300.5"/>
	<g>
		<rect x="25.3" y="22.8" class="st1" width="860.2" height="1254.9"/>
		<g>
			<path class="st2" d="M478.7,218.4c0,0,40.1-16.4,56.9-12.9c16.8,3.5,45.2,15.3,46.5,52.8c1.3,37.5,33.6,17.6,36.2,32.9
				c2.6,15.3,29.7,62.2-25.9,88c-55.6,25.8-16.8,43.4-16.8,43.4s29.7,18.8,135.8,35.2c0,0,45.3,17.6,47.9,56.3
				c2.6,38.7,15.5,31.7,22,36.4c6.5,4.7,53,75.1,32.3,115C792.9,705.3,758,793.3,683,768.7c-75-24.6-90.5-36.4-100.9-93.9
				c0,0-10.4-43.4-58.2-36.4c-47.9,7-59.5-19.9-66-62.2c-6.4-42.2-7.7-79.8-24.6-75.1c-16.8,4.7-72.4,29.3-85.4-15.2
				c0,0-9-30.5-3.9-55.1c5.2-24.6-40.1-30.5-72.4-31.7c-32.3-1.2-81.5-36.4-63.4-84.5c18.1-48.1,58.2-43.4,98.3-34
				c40.1,9.4,67.2,28.2,97,1.2C433.4,254.8,434.7,271.2,478.7,218.4z"/>
		</g>
		<g>
			<path class="st3" d="M94.9,1227.2c-4,0.3-16.3,1.8-16.3,8.6c0,7.7,15.5,10.1,30.4,10.1c14.9,0,30.4-2.4,30.4-10.1
				c0-5.5-8.1-7.7-18.5-8.7V1211c22.3,0,46.1,8.7,46.1,24.3c0,17.2-25.3,27-58,27c-34.9,0-58-10.6-58-27
				c0.2-14.6,16.1-22.7,43.9-24.1V1227.2z"/>
			<path class="st3" d="M51,1178.7c0-16.2,24.2-27,58-27c33.8,0,58,10.8,58,27c0,16.2-24.2,27-58,27
				C75.2,1205.7,51,1194.9,51,1178.7z M139.5,1178.7c0-4.2-5.8-10.6-30.4-10.6c-24.7,0-30.4,6.4-30.4,10.6c0,4.2,5.7,10.6,30.4,10.6
				C133.7,1189.3,139.5,1182.9,139.5,1178.7z"/>
			<path class="st3" d="M53.7,1144.8v-23.4l65.2-7.6v-0.1l-65.2-7.6v-23.4h110.8v15.5H93.4v0.1l71.1,9.2v12.3l-71.1,9.2v0.2h71.1
				v15.5H53.7z"/>
			<path class="st3" d="M53.7,1074.4V1051l65.2-7.6v-0.1l-65.2-7.6v-23.4h110.8v15.5H93.4v0.1l71.1,9.3v12.2l-71.1,9.2v0.1h71.1
				v15.5H53.7z"/>
			<path class="st3" d="M121.6,955.5c30.7,0,45.5,8,45.5,24.3c0,16.3-14.7,24.3-45.5,24.3h-68v-16.4H114c11.3,0,25.5,0,25.5-8
				c0-7.8-14.1-7.8-25.5-7.8H53.7v-16.4H121.6z"/>
			<path class="st3" d="M53.7,947.2v-16.8l59.3-15.5v-0.1H53.7v-15.5h110.8v16l-60.5,16.3v0.1h60.5v15.5H53.7z"/>
			<path class="st3" d="M53.7,875.8v-16l110.8-19.4v17l-15.8,2.2v17l15.8,2.4v16.5L53.7,875.8z M124.9,862.9l-34.1,4.8v0.2l34.1,5.2
				V862.9z"/>
			<path class="st3" d="M121.6,788.4c30.7,0,45.5,8,45.5,24.2c0,16.3-14.7,24.3-45.5,24.3h-68v-16.4H114c11.3,0,25.5,0,25.5-8
				c0-7.8-14.1-7.8-25.5-7.8H53.7v-16.4H121.6z"/>
			<path class="st3" d="M82.1,767.6v14.9H53.7v-46.3h28.4v14.9h82.4v16.4H82.1z"/>
			<path class="st3" d="M53.7,730.2v-44.1h28.4v27.7h13.8v-25.1h26.4v25.1h13.8v-28.5h28.4v44.9H53.7z"/>
			<path class="st3" d="M53.7,652.8v-26.9c0-17.8,27.3-24,55.2-24c34,0,55.6,8.6,55.6,27.2v23.7H53.7z M136.1,636.4v-6.4
				c0-10.2-17.2-11.7-27.6-11.7c-7,0-26.4,1-26.4,12.9v5.2H136.1z"/>
			<path class="st3" d="M53.7,594.7v-44.1h28.4v27.7h13.8v-25.1h26.4v25.1h13.8v-28.5h28.4v44.9H53.7z"/>
			<path class="st3" d="M94.9,483.7c-4,0.3-16.3,1.8-16.3,8.6c0,7.7,15.5,10.1,30.4,10.1c14.9,0,30.4-2.5,30.4-10.1
				c0-5.5-8.1-7.7-18.5-8.7v-16.1c22.3,0,46.1,8.7,46.1,24.3c0,17.2-25.3,27-58,27c-34.9,0-58-10.6-58-27
				c0.2-14.6,16.1-22.7,43.9-24.1V483.7z"/>
			<path class="st3" d="M51,435.2c0-16.2,24.2-27,58-27c33.8,0,58,10.8,58,27c0,16.2-24.2,27-58,27C75.2,462.2,51,451.4,51,435.2z
				 M139.5,435.2c0-4.2-5.8-10.6-30.4-10.6c-24.7,0-30.4,6.4-30.4,10.6c0,4.2,5.7,10.6,30.4,10.6
				C133.7,445.8,139.5,439.4,139.5,435.2z"/>
			<path class="st3" d="M53.7,401.3v-23.4l65.2-7.6v-0.2l-65.2-7.6v-23.4h110.8v15.5H93.4v0.1l71.1,9.2v12.3l-71.1,9.3v0.1h71.1
				v15.5H53.7z"/>
			<path class="st3" d="M53.7,330.9v-23.4l65.2-7.6v-0.1l-65.2-7.6v-23.4h110.8v15.5H93.4v0.1l71.1,9.3v12.2l-71.1,9.3v0.2h71.1
				v15.5H53.7z"/>
			<path class="st3" d="M121.6,212c30.7,0,45.5,8,45.5,24.3c0,16.3-14.7,24.3-45.5,24.3h-68v-16.4H114c11.3,0,25.5,0,25.5-8
				c0-7.8-14.1-7.8-25.5-7.8H53.7V212H121.6z"/>
			<path class="st3" d="M53.7,203.6v-16.8l59.3-15.5v-0.1H53.7v-15.5h110.8v16L103.9,188v0.1h60.5v15.5H53.7z"/>
			<path class="st3" d="M53.7,147.1V103h28.4v27.7h13.8v-25.1h26.4v25.1h13.8v-28.5h28.4v44.9H53.7z"/>
			<path class="st3" d="M127.2,81.5c2.8,0,5.3-0.2,7.3-0.6c6.7-1.2,8.1-4.8,8.1-7.8c0-2.7-1.9-6.8-10.1-6.8
				c-5.7,0-7.3,2.3-12.7,11.5c-5,8.4-9.8,18.1-32.1,18.1C62,95.8,51,85.3,51,74.3c0-11.6,9.2-21.8,36.2-22.3v15.5
				c-4.2-0.3-7,0.6-8.9,1.9c-2,1.3-2.8,3.2-2.8,4.8c0,2.2,1.2,5.9,7.5,5.9c7.9-0.3,9.6-7.9,14-15.4c4.3-7.5,11.6-15,32-15
				c28.9,0,38.2,12.8,38.2,24.6c0,6-4.5,23.3-39.9,23.4V81.5z"/>
		</g>
		<g>
			<path class="st2" d="M88.6,1221.5c-4,0.3-16.3,1.8-16.3,8.6c0,7.7,15.5,10.2,30.4,10.2c14.9,0,30.4-2.5,30.4-10.2
				c0-5.5-8.1-7.7-18.5-8.7v-16.1c22.4,0,46.1,8.7,46.1,24.3c0,17.2-25.3,27-58,27c-34.9,0-58-10.6-58-27
				c0.2-14.6,16.1-22.7,43.9-24.1V1221.5z"/>
			<path class="st2" d="M44.7,1173c0-16.2,24.2-27,58-27c33.8,0,58,10.8,58,27c0,16.2-24.2,27-58,27
				C68.9,1200,44.7,1189.2,44.7,1173z M133.1,1173c0-4.2-5.7-10.6-30.4-10.6c-24.7,0-30.4,6.4-30.4,10.6c0,4.2,5.7,10.6,30.4,10.6
				C127.4,1183.5,133.1,1177.1,133.1,1173z"/>
			<path class="st2" d="M47.3,1139.1v-23.4l65.2-7.6v-0.1l-65.2-7.6V1077h110.8v15.6H87.1v0.1l71.1,9.3v12.2l-71.1,9.2v0.1h71.1
				v15.5H47.3z"/>
			<path class="st2" d="M47.3,1068.7v-23.4l65.2-7.6v-0.2l-65.2-7.6v-23.4h110.8v15.5H87.1v0.1l71.1,9.3v12.2l-71.1,9.2v0.2h71.1
				v15.5H47.3z"/>
			<path class="st2" d="M115.3,949.8c30.7,0,45.5,8,45.5,24.3c0,16.3-14.7,24.3-45.5,24.3h-68v-16.4h60.4c11.3,0,25.5,0,25.5-8
				c0-7.7-14.1-7.7-25.5-7.7H47.3v-16.4H115.3z"/>
			<path class="st2" d="M47.3,941.4v-16.8l59.3-15.5V909H47.3v-15.6h110.8v16l-60.5,16.3v0.2h60.5v15.5H47.3z"/>
			<path class="st2" d="M47.3,870.1v-16l110.8-19.4v17l-15.8,2.2v17l15.8,2.4v16.5L47.3,870.1z M118.6,857.2l-34.1,4.7v0.2l34.1,5.2
				V857.2z"/>
			<path class="st2" d="M115.3,782.6c30.7,0,45.5,8,45.5,24.2c0,16.3-14.7,24.3-45.5,24.3h-68v-16.4h60.4c11.3,0,25.5,0,25.5-8
				c0-7.8-14.1-7.8-25.5-7.8H47.3v-16.4H115.3z"/>
			<path class="st2" d="M75.7,761.9v14.9H47.3v-46.3h28.4v14.9h82.4v16.4H75.7z"/>
			<path class="st2" d="M47.3,724.5v-44.1h28.4v27.7h13.8v-25.1h26.4v25.1h13.8v-28.5h28.4v44.9H47.3z"/>
			<path class="st2" d="M47.3,647v-26.9c0-17.8,27.3-24,55.2-24c34,0,55.6,8.7,55.6,27.3V647H47.3z M129.7,630.6v-6.4
				c0-10.2-17.2-11.7-27.6-11.7c-7,0-26.4,1-26.4,12.9v5.2H129.7z"/>
			<path class="st2" d="M47.3,589v-44.1h28.4v27.7h13.8v-25.1h26.4v25.1h13.8v-28.5h28.4V589H47.3z"/>
			<path class="st2" d="M88.6,477.9c-4,0.3-16.3,1.8-16.3,8.6c0,7.7,15.5,10.1,30.4,10.1c14.9,0,30.4-2.5,30.4-10.1
				c0-5.5-8.1-7.7-18.5-8.7v-16.1c22.4,0,46.1,8.7,46.1,24.3c0,17.2-25.3,27-58,27c-34.9,0-58-10.6-58-27
				c0.2-14.6,16.1-22.7,43.9-24.1V477.9z"/>
			<path class="st2" d="M44.7,429.4c0-16.2,24.2-27,58-27c33.8,0,58,10.8,58,27c0,16.2-24.2,27-58,27
				C68.9,456.5,44.7,445.6,44.7,429.4z M133.1,429.4c0-4.2-5.7-10.6-30.4-10.6c-24.7,0-30.4,6.4-30.4,10.6c0,4.2,5.7,10.6,30.4,10.6
				C127.4,440,133.1,433.6,133.1,429.4z"/>
			<path class="st2" d="M47.3,395.6v-23.4l65.2-7.6v-0.1l-65.2-7.6v-23.4h110.8V349H87.1v0.1l71.1,9.2v12.2l-71.1,9.3v0.2h71.1v15.5
				H47.3z"/>
			<path class="st2" d="M47.3,325.1v-23.4l65.2-7.6V294l-65.2-7.6V263h110.8v15.5H87.1v0.2l71.1,9.3v12.2l-71.1,9.2v0.1h71.1v15.5
				H47.3z"/>
			<path class="st2" d="M115.3,206.3c30.7,0,45.5,8,45.5,24.3c0,16.3-14.7,24.3-45.5,24.3h-68v-16.4h60.4c11.3,0,25.5,0,25.5-8
				c0-7.8-14.1-7.8-25.5-7.8H47.3v-16.4H115.3z"/>
			<path class="st2" d="M47.3,197.9v-16.8l59.3-15.5v-0.2H47.3v-15.5h110.8v16l-60.5,16.3v0.1h60.5v15.5H47.3z"/>
			<path class="st2" d="M47.3,141.3V97.2h28.4v27.7h13.8V99.8h26.4v25.1h13.8V96.4h28.4v44.9H47.3z"/>
			<path class="st2" d="M120.9,75.7c2.8,0,5.3-0.2,7.3-0.6c6.7-1.2,8.1-4.8,8.1-7.8c0-2.7-1.9-6.8-10.1-6.8
				c-5.7,0-7.3,2.3-12.7,11.5c-5,8.4-9.8,18-32.1,18c-25.6,0-36.6-10.5-36.6-21.5c0-11.6,9.2-21.8,36.2-22.2v15.5
				c-4.2-0.3-7,0.6-8.8,1.9c-2,1.4-2.8,3.2-2.8,4.9c0,2.2,1.2,5.9,7.4,5.9c7.9-0.3,9.6-7.9,14-15.4c4.3-7.5,11.6-15,32-15
				c28.9,0,38.2,12.8,38.2,24.6c0,6.1-4.5,23.3-39.9,23.5V75.7z"/>
		</g>
		<g>
			<g>
				<g>
					<path class="st3" d="M658,191.9c-0.1,0.1,2.8-0.8-1.6,0.9c-13.8,5.5-24.9,9.6-38.5,15.7c-0.3,0.2-0.6,0.4-0.9,0.6
						c-10.6,4.5-21.4,9.4-32.5,14.6c-20.2,9.8-40,20.3-59.2,31.5c0.5-0.2,0.8-0.3-1.1,0.8c-4,2.4-8.7,5.2-13.9,8.3
						c-5.1,3.2-10.7,6.6-16.3,10.2c-1.6,1.1-3.3,2.2-4.9,3.2c-1.2,0.9-1.5,1.1-1.7,1.3c-5.1,3.2-9.5,6.3-13.6,9.1
						c-6.8,4.6-13.3,9.5-19.9,14.3c-3.3,2.5-6.5,5-9.8,7.5c-1.6,1.3-3.3,2.5-4.9,3.8l-4.8,3.9c-12.9,10.3-25.5,21.2-37.8,32.7
						c-3.1,2.9-6.1,5.8-9.2,8.7c-3.1,2.9-6,6-9,9c-1.5,1.5-3,3-4.5,4.5c-1.5,1.6-2.9,3.1-4.4,4.7c-2.9,3.1-5.9,6.3-8.8,9.5
						c-5.7,6.5-11.6,13-17.1,19.8c-1.4,1.7-2.8,3.4-4.2,5.1l-2.1,2.6l-2,2.6c-2.7,3.5-5.5,7-8.2,10.6c-2.3,3-4.4,6.2-6.7,9.2
						c-1.1,1.5-2.2,3.1-3.3,4.6l-1.6,2.3c-0.5,0.8-1,1.6-1.6,2.3c-2.1,3.1-4.2,6.2-6.2,9.3c-1,1.5-2.1,3.1-3.1,4.6
						c-1,1.6-1.9,3.1-2.9,4.7c-1.4,2.3-2.9,4.7-4.5,7.1c-0.8,1.2-1.5,2.4-2.3,3.7c-0.7,1.3-1.5,2.5-2.2,3.8c-1.5,2.6-3,5.2-4.6,7.8
						c-1.5,2.6-3.1,5.3-4.5,8c-1.5,2.7-2.9,5.4-4.3,8.1c-0.7,1.3-1.4,2.7-2.1,4c-0.4,0.7-0.7,1.3-1.1,2c-0.3,0.7-0.7,1.3-1,2
						c-2.6,5.3-5.1,10.4-7.4,15.1c0.3-0.3,0.1,0.1-0.3,1.1c-0.4,1-1,2.6-1.8,4.5c-1.6,3.9-3.9,9.2-6,14.4
						c-3.9,10.4-7.5,20.1-5.3,15.4c-0.3,0.8-0.7,1.7-1,2.5c-0.3,0.9-0.6,1.8-1,2.7c-0.6,1.8-1.3,3.7-2,5.5
						c-1.3,3.7-2.7,7.5-3.9,10.9c-2.1,6.8-3.8,12.1-3.9,12.7c-0.1,0.8-0.4,2.1-0.9,4.1c-0.2,1-0.6,2.2-0.9,3.6
						c-0.3,1.4-0.7,3-1.2,4.9c-0.9,3.8-2.1,8.6-3.7,14.7c-0.7,3.1-1.4,6.5-2.2,10.2c-0.4,1.9-0.9,3.9-1.3,5.9
						c-0.4,2.1-1,4.2-1.4,6.5c-0.7,3.6-1.5,7.6-2.3,11.8c-0.4,2.1-0.8,4.2-1.2,6.2c-0.4,2.1-0.7,4.1-1,6.1
						c-1.3,7.9-2.4,14.7-2.7,17.3c-1.1,8,3.3-18.6,2.2-10.6c8.4-53.3,23.9-104.6,46.7-152.5c22.8-47.9,53-92.4,89.6-132.6
						c1.5-1.8,3.7-4.1,6.3-6.9c2.7-2.8,5.8-6.2,9.5-10c3.7-3.7,7.8-7.9,12.5-12.4c2.3-2.2,4.8-4.5,7.3-6.9c1.3-1.2,2.5-2.4,3.9-3.6
						c1.3-1.2,2.7-2.4,4.1-3.7c2.8-2.5,5.6-5,8.5-7.6c2.9-2.6,6-5.1,9.2-7.8c1.6-1.3,3.2-2.7,4.7-4c1.6-1.3,3.3-2.6,4.9-4
						c3.3-2.7,6.7-5.4,10.2-8.1c13.9-10.8,29-21.6,44.7-32c31.3-20.8,65-39.5,94.7-54c29.7-14.5,55.4-25.1,70.3-30.9
						c1.8-0.7,3.6-1.4,5.4-2.1c16.3-6.3,34.6-12.9,52.4-18.8c17.8-5.9,35.1-11.1,49.4-15.2c13.1-3.8,26.5-7.4,39.8-10.7
						c-6.3,1.4-12.1,2.7-17.1,3.9c13.6-3.5,27.3-6.5,32.6-7.8c14.6-3.3,17.8-4,15.8-3.8c-1.9,0.2-8.9,1.5-14.6,2.5
						c-8.1,1.6,2.7-1.1-10,1.5c9.1-2,13.7-3,22.9-4.9c0.5-0.2-6.6,1.3-12.9,2.7c-6.4,1.4-12.1,2.7-9,1.8c8.8-1.9,18.7-4.1,27.9-5.9
						c-1.6,0.2-9.6,1.7-16.9,3.3c-7.4,1.6-14.1,3.1-13.5,2.8c2.5-0.6,8.9-2,15-3.2c6.1-1.2,11.7-2.4,12.6-2.7
						c0.3-0.1-8.9,1.7-13.4,2.7c14.1-3.1,25.1-5.2,29.3-6c4.2-0.8,1.6-0.6-11.4,1.7c9-1.7,21.7-3.9,31.4-5.2c0,0-0.1,0-0.1,0
						c-4.8,0.6-13.1,1.9-17.5,2.7c5.4-0.9,10.8-1.8,16.3-2.6c-0.9,0.1-1.8,0.2-2.9,0.3c-4.1,0.6-8.2,1.2-12.4,1.9
						c3.6-0.6,7.2-1.2,10.8-1.8c-2.7,0.3-5.8,0.7-9.3,1.2c-12.9,2-25.1,4.2-32,5.7C765.9,155.2,711,171.5,658,191.9z"/>
				</g>
			</g>
		</g>
		<g>
			<g>
				<g>
					<path class="st3" d="M244.6,438.7c0.2,0-1.6-2.6,1.3,1.4c8.9,12.6,16.2,22.6,26.2,34.3c0.3,0.2,0.6,0.5,0.9,0.7
						c1.9,2.3,3.8,4.6,5.8,6.9c2,2.3,4.1,4.6,6.1,6.9c1,1.2,2.1,2.3,3.1,3.5c1.1,1.1,2.1,2.3,3.2,3.4c2.1,2.3,4.3,4.6,6.5,6.9
						c16.3,16.7,33.6,32.3,51.6,46.8c-0.4-0.4-0.6-0.6,1.2,0.8c3.8,3,8.3,6.5,13.2,10.4c5,3.7,10.4,7.9,15.9,11.9
						c1.7,1.2,3.3,2.3,5,3.5c1.3,0.9,1.7,1.1,1.9,1.2c2.5,1.8,4.9,3.5,7.2,5.1c2.3,1.6,4.5,3.1,6.7,4.5c28.2,18.8,57.6,36,88.8,51.7
						c31.1,15.8,63.8,30.5,98.3,44.1c3.7,1.4,7.3,2.9,11,4.3c3.7,1.4,7.3,2.7,11,4.1c3.7,1.3,7.3,2.7,10.9,4c1.8,0.7,3.6,1.3,5.4,2
						c1.8,0.6,3.6,1.3,5.4,1.9c5.3,1.9,10.9,3.9,16.8,5.9c1.5,0.5,2.9,1,4.4,1.6c1.5,0.5,3,1,4.5,1.5c3,1,6,2,9,3c3,1,6,2,9,3
						c1.5,0.5,3,1,4.4,1.5c1.5,0.5,2.9,0.9,4.4,1.4c5.8,1.8,11.4,3.6,16.7,5.3c-3.1-1.3,48.1,13.3,38.1,9.8
						c14,3.9,35.1,9.7,36.3,9.7c1.7,0.2,5.3,0.8,13.2,2.6c3.9,0.9,8.9,2.1,15.3,3.5c6.4,1.4,14.1,3.2,23.6,5.3
						c7.4,1.8,16.7,3.8,24.9,5.7c8.2,1.8,15.1,3.4,17.7,3.9c8.2,1.6-19.1-4.6-10.8-3c-6.9-1.5-13.7-3.1-20.5-4.6
						c-6.8-1.5-13.6-3.2-20.4-4.8c-3.4-0.8-6.8-1.6-10.2-2.4l-5.1-1.2l-5-1.3c-6.7-1.7-13.4-3.5-20.2-5.2
						c-6.7-1.7-13.4-3.6-20.1-5.4c-6.7-1.8-13.3-3.6-20-5.5c-6.6-1.9-13.3-3.9-19.9-5.8c-3.3-1-6.6-1.9-9.9-3l-9.9-3.1
						c-26.4-8.1-52.5-17.1-78.6-26.8c-26.1-9.6-51.9-20.3-77.7-32c-2.2-1-5.2-2.3-8.9-4c-3.7-1.6-8-3.8-12.9-6.1
						c-4.9-2.4-10.5-4.9-16.4-8c-3-1.5-6.1-3.1-9.3-4.7c-3.2-1.6-6.6-3.3-9.9-5.1c-3.4-1.8-6.9-3.7-10.5-5.6c-1.8-1-3.6-1.9-5.4-2.9
						c-1.8-1-3.6-2.1-5.5-3.1c-3.7-2.1-7.5-4.2-11.3-6.4c-1.9-1.1-3.8-2.2-5.8-3.4c-1.9-1.2-3.9-2.3-5.8-3.5c-2-1.2-3.9-2.4-5.9-3.5
						c-1-0.6-2-1.2-3-1.8c-1-0.6-2-1.2-3-1.9c-4-2.5-7.9-5-12-7.6c-2-1.3-4-2.6-6-3.9c-2-1.3-4-2.7-6-4c-2-1.3-4-2.7-6-4
						c-2-1.4-4-2.8-6-4.2c-16-11.1-31.6-23.2-46.3-35.4c-14.6-12.3-28.4-24.7-40.4-37c-12-12.2-22.6-23.9-31.2-34.3
						c-2.2-2.6-4.2-5.2-6.1-7.6c-1.9-2.4-3.8-4.7-5.4-6.9c-3.3-4.5-6.3-8.3-8.7-11.8c-1.2-1.6-2.3-3.3-3.5-4.9
						c-0.7-0.9-1.3-1.9-2-2.8c-0.6-1-1.3-1.9-1.9-2.9c-1.3-1.9-2.6-3.9-3.9-5.9c-1.3-2-2.6-4-3.8-6c-1.3-2-2.5-4.1-3.8-6.1
						c-1.2-2.1-2.5-4.2-3.7-6.3c-1.2-2.1-2.5-4.2-3.6-6.4c-2.3-4.3-4.7-8.6-6.9-12.9c-4.5-8.6-8.4-17.3-12-25.5
						c-1.7-4.2-3.4-8.2-4.9-12.1c-0.7-2-1.5-3.9-2.2-5.8c-0.7-1.9-1.3-3.8-2-5.6c-2.4-6.6-4.4-13.4-6.4-20.2
						c-1.9-6.9-3.7-13.8-5.1-20.7c0.3,1.6,0.6,3.2,0.9,4.8c0.3,1.6,0.7,3.1,1,4.6c0.6,3,1.3,5.8,1.9,8.3c-0.4-1.8-0.9-3.5-1.3-5.3
						c-0.4-1.8-0.8-3.5-1.2-5.2c-0.8-3.4-1.4-6.7-2-9.7c-0.6-3-1.1-5.8-1.5-8.1c-0.4-2.3-0.7-4.3-0.9-5.6c-1.2-7.6-1.7-12.3-2-14.8
						c-0.3-2.5-0.4-2.8-0.4-1.8c0,2,0.6,9.4,1.2,15.3c0.6,4.3,0.3,3.5,0.2,3.4c-0.1-0.1-0.1,0,0,1c0.1,0.9,0.3,2.7,0.8,6
						c-0.2-1.2-0.4-2.3-0.6-3.4c-0.2-1.1-0.3-2.1-0.5-3.1c-0.3-2-0.6-3.8-0.8-5.6c-0.5-3.6-0.9-7.2-1.4-12.1
						c-0.2-0.5,0.6,6.9,1.5,13.6c0.5,3.4,1,6.5,1.3,8.5c0.3,1.9,0.4,2.6,0,0.9c-1.5-9.2-3-19.6-3.6-29.3c0,1.7,0.6,10.1,1.6,17.9
						c0.2,1.9,0.5,3.8,0.8,5.6c0.3,1.7,0.5,3.3,0.7,4.7c0.4,2.6,0.7,4.2,0.6,3.9c-0.5-2.6-1.6-9.3-2.3-15.7
						c-0.4-3.2-0.7-6.3-0.9-8.7c-0.2-2.4-0.4-4.1-0.5-4.6c0-0.2,0.1,2.2,0.4,5.1c0.3,3,0.7,6.6,1,9c-2-14.9-2.3-26.5-2.5-31
						c-0.1-2.2-0.1-2.7-0.2-0.8c-0.1,1.8-0.1,6,0.2,12.8c-0.3-4.8-0.5-10.5-0.4-16.3c0.1-5.8,0.4-11.7,1-16.8c0,0,0,0.1,0,0.1
						c-0.4,2.6-0.6,6-0.8,9.4c-0.2,3.4-0.3,6.7-0.2,9c0-5.7,0.2-11.5,0.9-17.2c-0.1,0.9-0.3,1.9-0.4,3c-0.4,4.3-0.6,8.6-0.6,13.1
						c0-3.8,0.2-7.6,0.4-11.4c-0.3,2.8-0.6,6.1-0.7,9.7c-0.4,13.6,0.5,26.6,1.4,33.9c1.7,14.7,4.6,29.3,8.4,43.7
						c3.8,14.3,8.6,28.4,14.1,42.2C213.4,388.2,227.9,414.3,244.6,438.7z"/>
				</g>
			</g>
		</g>
		<g>
			<path class="st2" d="M339,988.4l2.2,2.9c-7.3,5.6-12.7,9.3-16.2,11.1c-4.9,2.5-8.7,3.8-11.6,3.8c-1.3,0-2.4-0.3-3.2-1
				c-0.8-0.7-1.2-1.4-1.2-2.3c0-0.9,0.3-2.2,0.9-4.2l2.8-9c-6.5,6.4-11.9,10.8-16.2,13c-4.3,2.3-8.2,3.4-11.7,3.4
				c-2.9,0-5.3-1.2-7.2-3.4c-2-2.3-2.9-5.7-2.9-10.1c0-7,2.6-15.1,7.9-24.1c5.3-9.1,11.1-15.8,17.6-20.2c6.5-4.4,12.4-6.5,17.7-6.5
				c1.2,0,3,0.2,5.4,0.5c2.6-9.6,5-16.6,7.3-21c2.3-4.4,5.4-8.2,9-11.4c3.7-3.2,7.9-5.7,12.7-7.4c4.8-1.8,9.2-2.6,13.3-2.6
				c2.2,0,3.9,0.5,5.2,1.6c1.3,1.1,1.9,2.4,1.9,4c0,1.6-0.6,2.8-1.8,3.8c-1.2,1-2.8,1.5-4.9,1.5c-1.4,0-3.9-0.2-7.6-0.7
				c-3.7-0.4-6.3-0.7-7.6-0.7c-1.9,0-3.6,0.5-5,1.6c-1.5,1-2.8,3.3-4.1,6.7c-0.9,2.2-2.9,9.3-5.9,21.2l-11.5,44.6
				c-1.4,5.3-2,8.8-2,10.5c0,1.8,0.8,2.8,2.4,2.8c1,0,2.1-0.3,3.4-0.9C330,994.7,333.6,992.3,339,988.4z M321.6,950.4
				c-4.3-0.9-7.4-1.3-9.2-1.3c-3.6,0-7.2,1.3-10.7,3.9c-3.5,2.6-6.8,7.6-10.1,15.1c-3.2,7.5-4.9,14-4.9,19.5c0,2.5,0.8,4.6,2.2,6.2
				c1.5,1.6,3.2,2.4,5.1,2.4c2.3,0,4.9-0.9,7.8-2.7c4.2-2.7,7.5-6,10-10c1.5-2.5,3.4-8.5,6-18.1L321.6,950.4z"/>
			<path class="st2" d="M390.1,985.1l2.7,3.3c-13.3,11.5-24.7,17.2-34.2,17.2c-3.9,0-6.8-1.2-8.8-3.6c-2-2.3-3.1-6.1-3.1-11.3
				c0-10.5,3.5-21,10.6-31.4c7.9-11.8,17.4-17.7,28.4-17.7c3.9,0,6.8,0.9,8.8,2.6c2,1.7,3.1,4.1,3.1,7.2c0,3.2-1.2,6.3-3.7,9.4
				c-2.4,3.1-6.8,6.3-13.2,9.7c-3.2,1.6-9.9,4.5-20.3,8.8c-0.5,2.6-0.7,5.1-0.7,7.6c0,3.5,0.6,5.9,1.8,7.3c1.2,1.4,3,2.1,5.4,2.1
				c2.2,0,4.7-0.6,7.3-1.7C377.9,992.9,383.1,989.8,390.1,985.1z M361.4,974.4c8.7-3.5,15.2-7.3,19.6-11.3c3-2.8,4.5-5.6,4.5-8.4
				c0-2.1-0.6-3.7-1.8-5c-1.2-1.2-2.8-1.9-4.7-1.9c-2,0-3.9,0.7-5.8,2.1c-2.5,1.8-4.7,4.5-6.4,8.2
				C364.2,963.3,362.5,968.8,361.4,974.4z"/>
			<path class="st2" d="M470.5,986l2.8,2.6c-4.2,4.3-9.2,8.3-15,11.8c-5.8,3.6-10.6,5.3-14.3,5.3c-1.7,0-3.1-0.6-4.2-1.7
				c-1.1-1.2-1.6-2.8-1.6-4.8c0-3.9,1.7-12.1,5-24.5l8.8-32.5c3.2-11.7,5.9-19.6,8-23.6c3.4-6,8.2-10.7,14.3-14
				c6.2-3.3,12.6-5,19.5-5c2.3,0,4.2,0.5,5.5,1.6c1.3,1,2,2.3,2,3.7c0,1.6-0.6,2.9-1.9,4c-1.3,1-3.1,1.6-5.6,1.6
				c-1.6,0-3.9-0.3-6.8-0.7c-2.6-0.4-4.9-0.6-7.1-0.6c-2.2,0-3.9,0.4-5,1.2c-1.6,1.2-3,3.6-4.2,7.4c-1.3,3.8-3.3,11.2-6.1,22.2
				l-8.3,31c-4,15.5-6,23.6-6,24.3c0,1.6,0.6,2.4,1.9,2.4s3-0.7,5.2-1.9C461.6,993.3,466,990,470.5,986z"/>
			<path class="st2" d="M529.9,940.4l5.6-1l-6.2,18.7c-2.5,7.4-4.8,16-7,25.7c-1.2,5.3-1.8,8.7-1.8,10.2c0,1.6,0.7,2.3,2.1,2.3
				c0.8,0,2.2-0.5,4.1-1.5c3.3-1.8,6.5-4,9.6-6.6l2.6,2.9c-6.2,5-10.2,8.1-11.9,9.2c-3.4,2.1-6.8,3.7-10,4.8c-2.1,0.7-4.1,1-6,1
				c-1.4,0-2.5-0.3-3.2-0.9c-0.7-0.6-1.1-1.4-1.1-2.6c0-0.7,0.2-1.7,0.7-3l3.3-9.9c-4.7,5.1-10.2,9.4-16.6,13
				c-4,2.3-7.6,3.4-10.9,3.4c-3.1,0-5.5-1-7.2-3c-2.3-2.7-3.4-6.3-3.4-10.7c0-5.2,1.5-11,4.6-17.4c3-6.4,7.2-12.2,12.3-17.4
				c5.2-5.2,10.6-9.1,16.3-11.6c4.4-1.8,10-2.8,16.9-2.8c1.7,0,3.5,0.1,5.3,0.3L529.9,940.4z M519.8,952c-2.9-0.5-5.4-0.8-7.4-0.8
				c-4.9,0-9.2,1.2-12.8,3.6c-3.7,2.4-7,6.8-10.2,13.1c-3.1,6.3-4.7,12.6-4.7,18.9c0,3.3,0.6,5.8,1.9,7.2c1.2,1.5,2.9,2.2,4.9,2.2
				c3.8,0,7.8-1.8,12.1-5.5c4.3-3.7,7.5-8.9,9.5-15.8L519.8,952z"/>
			<path class="st2" d="M646.2,943.8H642c0.6-5.2,0.9-9.1,0.9-11.7c0-3.8-1.1-6.8-3.4-9c-2.2-2.2-5.3-3.3-9.1-3.3
				c-5.9,0-11.1,1.9-15.5,5.9c-4.4,3.9-6.6,8.3-6.6,13.2c0,2.6,0.6,5,1.8,7.1c1.2,2.2,3.9,5.1,8,8.9c7.6,6.8,12.6,12.1,15,16
				c2.4,3.8,3.6,7.6,3.6,11.2c0,5.4-1.8,10.6-5.4,15.6c-3.6,5-8.9,9.1-16,12.3c-7,3.2-14.4,4.8-22.2,4.8c-7.7,0-14.2-1.8-19.5-5.5
				c-5.3-3.7-7.9-7.5-7.9-11.6c0-2.2,0.7-4,2-5.4c1.4-1.4,3-2.2,4.7-2.2c1.8,0,3.4,0.7,4.5,2c0.8,0.8,1.5,2.6,2.3,5.4
				c0.8,3.4,1.9,5.8,3.2,7.3c1.3,1.5,3,2.7,5.2,3.7c2.2,1,4.6,1.4,7.2,1.4c7.8,0,14.5-2.4,20.4-7.1c5.8-4.8,8.7-10,8.7-15.8
				c0-2-0.4-3.9-1.1-5.9c-0.7-1.9-2.1-4.1-4-6.6c-1.4-1.7-4.3-4.6-9-8.9c-4.6-4.1-7.5-7-8.6-8.5c-1.7-2.2-2.9-4.4-3.7-6.7
				c-0.8-2.3-1.2-4.5-1.2-6.7c0-4.5,1.6-9,4.9-13.5c3.3-4.6,7.6-8.2,12.9-10.8c5.3-2.7,11.3-4,18-4c3.4,0,7.5,0.5,12.4,1.4
				c2.8,0.5,5.3,0.9,7.3,1.1c-1.2,3.2-2.2,6.2-2.8,9C648.3,929.7,647.4,935.3,646.2,943.8z"/>
			<path class="st2" d="M706.8,940.4l5.6-1l-6.2,18.7c-2.4,7.4-4.8,16-7,25.7c-1.2,5.3-1.8,8.7-1.8,10.2c0,1.6,0.7,2.3,2,2.3
				c0.9,0,2.2-0.5,4.1-1.5c3.4-1.8,6.6-4,9.6-6.6l2.6,2.9c-6.2,5-10.2,8.1-11.9,9.2c-3.5,2.1-6.8,3.7-10,4.8c-2.1,0.7-4.1,1-6,1
				c-1.4,0-2.5-0.3-3.2-0.9c-0.7-0.6-1.1-1.4-1.1-2.6c0-0.7,0.2-1.7,0.6-3l3.3-9.9c-4.6,5.1-10.2,9.4-16.6,13
				c-3.9,2.3-7.6,3.4-10.9,3.4c-3.2,0-5.6-1-7.2-3c-2.3-2.7-3.4-6.3-3.4-10.7c0-5.2,1.6-11,4.6-17.4c3-6.4,7.2-12.2,12.3-17.4
				c5.1-5.2,10.6-9.1,16.3-11.6c4.4-1.8,10-2.8,16.9-2.8c1.7,0,3.5,0.1,5.3,0.3L706.8,940.4z M696.7,952c-2.9-0.5-5.4-0.8-7.4-0.8
				c-4.9,0-9.2,1.2-12.8,3.6c-3.6,2.4-7,6.8-10.2,13.1c-3.1,6.3-4.7,12.6-4.7,18.9c0,3.3,0.6,5.8,1.9,7.2c1.2,1.5,2.9,2.2,4.9,2.2
				c3.8,0,7.8-1.8,12.1-5.5c4.3-3.7,7.4-8.9,9.5-15.8L696.7,952z"/>
			<path class="st2" d="M757,948.6c-4.2,6.1-7.1,11.5-8.6,16.1c-1.6,4.7-2.4,9.3-2.4,13.9c0,4.2,1,10.9,3.1,19.9
				c11.9-8.3,20.4-16,25.3-23.3c5-7.2,7.5-13.5,7.5-18.7c0-1.5-0.6-3.5-1.9-5.8c-1.3-2.5-2-4.3-2-5.5c0-1.3,0.5-2.4,1.5-3.4
				c1-1,2.1-1.4,3.5-1.4c1.8,0,3.2,0.7,4.3,2.1c1.1,1.4,1.6,3.8,1.6,7.1c0,10.5-4.1,20.8-12.2,30.7c-10,12.2-22.7,21.7-38.1,28.3
				c-0.4-2.3-1.1-6-2.3-11.1c-2.2-10.2-3.4-17.3-3.4-21.3c0-5.3,1.4-10.4,4.1-15.4c2.8-5,6.8-9.3,12.1-12.9
				c-9.6,0.1-16.5,1.1-20.7,2.9c-3,1.3-4.4,2.8-4.4,4.5c0,0.7,0.4,1.8,1.2,3.5c0.5,1.1,0.8,2.1,0.8,2.9c0,0.8-0.4,1.5-1.1,2.1
				c-0.8,0.6-1.7,0.9-2.8,0.9c-1.4,0-2.7-0.5-3.6-1.6c-1-1.1-1.5-2.5-1.5-4.3c0-2.9,1.1-5.5,3.2-7.8c2.1-2.3,5.8-4.2,11.1-5.5
				c5.2-1.3,12.2-1.9,20.8-1.8c3.4-1.3,5.6-2,6.6-2c0.9,0,1.7,0.3,2.3,0.9c0.7,0.6,1.1,1.3,1.1,2C761.9,946.1,760.3,947.4,757,948.6
				z"/>
			<path class="st2" d="M832.9,985.1l2.7,3.3c-13.3,11.5-24.7,17.2-34.2,17.2c-3.9,0-6.8-1.2-8.9-3.6c-2-2.3-3.1-6.1-3.1-11.3
				c0-10.5,3.5-21,10.6-31.4c7.9-11.8,17.4-17.7,28.4-17.7c3.9,0,6.8,0.9,8.8,2.6c2.1,1.7,3.1,4.1,3.1,7.2c0,3.2-1.2,6.3-3.7,9.4
				c-2.4,3.1-6.8,6.3-13.1,9.7c-3.2,1.6-9.9,4.5-20.3,8.8c-0.5,2.6-0.8,5.1-0.8,7.6c0,3.5,0.6,5.9,1.9,7.3c1.2,1.4,3,2.1,5.3,2.1
				c2.2,0,4.7-0.6,7.4-1.7C820.8,992.9,826,989.8,832.9,985.1z M804.3,974.4c8.7-3.5,15.2-7.3,19.6-11.3c3-2.8,4.5-5.6,4.5-8.4
				c0-2.1-0.6-3.7-1.8-5c-1.2-1.2-2.8-1.9-4.7-1.9c-2,0-4,0.7-5.8,2.1c-2.5,1.8-4.7,4.5-6.4,8.2
				C807.1,963.3,805.3,968.8,804.3,974.4z"/>
			<path class="st2" d="M331.8,1114.6l5.6-1l-6.2,18.7c-2.5,7.4-4.8,16-7,25.7c-1.2,5.3-1.8,8.6-1.8,10.2c0,1.6,0.7,2.4,2,2.4
				c0.9,0,2.2-0.5,4.1-1.5c3.3-1.8,6.5-4,9.6-6.6l2.6,2.9c-6.2,5-10.2,8.1-11.9,9.2c-3.5,2.2-6.8,3.7-10,4.7c-2.1,0.7-4.1,1-6,1
				c-1.4,0-2.5-0.3-3.2-0.9c-0.7-0.6-1.1-1.4-1.1-2.6c0-0.7,0.2-1.7,0.7-3l3.3-9.9c-4.7,5-10.2,9.4-16.6,13c-4,2.2-7.6,3.4-10.9,3.4
				c-3.1,0-5.6-1-7.2-3c-2.3-2.7-3.4-6.2-3.4-10.6c0-5.2,1.6-11,4.6-17.5c3.1-6.4,7.2-12.2,12.3-17.5c5.2-5.2,10.6-9.1,16.3-11.5
				c4.4-1.9,10-2.8,16.9-2.8c1.7,0,3.5,0.1,5.3,0.3L331.8,1114.6z M321.7,1126.3c-2.9-0.5-5.4-0.8-7.4-0.8c-4.9,0-9.2,1.2-12.8,3.6
				c-3.6,2.4-7,6.8-10.2,13.1c-3.1,6.3-4.7,12.6-4.7,18.9c0,3.3,0.6,5.7,1.9,7.2c1.2,1.5,2.9,2.2,4.9,2.2c3.8,0,7.8-1.8,12.1-5.5
				c4.3-3.7,7.5-8.9,9.5-15.8L321.7,1126.3z"/>
			<path class="st2" d="M399,1117.8h11.8l-7.7,25.9c-4.5,15.1-6.8,23.6-6.8,25.7c0,0.9,0.3,1.6,0.7,2.1c0.5,0.5,1,0.7,1.6,0.7
				c0.9,0,2-0.4,3.2-1.1c1.8-1.1,5.2-3.9,10.2-8.4l2.7,2.6c-10.8,10.3-18.7,15.4-23.8,15.4c-1.7,0-3.2-0.6-4.4-1.8
				c-1.2-1.2-1.8-2.9-1.8-5.1c0-2.6,0.5-6,1.5-10.3c-4.8,5-10.8,9.4-17.9,13.2c-4.7,2.5-8.8,3.8-12.3,3.8c-1.9,0-3.4-0.6-4.5-1.7
				c-1.1-1.1-1.6-2.9-1.6-5.4c0-1.9,0.2-4,0.7-6.2c0.7-3.1,2.5-9.4,5.3-18.8c3.6-11.9,5.4-19.1,5.4-21.4c0-1.4-0.5-2.1-1.6-2.1
				c-1,0-2.3,0.5-4,1.4c-1.7,0.9-4.6,3.2-8.7,6.7l-3.6-2.6c7.3-6,12.8-9.9,16.7-11.7c3.8-1.9,6.9-2.8,9.2-2.8c1.3,0,2.4,0.4,3.2,1.3
				c0.8,0.8,1.2,2.2,1.2,4c0,3.4-1.9,11.8-5.8,25.1c-3.4,12-5.1,18.9-5.1,20.5c0,1.1,0.4,1.9,1.1,2.7c0.7,0.7,1.5,1.1,2.4,1.1
				c3,0,7.3-2.3,12.9-6.8c5.6-4.6,9.2-9.7,11-15.5L399,1117.8z"/>
			<path class="st2" d="M519.7,1173.9l-1.2,4.2c-3.7,0.7-6.8,1.1-9.2,1.1c-2.3,0-6-0.2-11.3-0.7c-3.9-0.3-7.5-0.4-10.6-0.4
				c-5.4,0-11,0.4-16.7,1.3l1.1-3.9c5.5-0.5,9.5-1.6,12-3.1c1.8-1.1,3.3-3.1,4.6-5.8c1.3-2.7,4.1-12.3,8.6-28.7l10.4-38.9l0.6-1.8
				c-3.2-0.2-5.6-0.2-7.2-0.2c-10,0-18,1-23.9,2.9c-5.9,2-10.3,4.8-13.2,8.5c-3,3.7-4.4,7.7-4.4,12c0,1.5,0.3,2.9,0.9,4.2
				c0.4,0.9,1.6,2.3,3.6,4.2c1.8,1.8,2.8,3.5,2.8,5c0,1.3-0.5,2.4-1.6,3.4c-1.1,0.9-2.4,1.4-3.9,1.4c-2.3,0-4.2-1-5.6-2.9
				c-2.1-2.9-3.1-6.6-3.1-11.1c0-6,2.1-11.8,6.1-17.5c4.1-5.7,9.7-10,16.9-13.1c7.2-3.1,15.9-4.7,26.1-4.7c4.9,0,12.7,0.7,23.4,2
				c7.6,1,13.1,1.6,16.5,1.6c3.4,0,5.8-0.5,7.2-1.6c1.4-1.1,2.2-2.5,2.2-4.2c0-0.4-0.1-1.1-0.3-2.1c-0.2-1-0.2-1.6-0.2-1.9
				c0-1.3,0.5-2.5,1.5-3.4c1-0.9,2.2-1.4,3.5-1.4c1.6,0,3,0.6,4.1,1.6c1.1,1.1,1.6,2.5,1.6,4.4c0,3.8-2.2,7-6.6,9.7
				c-4.4,2.7-11.8,4.1-22.1,4.1c-3.7,0-7.7-0.1-11.8-0.2c-0.5,1.8-2.2,7.7-5.1,18l-7.1,25.5l-4.3,15.5l-4.5,17.8
				c3.6,0.4,6.6,0.7,9,0.7C511.9,1175.2,515.7,1174.8,519.7,1173.9z"/>
			<path class="st2" d="M574.5,1115.8c5.3,0,9.7,1.9,13.2,5.8c3.5,3.9,5.3,9.2,5.3,16.1c0,11-4.2,20.8-12.7,29.5
				c-8.4,8.7-17.4,13.1-26.7,13.1c-5.8,0-10.5-1.7-14-5.2c-3.5-3.4-5.3-8.2-5.3-14.1c0-10.4,3.2-20,9.7-28.8
				C552.2,1121.3,562.4,1115.8,574.5,1115.8z M567.7,1121.3c-4.6,0-9,3-13.3,9.1c-4.3,6-6.4,14.4-6.4,25c0,6.5,1.3,11.6,4,15.3
				c1.9,2.7,4.5,4.1,7.7,4.1c4.6,0,8.7-2.6,12.4-7.7c4.7-6.7,7.1-15,7.1-25c0-7.5-1.1-12.8-3.3-16
				C573.7,1122.9,571,1121.3,567.7,1121.3z"/>
			<path class="st2" d="M653.8,1117.8h11.8l-7.8,25.9c-4.5,15.1-6.8,23.6-6.8,25.7c0,0.9,0.2,1.6,0.7,2.1c0.5,0.5,1,0.7,1.6,0.7
				c0.9,0,2-0.4,3.3-1.1c1.8-1.1,5.1-3.9,10.2-8.4l2.7,2.6c-10.8,10.3-18.8,15.4-23.9,15.4c-1.7,0-3.2-0.6-4.4-1.8
				c-1.2-1.2-1.8-2.9-1.8-5.1c0-2.6,0.5-6,1.5-10.3c-4.8,5-10.8,9.4-17.9,13.2c-4.7,2.5-8.8,3.8-12.3,3.8c-1.9,0-3.4-0.6-4.5-1.7
				c-1.1-1.1-1.6-2.9-1.6-5.4c0-1.9,0.2-4,0.7-6.2c0.7-3.1,2.5-9.4,5.3-18.8c3.6-11.9,5.4-19.1,5.4-21.4c0-1.4-0.6-2.1-1.6-2.1
				c-1,0-2.3,0.5-4,1.4c-1.7,0.9-4.6,3.2-8.7,6.7l-3.6-2.6c7.3-6,12.8-9.9,16.6-11.7c3.8-1.9,6.9-2.8,9.3-2.8c1.3,0,2.4,0.4,3.2,1.3
				c0.8,0.8,1.2,2.2,1.2,4c0,3.4-1.9,11.8-5.8,25.1c-3.4,12-5.1,18.9-5.1,20.5c0,1.1,0.4,1.9,1.1,2.7c0.8,0.7,1.6,1.1,2.4,1.1
				c3,0,7.3-2.3,12.9-6.8c5.6-4.6,9.2-9.7,11-15.5L653.8,1117.8z"/>
			<path class="st2" d="M718.3,1162l1.9,4.2c-13,9.3-24,13.9-33,13.9c-4.7,0-8.2-1.5-10.4-4.6c-2.2-3.1-3.2-6.9-3.2-11.6
				c0-7.8,2.3-15.8,6.9-24c4.6-8.2,10.1-14.5,16.6-18.9c5.1-3.4,10.9-5.1,17.3-5.1c4,0,7.1,0.7,9.1,2.1c2.1,1.4,3.1,3,3.1,5
				c0,1.5-0.6,2.8-1.7,3.8c-1.1,1-2.6,1.5-4.6,1.5c-1.9,0-4.4-0.8-7.4-2.3c-3.1-1.7-5.7-2.5-7.8-2.5c-2.7,0-5.3,1.1-8,3.3
				c-2.7,2.2-5.2,6.4-7.6,12.7c-2.4,6.3-3.6,12.6-3.6,18.9c0,4.7,1,8.3,3,10.8c1.5,2,3.6,2.9,6.2,2.9
				C701.9,1171.9,709.5,1168.6,718.3,1162z"/>
			<path class="st2" d="M793.4,1162.4l1.9,2.6c-5,5-10.1,9-15.4,11.9c-3.6,2-6.5,3-8.9,3c-1.9,0-3.4-0.7-4.6-2
				c-1.2-1.4-1.8-3.5-1.8-6.4c0-2,0.5-4.8,1.4-8.6c0.9-3.8,3.5-11.9,7.7-24.3c1.8-6.1,2.8-9.7,2.8-10.7c0-1.7-0.9-2.5-2.8-2.5
				c-2.3,0-5.2,1-8.6,3.1c-4.8,2.9-9,6.5-12.7,11c-2.3,2.8-4.2,7.1-5.6,12.7l-6.4,25.8h-12.1c2.6-8.6,4.6-15.7,6-21.1l11.9-47.4
				c2.2-8.8,5-15.5,8.6-20.2c3.5-4.7,8.2-8.5,14-11.3c5.7-2.8,11.4-4.2,17.1-4.2c2.3,0,4.2,0.5,5.6,1.6c1.4,1.1,2.1,2.4,2.1,4
				c0,1.4-0.7,2.6-2,3.6c-1.4,1-3.2,1.5-5.5,1.5c-1.3,0-3-0.1-5.1-0.4c-4.7-0.6-8-0.9-9.8-0.9c-2.5,0-4.6,0.9-6.1,2.7
				c-1.6,1.8-3.2,6.1-4.9,12.8l-9,36.5c6.5-6.2,13.5-11.4,21.2-15.7c4.5-2.5,8.1-3.8,10.8-3.8c2.1,0,3.8,0.6,5,1.7
				c1.2,1.2,1.8,2.8,1.8,4.8c0,1.7-0.2,3.4-0.7,5c-0.7,2.9-2.4,8.2-5,15.8c-3.6,10.6-5.7,17.1-6.3,19.7c-0.6,2.5-0.9,4.8-0.9,6.9
				c0,0.8,0.1,1.3,0.5,1.7c0.3,0.4,0.7,0.6,1.3,0.6c1.3,0,3.7-1.4,7.3-4.2C788.1,1166.3,790.6,1164.5,793.4,1162.4z"/>
		</g>
		<g>
			<g>
				<g>
					<path class="st4" d="M608.2,313.2c-16.2,9.6-34,20.3-51.5,31.7c-17.5,11.4-34.6,23.5-49.4,35.4c-17.7,14.2-35.7,29.6-52.9,45.8
						c-17.2,16.2-33.7,33.2-48.4,50.3c-0.4-0.3,1.5-3.7-1.1-1c-5.2,5.5-8,8.1-9.5,9.3c-1.5,1.2-1.9,0.9-2.3,0.6
						c-0.2-0.1,1.6-2.4,3.1-4.2c1.5-1.8,2.8-3.2,1.4-2c1.8-2.2,4-4.7,6.1-7.2c2.1-2.4,4-4.9,5.6-6.6c3.1-3.6,4.3-5.1,0.2-1.1
						c-0.7,0.6-1.9,1.8-3.3,3.3c-1.3,1.5-2.9,3.3-4.5,5.1c-3.1,3.6-6.3,7.2-7.8,8.4c-1.5,1.3-1.2,0.3-0.8-0.7c0.3-1,0.7-1.9-0.8-0.7
						c-2.4,3-7.2,9-9.6,11.9c-2.8,2.7,1.3-3.9-1.1-0.9c-1.9,2.1-3.8,4.6-5.9,7.2c-2,2.6-4.1,5.4-6.3,8.3c-0.5,0.7-1.1,1.4-1.6,2.2
						c-0.5,0.7-1,1.5-1.6,2.3c-1.1,1.5-2.1,3.1-3.2,4.6c-2.1,3.1-4.3,6.3-6.5,9.4c-0.2-0.1-0.9,0.5-1.1,0.4c-0.2-0.1,0.2-1,2.3-4.2
						c2.4-3.5,4.8-6.9,7.2-10.4l1.8-2.6l1.9-2.5l3.8-5.1l3.8-5.1l1.9-2.5l2-2.5c2.6-3.3,5.3-6.6,7.9-9.9c2.6-3.4,5.4-6.5,8.2-9.8
						l4.1-4.8c1.4-1.6,2.7-3.2,4.2-4.8c2.9-3.1,5.7-6.3,8.6-9.4l2.1-2.4l2.2-2.3l4.4-4.6l4.4-4.6l2.2-2.3l2.3-2.2l9.1-8.9
						c3-3,6.2-5.8,9.3-8.8l4.7-4.4c1.6-1.5,3.2-2.8,4.8-4.3l9.6-8.5l9.8-8.2c3.2-2.8,6.6-5.4,9.9-8.1c3.3-2.7,6.6-5.4,10-8l10.1-7.8
						l10.3-7.6c3.4-2.6,6.9-5,10.4-7.4c3.5-2.5,6.9-4.9,10.5-7.3c14-9.6,28.4-18.8,42.9-27.5c29.1-17.4,59.1-33.3,90-46.7
						c3.6-1.5,5.6-2.2,6.6-2.5c0.9-0.2,0.6,0.1-0.5,0.7c-2.1,1.3-7.3,3.9-12.4,6.6c3.4-1.8,3.7-1.1,7.1-2.9c0.3,0.7-6.3,4.8-20,11.6
						c3.5-1.6,6.9-3.3,10.4-4.9c3.6-1.4,0.3,0.7,0.5,1.1c-3.5,1.6-6.9,3.2-6.8,3.4c0.1,0.2,0.3,0.7,0.4,0.9
						c3.4-1.6,10.4-4.8,13.8-6.4c-3.5,1.5-6.9,3.1-6.8,3.4c0.1,0.2,0.3,0.7,0.4,0.9c-6.8,3.4-17.3,7.9-24,11.6l0.3,0.7
						c6.9-3.2,17-8.4,23.9-11.6c-3.4,1.8-3.2,2-3,2.5c-10.2,5-20.7,9.5-30.5,15.4l10.1-5.2c-3.1,2.3-9,5.3-15.3,8.6
						c-3.2,1.6-6.4,3.3-9.5,5C613.6,310.2,610.6,311.8,608.2,313.2z"/>
				</g>
			</g>
		</g>
	</g>
</g>
</svg>
