<?xml version="1.0" encoding="utf-8"?>
<!-- Generator: Adobe Illustrator 26.0.1, SVG Export Plug-In . SVG Version: 6.00 Build 0)  -->
<svg version="1.1" id="Logo-Courthezon" xmlns="http://www.w3.org/2000/svg" xmlns:xlink="http://www.w3.org/1999/xlink" x="0px"
	 y="0px" viewBox="0 0 255 110.7" style="enable-background:new 0 0 255 110.7;" xml:space="preserve">
<style type="text/css">
	.st0{fill:#575756;}
	.st1{fill-rule:evenodd;clip-rule:evenodd;fill:#878787;}
	.st2{fill-rule:evenodd;clip-rule:evenodd;fill:url(#SVGID_1_);}
	.st3{fill:url(#SVGID_00000041261283444150322040000012947853103286711474_);}
	.st4{fill:url(#SVGID_00000153664448769399708270000001756124427802998950_);}
	.st5{fill:#0666B0;}
</style>
<g>
	<g>
		<path class="st0" d="M106.6,76.1c-0.4,0.5-1,0.7-1.8,0.7c-0.5,0-0.9-0.1-1.3-0.3c-0.4-0.2-0.8-0.5-1.1-0.9l0.4-0.6
			c0.3,0.3,0.6,0.6,0.9,0.8c0.3,0.2,0.7,0.3,1,0.3c0.5,0,0.9-0.2,1.2-0.5c0.3-0.3,0.4-0.8,0.4-1.3v-5.3h-3.1V68h4v6.1
			C107.2,75,107,75.6,106.6,76.1z"/>
		<path class="st0" d="M114.4,71.1c0.5,0.6,0.8,1.5,0.7,2.6h-5.4c0.1,0.7,0.3,1.3,0.8,1.7c0.5,0.4,1,0.6,1.7,0.6
			c0.4,0,0.8-0.1,1.2-0.2c0.4-0.1,0.7-0.4,0.9-0.6l0.5,0.5c-0.3,0.3-0.7,0.6-1.1,0.8c-0.4,0.2-0.9,0.3-1.5,0.3
			c-0.6,0-1.2-0.1-1.7-0.4c-0.5-0.3-0.9-0.7-1.1-1.2c-0.3-0.5-0.4-1.1-0.4-1.7c0-0.6,0.1-1.2,0.4-1.7c0.3-0.5,0.7-0.9,1.1-1.2
			c0.5-0.3,1-0.4,1.7-0.4C113.1,70.2,113.9,70.5,114.4,71.1z M114.4,73.1c0-0.7-0.3-1.2-0.7-1.6c-0.4-0.4-0.9-0.6-1.6-0.6
			c-0.7,0-1.2,0.2-1.6,0.6c-0.4,0.4-0.7,0.9-0.8,1.6H114.4z"/>
		<path class="st0" d="M122.5,70.2v6.5h-0.8v-1.6c-0.2,0.5-0.5,0.9-1,1.2c-0.4,0.3-0.9,0.4-1.5,0.4c-0.8,0-1.4-0.2-1.8-0.7
			c-0.4-0.5-0.7-1.1-0.7-1.9v-4h0.8V74c0,0.6,0.2,1.1,0.5,1.4c0.3,0.3,0.8,0.5,1.4,0.5c0.7,0,1.2-0.2,1.6-0.7
			c0.4-0.5,0.6-1.1,0.6-1.8v-3.2H122.5z"/>
		<path class="st0" d="M130.2,70.9c0.4,0.5,0.7,1.1,0.7,1.9v4H130v-3.8c0-0.6-0.2-1.1-0.5-1.4c-0.3-0.3-0.8-0.5-1.4-0.5
			c-0.7,0-1.2,0.2-1.6,0.6c-0.4,0.4-0.6,1-0.7,1.6v3.5h-0.8v-6.5h0.8v1.5c0.2-0.5,0.6-0.9,1-1.1c0.4-0.3,1-0.4,1.6-0.4
			C129.1,70.2,129.7,70.4,130.2,70.9z"/>
		<path class="st0" d="M137.9,71.1c0.5,0.6,0.8,1.5,0.7,2.6h-5.4c0.1,0.7,0.3,1.3,0.8,1.7c0.5,0.4,1,0.6,1.7,0.6
			c0.4,0,0.8-0.1,1.2-0.2c0.4-0.1,0.7-0.4,0.9-0.6l0.5,0.5c-0.3,0.3-0.7,0.6-1.1,0.8c-0.4,0.2-0.9,0.3-1.5,0.3
			c-0.6,0-1.2-0.1-1.7-0.4c-0.5-0.3-0.9-0.7-1.2-1.2c-0.3-0.5-0.4-1.1-0.4-1.7c0-0.6,0.1-1.2,0.4-1.7c0.3-0.5,0.7-0.9,1.2-1.2
			c0.5-0.3,1-0.4,1.7-0.4C136.6,70.2,137.4,70.5,137.9,71.1z M137.9,73.1c0-0.7-0.3-1.2-0.7-1.6c-0.4-0.4-0.9-0.6-1.6-0.6
			c-0.7,0-1.2,0.2-1.6,0.6c-0.4,0.4-0.7,0.9-0.8,1.6H137.9z"/>
		<path class="st0" d="M142.9,71c-0.3-0.1-0.6-0.1-0.9-0.1c-0.4,0-0.7,0.1-1,0.2c-0.3,0.2-0.4,0.4-0.4,0.7c0,0.2,0.1,0.4,0.2,0.5
			c0.1,0.1,0.3,0.3,0.5,0.3c0.2,0.1,0.5,0.2,0.9,0.3c0.4,0.1,0.8,0.3,1.1,0.4c0.3,0.1,0.5,0.3,0.7,0.6c0.2,0.2,0.3,0.6,0.3,1
			c0,0.6-0.2,1-0.7,1.3c-0.4,0.3-1,0.5-1.7,0.5c-0.5,0-0.9-0.1-1.4-0.2c-0.4-0.2-0.8-0.4-1.1-0.7l0.3-0.6c0.3,0.3,0.6,0.5,1,0.6
			c0.4,0.1,0.8,0.2,1.2,0.2c0.4,0,0.8-0.1,1.1-0.3c0.3-0.2,0.4-0.4,0.4-0.8c0-0.2-0.1-0.4-0.2-0.6c-0.1-0.2-0.3-0.3-0.5-0.4
			c-0.2-0.1-0.5-0.2-0.9-0.3c-0.4-0.1-0.8-0.3-1.1-0.4c-0.3-0.1-0.5-0.3-0.7-0.5c-0.2-0.2-0.3-0.5-0.3-0.9c0-0.6,0.2-1,0.6-1.3
			c0.4-0.3,1-0.4,1.6-0.4c0.4,0,0.7,0,1.1,0.1c0.3,0.1,0.7,0.2,0.9,0.4l-0.3,0.6C143.5,71.2,143.2,71.1,142.9,71z"/>
		<path class="st0" d="M148.5,71c-0.3-0.1-0.6-0.1-0.9-0.1c-0.4,0-0.7,0.1-1,0.2c-0.3,0.2-0.4,0.4-0.4,0.7c0,0.2,0.1,0.4,0.2,0.5
			c0.1,0.1,0.3,0.3,0.5,0.3c0.2,0.1,0.5,0.2,0.9,0.3c0.4,0.1,0.8,0.3,1.1,0.4c0.3,0.1,0.5,0.3,0.7,0.6c0.2,0.2,0.3,0.6,0.3,1
			c0,0.6-0.2,1-0.7,1.3c-0.4,0.3-1,0.5-1.7,0.5c-0.5,0-0.9-0.1-1.4-0.2c-0.4-0.2-0.8-0.4-1.1-0.7l0.3-0.6c0.3,0.3,0.6,0.5,1,0.6
			c0.4,0.1,0.8,0.2,1.2,0.2c0.4,0,0.8-0.1,1.1-0.3c0.3-0.2,0.4-0.4,0.4-0.8c0-0.2-0.1-0.4-0.2-0.6c-0.1-0.2-0.3-0.3-0.5-0.4
			c-0.2-0.1-0.5-0.2-0.9-0.3c-0.4-0.1-0.8-0.3-1.1-0.4c-0.3-0.1-0.5-0.3-0.7-0.5c-0.2-0.2-0.3-0.5-0.3-0.9c0-0.6,0.2-1,0.6-1.3
			c0.4-0.3,1-0.4,1.6-0.4c0.4,0,0.7,0,1.1,0.1c0.3,0.1,0.7,0.2,0.9,0.4l-0.3,0.6C149.1,71.2,148.8,71.1,148.5,71z"/>
		<path class="st0" d="M156.4,71.1c0.5,0.6,0.8,1.5,0.7,2.6h-5.4c0.1,0.7,0.3,1.3,0.8,1.7c0.5,0.4,1,0.6,1.7,0.6
			c0.4,0,0.8-0.1,1.2-0.2c0.4-0.1,0.7-0.4,0.9-0.6l0.5,0.5c-0.3,0.3-0.7,0.6-1.1,0.8c-0.4,0.2-0.9,0.3-1.5,0.3
			c-0.6,0-1.2-0.1-1.7-0.4c-0.5-0.3-0.9-0.7-1.2-1.2c-0.3-0.5-0.4-1.1-0.4-1.7c0-0.6,0.1-1.2,0.4-1.7c0.3-0.5,0.7-0.9,1.2-1.2
			c0.5-0.3,1-0.4,1.7-0.4C155.1,70.2,155.8,70.5,156.4,71.1z M156.4,73.1c0-0.7-0.3-1.2-0.7-1.6c-0.4-0.4-0.9-0.6-1.6-0.6
			c-0.7,0-1.2,0.2-1.6,0.6c-0.4,0.4-0.7,0.9-0.8,1.6H156.4z"/>
		<path class="st0" d="M168.5,76.8c-0.4-0.4-0.9-0.9-1.5-1.5c-0.4,0.4-0.8,0.8-1.3,1c-0.5,0.2-0.9,0.4-1.4,0.4
			c-0.5,0-0.9-0.1-1.3-0.3c-0.4-0.2-0.7-0.5-0.9-0.9c-0.2-0.4-0.3-0.8-0.3-1.2c0-0.6,0.2-1,0.5-1.4c0.4-0.4,0.8-0.7,1.5-1.1
			c-0.3-0.4-0.5-0.8-0.7-1.1c-0.2-0.3-0.2-0.7-0.2-1c0-0.3,0.1-0.7,0.3-0.9c0.2-0.3,0.4-0.5,0.7-0.7c0.3-0.2,0.7-0.2,1.1-0.2
			c0.6,0,1.1,0.2,1.4,0.5c0.4,0.3,0.5,0.7,0.5,1.2c0,0.4-0.1,0.7-0.3,1c-0.2,0.3-0.4,0.5-0.7,0.7c-0.3,0.2-0.7,0.4-1.2,0.7
			c0.4,0.5,1.2,1.3,2.2,2.3c0.3-0.5,0.6-1.1,0.9-1.7l0.6,0.4c-0.3,0.7-0.6,1.3-1,1.8l1.5,1.5L168.5,76.8z M166.6,74.9
			c-1.1-1.1-1.9-2-2.4-2.5c-0.5,0.3-0.9,0.6-1.2,0.9c-0.3,0.3-0.4,0.7-0.4,1.1c0,0.5,0.2,0.9,0.5,1.3c0.4,0.3,0.8,0.5,1.3,0.5
			C165.1,76.1,165.9,75.7,166.6,74.9z M164.3,71.6c0.4-0.2,0.7-0.4,1-0.6c0.3-0.2,0.5-0.4,0.6-0.6c0.2-0.2,0.2-0.5,0.2-0.8
			c0-0.3-0.1-0.6-0.3-0.8c-0.2-0.2-0.5-0.3-0.9-0.3c-0.4,0-0.8,0.1-1,0.4c-0.3,0.2-0.4,0.5-0.4,0.9
			C163.6,70.3,163.8,70.9,164.3,71.6z"/>
		<path class="st0" d="M179.5,68.8c0.6,0.5,0.9,1.2,0.9,2.1c0,1-0.3,1.7-0.9,2.2c-0.6,0.5-1.4,0.8-2.5,0.8h-2.3v2.8h-0.9V68h3.2
			C178.1,68,179,68.3,179.5,68.8z M178.9,72.6c0.5-0.4,0.7-0.9,0.7-1.6c0-0.7-0.2-1.2-0.7-1.6c-0.4-0.4-1.1-0.5-1.9-0.5h-2.3v4.3
			h2.3C177.8,73.1,178.5,72.9,178.9,72.6z"/>
		<path class="st0" d="M186.1,76.7l0-1.1c-0.3,0.4-0.6,0.7-1,0.9c-0.4,0.2-0.9,0.3-1.4,0.3c-0.4,0-0.8-0.1-1.2-0.3
			c-0.3-0.2-0.6-0.4-0.8-0.7c-0.2-0.3-0.3-0.6-0.3-1c0-0.6,0.2-1,0.7-1.3c0.4-0.3,1-0.5,1.8-0.5h2.2v-0.5c0-0.5-0.2-0.9-0.5-1.2
			c-0.3-0.3-0.8-0.4-1.3-0.4c-0.7,0-1.4,0.3-2.1,0.8l-0.4-0.6c0.4-0.3,0.9-0.5,1.3-0.7c0.4-0.1,0.9-0.2,1.4-0.2
			c0.8,0,1.4,0.2,1.8,0.6c0.4,0.4,0.7,0.9,0.7,1.6l0,4.3H186.1z M185.3,75.7c0.4-0.3,0.7-0.6,0.8-1.1v-0.9H184c-0.6,0-1,0.1-1.3,0.3
			c-0.3,0.2-0.4,0.5-0.4,0.9c0,0.4,0.1,0.7,0.4,0.9c0.3,0.2,0.7,0.4,1.1,0.4C184.4,76.1,184.9,75.9,185.3,75.7z"/>
		<path class="st0" d="M192.4,76.3c-0.4,0.3-0.9,0.5-1.4,0.5c-0.5,0-0.9-0.2-1.2-0.5c-0.3-0.3-0.4-0.8-0.4-1.4V71h-0.9l0-0.6h0.9
			v-1.7h0.8v1.7l2.1,0V71h-2.1v3.7c0,0.8,0.3,1.2,0.9,1.2c0.3,0,0.7-0.1,1.1-0.3L192.4,76.3z"/>
		<path class="st0" d="M195.7,70.6c0.4-0.3,0.9-0.4,1.4-0.4V71c-0.7,0-1.2,0.2-1.7,0.6c-0.4,0.4-0.7,1-0.7,1.7v3.5h-0.8v-6.5h0.8
			v1.5C195,71.2,195.3,70.8,195.7,70.6z"/>
		<path class="st0" d="M199.3,67.9c0.1,0.1,0.2,0.3,0.2,0.4c0,0.2-0.1,0.3-0.2,0.4c-0.1,0.1-0.2,0.2-0.4,0.2c-0.2,0-0.3-0.1-0.4-0.2
			c-0.1-0.1-0.2-0.3-0.2-0.4c0-0.2,0.1-0.3,0.2-0.4c0.1-0.1,0.3-0.2,0.4-0.2C199,67.7,199.2,67.8,199.3,67.9z M198.5,70.2h0.8v6.5
			h-0.8V70.2z"/>
		<path class="st0" d="M211.8,70.8c0.4,0.4,0.6,1.1,0.6,1.9v4h-0.8v-3.8c0-0.6-0.2-1.1-0.5-1.4c-0.3-0.3-0.8-0.5-1.4-0.5
			c-0.7,0-1.2,0.3-1.6,0.7c-0.4,0.5-0.6,1.1-0.6,1.8v3.2h-0.8v-3.8c0-0.6-0.2-1.1-0.5-1.4c-0.3-0.3-0.8-0.5-1.4-0.5
			c-0.7,0-1.2,0.3-1.6,0.7c-0.4,0.5-0.6,1.1-0.6,1.8v3.2h-0.8v-6.5h0.8v1.5c0.2-0.5,0.5-0.9,1-1.2c0.4-0.3,0.9-0.4,1.6-0.4
			c0.6,0,1.1,0.2,1.5,0.5c0.4,0.3,0.7,0.7,0.8,1.3c0.2-0.6,0.5-1,1-1.3c0.4-0.3,1-0.4,1.6-0.4C210.8,70.2,211.4,70.4,211.8,70.8z"/>
		<path class="st0" d="M219,70.6c0.5,0.3,0.9,0.7,1.2,1.2c0.3,0.5,0.4,1.1,0.4,1.7c0,0.6-0.1,1.2-0.4,1.7c-0.3,0.5-0.7,0.9-1.2,1.2
			c-0.5,0.3-1.1,0.4-1.7,0.4c-0.6,0-1.2-0.1-1.7-0.4c-0.5-0.3-0.9-0.7-1.2-1.2c-0.3-0.5-0.4-1.1-0.4-1.7c0-0.6,0.1-1.2,0.4-1.7
			c0.3-0.5,0.7-0.9,1.2-1.2c0.5-0.3,1.1-0.4,1.7-0.4C217.9,70.2,218.5,70.3,219,70.6z M216,71.2c-0.4,0.2-0.7,0.5-0.9,0.9
			c-0.2,0.4-0.3,0.8-0.3,1.3c0,0.5,0.1,1,0.3,1.3c0.2,0.4,0.5,0.7,0.9,0.9c0.4,0.2,0.8,0.3,1.3,0.3c0.5,0,0.9-0.1,1.3-0.3
			c0.4-0.2,0.7-0.5,0.9-0.9c0.2-0.4,0.3-0.8,0.3-1.3c0-0.5-0.1-0.9-0.3-1.3c-0.2-0.4-0.5-0.7-0.9-0.9c-0.4-0.2-0.8-0.3-1.3-0.3
			C216.8,70.9,216.4,71,216,71.2z"/>
		<path class="st0" d="M223.2,67.9c0.1,0.1,0.2,0.3,0.2,0.4c0,0.2-0.1,0.3-0.2,0.4c-0.1,0.1-0.2,0.2-0.4,0.2c-0.2,0-0.3-0.1-0.4-0.2
			c-0.1-0.1-0.2-0.3-0.2-0.4c0-0.2,0.1-0.3,0.2-0.4c0.1-0.1,0.3-0.2,0.4-0.2C222.9,67.7,223.1,67.8,223.2,67.9z M222.4,70.2h0.8v6.5
			h-0.8V70.2z"/>
		<path class="st0" d="M230.9,70.9c0.4,0.5,0.7,1.1,0.7,1.9v4h-0.8v-3.8c0-0.6-0.2-1.1-0.5-1.4c-0.3-0.3-0.8-0.5-1.4-0.5
			c-0.7,0-1.2,0.2-1.6,0.6c-0.4,0.4-0.6,1-0.7,1.6v3.5h-0.8v-6.5h0.8v1.5c0.2-0.5,0.6-0.9,1-1.1c0.4-0.3,1-0.4,1.6-0.4
			C229.8,70.2,230.4,70.4,230.9,70.9z"/>
		<path class="st0" d="M238.6,71.1c0.5,0.6,0.8,1.5,0.7,2.6h-5.4c0.1,0.7,0.3,1.3,0.8,1.7c0.5,0.4,1,0.6,1.7,0.6
			c0.4,0,0.8-0.1,1.2-0.2c0.4-0.1,0.7-0.4,0.9-0.6l0.5,0.5c-0.3,0.3-0.7,0.6-1.1,0.8c-0.4,0.2-0.9,0.3-1.5,0.3
			c-0.6,0-1.2-0.1-1.7-0.4c-0.5-0.3-0.9-0.7-1.2-1.2c-0.3-0.5-0.4-1.1-0.4-1.7c0-0.6,0.1-1.2,0.4-1.7c0.3-0.5,0.7-0.9,1.2-1.2
			c0.5-0.3,1-0.4,1.7-0.4C237.3,70.2,238.1,70.5,238.6,71.1z M238.6,73.1c0-0.7-0.3-1.2-0.7-1.6c-0.4-0.4-0.9-0.6-1.6-0.6
			c-0.7,0-1.2,0.2-1.6,0.6c-0.4,0.4-0.7,0.9-0.8,1.6H238.6z"/>
	</g>
	<g>
		<g>
			<path class="st1" d="M236.4,38.3c-0.1-0.1-0.2-0.2-0.3-0.2c0,0,0,0,0,0c-0.1-0.1-0.3,0-0.5,0c-0.4,0-0.4-0.7-0.4-1
				c0-0.1-0.3-0.6,0-1c0-0.5-0.4-0.6-0.7-0.8c0.1-0.1,0.2-0.2,0.4-0.3c-0.3-0.6,0.2-1.5-0.4-1.9c-0.7-0.3-1.2,0-1.6,0.4
				c-0.1,0.3,0.2,0.9-0.1,1c0.2,0.2,0.2,0.5,0.4,0.7c0,0.3-0.2,0.4-0.3,0.6c0,0-0.1,0.2-0.1,0.2c-0.3,0.4-0.5,0.7-1,0.8
				c0,0-0.2-0.2-0.2-0.2c-0.2-0.2-0.2-0.5-0.3-0.8c0-0.2-0.2-0.5-0.2-0.7c-0.1-0.5-0.2-0.7-0.6-1.1c-0.2-0.2-0.4-0.5-0.7-0.7
				c-0.2-0.1-0.6-0.2-0.6-0.5c0-0.3,0.3-0.4,0.3-0.8c0.1-0.5-0.1-1-0.2-1.5c-0.5-0.2-1-0.2-1.5,0c-0.1,0.1-0.1,0.4-0.3,0.5
				c-0.1,0.8,0.1,1.5,0.5,1.8c0,0-0.7,0.3-0.7,0.3c-0.4,0.2-0.5,0.6-0.8,0.9c-0.2,0.3-0.5,1.3-1,1.3c-0.1,0-0.2-0.1-0.3-0.1
				c-0.1,0-0.2,0-0.4,0c0,0-0.1,0.1-0.1,0.2c0,0.8,0.9,0.1,1.3,0.2c0,0,0.4-0.3,0.5-0.4c0-0.1,0.1-0.1,0.1-0.2
				c0-0.1,0.1-0.1,0.1-0.1c0-0.1,0.1-0.2,0.2-0.2c0.2,0,0.2,0.1,0.2,0.3c0,0,0,0,0,0.1c0,0.1,0,0.2-0.1,0.3c0,0.2-0.1,0.4-0.2,0.6
				c0,0.6,0,1.2,0,1.8c-0.1,0.5-0.5,0.7-0.7,1.1c0.2,0.5,0.2,1,0,1.5c-0.2,0.5-1,0.5-1.3,0.8c-0.1,0.3,0.3,0.4,0.5,0.4
				c0.4,0.2,0.5,0.5,1,0.4c0.1-0.8,0.3-1.4,0.7-2c0.4,0.3,0.4,1,0.7,1.5c0.2,0.2-0.1,0.4-0.3,0.5c-0.1,0.1-0.6,0.5-0.4,0.7
				c0.1,0.1,0.5,0.1,0.6,0c0.3-0.1,0.5-0.4,0.8-0.4c0.8-0.2-0.2-0.8-0.3-1.2c-0.1-0.2,0-0.6,0-0.8c0-0.5-0.2-1-0.2-1.1
				c0.1-0.5,0.4-0.5,0.7-0.8c0.2-0.2,0.3-0.5,0.5-0.7c0.1-0.1,0.1-0.1,0.1-0.3c0-0.2,0-0.4,0-0.6c0-0.2-0.2-0.8,0-0.9
				c0-0.2,0.1-0.3,0.2-0.4c0,0,0,0,0,0c0,0,0-0.1,0-0.1c0-0.1,0.1-0.2,0.3-0.2c0.4,0,0.4,0.4,0.6,0.7c0.3,0.4,0.4,0.7,0.3,1.2
				c0.1,0.1,0.1,0.2,0.2,0.3c0,0,0.1,0,0.1,0c0.1-0.1,0.2-0.1,0.3,0c0,0,0,0,0.1,0c0,0,0.1,0,0.1,0c0.2-0.1,0.5-0.2,0.7-0.3
				c0,0,0.1,0,0.1,0c0.1-0.1,0.1-0.1,0.2-0.2c0,0,0.4,0,0.4,0c-0.1,0.6,0.3,0.9,0,1.4c-0.5,0.6-1,1.2-1.1,2.2c0.3,0,0.6,0.2,0.8,0.3
				c0.3,0.2,0.2,0.7,0.5,1c0,0,0,0,0,0.1c0,0,0,0,0,0c0,0.3-0.4,0.5-0.8,0.5v0.2c0.4,0.2,1.3,0.1,1.6,0c0-0.7-0.5-0.9-0.4-1.8
				c0-0.1,0.7-0.2,0.8-0.1c0.5,0.2,0.7,0.7,0.8,1.2c0.1,0.3,0.1,0.7,0,1c0,0.6,0.5,0.2,0.8,0.2c-0.1-0.2,0-0.5,0-0.8
				c0,0,0-0.1,0-0.1c0-0.1-0.1-0.1-0.1-0.2c0,0,0,0,0-0.1c0,0,0,0,0,0c0-0.2-0.1-0.3-0.1-0.5c0-0.1-0.2-0.7-0.2-0.7
				c0.1-0.2,0.2-0.4,0.5-0.4c0-0.3-0.2-0.4-0.3-0.7c0.1-0.4,0.6-0.3,0.8-0.5C236.9,38.6,236.5,38.4,236.4,38.3z"/>
			<path class="st1" d="M224.7,40.5c0,0.7-0.6,1.3-1.3,1.3c-0.7,0-1.3-0.6-1.3-1.3c0-0.7,0.6-1.3,1.3-1.3
				C224.1,39.1,224.7,39.7,224.7,40.5z"/>
		</g>
		<path class="st1" d="M206,32.5c-0.1-0.5-0.1-1.1-0.2-1.6c-0.1-0.4-0.3-0.8-0.5-1.1c-0.1-0.2,0.2-0.2,0.2-0.3
			c0-0.2-0.1-0.5-0.2-0.7c-0.1-0.3-0.2-0.4-0.3-0.7c-0.1-0.4-0.5-0.7-0.8-0.9c-0.2-0.1-1-0.5-1-0.5c0.1-0.3,0.1-0.5,0.1-0.7l0.1-0.1
			l-0.1-0.2l0-0.2c0-0.2,0-0.5,0-0.8c-0.1-0.1-0.2-0.3-0.3-0.4c-0.3,0-0.6-0.2-0.9-0.1c0.1,0-0.2,0.3-0.4,0.2
			c-0.1,0.4-0.2,0.9-0.1,1.2c0.1,0.4,0.3,0.6,0.3,0.9c-0.1,0.5-0.5,0.5-0.8,0.7c-0.2,0.1-0.2,0.2-0.4,0.4c-0.4,0.4-0.6,0.9-0.8,1.4
			c0,0.1-0.4,0.7-0.3,0.7c0,0.1,0.2,0.2,0.2,0.3c0,0.1-0.2,0.6-0.3,0.7c-0.1,0.3-0.2,0.6-0.3,0.9c-0.1,0.4-0.3,0.9-0.7,1.2
			c-0.1,0.1-0.1,0.1-0.2,0.2c-0.1,0.2-0.4,0.5-0.4,0.8c0,0.1,0,0.1,0,0.2c-0.1,0.2-0.2,0.3-0.3,0.5c-0.1,0.1-0.3,0.2-0.3,0.3
			c-0.2,0.3-0.7,0.7-1,0.9c0.5-0.3,0.4-1.7,0.2-1.9c-0.4-0.4-0.9-0.3-1.3-0.2c-0.2,0.1-0.3,1.3-0.2,1.5c0.1,0.2,0.3,0.3,0.4,0.5
			c0,0.1-0.6-0.2-0.7-0.2c-0.2-0.2-0.3-0.4-0.5-0.6c-0.3-0.3-0.7-0.7-0.9-1.2c-0.2-0.2-0.3-0.4-0.7-0.4c0,0-0.1,0.1-0.1,0.1
			c-0.1,0.7,0.3,0.8,0.7,1c0.1,0.1,0.3,0.8,0.4,0.9c0.5,0.8,0.6,0.7,1.1,1.1c0.2,0.2,0.2,0.5,0.3,0.7c0.1,0.3,0.3,0.4,0.3,0.7
			c0,0.4-0.1,0.8-0.1,1.2c0,0.3,0.1,0.5,0.1,0.7c0,0.2,0.1,0.5,0.1,0.7c0,0.5-0.1,1.1,0,1.5c0.1,0.4,0,1,0.7,0.9
			c0.4-0.4-0.2-0.5-0.2-1c0.3-0.5,0.4-1.2,0.3-2.1c0,0,0.3,0,0.3,0.1c0.1,0.1,0.1,0.2,0.1,0.3c0.1,0.5,0.2,0.9,0.1,1.4
			c0,0.1-0.1,1,0,1c0.5,0,0.6,0.5,1.2,0.3c0.1-0.5-0.4-0.4-0.5-0.7c0-0.7,0.3-1.3,0.2-2.1c0-0.4-0.3-0.7-0.3-1
			c-0.1-0.8-0.2-2.5,0.2-2.9c0.2-0.2,0.3-0.1,0.5-0.4c0.2-0.3,0.4-0.7,0.5-0.9c0-0.1,0-0.3,0-0.4c0.1-0.1,0.3-0.1,0.4-0.2
			c0.2-0.1,0.2-0.3,0.3-0.5c0,0,0,0,0,0c0,0,0,0,0,0c0,0,0,0,0,0c0.1-0.1,0.1-0.4,0.1-0.5c0.1-0.2,0.2-0.3,0.3-0.5
			c0.3-0.4,0.5-0.8,0.8-1.3c0.1-0.2,0.1-0.3,0.2-0.5c0.1-0.2,0.1-0.3,0.2-0.5l0.3,0c0,0.1,0,0.2,0,0.4c0,0.4-0.3,0.9,0.1,1.1
			c-0.1,0.2-0.2,1.3-0.3,1.6c0,0.6,0,1.2,0,1.5c0,0,0,0,0,0.1c0.1,0.7,0,0.6,0-0.1c0-0.3,0.1,1.2,0.1,1.7c0,0.2,0,0.4-0.1,0.4
			c0,0.2,0.2,0.2,0.4,0.2c-0.4,0.5-0.4,1.6-0.3,2.7c0,0.3,0.1,0.6,0.1,0.9c0,0.5-0.4,0.9-0.4,1.5c0.3,0.2,1.1,0.1,1.3-0.1
			c0.1-0.3-0.2-0.5-0.2-0.7c-0.1-0.3-0.1-0.6-0.1-0.9c0-0.4,0.2-0.8,0.3-1.2c0.1-0.4,0-1.2,0.3-1.8c0-0.4,0.7,0,0.6-0.5
			c0.1,0.3,0.6,0.2,0.6,0.6c0,0.3,0,0.6,0,0.9c0,0.4,0.2,0.7,0.2,1.1c0.1,0.4,0.1,0.9,0,1.3c0,0.3-0.4,1.2-0.1,1.3
			c0.5,0.1,1.1,0.2,1.4-0.1c0.2-0.2-0.2-0.5-0.3-0.7c-0.1-0.1-0.2-0.5-0.2-0.7c-0.1-1.2,0.5-2.2,0.1-3.2c-0.1-0.3,0.1-0.4,0.3-0.5
			c-0.4-0.9,0-2.1,0-3.2c0.4-0.1,0.5,0.3,0.9,0.2c0.2-0.3,0.6-0.7,0.6-1.1C206.3,32.9,206.1,32.8,206,32.5z M205.5,33.2
			c0-0.4-0.3-0.6-0.5-0.8c-0.2-0.2-0.4-0.5-0.6-0.7c0.2-0.1-0.1-0.6,0-1c0.1,0,0.1-0.2,0.2-0.2c0,0.3,0.1,0.3,0.1,0.5
			c0,0.2,0.1,0.4,0.2,0.6c0,0.1,0.1,0.2,0.1,0.2c0,0.2,0.2,0.3,0.2,0.4c0.1,0.1,0.1,0.2,0.2,0.3C205.5,32.6,205.8,32.9,205.5,33.2z"
			/>
		<path class="st1" d="M220.9,33.8c-0.3-0.3-0.8-0.3-1-0.8c-0.1-0.2,0.2-0.3,0.3-0.4c0.2-0.3,0.1-1.4-0.3-1.5c-0.4-0.1-0.8,0-1,0.3
			c-0.2,0.2-0.3,0.7-0.2,1c0,0,0.5,0.8,0.3,0.7c-1.1-0.2-1.1,0.6-1.8,0.7c0,0,0,0-0.1-0.1c0-0.2,0.3-0.2,0.2-0.6
			c-0.2-0.2-0.2-0.5-0.4-0.7c-0.1-0.4-0.2-1-0.1-1.6c0-0.4,0.1-0.8,0.1-1.2c-0.1-0.4-0.3-0.9-0.5-1.2c-0.2-0.4-0.2-0.9-0.4-1.4
			c-0.1-0.2-0.4-0.7-0.5-0.8c-0.2-0.2-0.9-0.1-1.2-0.1c-0.2,0-0.5-0.6-0.5-0.8c-0.2-0.3-0.4-0.6-0.8-0.7c-0.4-0.6-0.7-0.5-1.1-0.5
			c-0.6,0-1,0.7-0.9,1.3c0,0.3,0.3,0.4,0.4,0.6c0,0,0.5,1,0.7,0.8c-0.2,0.3-0.5,0.4-0.7,0.6c-0.2,0.2-0.3,0.5-0.5,0.7
			c-0.1,0.4,0.3,0.2,0.3,0.5c0.1,1.1-0.4,2.1-0.6,3c0,0.3,0,0.6,0,0.9c0,0.1,0,0.2,0,0.3c0,0,0,0,0,0.1c0,0.2-0.1,0.3-0.3,0.4
			c-0.2-0.1-0.2-0.4-0.2-0.6c-0.1-0.2-0.2-0.5-0.3-0.6c-0.1-0.1-0.9-0.2-1-0.1c-0.2,0.3-0.4,0.5-0.5,0.8c0,0.2,0,0.2-0.1,0.4
			c0,0.1-0.1,0.2-0.1,0.3c-0.1,0.4-0.1,1.1-0.6,1.3c0.1,0.1,0.2,0.2,0.2,0.3l-0.3,0.2l-0.1-0.1l-0.1,0.1c0,0,0,0,0,0
			c0-0.1,0-0.3-0.1-0.4c-0.1-0.2-0.4-0.3-0.5-0.2c-0.2,0.3,0,0.5,0.1,0.7c0,0,0,0.1,0.1,0.1l-0.1,0.1c-0.1,0,0.7,1.5,1.3,1.2
			c0,0,0,0.6-0.1,0.7c-0.2,0.4-0.1,0.8-0.3,1.2c-0.2,0.5-0.6,0.9-0.6,1.5c0.4-0.1,0.4,0.2,0.8,0.1c-0.1,0.3,0,0.5,0.1,0.7
			c0,0,0.2,0.3,0.2,0.5c0,0.2,0,0.4,0,0.5c0.1,0.2-0.1,0.7,0.1,1.1c0,0,0.2,0,0.2,0c0.2,0,0.4,0,0.4-0.2c0-0.2,0-0.3-0.1-0.5
			c0-0.1,0-0.1-0.1-0.2c0-0.3-0.1-0.1-0.1-0.5c0-0.2-0.1-1.3,0-1.3c0.5,0,0.3,0.7,0.4,1.2c0,0.5-0.1,1.1,0,1.5h0.9
			c0.1-0.2-0.2-0.3-0.4-0.3c-0.1-0.2-0.1-0.2-0.1-0.4c0.1-0.6,0.3-1.1,0.2-1.9c0.1-0.1,0.4-0.2,0.6-0.2c0.2-0.1,0.5-0.1,0.7-0.1
			c-0.2-0.7-0.3-1.5-0.6-2.2c-0.1-0.2-0.1-0.2-0.1-0.3c-0.1-0.2-0.1-0.6-0.1-0.9c0-0.3,0.2-0.5,0.3-0.8c0.1-0.3,0-0.7,0.1-1
			c0.1-0.4,0.2-0.8,0.2-1.2c0-0.1,0-0.2,0-0.2c0.1-0.1,0.1-0.2,0.1-0.4c0.1-0.1,0.2-0.3,0.2-0.4c0.1-0.2,0.7-2.5,0.8-2.5
			c0.3,0,0,0.6,0.1,0.8c-0.2,0.1-0.2,0.2-0.2,0.5c-0.3,1.1-0.3,2.4-0.2,3.6c0,0.6,0.2,1.8,0.1,2.7c0,0.4-0.1,0.8-0.2,1.2
			c-0.1,0.3-0.1,0.6-0.1,1.1c-0.1,0.4-0.2,1.3-0.1,2c0.2,0.1,0.3,0.3,0.7,0.2c0.2,0,0.1,0.4,0.4,0.3c0.5,0.1,0.7-0.2,0.9-0.3
			c0.2,0.1,0.1,0.6,0.2,0.7c0.4,0,0.8,0,1.1-0.1c0-0.2,0-0.4,0.1-0.6c0.1-0.1,0.2-0.3,0.3-0.4c0.1-0.2,0-0.4,0.1-0.5
			c0.3-0.6,0.4-1.4,0.3-2.1c0-0.6-0.2-1.8-0.1-2.7c0-0.3,0.1-0.7,0.2-1.1c0.1-0.3,0.3-0.6,0.4-0.9c0.1-0.6,0-1.2,0-1.8
			c0-0.2-0.1-0.4-0.1-0.6c0-0.1-0.1-0.5,0.1-0.6c0.4,0,0.3,0.6,0.4,1.1c0,0.1,0.1,0.2,0.1,0.4c0,0.1,0,0.1,0,0.2
			c0,0.1-0.1,0.2-0.1,0.2c0,0,0,0,0,0.1c-0.1,0.1-0.1,0.3-0.1,0.4c0,0.2,0.1,0.2,0.1,0.3c0,0,0,0,0,0c0,0,0,0.1,0,0.1c0,0,0,0,0,0
			c0.1,0.1,0.1,0.3,0.2,0.4c0.1,0.2,0.2,0.6,0.3,0.8h1c0,0.6,0.3,1.1,0.4,1.6c0,0.1-0.1,0.2-0.1,0.2c0,0.1,0,0.3,0,0.4
			c0,0.3-0.1,0.5-0.1,0.8c0,0.1,0.1,0.1,0.1,0.2c0,0.1,0,0.3,0,0.4c0,0.6,0.1,1.1,0.1,1.5c0,0.3-0.1,0.6-0.1,0.9
			c0,0.2,0.2,0.4,0.2,0.6c0.1,0.4,0,0.6,0,1h0.7c0.2-0.2,0.1-1.1,0.5-0.9c0.1,0,0.1,0.9,0.2,0.9c0.3,0,0.3,0,0.7,0
			c0.1,0,0-0.6,0-0.6c0,0,0.1-0.1,0.1-0.1c0.2-0.6,0-1.3,0-2c0-0.1-0.1-0.3-0.1-0.5c0-0.2,0.1-0.2,0.1-0.4c0-0.1-0.1-0.2-0.1-0.3
			c0-0.2,0-0.3,0.2-0.4c0.1-0.1,0.3-0.1,0.2-0.3c0-0.8,0-1.6-0.2-2.1c0.2-0.2,0.7-0.1,0.7-0.5C221.4,34.7,221.1,34.4,220.9,33.8z
			 M213.6,38.3c0,0.2,0,0.4-0.2,0.4c-0.1-1-0.1-2,0-2.8c0-0.3,0-0.7,0.2-0.9C213.7,35.8,213.8,37.7,213.6,38.3z"/>
	</g>
	<g>
		<path d="M109.6,59c1.5,0,2.6-0.6,3.6-1.7l1.9,2c-1.5,1.7-3.3,2.5-5.3,2.5c-2,0-3.7-0.6-5-1.9c-1.3-1.3-2-2.9-2-4.9
			c0-2,0.7-3.6,2-4.9c1.3-1.3,3-2,4.9-2c2.2,0,4,0.8,5.5,2.5l-1.8,2.1c-0.9-1.2-2.1-1.7-3.5-1.7c-1.1,0-2.1,0.4-2.9,1.1
			c-0.8,0.7-1.2,1.7-1.2,2.9c0,1.2,0.4,2.2,1.1,3C107.7,58.6,108.6,59,109.6,59z"/>
		<path d="M128.3,59.8c-1.3,1.3-3,2-5,2c-2,0-3.6-0.7-5-2c-1.3-1.3-2-2.9-2-4.9c0-1.9,0.7-3.6,2-4.9c1.3-1.3,3-2,5-2
			c2,0,3.6,0.7,5,2c1.3,1.3,2,2.9,2,4.9C130.3,56.8,129.7,58.4,128.3,59.8z M127.3,54.9c0-1.2-0.4-2.2-1.1-3
			c-0.8-0.8-1.7-1.3-2.8-1.3c-1.1,0-2,0.4-2.8,1.3c-0.8,0.8-1.1,1.8-1.1,3c0,1.2,0.4,2.2,1.1,3c0.8,0.8,1.7,1.2,2.8,1.2
			c1.1,0,2-0.4,2.8-1.2C126.9,57.1,127.3,56.1,127.3,54.9z"/>
		<path d="M136.3,58.2c0.5,0.6,1.2,0.9,2,0.9c0.8,0,1.5-0.3,2-0.9c0.5-0.6,0.7-1.5,0.7-2.5v-7.3h3v7.4c0,1.9-0.5,3.4-1.6,4.4
			c-1.1,1-2.4,1.5-4.1,1.5c-1.7,0-3-0.5-4.1-1.6c-1.1-1-1.6-2.5-1.6-4.4v-7.4h3v7.3C135.6,56.7,135.8,57.5,136.3,58.2z"/>
		<path d="M157.8,52.7c0,2.1-0.8,3.5-2.5,4.1l3.4,4.7H155l-2.9-4.2h-2v4.2h-3V48.3h5c2.1,0,3.5,0.3,4.4,1
			C157.4,50.1,157.8,51.2,157.8,52.7z M154.3,54.3c0.4-0.3,0.6-0.9,0.6-1.6c0-0.7-0.2-1.2-0.6-1.5c-0.4-0.3-1-0.4-2-0.4H150v3.9h2.2
			C153.2,54.8,153.9,54.6,154.3,54.3z"/>
		<path d="M166.2,50.9v10.7h-3V50.9h-3.8v-2.6H170v2.6H166.2z"/>
		<path d="M180.4,48.3h3v13.3h-3v-5.2h-5.3v5.2h-3V48.3h3v5.5h5.3V48.3z"/>
		<path d="M196.2,48.3V51h-6.6v2.7h5.9v2.5h-5.9V59h6.8v2.6h-9.8V48.3H196.2z"/>
		<path d="M198.3,61.6v-2l6.9-8.7h-6.7v-2.6h10.8v2l-6.9,8.6h7v2.6H198.3z"/>
		<path d="M222.8,59.8c-1.3,1.3-3,2-5,2s-3.6-0.7-5-2c-1.3-1.3-2-2.9-2-4.9c0-1.9,0.7-3.6,2-4.9c1.3-1.3,3-2,5-2s3.6,0.7,5,2
			c1.3,1.3,2,2.9,2,4.9C224.8,56.8,224.2,58.4,222.8,59.8z M221.8,54.9c0-1.2-0.4-2.2-1.1-3c-0.8-0.8-1.7-1.3-2.8-1.3
			c-1.1,0-2,0.4-2.8,1.3c-0.8,0.8-1.1,1.8-1.1,3c0,1.2,0.4,2.2,1.1,3c0.8,0.8,1.7,1.2,2.8,1.2c1.1,0,2-0.4,2.8-1.2
			C221.5,57.1,221.8,56.1,221.8,54.9z"/>
		<path d="M236.6,48.3h3v13.3h-3l-6.3-8.3v8.3h-3V48.3h2.8l6.5,8.5V48.3z"/>
	</g>
	<g>
		<path d="M109.8,43h-2.5L102,29.8h2.5l4.1,9.9l4.1-9.9h2.5L109.8,43z"/>
		<path d="M117,29.8h2.2V43H117V29.8z"/>
		<path d="M123,43V29.8h2.2v11.1h6.1V43H123z"/>
		<path d="M133.7,43V29.8h2.2v11.1h6.1V43H133.7z"/>
		<path d="M153.8,29.8v2.1h-7.1v3.5h6.4v2h-6.4v3.5h7.3V43h-9.5V29.8H153.8z"/>
		<path d="M172.1,31.5c1.3,1.2,1.9,2.8,1.9,4.8c0,2.1-0.6,3.7-1.9,4.9c-1.2,1.2-3.1,1.8-5.7,1.8h-4.4V29.8h4.6
			C169,29.8,170.8,30.3,172.1,31.5z M171.7,36.4c0-3-1.7-4.6-5.2-4.6h-2.2v9.1h2.5c1.6,0,2.8-0.4,3.7-1.1
			C171.3,39,171.7,37.9,171.7,36.4z"/>
		<path d="M186.2,29.8v2.1h-7.1v3.5h6.4v2h-6.4v3.5h7.3V43h-9.5V29.8H186.2z"/>
	</g>
	<g>
		<linearGradient id="SVGID_1_" gradientUnits="userSpaceOnUse" x1="15.8715" y1="55.585" x2="91.1248" y2="55.585">
			<stop  offset="0" style="stop-color:#0081C7"/>
			<stop  offset="0.1565" style="stop-color:#007EC4"/>
			<stop  offset="0.36" style="stop-color:#0076BD"/>
			<stop  offset="0.5896" style="stop-color:#0067B1"/>
			<stop  offset="0.8363" style="stop-color:#0052A0"/>
			<stop  offset="1" style="stop-color:#164194"/>
		</linearGradient>
		<path class="st2" d="M91.1,14.2c-0.1,12-0.2,24.7-0.3,36.7c0,2.5-0.5,4.6-1,6.6c-0.9,4-2.5,7.7-4.2,10.9c-1.8,3.3-3.7,6.4-6,9.2
			c-4.5,5.5-10.1,10-16.4,14c-2.3,1.4-4.6,2.9-7.2,4.2c-0.8,0.4-1.9,1-2.7,1c-0.8,0-2-0.5-2.8-1c-5.9-2.9-11.1-6.7-16.1-10.5
			c-2.9-2.3-5.4-4.7-7.6-7.5c-2.2-2.8-4-6-5.8-9.4c-0.9-1.7-1.8-3.3-2.4-5.2c-1.2-3.2-2-6.9-2.4-10.8c-0.1-0.6,0-1.2,0-1.8
			c-0.1-2.4,0-4.7-0.1-7.2C16,33.9,16,24.1,15.9,14.4c0,0,0-0.1,0-0.1C41,14.3,66.1,14.2,91.1,14.2z"/>
		<g>
			
				<linearGradient id="SVGID_00000010309022188383954640000010432987082904682896_" gradientUnits="userSpaceOnUse" x1="27.0994" y1="47.7807" x2="80.7811" y2="47.7807">
				<stop  offset="0" style="stop-color:#FFFFFF"/>
				<stop  offset="1" style="stop-color:#E4E4E3"/>
			</linearGradient>
			<polygon style="fill:url(#SVGID_00000010309022188383954640000010432987082904682896_);" points="80.8,26.2 67.5,26.2 67.2,26.2 
				65.6,26.2 65.6,34.3 60.5,34.3 60.5,26.2 59.9,26.2 58.5,26.2 49.4,26.2 47.7,26.2 47.5,26.2 47.5,34.3 42.3,34.3 42.3,26.2 
				40.8,26.2 40.4,26.2 27.1,26.2 27.1,26.6 27.1,26.6 29,69.2 29,69.3 29,28.6 40.4,28.6 40.4,34.3 40.4,35.7 40.4,36.7 49.4,36.7 
				49.4,35.7 49.4,35.7 49.4,28.6 58.5,28.6 58.5,35.7 58.6,35.7 58.6,36.7 67.5,36.7 67.5,35.7 67.5,34.3 67.5,28.6 78.9,28.6 
				78.9,69.3 78.9,69.3 80.8,28.6 80.8,28.6 			"/>
			
				<linearGradient id="SVGID_00000098194963747096520220000012267128028795445660_" gradientUnits="userSpaceOnUse" x1="46.7498" y1="60.3598" x2="60.5037" y2="60.3598">
				<stop  offset="0" style="stop-color:#FFFFFF"/>
				<stop  offset="1" style="stop-color:#E4E4E3"/>
			</linearGradient>
			<path style="fill:url(#SVGID_00000098194963747096520220000012267128028795445660_);" d="M60.5,69.3H46.7c0,0,0-8.3,0-12.8
				c0-4.5,6.9-5.1,6.9-5.1s6.9,0.4,6.9,5.1C60.5,61.2,60.5,69.3,60.5,69.3z"/>
		</g>
		<path class="st5" d="M48.7,55.5c0,0,2.1-2.6,5.1-2.4c3,0.1,5.2,2.4,5.2,2.4v13.2l-0.2-13.1C58.9,55.6,53.3,50.6,48.7,55.5z"/>
	</g>
</g>
</svg>
