<?xml version="1.0" encoding="utf-8"?>
<!-- Generator: Adobe Illustrator 26.0.1, SVG Export Plug-In . SVG Version: 6.00 Build 0)  -->
<svg version="1.1" id="Logo-CCPRO" xmlns="http://www.w3.org/2000/svg" xmlns:xlink="http://www.w3.org/1999/xlink" x="0px" y="0px"
	 viewBox="0 0 4252 2238.4" style="enable-background:new 0 0 4252 2238.4;" xml:space="preserve">
<style type="text/css">
	.st0{fill:#FFD124;}
	.st1{fill:#00519E;}
	.st2{fill:#2C982E;}
</style>
<path class="st0" d="M686.5,937.9c-119.8,207.3-188.7,447.8-188.7,704.4h562.7c0-7.5,0.4-15,0.6-22.5
	C1053.9,1335.7,907.1,1086.3,686.5,937.9"/>
<path class="st0" d="M2325.2,514.2l-416.6-282.6c-317.9,0-611.2,105.2-847.2,282.7c151.7,114.2,279.3,258.5,374.7,423.8
	c135-90.8,297.5-143.7,472.4-143.7L2325.2,514.2z"/>
<path class="st1" d="M1436.2,938.1L1436.2,938.1c-220.7,148.3-367.6,397.6-375,681.7c0.2,7.4,0.5,14.6,0.5,22.1l280.2,416.6
	l282.6-416.6C1624.5,1385.5,1555.7,1145.3,1436.2,938.1"/>
<path class="st1" d="M213.7,231.1v562.7c175.1,0,337.7,53.1,472.8,144c95.4-165.2,223.2-309.4,374.9-423.6
	C825.5,336.6,531.9,231.1,213.7,231.1"/>
<path class="st2" d="M1061.4,514.3C909.7,628.4,782,772.6,686.5,937.9c220.6,148.4,367.3,397.8,374.6,681.9
	c7.4-284.1,154.3-533.4,375-681.7C1340.8,772.8,1213.2,628.5,1061.4,514.3"/>
<path class="st1" d="M3891.9,1418.3c0,37.8-29.3,68-67.1,68h-46.4c-36.8,0-68-31.1-68-68v-279.8c0-36.9,31.2-68.2,68-68.2h46.4
	c37.8,0,67.1,30.3,67.1,68.2V1418.3z M4000.6,1418.3v-279.8c0-98.3-68.9-167.2-175.8-167.2h-46.4c-107.7,0-175.7,69-175.7,167.2
	v279.8c0,98.3,68,167.2,175.7,167.2h46.4C3931.7,1585.5,4000.6,1516.6,4000.6,1418.3 M3408.1,1156.4c0,36.9-31.2,68.1-68.1,68.1
	h-104c-6.7,0-9.5-2.8-9.5-9.5v-125.8c0-6.7,2.8-9.5,9.5-9.5h104c36.9,0,68.1,31.3,68.1,68.2V1156.4z M3526.1,1568.5
	c0-2.8-2.8-8.5-4.7-15.1l-81.2-236.4c-2.9-7.5-4.8-12.2-4.8-15c0-3.8,1-5.7,3.8-7.6c35.8-24.5,76.5-80.2,76.5-128.5v-9.4
	c0-106.8-68-175.8-175.8-175.8h-212.7c-6.6,0-9.4,2.8-9.4,9.4v576.5c0,6.6,2.8,9.4,9.4,9.4h89.8c6.6,0,9.4-2.8,9.4-9.4v-233.5
	c0-6.6,2.8-9.4,9.5-9.4h84.2c3.7,0,6.6,1.9,7.5,5.7l83.2,240.1c1,3.8,4.7,6.6,8.5,6.6h97.3C3523.3,1576,3526.1,1573.2,3526.1,1568.5
	 M2932.7,1156.4c0,36.9-31.2,68.1-68.1,68.1h-85.2c-6.6,0-9.5-2.8-9.5-9.5v-125.8c0-6.7,2.9-9.5,9.5-9.5h85.2
	c36.8,0,68.1,31.3,68.1,68.2V1156.4z M3040.3,1156.4c0-105.9-68-175.8-175.7-175.8h-193.8c-6.5,0-9.4,2.8-9.4,9.4v576.5
	c0,6.6,2.9,9.4,9.4,9.4h89.8c6.6,0,9.4-2.8,9.4-9.4v-233.5c0-6.6,2.9-9.4,9.5-9.4h85.2C2972.3,1323.7,3040.3,1250.1,3040.3,1156.4
	 M2580.1,1474.1c0-2.9-1.9-4.7-5.7-6.7l-75.6-38.8c-3.8-1.9-7.6-4.7-11.3-4.7c-2.9,0-5.7,1.9-7.6,6.6c-17,40.6-41.6,55.7-67.1,55.7
	h-46.3c-36.8,0-68-31.1-68-68v-279.8c0-36.9,31.2-68.2,68-68.2h46.3c25.5,0,50.1,15.2,67.1,55.9c1.9,4.7,4.7,6.6,7.6,6.6
	c3.8,0,7.6-2.8,11.3-4.7l75.6-38.8c3.8-1.9,5.7-3.8,5.7-6.7c0-5.6-9.5-20.8-18-34.8c-28.3-44.4-70.9-76.5-149.3-76.5h-46.3
	c-107.7,0-175.7,69-175.7,167.2v279.8c0,98.3,68,167.2,175.7,167.2h46.3c78.5,0,121-32.1,149.3-76.4
	C2570.6,1494.9,2580.1,1479.7,2580.1,1474.1 M2122.6,1474.1c0-2.9-1.9-4.7-5.7-6.7l-75.6-38.8c-3.8-1.9-7.6-4.7-11.3-4.7
	c-2.9,0-5.6,1.9-7.6,6.6c-17,40.6-41.6,55.7-67.1,55.7h-46.3c-36.9,0-68-31.1-68-68v-279.8c0-36.9,31.2-68.2,68-68.2h46.3
	c25.5,0,50.1,15.2,67.1,55.9c1.9,4.7,4.7,6.6,7.6,6.6c3.8,0,7.6-2.8,11.3-4.7l75.6-38.8c3.8-1.9,5.7-3.8,5.7-6.7
	c0-5.6-9.5-20.8-18-34.8c-28.3-44.4-70.9-76.5-149.3-76.5h-46.3c-107.6,0-175.6,69-175.6,167.2v279.8c0,98.3,68,167.2,175.6,167.2
	h46.3c78.4,0,121-32.1,149.3-76.4C2113.1,1494.9,2122.6,1479.7,2122.6,1474.1"/>
</svg>
