<?xml version="1.0" encoding="utf-8"?>
<!-- Generator: Adobe Illustrator 26.0.1, SVG Export Plug-In . SVG Version: 6.00 Build 0)  -->
<svg version="1.1" id="Coved-Terre-de-Provence" xmlns="http://www.w3.org/2000/svg" xmlns:xlink="http://www.w3.org/1999/xlink"
	 x="0px" y="0px" viewBox="0 0 575.9 232" style="enable-background:new 0 0 575.9 232;" xml:space="preserve">
<style type="text/css">
	.st0{fill:#95C121;}
	.st1{fill:url(#SVGID_1_);}
	.st2{fill:url(#SVGID_00000171711568875916962390000000239327629829092529_);}
	.st3{fill:#3B4495;}
</style>
<g>
	<g>
		<path class="st0" d="M252.5,183.3c-1.3,0.2-2.8,0.6-7.5,0.6c-5.2,0-9.2-1.5-9.2-8.6v-14.6c0-7.1,4-8.6,9.2-8.6
			c4.7,0,6.3,0.4,7.5,0.6c0.6,0.1,0.8,0.3,0.8,0.9v2.7c0,0.5-0.4,0.8-0.8,0.8h-8.1c-2.3,0-3.1,0.8-3.1,3.6v4.5H252
			c0.4,0,0.8,0.4,0.8,0.8v3c0,0.5-0.4,0.8-0.8,0.8h-10.8v5.4c0,2.8,0.8,3.6,3.1,3.6h8.1c0.4,0,0.8,0.4,0.8,0.8v2.7
			C253.3,183,253.1,183.2,252.5,183.3z"/>
		<path class="st0" d="M279.4,183.5h-4c-1,0-1.8,0-2.4-1.5l-8.8-20.3c-0.1-0.3-0.2-0.3-0.4-0.3c-0.1,0-0.2,0.1-0.2,0.3v21
			c0,0.5-0.3,0.8-0.8,0.8h-3.4c-0.4,0-0.8-0.4-0.8-0.8v-28.5c0-0.9,0.7-1.7,1.6-1.7h4.3c0.8,0,1.3,0.2,1.7,1.3l9.3,21.5
			c0.1,0.2,0.2,0.3,0.3,0.3c0.1,0,0.2-0.1,0.2-0.4v-22c0-0.5,0.3-0.8,0.8-0.8h3.4c0.4,0,0.8,0.3,0.8,0.8v28.6
			C281,182.8,280.3,183.5,279.4,183.5z"/>
		<path class="st0" d="M308.1,153.4l-6.5,26.2c-1,3.9-3.8,4.3-5.5,4.3c-1.7,0-4.6-0.4-5.5-4.3l-6.5-26.2c0-0.1,0-0.1,0-0.2
			c0-0.4,0.3-0.7,0.7-0.7h4.2c0.4,0,0.7,0.3,0.8,0.7l5.8,25.1c0.1,0.5,0.2,0.7,0.6,0.7c0.4,0,0.5-0.2,0.6-0.7l5.8-25.1
			c0.1-0.4,0.4-0.7,0.8-0.7h4.2c0.4,0,0.7,0.3,0.7,0.7C308.2,153.3,308.1,153.4,308.1,153.4z"/>
		<path class="st0" d="M316.8,183.5h-3.9c-0.4,0-0.8-0.4-0.8-0.8v-29.4c0-0.5,0.4-0.8,0.8-0.8h3.9c0.4,0,0.8,0.3,0.8,0.8v29.4
			C317.6,183.2,317.3,183.5,316.8,183.5z"/>
		<path class="st0" d="M344.6,183.5h-4.8c-0.4,0-0.6-0.4-0.8-0.8l-5.7-11.1h-0.6c-1,0-2.6-0.1-3.5-0.2v11.3c0,0.5-0.3,0.8-0.8,0.8
			h-4c-0.4,0-0.8-0.4-0.8-0.8V154c0-0.8,0.5-1.1,1.3-1.3c2.1-0.3,4.9-0.5,7.8-0.5c6.1,0,11.4,2.3,11.4,9.4v0.4
			c0,4.4-2.1,7.2-5.4,8.5l6.2,12.2c0.1,0.1,0.1,0.3,0.1,0.3C345.1,183.3,344.9,183.5,344.6,183.5z M338.6,161.6c0-3.1-2-4.5-6-4.5
			c-0.8,0-2.8,0.1-3.5,0.2v9.4c0.6,0,2.9,0.1,3.5,0.1c4.1,0,6-1.2,6-4.8V161.6z"/>
		<path class="st0" d="M359.3,183.9c-6.6,0-11.3-3.8-11.3-13v-5.6c0-9.2,4.8-13,11.3-13c6.6,0,11.3,3.8,11.3,13v5.6
			C370.6,180,365.8,183.9,359.3,183.9z M365,165.2c0-5.5-1.9-8-5.8-8c-3.9,0-5.8,2.5-5.8,8v5.6c0,5.5,1.9,8,5.8,8
			c3.9,0,5.8-2.5,5.8-8V165.2z"/>
		<path class="st0" d="M396.5,183.5h-4c-1,0-1.8,0-2.4-1.5l-8.8-20.3c-0.1-0.3-0.2-0.3-0.4-0.3c-0.1,0-0.2,0.1-0.2,0.3v21
			c0,0.5-0.3,0.8-0.8,0.8h-3.4c-0.4,0-0.8-0.4-0.8-0.8v-28.5c0-0.9,0.7-1.7,1.6-1.7h4.3c0.8,0,1.3,0.2,1.7,1.3l9.3,21.5
			c0.1,0.2,0.2,0.3,0.3,0.3c0.1,0,0.2-0.1,0.2-0.4v-22c0-0.5,0.3-0.8,0.8-0.8h3.4c0.4,0,0.8,0.3,0.8,0.8v28.6
			C398.1,182.8,397.4,183.5,396.5,183.5z"/>
		<path class="st0" d="M424.8,183.5h-4c-1,0-1.8,0-2.4-1.5l-8.8-20.3c-0.1-0.3-0.2-0.3-0.4-0.3c-0.1,0-0.2,0.1-0.2,0.3v21
			c0,0.5-0.3,0.8-0.8,0.8h-3.4c-0.4,0-0.8-0.4-0.8-0.8v-28.5c0-0.9,0.7-1.7,1.6-1.7h4.3c0.8,0,1.3,0.2,1.7,1.3l9.3,21.5
			c0.1,0.2,0.2,0.3,0.3,0.3c0.1,0,0.2-0.1,0.2-0.4v-22c0-0.5,0.3-0.8,0.8-0.8h3.4c0.4,0,0.8,0.3,0.8,0.8v28.6
			C426.4,182.8,425.7,183.5,424.8,183.5z"/>
		<path class="st0" d="M449.1,183.3c-1.3,0.2-2.8,0.6-7.5,0.6c-5.2,0-9.2-1.5-9.2-8.6v-14.6c0-7.1,4-8.6,9.2-8.6
			c4.7,0,6.3,0.4,7.5,0.6c0.6,0.1,0.8,0.3,0.8,0.9v2.7c0,0.5-0.4,0.8-0.8,0.8H441c-2.3,0-3.1,0.8-3.1,3.6v4.5h10.8
			c0.4,0,0.8,0.4,0.8,0.8v3c0,0.5-0.4,0.8-0.8,0.8h-10.8v5.4c0,2.8,0.8,3.6,3.1,3.6h8.1c0.4,0,0.8,0.4,0.8,0.8v2.7
			C449.9,183,449.7,183.2,449.1,183.3z"/>
		<path class="st0" d="M480.1,183.5h-4c-0.4,0-0.6-0.4-0.6-0.8v-19.4c0-0.3,0-0.4-0.1-0.4c0,0-0.1,0.1-0.2,0.3l-3.8,8
			c-0.2,0.5-0.8,0.7-1.3,0.7h-4c-0.5,0-1-0.3-1.3-0.7l-3.9-8c-0.1-0.1-0.2-0.3-0.2-0.3c-0.1,0-0.1,0.1-0.1,0.4v19.4
			c0,0.4-0.3,0.8-0.6,0.8h-4c-0.4,0-0.7-0.2-0.7-0.6v-28.7c0-0.9,0.7-1.7,1.6-1.7h3.3c0.6,0,1.2,0.4,1.5,1l6,12.8
			c0.2,0.4,0.3,0.6,0.4,0.6c0.2,0,0.2-0.2,0.4-0.6l6-12.8c0.3-0.6,0.8-1,1.5-1h3.3c0.9,0,1.6,0.8,1.6,1.7v28.7
			C480.7,183.3,480.4,183.5,480.1,183.5z"/>
		<path class="st0" d="M503.4,183.3c-1.3,0.2-2.8,0.6-7.5,0.6c-5.2,0-9.2-1.5-9.2-8.6v-14.6c0-7.1,4-8.6,9.2-8.6
			c4.7,0,6.3,0.4,7.5,0.6c0.6,0.1,0.8,0.3,0.8,0.9v2.7c0,0.5-0.4,0.8-0.8,0.8h-8.1c-2.3,0-3.1,0.8-3.1,3.6v4.5h10.8
			c0.4,0,0.8,0.4,0.8,0.8v3c0,0.5-0.4,0.8-0.8,0.8h-10.8v5.4c0,2.8,0.8,3.6,3.1,3.6h8.1c0.4,0,0.8,0.4,0.8,0.8v2.7
			C504.2,183,504,183.2,503.4,183.3z"/>
		<path class="st0" d="M530.3,183.5h-4c-1,0-1.8,0-2.4-1.5l-8.8-20.3c-0.1-0.3-0.2-0.3-0.4-0.3c-0.1,0-0.2,0.1-0.2,0.3v21
			c0,0.5-0.3,0.8-0.8,0.8h-3.4c-0.4,0-0.8-0.4-0.8-0.8v-28.5c0-0.9,0.7-1.7,1.6-1.7h4.3c0.8,0,1.3,0.2,1.7,1.3l9.3,21.5
			c0.1,0.2,0.2,0.3,0.3,0.3c0.1,0,0.2-0.1,0.2-0.4v-22c0-0.5,0.3-0.8,0.8-0.8h3.4c0.4,0,0.8,0.3,0.8,0.8v28.6
			C531.9,182.8,531.2,183.5,530.3,183.5z"/>
		<path class="st0" d="M555,157.4h-7v25.3c0,0.5-0.4,0.8-0.8,0.8h-3.9c-0.4,0-0.8-0.4-0.8-0.8v-25.3h-7c-0.4,0-0.8-0.3-0.8-0.8v-3.3
			c0-0.5,0.4-0.8,0.8-0.8H555c0.4,0,0.8,0.3,0.8,0.8v3.3C555.8,157.1,555.4,157.4,555,157.4z"/>
	</g>
	<g>
		
			<radialGradient id="SVGID_1_" cx="123.9048" cy="125.5308" r="105.2814" gradientTransform="matrix(0.9253 0 0 0.9253 9.164 -3.3514)" gradientUnits="userSpaceOnUse">
			<stop  offset="0" style="stop-color:#DCE6A9"/>
			<stop  offset="0.5824" style="stop-color:#95C121"/>
			<stop  offset="0.6543" style="stop-color:#8ABA25"/>
			<stop  offset="0.7696" style="stop-color:#6DA62D"/>
			<stop  offset="0.9128" style="stop-color:#3C8B33"/>
			<stop  offset="1" style="stop-color:#047A35"/>
		</radialGradient>
		<path class="st1" d="M204.1,105.9c0-0.1,0-0.2-0.1-0.3c-0.2-1.5-0.4-3-0.6-4.5c0-0.2-0.1-0.4-0.1-0.7c-0.2-1.4-0.5-2.7-0.8-4.1
			c-0.1-0.3-0.1-0.5-0.2-0.8c-0.3-1.3-0.6-2.6-0.9-3.9c-0.1-0.3-0.1-0.5-0.2-0.8c-0.4-1.3-0.7-2.5-1.1-3.8c-0.1-0.3-0.2-0.5-0.3-0.8
			c-0.4-1.2-0.9-2.5-1.3-3.7c-0.1-0.2-0.2-0.5-0.3-0.7c-0.5-1.2-1-2.5-1.5-3.7c-0.1-0.2-0.2-0.4-0.3-0.7c-0.6-1.2-1.1-2.4-1.7-3.6
			c-0.1-0.2-0.2-0.4-0.3-0.6c-0.6-1.2-1.3-2.4-2-3.6c-0.1-0.1-0.2-0.3-0.2-0.4c-0.7-1.2-1.5-2.4-2.2-3.6c-0.1-0.1-0.1-0.2-0.2-0.3
			c-0.8-1.2-1.6-2.4-2.4-3.6c0-0.1-0.1-0.2-0.2-0.2c-0.9-1.2-1.8-2.4-2.7-3.6c0,0-0.1-0.1-0.1-0.1c-1-1.2-2-2.4-3-3.5c0,0,0,0,0,0
			c-2.1-2.3-4.3-4.6-6.5-6.7c0.1,0.1,0.2,0.1,0.2,0.2c-0.1-0.1-0.2-0.2-0.2-0.2c-2.5,3.5-4.5,6.8-6.2,9.9c-4.9,9.4-6,17.9-2.7,31.2
			c1.1-0.3,3,0,3,0c0.4,1.7,1.9,5.3,0.5,8.7c-1.4,3.4-3.7,7.3-5.8,9.5c-2.1,2.2-1.2,4.3,0.1,5.3c1.2,1.1,3.2,2.6,5.3,2.9
			c0.8,2.1,0.8,3.9-0.1,5.8c-0.4,1.9,0.5,2.9,1.6,3c1.1,0.2,9.6-1.9,9.6-1.9s-7.2,4.8-6.7,6.2c0.6,1.5,3.1,1.9,3.6,3
			c0.4,1.1,0.4,5.1,1.1,6.6c0.7,1.6,3.7,6.4,9,5.9c0.9-0.1,2.2-0.3,3.8-0.4c2.6-0.3,6-0.6,9.6-0.7c0.6-2,1.2-4.1,1.7-6.2
			c0-0.2,0.1-0.3,0.1-0.5c0.9-4.1,1.6-8.4,1.9-12.7c0-0.4,0.1-0.8,0.1-1.1c0.2-2.1,0.2-4.2,0.2-6.4
			C204.6,112.5,204.5,109.2,204.1,105.9z M182.3,92.2L182.3,92.2c-2.4,0.4-6.1,1.4-8.1,2.7c-0.3-1.7-0.2-3-0.1-3.8
			c-0.3-0.8-2.4-0.1-1.7-1c0.3,0,0.6-0.1,0.8-0.1h0c0.1,0,0.1,0,0.2,0c0.5,0,1-0.1,1.5-0.1c0.3,0,0.5,0,0.8,0c0.4,0,0.8,0,1.1,0
			c0.2,0,0.4,0,0.5,0c0.8,0,1.2,0.1,1.2,0.1s0,0,0,0c1.7,0.2,3.2,0.8,4.3,1.2C183.1,91.5,183.3,91.9,182.3,92.2z M136.4,117.6
			c-3.7-1.8-8.4-5.6-11.7-9.1c-3.3-3.5-3.2-8.7-3.5-11c0,0,3.4-2,5-2.2c-3-27.4-15.6-40.4-30.9-47.3C85.8,43.6,72.1,40,58,40.2
			C34.4,57,18.9,84.6,18.9,115.8c0,19.5,6,37.6,16.3,52.5c0,0,0,0,0,0c0.8,1.1,1.5,2.2,2.3,3.2c0.2,0.3,0.4,0.5,0.6,0.8
			c0.7,0.8,1.3,1.7,2,2.5c0.9,1.1,1.9,2.2,2.8,3.3c0.1,0.1,0.1,0.2,0.2,0.2c2.7,3,5.6,5.8,8.7,8.4c0.4,0.3,0.9,0.7,1.3,1
			c0.8,0.7,1.7,1.3,2.5,2c0.6,0.4,1.2,0.9,1.8,1.3c0.8,0.5,1.5,1.1,2.3,1.7c1.3,0.9,2.6,1.7,4,2.5c0.6,0.4,1.3,0.8,1.9,1.1
			c1,0.5,1.9,1.1,2.9,1.6c0.6,0.3,1.3,0.7,1.9,1c1.2,0.6,2.4,1.1,3.6,1.7c0.4,0.2,0.8,0.4,1.3,0.6c1.7,0.7,3.3,1.4,5,2
			c0.4,0.1,0.8,0.3,1.1,0.4c1.4,0.5,2.9,0.9,4.3,1.4c0.4,0.1,0.9,0.2,1.3,0.4c1.8,0.5,3.5,0.9,5.3,1.3l0.1,0
			c-2.3-16.8,3.2-22.1,3.2-22.1c10.5-5.5,24-8.5,28.8-9.9c6.8-1.9,8.2-9.3,8.4-11.6c0.2-2.3-1.7-7.2-1.7-8.8c0-1.6,3-3.3,3-5.4
			c0-0.7-1.1-1.4-2.5-2l0,0l0,0c-0.8-0.3-1.6-0.5-2.4-0.7l0,0c-5.7-0.8-9.3-3.4-9.8-3.8c-0.5-0.4-1.7-2.4,0.8-1
			c5,2.4,12.3,1.7,13.1,1.7c1.2-0.3,2.1-0.5,2.5-0.9c1.1-0.9,1.9-2.5,0.5-4.6c-1.9-1.9-2.8-4.2-2.8-7.2c2.5-1.4,4.2-4.2,5.3-6.2
			C139.9,122.3,140.1,119.3,136.4,117.6z M116.8,106.2c-2.9-0.9-7.4-1-11-0.7c-3.2,0.1-3.1-1.3-3.1-1.3c1-0.7,2.2-1.5,3.8-2.2h0
			c0,0,0.7-0.3,1.8-0.8c0.3-0.1,0.5-0.2,0.8-0.3c0.5-0.2,1.1-0.4,1.8-0.6c0.4-0.1,0.8-0.2,1.2-0.3c0.7-0.2,1.5-0.4,2.4-0.6
			c0.1,0,0.2,0,0.4-0.1v0.1c0.5-0.1,1.5-0.4,2.1-0.3c0.9,0.4-0.8,0.5-1.6,1.2C115.7,101.5,116.5,103.5,116.8,106.2z"/>
		
			<radialGradient id="SVGID_00000092431692154990173670000018338999705452332717_" cx="119.3155" cy="123.3795" r="95.6509" gradientTransform="matrix(0.9253 0 0 0.9253 9.164 -3.3514)" gradientUnits="userSpaceOnUse">
			<stop  offset="9.340660e-02" style="stop-color:#1C9CD9"/>
			<stop  offset="0.2172" style="stop-color:#1999D5"/>
			<stop  offset="0.3503" style="stop-color:#1490CB"/>
			<stop  offset="0.4879" style="stop-color:#1081BA"/>
			<stop  offset="0.6285" style="stop-color:#0F6CA4"/>
			<stop  offset="0.7699" style="stop-color:#13558A"/>
			<stop  offset="0.8791" style="stop-color:#144175"/>
			<stop  offset="1" style="stop-color:#1B2A48"/>
		</radialGradient>
		<path style="fill:url(#SVGID_00000092431692154990173670000018338999705452332717_);" d="M92.6,206.7L92.6,206.7L92.6,206.7
			L92.6,206.7z M105.8,105.5c3.6-0.3,8.1-0.2,11,0.7c-0.3-2.7-1.1-4.7-1.5-5.8c0.7-0.7,2.5-0.9,1.6-1.2c-0.6-0.1-1.6,0.1-2.1,0.3
			v-0.1c-0.1,0.1-0.3,0.1-0.4,0.1c-0.8,0.2-1.6,0.3-2.4,0.6c-0.4,0.1-0.8,0.2-1.2,0.3c-0.6,0.2-1.2,0.4-1.8,0.6
			c-0.3,0.1-0.5,0.2-0.8,0.3c-1.1,0.4-1.8,0.8-1.8,0.8h0c-1.5,0.7-2.8,1.5-3.8,2.2C102.7,104.2,102.6,105.7,105.8,105.5z
			 M174.9,47.7L174.9,47.7c0.1,0.1,0.2,0.1,0.2,0.2C175,47.9,175,47.8,174.9,47.7z M173.4,90.1c-0.1,0-0.1,0-0.2,0h0
			c-0.3,0-0.6,0.1-0.8,0.1c-0.7,0.8,1.3,0.2,1.7,1c-0.1,0.8-0.2,2,0.1,3.8c2-1.4,5.7-2.4,8.1-2.7l0,0c1-0.2,0.8-0.7,0.7-0.8
			c-1.1-0.5-2.7-1-4.3-1.2c0,0,0,0,0,0s-0.5-0.1-1.2-0.1c-0.2,0-0.3,0-0.5,0c-0.4,0-0.7,0-1.1,0c-0.3,0-0.5,0-0.8,0
			C174.5,90,174,90,173.4,90.1z M191,143.5c-1.6,0.1-2.9,0.3-3.8,0.4c-5.3,0.5-8.3-4.3-9-5.9c-0.7-1.5-0.7-5.5-1.1-6.6
			c-0.4-1.1-3-1.5-3.6-3c-0.6-1.5,6.7-6.2,6.7-6.2s-8.5,2-9.6,1.9c-1-0.1-2-1.2-1.6-3c0.8-1.9,0.8-3.7,0.1-5.8
			c-2.1-0.3-4.1-1.8-5.3-2.9c-1.3-1.1-2.2-3.1-0.1-5.3c2.1-2.2,4.4-6.2,5.8-9.5c1.4-3.3-0.2-7-0.5-8.7c0,0-1.8-0.3-3,0
			c-3.3-13.3-2.2-21.8,2.7-31.2c1.6-3.1,3.7-6.4,6.2-9.9C158.3,32.4,136.1,23,111.8,23C91.7,23,73.2,29.4,58,40.2
			c14.1-0.1,27.8,3.4,37.3,7.7c15.3,6.9,27.9,20,30.9,47.3c-1.6,0.2-5,2.2-5,2.2c0.3,2.3,0.2,7.6,3.5,11c3.3,3.5,8,7.4,11.7,9.1
			c3.7,1.8,3.5,4.7,2.4,6.6c-1.1,1.9-2.8,4.7-5.3,6.2c0,3,0.9,5.2,2.8,7.2c1.4,2.1,0.5,3.6-0.5,4.6c-0.4,0.3-1.3,0.6-2.5,0.9
			c-0.8,0.1-8.1,0.8-13.1-1.7c-2.4-1.4-1.2,0.6-0.8,1c0.5,0.5,4.1,3.1,9.8,3.8l0,0c0.8,0.3,1.6,0.5,2.4,0.7l0,0l0,0
			c1.5,0.7,2.5,1.4,2.5,2c0,2.1-3,3.9-3,5.4c0,1.6,1.9,6.5,1.7,8.8c-0.2,2.3-1.6,9.7-8.4,11.6c-4.9,1.4-18.4,4.4-28.8,9.9
			c0,0-5.6,5.4-3.2,22.1c6.2,1.3,12.6,2,19.2,2c41.9,0,77.3-27.8,88.8-65.9C197,142.9,193.6,143.2,191,143.5z"/>
	</g>
	<g>
		<path class="st3" d="M282.1,45.5c-1.3-0.4-8.2-1.8-16.8-1.8c-5.5,0-13.5,1.1-19.9,6.5c-6.8,5.8-10.3,15-10.3,27.4v16.2
			c0,12.3,3.5,21.4,10.3,27.2c6.9,5.8,15.4,6.7,19.9,6.7c8.6,0,15.5-1.4,16.8-1.8l0,0c1.2-0.4,2.5-1,2.5-2.8v-7.4
			c0-1.7-0.8-2.6-2.4-2.6l-0.2,0c-3,0.3-10.5,0.9-16.5,0.9c-10,0-15.1-6.8-15.1-20.3V77.7c0-13.7,4.9-20.3,15.1-20.3
			c6,0,13.5,0.6,16.5,0.9h0.2c1.6,0,2.4-0.9,2.4-2.6v-7.4C284.6,46.5,283.3,45.9,282.1,45.5z"/>
		<path class="st3" d="M325.4,43.7c-11.4,0-30.4,4.5-30.4,34.6v14.9c0,30.1,19.1,34.6,30.4,34.6c11.4,0,30.4-4.5,30.4-34.6V78.3
			C355.8,48.2,336.8,43.7,325.4,43.7z M340.5,93.2c0,14.2-4.8,20.7-15.1,20.7c-10.3,0-15.1-6.6-15.1-20.7V78.3
			c0-14.2,4.8-20.7,15.1-20.7c10.3,0,15.1,6.6,15.1,20.7V93.2z"/>
		<path class="st3" d="M428.8,44.6h-11.2c-1,0-2,0.9-2.3,2.1L400,112.8c-0.3,1.3-0.6,1.6-1.4,1.6c-0.9,0-1.1-0.3-1.4-1.6l-15.3-66.1
			c-0.3-1.2-1.2-2.1-2.3-2.1h-11.2c-1.2,0-2.2,0.9-2.2,2.1c0,0.2,0,0.3,0.1,0.4c0,0.1,0,0.1,0,0.2v0l17.4,69
			c1.9,7.7,6.8,11.4,15,11.4c8.2,0,13.1-3.7,15-11.4l17.4-69l0-0.1c0-0.1,0-0.1,0-0.2c0-0.1,0.1-0.2,0.1-0.4
			C431,45.5,430,44.6,428.8,44.6z"/>
		<path class="st3" d="M486,45.3c-0.4-0.1-0.8-0.1-1.2-0.2c-3.3-0.6-7.8-1.3-19-1.3c-12.2,0-24.7,2.7-24.7,22.8v38.4
			c0,20.1,12.5,22.8,24.7,22.8c11.2,0,15.7-0.8,19-1.3c0.4-0.1,0.8-0.1,1.2-0.2c1.7-0.2,2.3-0.9,2.3-2.6v-7c0-1.4-1.1-2.5-2.4-2.5
			h-21.6c-6.1,0-8.1-2.2-8.1-9.2V91h28.4c1.3,0,2.4-1.1,2.4-2.5v-7.9c0-1.4-1.1-2.5-2.4-2.5h-28.4V66.5c0-7,2-9.2,8.1-9.2H486
			c1.3,0,2.4-1.1,2.4-2.5v-7C488.4,46.2,487.8,45.5,486,45.3z"/>
		<path class="st3" d="M522.7,43.7c-7.7,0-17.8,0.8-20.9,1.3c-2.1,0.4-3,1.5-3,3.7v74c0,2.2,0.9,3.3,3,3.7
			c3.1,0.5,13.2,1.3,20.9,1.3c21.6,0,33.5-12.1,33.5-33.9V77.7C556.2,55.8,544.3,43.7,522.7,43.7z M541.1,93.8
			c0,14.2-5.7,20.5-18.4,20.5c-3.1,0-5.4-0.1-7.4-0.2c-0.4,0-0.9,0-1.3-0.1V57.5c0.4,0,0.9,0,1.3-0.1c1.9-0.1,4.3-0.2,7.3-0.2
			c12.7,0,18.4,6.3,18.4,20.5V93.8z"/>
	</g>
</g>
</svg>
