<?xml version="1.0" encoding="utf-8"?>
<!-- Generator: Adobe Illustrator 26.0.1, SVG Export Plug-In . SVG Version: 6.00 Build 0)  -->
<svg version="1.1" id="Logo-Amiens-Métropole" xmlns="http://www.w3.org/2000/svg" xmlns:xlink="http://www.w3.org/1999/xlink"
	 x="0px" y="0px" viewBox="0 0 79 82.3" style="enable-background:new 0 0 79 82.3;" xml:space="preserve">
<style type="text/css">
	.Voûte _x002D__x0020_Vert{fill:url(#SVGID_1_);stroke:#FFFFFF;stroke-width:0.25;stroke-miterlimit:1;}
	.st0{fill:#706F6F;}
	.st1{fill:#E30613;}
</style>
<linearGradient id="SVGID_1_" gradientUnits="userSpaceOnUse" x1="-55.1122" y1="234.5353" x2="-54.4051" y2="233.8282">
	<stop  offset="0" style="stop-color:#1DA238"/>
	<stop  offset="0.9831" style="stop-color:#24391D"/>
</linearGradient>
<g>
	<g>
		<path class="st0" d="M56.1,31.5c0.4,0,0.8,0,1.2,0c-0.9,2.4-3.1,5.5-3.1,5.5c3.6,1.1,5.8,3.6,6.5,5h-1.2c-0.8-1.5-3-3.9-6.5-5
			C53.1,37,55.2,33.9,56.1,31.5z"/>
		<path class="st0" d="M48.5,32.7c1.1-3.9,3.8-7.1,3.8-7.1c-0.4,0.2-0.8,0.4-1.6,0.5c-0.8,1.1-2.7,3.8-3.5,7
			C47.1,33.1,47.6,32.9,48.5,32.7z"/>
		<path class="st0" d="M45.4,54.2c0.3,0.3,0.6,0.6,0.8,0.8c0,0,4.6-8.7,9.7-13h-1.2C50.6,45.5,46.7,52,45.4,54.2z"/>
		<path class="st0" d="M34.7,39c0.8-1.7,2.2-4.2,4.2-5.7c0,0-2.5-4.8-2.7-8.3c0,0-0.4,0.4-1.1,1c0.5,3.4,2.6,7.3,2.6,7.3
			c-3.3,2.5-4.9,7.6-4.9,7.6C33.3,40.2,34,39.6,34.7,39z"/>
		<path class="st0" d="M29,36.1c0.5,1.4,1.1,3.1,2,4.8c0,0-2-1.5-3.1-4.7C28.5,36.2,28.8,36.1,29,36.1z"/>
	</g>
	<g>
		<g>
			<polygon class="st0" points="37.2,43.8 37.1,42.6 35.9,42.6 35.9,43.8 			"/>
			<path class="st0" d="M40.3,54.1c-2.2-2-6.1-6.2-6.7-10.3h1.2c0.6,4.1,4.4,8.3,6.7,10.3H40.3z"/>
		</g>
		<g>
			<path class="st0" d="M28.8,54.1c0.2-3.8,0.9-7.4,2.2-10.3h-0.2c-2.3,3.5-3.4,8.5-3.7,10.3H28.8z"/>
		</g>
		<g>
			<path class="st0" d="M35.5,54.1c-1.6-3.2-2.9-7.4-3.2-10.3h-0.2c0.1,2.9,0.5,6.3,1.8,10.3H35.5z"/>
		</g>
	</g>
</g>
<g>
	<path class="st1" d="M53.1,37c0,0,2.2-3.1,3.1-5.5c-4.1-0.1-9,1.6-9,1.6c1-4.1,3.9-7.5,3.9-7.5c-0.5,0.2-1,0.6-2.2,0.5
		c0,0-2,2.5-3.1,6.6c0,0-4.7-1.7-8-1.6c0,0,0.9,2.2,2.6,5.1c0,0-5.4,1.5-7.7,4.7c0,0,1.6-5.1,4.9-7.6c0,0-2.5-4.8-2.7-8.4
		c0,0-3.9,3.4-6.8,8.5c0,0,0.9,3.7,2.8,7.5c0,0-2-1.5-3.1-4.7c0,0-7,0.6-9.8,5.7h19.5c0.1,6.4,5.9,11.3,7.5,13c0,0,4.6-8.7,9.7-13
		h4.8C58.8,40.5,56.6,38.1,53.1,37z M46.1,37c0,0-2,7.1-1.6,15.2c0,0-1.7-5.3,0.1-14.7c0,0-2.2,1.9-5.9,2.4c0,0,4.5-1.1,7.6-6
		c1.6,5.6,8.6,6.3,8.6,6.3S48.8,40.6,46.1,37z"/>
	<g>
		<path class="st1" d="M35.5,54.1c-1.6-3.2-2.9-7.4-3.2-10.3h-0.2c0.1,2.9,0.5,6.3,1.8,10.3h-5.2c0.2-3.8,0.9-7.4,2.2-10.3h-0.2
			c-2.3,3.5-3.4,8.5-3.7,10.3h-4c0.2-1.1,2-7,6.4-10.3h-2.2v-1.2h8.6v1.2h-2.2c0.6,4.1,4.4,8.3,6.7,10.3H35.5z"/>
	</g>
</g>
<path d="M19.3,12.4C19.3,12.4,19.3,12.3,19.3,12.4c0.1-0.1,0.1-0.1,0.1-0.1l1.9,1.5c0.1,0.1,0.2,0.1,0.2,0.2c0,0.1-0.7,0.6-0.8,0.6
	c-0.1,0.1-0.9,0.6-0.9,0.5c0-0.1,0-0.2-0.1-0.3L19.3,12.4z M24.3,16.3c0.1,0.1,0.2,0.2,0.3,0.3c0.1,0.2,0,0.5-0.1,0.5
	c-0.4,0.4-0.6,0.6-0.5,0.7c0,0,0.1,0.1,0.3,0c0.5-0.3,0.9-0.6,1.3-0.9c0.5-0.3,0.9-0.5,1.4-0.9c0.1-0.1,0.2-0.2,0.1-0.3
	c-0.1-0.2-0.3,0-0.7,0.1c-0.2,0.1-0.5,0.1-1.2-0.5l-6.4-4.9c0,0-0.1,0-0.2,0c0,0-0.1,0.1-0.1,0.2l1.5,9c0,0.2,0,0.3-0.2,0.5
	c-0.2,0.3-0.6,0.5-0.5,0.6c0.1,0.1,0.1,0.1,0.2,0c0.4-0.3,0.8-0.6,1.3-0.9c0.3-0.2,0.8-0.4,1.1-0.6c0.1-0.1,0.3-0.2,0.2-0.3
	c-0.1-0.1-0.3,0-0.8,0.2c-0.1,0-0.4,0.1-0.6-0.1c-0.1-0.1-0.6-2.2-0.7-2.9c0-0.1,0.1-0.3,1-0.8c1-0.6,1-0.7,1.3-0.4L24.3,16.3z"/>
<path d="M31.4,12.6c0.1,0.1,0.1,0.1,0.1,0.1c0,0,0.1-0.1,0.1-0.1l0.8-4.3c0.1-0.3,0.2-0.5,0.4-0.6c0.4-0.1,0.9-0.2,1.4-0.3
	c0.2,0,0.3,0,0.3,0.1c0,0.1-0.2,0.2-0.6,0.3c-0.3,0.1-0.5,0.2-0.3,0.6l1.3,4.6c0.1,0.2,0.2,0.2,0.5,0.2c0.3,0,0.7-0.2,0.8,0
	c0.1,0.2-0.1,0.1-0.4,0.2c-0.4,0.1-0.6,0.1-1.2,0.2C34,13.9,33.6,14,33.3,14C33.1,14.1,33,14.1,33,14c0-0.2,0.2-0.2,0.5-0.3
	c0.3-0.1,0.4-0.1,0.3-0.4l-1.1-3.7c0-0.1-0.1-0.3-0.1-0.2c0,0,0,0.1-0.1,0.2l-0.9,4.7c0,0.1,0,0.2-0.1,0.2c-0.1,0-0.1,0-0.2-0.1
	l-3.3-3.5c-0.2-0.2-0.3-0.3-0.3-0.3c-0.1,0,0,0.2,0,0.4l1,3.5c0.1,0.3,0.3,0.3,0.6,0.2c0.3-0.1,0.6-0.1,0.6,0c0,0.1,0.1,0.2-0.1,0.2
	c-0.3,0.1-0.7,0.2-1.2,0.4c-0.6,0.2-0.9,0.4-1.2,0.4c-0.1,0-0.2,0-0.2-0.1c-0.1-0.2,0.2-0.2,0.5-0.4c0.3-0.1,0.5-0.3,0.4-0.7
	l-0.7-3.3c-0.2-0.7-0.2-1-0.3-1.3c-0.1-0.3-0.3-0.3-0.7-0.2c-0.4,0.1-0.4,0-0.5-0.1c0-0.1,0-0.2,0.2-0.2c0.2-0.1,0.6-0.1,1.6-0.3
	c0.1,0,0.2,0,0.2,0.1L31.4,12.6z"/>
<path d="M38.5,12.6c0,0.4,0.2,0.5,0.5,0.5c0.4,0,0.5,0.1,0.5,0.2c0,0.1-0.1,0.1-0.3,0.1c-0.3,0-0.8-0.1-1.2-0.1c-0.5,0-0.9,0-1.4,0
	c-0.1,0-0.2-0.1-0.2-0.2c0-0.1,0.1-0.2,0.5-0.2c0.3,0,0.6-0.1,0.6-0.5l0.1-4.7c0-0.4-0.1-0.5-0.4-0.5c-0.3,0-0.5-0.1-0.5-0.2
	C36.6,7,36.7,7,36.8,7C37.1,7,37.5,7,38,7c0.6,0,1,0,1.3,0c0.1,0,0.2,0.1,0.2,0.2c0,0.1-0.1,0.2-0.5,0.2c-0.4,0-0.5,0.1-0.5,0.5
	L38.5,12.6z"/>
<path d="M42.5,10c0,0.1,0.1,0.2,0.4,0.3l1.1,0.2c0.4,0.1,0.6,0.1,0.9-0.1c0.3-0.1,0.4-0.6,0.5-0.6c0.1,0,0.1,0.1,0.1,0.2
	c0,0.1-0.1,0.3-0.2,0.8c-0.1,0.5-0.1,0.9-0.1,1.1c0,0.1-0.1,0.1-0.2,0.1c-0.1,0,0-0.3-0.2-0.8c-0.1-0.2-0.5-0.4-0.9-0.5l-1.1-0.2
	c-0.3,0-0.4,0-0.4,0.2l-0.3,2.1c0,0.3,0.2,0.6,1.5,0.7c0.8,0.1,1.4,0,1.6-0.3c0.4-0.4,0.5-0.8,0.6-0.8c0.1,0,0.1,0.1,0.1,0.2
	c0,0.1-0.2,0.8-0.4,1.1c-0.1,0.3-0.1,0.4-0.3,0.4c-0.3,0-1.3-0.2-2.7-0.4c-1.2-0.2-2.2-0.3-2.6-0.3c-0.2,0-0.3-0.1-0.2-0.2
	c0-0.2,0.3-0.1,0.6-0.1c0.4,0,0.6-0.1,0.7-0.5l0.6-4.3c0.1-0.7,0-0.8-0.3-0.9c-0.3-0.1-0.4-0.1-0.4-0.2c0-0.1,0.1-0.2,0.2-0.1
	c0.4,0.1,1,0.2,2.2,0.4c1.2,0.2,2.1,0.2,2.7,0.3c0.3,0,0.4,0.1,0.3,0.3l-0.1,1c0,0.1-0.1,0.2-0.1,0.2c-0.2,0-0.1-0.5-0.4-0.8
	c-0.3-0.4-0.8-0.6-1.8-0.7c-1.1-0.2-1.1,0-1.2,0.2L42.5,10z"/>
<path d="M52.5,15.3c0,0.1,0,0.1,0.1,0.1c0,0,0.1,0,0.1-0.1l1.4-3.4c0.2-0.4,0.1-0.5-0.2-0.7c-0.4-0.3-0.6-0.3-0.6-0.5
	c0-0.1,0.1-0.1,0.3,0c0.2,0.1,0.6,0.3,1,0.5c0.5,0.2,0.7,0.2,0.9,0.3c0.2,0.1,0.2,0.1,0.2,0.2c-0.1,0.1-0.3,0.1-0.5,0
	c-0.3-0.1-0.6,0-0.8,0.4l-1.9,4.5c-0.2,0.4-0.2,0.5-0.2,0.6c0,0.1-0.1,0.1-0.1,0.1c-0.1,0-0.1-0.1-0.2-0.2l-2.5-6.6
	c0-0.1,0-0.1-0.1-0.1c0,0-0.2,0.2-0.3,0.4l-1.1,2.5c-0.6,1.4-0.5,1.5,0,1.8c0.3,0.2,0.6,0.3,0.5,0.5c-0.1,0.1-0.1,0.1-0.3,0.1
	c-0.3-0.1-0.6-0.3-1.1-0.5c-0.6-0.2-0.9-0.3-1.1-0.4c-0.1,0-0.2-0.1-0.1-0.2c0.1-0.3,0.8,0.2,1,0c0.2-0.1,0.5-0.7,0.8-1.3L49,10
	c0.2-0.6,0-0.8-0.4-1c-0.3-0.2-0.4-0.2-0.3-0.3c0-0.1,0.1-0.1,0.3-0.1c0.2,0.1,0.7,0.4,1.2,0.6c0.3,0.1,0.4,0.2,0.5,0.4L52.5,15.3z"
	/>
<path d="M54,16.3c0.2-0.2,0.3-0.2,0.4-0.2c0.3,0.2-1.2,1.5,0.5,2.7c0.8,0.6,1.5,0.5,1.8,0c0.9-1.2-2-3.1-0.6-5
	c0.7-0.9,1.8-0.8,2.8,0c0.8,0.6,1.1,1.3,1,1.4c-0.1,0.2-0.4,0.7-0.5,0.9c-0.1,0.1-0.2,0.2-0.3,0.1c-0.1-0.1,0-0.2,0.1-0.7
	c0-0.4,0-1-0.7-1.5c-0.6-0.4-1.1-0.4-1.5,0.1c-0.9,1.2,2.1,3.2,0.8,4.9c-0.7,1-2,1-3.1,0.2c-1.1-0.8-1.6-1.6-1.3-2L54,16.3z"/>
<path d="M13,54.5c0.1-0.2,1.7-2.5,1.6-2.5c-0.1-0.1-1.2,0.6-1.9,1l-3.4,2c-0.2,0.1-0.1,0.6,0,1c0.2,0.5,0.3,0.7,0.2,0.8
	c-0.1,0.1-0.3-0.1-0.4-0.3c-0.2-0.4-0.5-0.9-0.8-1.4c-0.3-0.4-0.6-0.9-0.9-1.3c-0.1-0.1-0.1-0.3,0-0.3c0.2-0.1,0.3,0,0.5,0.3
	c0.3,0.5,0.7,0.6,0.9,0.5l5.6-2.8c0.1-0.1,0.2-0.1,0.6-0.3c0.3-0.2,0.2-0.3,0-1.1c-0.1-0.4-0.2-0.6-0.1-0.7c0.1-0.1,0.2-0.1,0.3,0.2
	c0.2,0.3,0.3,0.6,0.5,0.9c0.2,0.3,0.4,0.6,0.6,1c0.1,0.1,0.1,0.2,0,0.3l-3.9,5.6c0,0,0,0.1,0,0.1c0,0,0.1,0.1,0.1,0l6.3-0.8
	c0.2,0,0.6-0.1,0.7,0.1c0.1,0.1,0.5,0.8,0.6,1c0.2,0.3,0.4,0.7,0.6,1c0,0.1,0,0.2-0.1,0.2c-0.3,0.2-0.4-0.2-0.6-0.4
	c-0.5-0.6-0.7-0.8-1.5-0.3l-5.1,3.1c-0.5,0.3-0.5,0.5-0.2,1.4c0.1,0.2,0.2,0.5,0,0.6c-0.2,0.1-0.3-0.1-0.5-0.5
	c-0.3-0.5-0.4-0.8-0.6-1.1c-0.4-0.6-0.8-1.2-1-1.6c-0.1-0.1-0.2-0.3,0-0.4c0.1-0.1,0.3,0.2,0.5,0.3c0.5,0.5,0.5,0.6,0.9,0.4l4.5-2.7
	c0.2-0.1,0.3-0.2,0.3-0.3c0,0-0.1-0.1-0.1-0.1l-6.6,0.9c-0.1,0-0.1,0-0.2-0.1c-0.1-0.2,0.4-0.8,0.5-1L13,54.5z"/>
<path d="M25,60.6c0.2,0,0.4-0.1,0.6,0.1c0.2,0.2,0.2,0.5,0.1,0.7c-0.1,0.2-0.3,0.2-0.5,0.2l-2.8-0.3L22,60.9L25,60.6z M19.7,63.7
	c-0.1,0.1-0.1,0.2,0.2,0.4l0.8,0.7c0.3,0.3,0.5,0.4,0.8,0.4c0.3,0,0.6-0.3,0.7-0.2c0.1,0.1,0.1,0.1,0,0.3c-0.1,0.1-0.3,0.2-0.6,0.6
	c-0.3,0.4-0.6,0.7-0.7,0.8c-0.1,0.1-0.1,0.1-0.2,0c-0.1-0.1,0.2-0.3,0.2-0.8c0-0.3-0.2-0.6-0.5-0.9l-0.9-0.7c-0.2-0.2-0.3-0.2-0.5,0
	l-1.3,1.6c-0.2,0.3-0.1,0.6,0.9,1.4c0.6,0.5,1.2,0.7,1.6,0.6c0.5-0.1,0.8-0.4,0.9-0.3c0.1,0.1,0.1,0.1,0,0.2
	c-0.1,0.1-0.6,0.5-0.9,0.8c-0.2,0.2-0.3,0.3-0.4,0.2c-0.3-0.2-1-0.9-2.1-1.8c-1-0.8-1.8-1.4-2.1-1.6c-0.1-0.1-0.2-0.2-0.1-0.3
	c0.1-0.2,0.3,0,0.6,0.2c0.3,0.2,0.5,0.3,0.8-0.1l2.7-3.4c0.4-0.5,0.4-0.7,0.2-0.9c-0.2-0.2-0.3-0.3-0.2-0.4c0.1-0.1,0.1-0.1,0.3,0
	c0.3,0.3,0.7,0.7,1.7,1.5c1,0.8,1.7,1.3,2.2,1.7c0.3,0.2,0.3,0.3,0.1,0.4l-0.7,0.8c-0.1,0.1-0.2,0.1-0.2,0.1
	c-0.2-0.1,0.2-0.4,0.1-0.9c-0.1-0.5-0.4-0.9-1.2-1.6c-0.8-0.7-1-0.6-1.1-0.4L19.7,63.7z"/>
<path d="M26.2,71c-0.2,0.4,0,0.7,0.3,0.8c0.3,0.2,0.6,0.3,0.5,0.5c-0.1,0.1-0.2,0.1-0.3,0c-0.5-0.2-0.9-0.5-1.4-0.7
	c-0.5-0.2-1-0.4-1.4-0.6c-0.1,0-0.2-0.1-0.1-0.2c0.1-0.2,0.4,0,0.6,0c0.3,0.1,0.6,0.1,0.8-0.3l1.6-3.6c0.4-0.9,0.3-1-0.2-1.2
	c-1.6-0.7-2,0.3-2.4,0.2c-0.1-0.1-0.1-0.1-0.1-0.2c0-0.1,0.2-0.2,0.8-0.8c0.5-0.6,0.6-0.6,0.7-0.6c0.1,0.1,0.1,0.6,0.4,0.8l3.4,1.5
	c0.3,0.1,0.7,0.3,1,0.3c0.2,0,0.3-0.2,0.4-0.1c0.1,0.1,0,0.2-0.3,0.9c-0.3,0.7-0.5,0.8-0.6,0.8c-0.1-0.1,0-0.2-0.1-0.6
	c0-0.3-0.2-0.6-1-1c-0.7-0.3-0.8-0.3-1.2,0.6L26.2,71z"/>
<path d="M35.5,69.6c-0.1,0.8-0.7,1.2-1.7,1c-0.6-0.1-0.7-0.2-0.7-0.4l0.3-2.1c0-0.2,0.1-0.2,0.7-0.2C35.1,68.2,35.6,68.7,35.5,69.6z
	 M36.5,69.6c0.1-0.9-0.4-1.6-1.7-1.8c-0.4-0.1-1-0.1-1.6-0.2c-0.6-0.1-1-0.2-1.3-0.3c-0.2,0-0.3,0-0.3,0.1c0,0.1,0.2,0.1,0.4,0.2
	c0.3,0.1,0.4,0.1,0.3,0.4L31.6,73c-0.1,0.3-0.3,0.4-0.6,0.4c-0.3,0-0.5,0-0.6,0.2c0,0.1,0.1,0.2,0.2,0.2c0.4,0.1,0.7,0.1,1.4,0.2
	c0.6,0.1,0.9,0.2,1.2,0.3c0.2,0,0.3,0,0.3-0.1c0-0.1-0.1-0.2-0.6-0.3c-0.3-0.1-0.4-0.2-0.4-0.5l0.3-2c0-0.3,0.2-0.4,0.5-0.4
	c0.3,0.1,0.6,0.3,0.7,0.6l1,2.7c0.1,0.2,0.1,0.3,0.2,0.3c0.3,0,1,0.1,1.3,0.1c0.1,0,0.2,0,0.2-0.1c0-0.1-0.1-0.2-0.2-0.2
	c-0.3-0.1-0.5-0.2-0.7-0.7l-0.8-2.1c-0.1-0.2-0.2-0.3-0.1-0.4C35.1,70.8,36.3,71.1,36.5,69.6z"/>
<path d="M39.9,71.4c-0.2-2,0.7-3.1,2-3.3c1.3-0.2,2.4,0.8,2.7,2.7c0.2,1.9-0.4,3.1-2,3.3C41.1,74.3,40.2,73.3,39.9,71.4z M38.7,71.6
	c0.2,1.9,1.9,3.2,4,3c2.1-0.2,3.4-1.9,3.2-3.8c-0.2-2-1.9-3.2-3.9-3C39.8,68,38.4,69.6,38.7,71.6z"/>
<path d="M48.3,67.2c-0.1-0.3,0-0.5,0.5-0.7c1-0.4,1.9-0.2,2.3,0.7c0.4,1-0.1,1.8-0.9,2.2c-0.6,0.2-0.8,0.2-0.9,0L48.3,67.2z
	 M49.1,72.2c0.1,0.3-0.1,0.4-0.3,0.6c-0.2,0.1-0.5,0.2-0.4,0.4c0,0.1,0.1,0.1,0.3,0.1c0.3-0.1,0.7-0.4,1.2-0.5
	c0.5-0.2,0.8-0.3,1.2-0.4c0.2-0.1,0.2-0.1,0.1-0.2c0-0.1-0.1-0.1-0.6,0c-0.3,0.1-0.4,0-0.6-0.3l-0.7-1.8c0.4,0,0.7,0,1.5-0.4
	c1-0.4,1.6-1.5,1.1-2.7c-0.5-1.2-1.6-1.2-2.6-0.8c-0.8,0.3-1.2,0.5-1.8,0.8c-0.5,0.2-1,0.3-1.2,0.4c-0.2,0.1-0.2,0.2-0.2,0.3
	c0,0.1,0.1,0.1,0.2,0.1c0.6-0.2,0.8-0.2,1,0.2L49.1,72.2z"/>
<path d="M54.7,66.8c-1.2-1.6-1-3.1,0.1-3.9c1-0.8,2.5-0.6,3.7,1c1.2,1.6,1.2,2.9-0.1,3.9C57.1,68.8,55.8,68.4,54.7,66.8z M53.7,67.6
	c1.2,1.6,3.3,1.8,4.9,0.6c1.7-1.3,2-3.4,0.8-4.9c-1.2-1.6-3.3-1.8-4.9-0.6C52.8,64,52.5,66,53.7,67.6z"/>
<path d="M66.2,59.7c0.1,0.1,0.1,0.2-0.1,0.3c-0.5,0.7-1.1,1.3-1.9,2.4c-0.7,0.8-1.1,1.5-1.2,1.7c-0.1,0.1-0.1,0.1-0.2,0
	c-0.1-0.1,0.1-0.4,0.3-0.7c0.1-0.2,0.2-0.5-0.2-0.7l-3.7-2.9c-0.3-0.2-0.4-0.1-0.9,0.4c-0.1,0.1-0.2,0.1-0.2,0
	c-0.1-0.1-0.1-0.1,0.1-0.4c0.2-0.3,0.6-0.6,0.9-1c0.4-0.6,0.7-1,0.8-1.1c0.1-0.1,0.2-0.1,0.2-0.1c0.1,0.1,0,0.3-0.1,0.5
	c-0.2,0.3-0.3,0.6,0,0.8l3.9,3.1c0.2,0.1,0.3,0.2,1-0.7c1.2-1.5,0.4-2.4,0.5-2.6c0.1-0.1,0.1-0.1,0.2,0c0.1,0,0.1,0.1,0.2,0.2
	L66.2,59.7z"/>
<path d="M65,54.3c0.1,0.1,0.3,0,0.4-0.3l0.4-1c0.2-0.4,0.3-0.6,0.2-0.9c-0.1-0.3-0.4-0.5-0.4-0.6c0-0.1,0.1-0.1,0.3,0
	c0.1,0.1,0.3,0.2,0.8,0.4c0.5,0.2,0.8,0.4,1,0.4c0.1,0,0.1,0.1,0.1,0.2c-0.1,0.1-0.3-0.1-0.8,0c-0.3,0-0.6,0.4-0.7,0.7l-0.5,1
	c-0.1,0.2-0.1,0.4,0.1,0.5l1.9,0.9c0.3,0.1,0.6,0,1.1-1.2c0.3-0.8,0.4-1.3,0.2-1.7c-0.3-0.5-0.6-0.7-0.6-0.8c0-0.1,0.1-0.1,0.2-0.1
	c0.1,0,0.7,0.4,1,0.6c0.2,0.2,0.4,0.2,0.3,0.4c-0.1,0.3-0.6,1.2-1.2,2.5c-0.5,1.1-0.8,2.1-1,2.4c-0.1,0.2-0.1,0.2-0.2,0.2
	c-0.2-0.1-0.1-0.3,0-0.6c0.1-0.3,0.1-0.6-0.3-0.8l-3.9-1.8c-0.6-0.3-0.8-0.2-0.9,0.1c-0.1,0.3-0.3,0.4-0.3,0.4
	c-0.1,0-0.1-0.1-0.1-0.3c0.2-0.4,0.5-0.9,1-2c0.5-1.1,0.8-1.9,1.1-2.5c0.1-0.3,0.2-0.3,0.4-0.2l1,0.4c0.1,0.1,0.2,0.1,0.2,0.2
	c-0.1,0.2-0.5-0.1-0.9,0.1c-0.4,0.2-0.8,0.6-1.2,1.5c-0.4,1-0.3,1.1-0.1,1.2L65,54.3z"/>
<path class="st1" d="M10.2,35.9c0,0.6-0.5,1.1-1.1,1.1c-0.6,0-1.1-0.5-1.1-1.1c0-0.6,0.5-1.1,1.1-1.1C9.7,34.8,10.2,35.3,10.2,35.9z
	"/>
<path class="st1" d="M69.7,35.9c0,0.6-0.5,1.1-1.1,1.1c-0.6,0-1.1-0.5-1.1-1.1c0-0.6,0.5-1.1,1.1-1.1C69.2,34.8,69.7,35.3,69.7,35.9
	z"/>
</svg>
